<?xml version="1.0" encoding="UTF-8"?>
<svg id="Calque_2" data-name="Calque 2" xmlns="http://www.w3.org/2000/svg" viewBox="0 0 263 92">
  <defs>
    <style>
      .cls-1 {
        fill: none;
        stroke: #0a022d;
        stroke-width: 2px;
      }

      .cls-2 {
        fill: #343332;
      }

      .cls-3 {
        fill: #210793;
      }
    </style>
  </defs>
  <g id="Calque_1-2" data-name="Calque 1">
    <g>
      <g>
        <path class="cls-2" d="M1,63.31v27.69h74.21l6.77-7.33h99.89l5.93,7.33h74.21v-27.69l-14.67-41.95H16.24L1,63.31Z"/>
        <path class="cls-1" d="M1,63.31v27.69h74.21l6.77-7.33h99.89l5.93,7.33h74.21v-27.69l-14.67-41.95H16.24L1,63.31Z"/>
      </g>
      <g>
        <path class="cls-3" d="M1,42.95v27.69h74.21l6.77-7.33h99.89l5.93,7.33h74.21v-27.69L247.33,1H16.24L1,42.95Z"/>
        <path class="cls-1" d="M1,42.95v27.69h74.21l6.77-7.33h99.89l5.93,7.33h74.21v-27.69L247.33,1H16.24L1,42.95Z"/>
      </g>
    </g>
  </g>
</svg>