<svg width="271" height="80" viewBox="0 0 271 80" fill="none" xmlns="http://www.w3.org/2000/svg">
<g filter="url(#filter0_dii_20_154)">
<path d="M5 42.9486V70.6429H79.2086L85.9805 63.312H185.866L191.791 70.6429H266V42.9486L251.328 1H20.2368L5 42.9486Z" fill="#4793B4"/>
<path d="M5 42.9486V70.6429H79.2086L85.9805 63.312H185.866L191.791 70.6429H266V42.9486L251.328 1H20.2368L5 42.9486Z" stroke="#021F2D" stroke-width="2"/>
</g>
<path d="M82.808 25.488V22.5V25.488ZM57.392 25.488V28.944C57.788 28.656 58.22 28.422 58.706 28.206C59.588 27.846 60.506 27.648 61.46 27.648H71.846V30.636H61.46C60.632 30.636 59.876 30.87 59.21 31.302C58.544 31.734 58.058 32.31 57.752 33.012H82.808V36H53V22.5H82.808V25.488H57.392ZM82.808 25.488V22.5V25.488ZM106.298 36C105.416 36 104.588 35.856 103.814 35.532C103.04 35.226 102.356 34.794 101.744 34.236C101.708 34.2 101.672 34.164 101.636 34.128C101.6 34.092 101.582 34.056 101.546 34.02C100.934 33.408 100.448 32.706 100.088 31.878C99.728 31.068 99.566 30.186 99.566 29.25C99.566 28.746 99.458 28.26 99.26 27.792C99.062 27.324 98.792 26.928 98.45 26.586C98.108 26.262 97.712 25.992 97.244 25.794C96.776 25.596 96.29 25.488 95.786 25.488H91.124V36H86.75V22.5H97.19C98.072 22.5 98.9 22.662 99.674 22.968C100.43 23.292 101.132 23.724 101.744 24.282C102.428 24.894 102.95 25.632 103.346 26.496C103.742 27.36 103.94 28.278 103.94 29.25C103.94 29.79 104.03 30.276 104.228 30.726C104.426 31.194 104.696 31.59 105.038 31.932C105.362 32.274 105.758 32.544 106.226 32.742C106.676 32.94 107.162 33.03 107.702 33.03H112.166V22.5H116.54V36H106.298ZM147.291 25.488H135.393C135.969 26.208 136.437 27.018 136.761 27.882C137.085 28.764 137.265 29.7 137.265 30.672V36H132.873V30.438C132.873 29.754 132.729 29.124 132.477 28.512C132.225 27.918 131.865 27.396 131.433 26.946C130.983 26.496 130.461 26.136 129.867 25.884C129.255 25.632 128.625 25.488 127.941 25.488H120.201V22.518H147.291V25.488ZM181.052 25.488V22.5V25.488ZM155.636 25.488V28.944C156.032 28.656 156.464 28.422 156.95 28.206C157.832 27.846 158.75 27.648 159.704 27.648H170.09V30.636H159.704C158.876 30.636 158.12 30.87 157.454 31.302C156.788 31.734 156.302 32.31 155.996 33.012H181.052V36H151.244V22.5H181.052V25.488H155.636ZM181.052 25.488V22.5V25.488ZM207.751 32.796V32.778L207.769 32.796H207.751ZM203.197 30.834C203.503 31.482 203.953 32.022 204.565 32.418C205.177 32.814 205.861 33.012 206.617 33.012H215.509V36H205.213C204.313 36 203.485 35.856 202.711 35.532C201.919 35.226 201.235 34.794 200.623 34.218C200.587 34.182 200.551 34.146 200.515 34.11C200.479 34.074 200.461 34.038 200.425 34.002C199.993 33.57 199.615 33.102 199.309 32.562C198.985 32.022 198.769 31.446 198.625 30.834H193.693C193.189 30.87 192.703 30.978 192.271 31.176C191.821 31.374 191.425 31.644 191.083 31.986C190.759 32.31 190.489 32.67 190.309 33.066C190.129 33.462 190.003 33.894 189.967 34.326V34.344V36H189.949H185.557V22.5H211.351C211.927 22.5 212.467 22.626 212.971 22.842C213.475 23.058 213.907 23.364 214.285 23.742C214.663 24.12 214.969 24.552 215.185 25.056C215.401 25.56 215.527 26.1 215.527 26.676C215.527 27.252 215.401 27.792 215.185 28.296C214.969 28.8 214.663 29.25 214.285 29.628C213.907 30.006 213.475 30.294 212.971 30.51C212.467 30.726 211.927 30.834 211.351 30.834H203.197ZM209.947 27.846C210.271 27.846 210.541 27.738 210.775 27.504C210.865 27.396 210.937 27.288 211.009 27.144C211.081 27 211.117 26.856 211.117 26.676C211.117 26.352 210.991 26.082 210.775 25.848C210.541 25.614 210.271 25.488 209.947 25.488H189.967V29.016C190.147 28.89 190.327 28.782 190.525 28.674C190.705 28.584 190.903 28.494 191.119 28.386C191.785 28.116 192.451 27.936 193.117 27.864H193.441C193.513 27.864 193.603 27.864 193.675 27.864C193.747 27.864 193.783 27.846 193.819 27.846H209.947Z" fill="white"/>
<defs>
<filter id="filter0_dii_20_154" x="0" y="-4" width="271" height="83.6428" filterUnits="userSpaceOnUse" color-interpolation-filters="sRGB">
<feFlood flood-opacity="0" result="BackgroundImageFix"/>
<feColorMatrix in="SourceAlpha" type="matrix" values="0 0 0 0 0 0 0 0 0 0 0 0 0 0 0 0 0 0 127 0" result="hardAlpha"/>
<feOffset dy="4"/>
<feGaussianBlur stdDeviation="2"/>
<feComposite in2="hardAlpha" operator="out"/>
<feColorMatrix type="matrix" values="0 0 0 0 0 0 0 0 0 0 0 0 0 0 0 0 0 0 0.6 0"/>
<feBlend mode="normal" in2="BackgroundImageFix" result="effect1_dropShadow_20_154"/>
<feBlend mode="normal" in="SourceGraphic" in2="effect1_dropShadow_20_154" result="shape"/>
<feColorMatrix in="SourceAlpha" type="matrix" values="0 0 0 0 0 0 0 0 0 0 0 0 0 0 0 0 0 0 127 0" result="hardAlpha"/>
<feOffset dx="4" dy="4"/>
<feGaussianBlur stdDeviation="9"/>
<feComposite in2="hardAlpha" operator="arithmetic" k2="-1" k3="1"/>
<feColorMatrix type="matrix" values="0 0 0 0 0 0 0 0 0 0 0 0 0 0 0 0 0 0 0.6 0"/>
<feBlend mode="normal" in2="shape" result="effect2_innerShadow_20_154"/>
<feColorMatrix in="SourceAlpha" type="matrix" values="0 0 0 0 0 0 0 0 0 0 0 0 0 0 0 0 0 0 127 0" result="hardAlpha"/>
<feOffset dx="-4" dy="-4"/>
<feGaussianBlur stdDeviation="11"/>
<feComposite in2="hardAlpha" operator="arithmetic" k2="-1" k3="1"/>
<feColorMatrix type="matrix" values="0 0 0 0 0 0 0 0 0 0 0 0 0 0 0 0 0 0 0.6 0"/>
<feBlend mode="normal" in2="effect2_innerShadow_20_154" result="effect3_innerShadow_20_154"/>
</filter>
</defs>
</svg>
