<svg width="151" height="150" viewBox="0 0 151 150" fill="none" xmlns="http://www.w3.org/2000/svg">
<path d="M142.5 102.806V44.6892L104.387 7.5H47.835L8.74585 44.7003V102.795L47.8464 140.998H104.376L142.5 102.806Z" fill="url(#paint0_radial_125_85)" stroke="#4DADAC" stroke-width="3"/>
<g filter="url(#filter0_f_125_85)">
<path d="M120.609 93.2891V53.5157L94.2859 28.0752H55.1786L28.1768 53.5268V93.2781L55.1901 119.42H94.2743L120.609 93.2891Z" stroke="#4DADAC" stroke-width="3"/>
</g>
<path d="M122.109 52.8794L94.8922 26.5752H54.5831L26.6768 52.8794V93.9139L54.5831 120.92H94.8922L122.109 93.9139V52.8794Z" stroke="#4DADAC" stroke-width="3"/>
<g filter="url(#filter1_f_125_85)">
<path d="M53.2566 73.7473C53.2566 85.963 62.9586 95.8316 74.8849 95.8316C86.8112 95.8316 96.5133 85.963 96.5133 73.7473C96.5133 61.5316 86.8112 51.6631 74.8849 51.6631C62.9586 51.6631 53.2566 61.5316 53.2566 73.7473Z" stroke="#4DADAC" stroke-width="2"/>
</g>
<ellipse cx="22.6284" cy="23.0842" rx="22.6284" ry="23.0842" transform="matrix(-1 0 0 1 97.5133 50.6631)" stroke="#4DADAC" stroke-width="2"/>
<g filter="url(#filter2_f_125_85)">
<path d="M142.254 103.308V45.1912L104.141 8.00195H47.5891L8.5 45.2023V103.297L47.6006 141.5H104.13L142.254 103.308Z" stroke="#4DADAC" stroke-width="3"/>
</g>
<g filter="url(#filter3_d_125_85)">
<mask id="path-7-inside-1_125_85" fill="white">
<path fill-rule="evenodd" clip-rule="evenodd" d="M83.9999 8H64.323V24.9191L64.3231 24.9369C64.3274 25.4831 64.769 25.9247 65.3152 25.929L65.333 25.9291H67.9999V69.0001H27.9999V66C27.9999 65.4477 27.5522 65 26.9999 65H9.99988V85H26.9999C27.5522 85 27.9999 84.5523 27.9999 84V81.0001H76.9999V81H79.9999V25.9291H82.9899L83.0077 25.929C83.5539 25.9247 83.9956 25.4831 83.9998 24.9369L83.9999 24.9191V8Z"/>
</mask>
<path fill-rule="evenodd" clip-rule="evenodd" d="M83.9999 8H64.323V24.9191L64.3231 24.9369C64.3274 25.4831 64.769 25.9247 65.3152 25.929L65.333 25.9291H67.9999V69.0001H27.9999V66C27.9999 65.4477 27.5522 65 26.9999 65H9.99988V85H26.9999C27.5522 85 27.9999 84.5523 27.9999 84V81.0001H76.9999V81H79.9999V25.9291H82.9899L83.0077 25.929C83.5539 25.9247 83.9956 25.4831 83.9998 24.9369L83.9999 24.9191V8Z" fill="url(#paint1_radial_125_85)"/>
<path d="M64.323 8H63.823V7.5H64.323V8ZM83.9999 8V7.5H84.4999V8H83.9999ZM64.323 24.9191L63.823 24.9199V24.9191H64.323ZM64.3231 24.9369L63.8231 24.9409L63.8231 24.9378L64.3231 24.9369ZM65.3152 25.929L65.3143 26.429L65.3113 26.429L65.3152 25.929ZM65.333 25.9291V26.4291H65.3322L65.333 25.9291ZM67.9999 25.9291V25.4291H68.4999V25.9291H67.9999ZM67.9999 69.0001H68.4999V69.5001H67.9999V69.0001ZM27.9999 69.0001V69.5001H27.4999V69.0001H27.9999ZM9.99988 65H9.49988V64.5H9.99988V65ZM9.99988 85V85.5H9.49988V85H9.99988ZM27.9999 81.0001H27.4999V80.5001H27.9999V81.0001ZM76.9999 81.0001H77.4999V81.5001H76.9999V81.0001ZM76.9999 81H76.4999V80.5H76.9999V81ZM79.9999 81H80.4999V81.5H79.9999V81ZM79.9999 25.9291H79.4999V25.4291H79.9999V25.9291ZM82.9899 25.9291L82.9907 26.4291H82.9899V25.9291ZM83.0077 25.929L83.0117 26.429L83.0086 26.429L83.0077 25.929ZM83.9998 24.9369L84.4999 24.9378L84.4998 24.9409L83.9998 24.9369ZM83.9999 24.9191H84.4999L84.4999 24.9199L83.9999 24.9191ZM64.323 7.5H83.9999V8.5H64.323V7.5ZM63.823 24.9191V8H64.823V24.9191H63.823ZM63.8231 24.9378L63.823 24.9199L64.823 24.9182L64.8231 24.9361L63.8231 24.9378ZM65.3113 26.429C64.492 26.4226 63.8295 25.7601 63.8231 24.9409L64.8231 24.933C64.8252 25.2061 65.046 25.4269 65.3191 25.4291L65.3113 26.429ZM65.3322 26.4291L65.3143 26.429L65.316 25.429L65.3339 25.4291L65.3322 26.4291ZM67.9999 26.4291H65.333V25.4291H67.9999V26.4291ZM67.4999 69.0001V25.9291H68.4999V69.0001H67.4999ZM27.9999 68.5001H67.9999V69.5001H27.9999V68.5001ZM28.4999 66V69.0001H27.4999V66H28.4999ZM26.9999 64.5C27.8283 64.5 28.4999 65.1716 28.4999 66H27.4999C27.4999 65.7239 27.276 65.5 26.9999 65.5V64.5ZM9.99988 64.5H26.9999V65.5H9.99988V64.5ZM9.49988 85V65H10.4999V85H9.49988ZM26.9999 85.5H9.99988V84.5H26.9999V85.5ZM28.4999 84C28.4999 84.8284 27.8283 85.5 26.9999 85.5V84.5C27.276 84.5 27.4999 84.2761 27.4999 84H28.4999ZM28.4999 81.0001V84H27.4999V81.0001H28.4999ZM76.9999 81.5001H27.9999V80.5001H76.9999V81.5001ZM77.4999 81V81.0001H76.4999V81H77.4999ZM79.9999 81.5H76.9999V80.5H79.9999V81.5ZM80.4999 25.9291V81H79.4999V25.9291H80.4999ZM82.9899 26.4291H79.9999V25.4291H82.9899V26.4291ZM83.0086 26.429L82.9907 26.4291L82.989 25.4291L83.0069 25.429L83.0086 26.429ZM84.4998 24.9409C84.4934 25.7601 83.8309 26.4226 83.0117 26.429L83.0038 25.4291C83.2769 25.4269 83.4977 25.2061 83.4999 24.933L84.4998 24.9409ZM84.4999 24.9199L84.4998 24.9378L83.4998 24.9361L83.4999 24.9182L84.4999 24.9199ZM84.4999 8V24.9191H83.4999V8H84.4999Z" fill="#4DADAC" mask="url(#path-7-inside-1_125_85)"/>
</g>
<line y1="-0.5" x2="14.0545" y2="-0.5" transform="matrix(-0.70002 -0.714123 -0.70002 0.714123 108.336 107.872)" stroke="#4DADAC"/>
<ellipse cx="1.96768" cy="2.00733" rx="1.96768" ry="2.00733" transform="matrix(-1 0 0 1 101.449 95.8279)" fill="#4DADAC"/>
<line y1="-0.5" x2="14.0545" y2="-0.5" transform="matrix(0.70002 -0.714123 0.70002 0.714123 41.4343 107.872)" stroke="#4DADAC"/>
<ellipse cx="50.2889" cy="97.8352" rx="1.96768" ry="2.00733" fill="#4DADAC"/>
<line y1="-0.5" x2="14.0545" y2="-0.5" transform="matrix(0.70002 0.714123 0.70002 -0.714123 41.4343 39.6228)" stroke="#4DADAC"/>
<ellipse cx="1.96768" cy="2.00733" rx="1.96768" ry="2.00733" transform="matrix(1 0 0 -1 48.3212 51.6667)" fill="#4DADAC"/>
<line y1="-0.5" x2="14.0545" y2="-0.5" transform="matrix(-0.70002 0.714123 -0.70002 -0.714123 108.336 39.6228)" stroke="#4DADAC"/>
<ellipse cx="99.4809" cy="49.6594" rx="1.96768" ry="2.00733" transform="rotate(180 99.4809 49.6594)" fill="#4DADAC"/>
<defs>
<filter id="filter0_f_125_85" x="22.6769" y="22.5752" width="103.433" height="102.344" filterUnits="userSpaceOnUse" color-interpolation-filters="sRGB">
<feFlood flood-opacity="0" result="BackgroundImageFix"/>
<feBlend mode="normal" in="SourceGraphic" in2="BackgroundImageFix" result="shape"/>
<feGaussianBlur stdDeviation="2" result="effect1_foregroundBlur_125_85"/>
</filter>
<filter id="filter1_f_125_85" x="48.2566" y="46.6631" width="53.2567" height="54.1685" filterUnits="userSpaceOnUse" color-interpolation-filters="sRGB">
<feFlood flood-opacity="0" result="BackgroundImageFix"/>
<feBlend mode="normal" in="SourceGraphic" in2="BackgroundImageFix" result="shape"/>
<feGaussianBlur stdDeviation="2" result="effect1_foregroundBlur_125_85"/>
</filter>
<filter id="filter2_f_125_85" x="0.6" y="0.101953" width="149.554" height="149.298" filterUnits="userSpaceOnUse" color-interpolation-filters="sRGB">
<feFlood flood-opacity="0" result="BackgroundImageFix"/>
<feBlend mode="normal" in="SourceGraphic" in2="BackgroundImageFix" result="shape"/>
<feGaussianBlur stdDeviation="3.2" result="effect1_foregroundBlur_125_85"/>
</filter>
<filter id="filter3_d_125_85" x="5.99988" y="4" width="82" height="85" filterUnits="userSpaceOnUse" color-interpolation-filters="sRGB">
<feFlood flood-opacity="0" result="BackgroundImageFix"/>
<feColorMatrix in="SourceAlpha" type="matrix" values="0 0 0 0 0 0 0 0 0 0 0 0 0 0 0 0 0 0 127 0" result="hardAlpha"/>
<feOffset/>
<feGaussianBlur stdDeviation="2"/>
<feComposite in2="hardAlpha" operator="out"/>
<feColorMatrix type="matrix" values="0 0 0 0 0 0 0 0 0 0 0 0 0 0 0 0 0 0 0.25 0"/>
<feBlend mode="normal" in2="BackgroundImageFix" result="effect1_dropShadow_125_85"/>
<feBlend mode="normal" in="SourceGraphic" in2="effect1_dropShadow_125_85" result="shape"/>
</filter>
<radialGradient id="paint0_radial_125_85" cx="0" cy="0" r="1" gradientUnits="userSpaceOnUse" gradientTransform="translate(75.8688 74.7509) rotate(90) scale(239.875 240.325)">
<stop stop-color="#0A022D"/>
<stop offset="1" stop-color="#210793"/>
</radialGradient>
<radialGradient id="paint1_radial_125_85" cx="0" cy="0" r="1" gradientUnits="userSpaceOnUse" gradientTransform="translate(52.4999 49.5) rotate(40.2852) scale(68.8222 66.1409)">
<stop stop-color="#0A022D"/>
<stop offset="1" stop-color="#210793"/>
</radialGradient>
</defs>
</svg>
