<svg width="913" height="69" viewBox="0 0 913 69" fill="none" xmlns="http://www.w3.org/2000/svg">
    <g filter="url(#filter0_f_64_5834)">
        <path d="M890 22V47" stroke="#4DADAC" stroke-width="2" stroke-miterlimit="10"/>
        <path d="M883.77 22V38.3043" stroke="#4DADAC" stroke-width="2" stroke-miterlimit="10"/>
        <path d="M873.387 22V38.3043" stroke="#4DADAC" stroke-width="2" stroke-miterlimit="10"/>
        <path d="M878 22V38.3043" stroke="#4DADAC" stroke-width="2" stroke-miterlimit="10"/>
        <path d="M867.157 22V38.3043" stroke="#4DADAC" stroke-width="2" stroke-miterlimit="10"/>
        <path d="M860.927 22V38.3043" stroke="#4DADAC" stroke-width="2" stroke-miterlimit="10"/>
        <path d="M852.62 22V38.3043" stroke="#4DADAC" stroke-width="2" stroke-miterlimit="10"/>
        <path d="M857 22V38.3043" stroke="#4DADAC" stroke-width="2" stroke-miterlimit="10"/>
        <path d="M846.391 22V38.3043" stroke="#4DADAC" stroke-width="2" stroke-miterlimit="10"/>
        <path d="M838.084 22V38.3043" stroke="#4DADAC" stroke-width="2" stroke-miterlimit="10"/>
        <path d="M843 22V38.3043" stroke="#4DADAC" stroke-width="2" stroke-miterlimit="10"/>
        <path d="M831.854 22V38.3043" stroke="#4DADAC" stroke-width="2" stroke-miterlimit="10"/>
        <path d="M821.471 22V38.3043" stroke="#4DADAC" stroke-width="2" stroke-miterlimit="10"/>
        <path d="M826 22V38.3043" stroke="#4DADAC" stroke-width="2" stroke-miterlimit="10"/>
        <path d="M815.241 22V38.3043" stroke="#4DADAC" stroke-width="2" stroke-miterlimit="10"/>
        <path d="M809.011 22V38.3043" stroke="#4DADAC" stroke-width="2" stroke-miterlimit="10"/>
        <path d="M805 22V38.3043" stroke="#4DADAC" stroke-width="2" stroke-miterlimit="10"/>
        <path d="M800.704 22V38.3043" stroke="#4DADAC" stroke-width="2" stroke-miterlimit="10"/>
        <path d="M794.474 22V47" stroke="#4DADAC" stroke-width="2" stroke-miterlimit="10"/>
        <path d="M786.168 22V38.3043" stroke="#4DADAC" stroke-width="2" stroke-miterlimit="10"/>
        <path d="M791 22V38.3043" stroke="#4DADAC" stroke-width="2" stroke-miterlimit="10"/>
        <path d="M777.861 22V38.3043" stroke="#4DADAC" stroke-width="2" stroke-miterlimit="10"/>
        <path d="M782 22V38.3043" stroke="#4DADAC" stroke-width="2" stroke-miterlimit="10"/>
        <path d="M771.631 22V38.3043" stroke="#4DADAC" stroke-width="2" stroke-miterlimit="10"/>
        <path d="M763.324 22V38.3043" stroke="#4DADAC" stroke-width="2" stroke-miterlimit="10"/>
        <path d="M768 22V38.3043" stroke="#4DADAC" stroke-width="2" stroke-miterlimit="10"/>
        <path d="M757.095 22V38.3043" stroke="#4DADAC" stroke-width="2" stroke-miterlimit="10"/>
        <path d="M753 22V38.3043" stroke="#4DADAC" stroke-width="2" stroke-miterlimit="10"/>
        <path d="M748.788 22V38.3043" stroke="#4DADAC" stroke-width="2" stroke-miterlimit="10"/>
        <path d="M742.558 22V38.3043" stroke="#4DADAC" stroke-width="2" stroke-miterlimit="10"/>
        <path d="M736.328 22V38.3043" stroke="#4DADAC" stroke-width="2" stroke-miterlimit="10"/>
        <path d="M725.945 22V38.3043" stroke="#4DADAC" stroke-width="2" stroke-miterlimit="10"/>
        <path d="M731 22V38.3043" stroke="#4DADAC" stroke-width="2" stroke-miterlimit="10"/>
        <path d="M719.715 22V38.3043" stroke="#4DADAC" stroke-width="2" stroke-miterlimit="10"/>
        <path d="M711.408 22V38.3043" stroke="#4DADAC" stroke-width="2" stroke-miterlimit="10"/>
        <path d="M716 22V38.3043" stroke="#4DADAC" stroke-width="2" stroke-miterlimit="10"/>
        <path d="M701 22V38.3043" stroke="#4DADAC" stroke-width="2" stroke-miterlimit="10"/>
        <path d="M705.179 22V38.3043" stroke="#4DADAC" stroke-width="2" stroke-miterlimit="10"/>
        <path d="M696.872 22V47" stroke="#4DADAC" stroke-width="2" stroke-miterlimit="10"/>
        <path d="M690.642 22V38.3043" stroke="#4DADAC" stroke-width="2" stroke-miterlimit="10"/>
        <path d="M682.335 22V38.3043" stroke="#4DADAC" stroke-width="2" stroke-miterlimit="10"/>
        <path d="M674.029 22V38.3043" stroke="#4DADAC" stroke-width="2" stroke-miterlimit="10"/>
        <path d="M678 22V38.3043" stroke="#4DADAC" stroke-width="2" stroke-miterlimit="10"/>
        <path d="M686 22V38.3043" stroke="#4DADAC" stroke-width="2" stroke-miterlimit="10"/>
        <path d="M667.799 22V38.3043" stroke="#4DADAC" stroke-width="2" stroke-miterlimit="10"/>
        <path d="M659.492 22V38.3043" stroke="#4DADAC" stroke-width="2" stroke-miterlimit="10"/>
        <path d="M664 22V38.3043" stroke="#4DADAC" stroke-width="2" stroke-miterlimit="10"/>
        <path d="M653.262 22V38.3043" stroke="#4DADAC" stroke-width="2" stroke-miterlimit="10"/>
        <path d="M647.032 22V38.3043" stroke="#4DADAC" stroke-width="2" stroke-miterlimit="10"/>
        <path d="M638.726 22V38.3043" stroke="#4DADAC" stroke-width="2" stroke-miterlimit="10"/>
        <path d="M643 22V38.3043" stroke="#4DADAC" stroke-width="2" stroke-miterlimit="10"/>
        <path d="M630.419 22V38.3043" stroke="#4DADAC" stroke-width="2" stroke-miterlimit="10"/>
        <path d="M622.113 22V38.3043" stroke="#4DADAC" stroke-width="2" stroke-miterlimit="10"/>
        <path d="M626 22V38.3043" stroke="#4DADAC" stroke-width="2" stroke-miterlimit="10"/>
        <path d="M635 22V38.3043" stroke="#4DADAC" stroke-width="2" stroke-miterlimit="10"/>
        <path d="M615.883 22V38.3043" stroke="#4DADAC" stroke-width="2" stroke-miterlimit="10"/>
        <path d="M609.653 22V38.3043" stroke="#4DADAC" stroke-width="2" stroke-miterlimit="10"/>
        <path d="M605 22V38.3043" stroke="#4DADAC" stroke-width="2" stroke-miterlimit="10"/>
        <path d="M601.346 22V47" stroke="#4DADAC" stroke-width="2" stroke-miterlimit="10"/>
        <path d="M595.116 22V38.3043" stroke="#4DADAC" stroke-width="2" stroke-miterlimit="10"/>
        <path d="M584.733 22V38.3043" stroke="#4DADAC" stroke-width="2" stroke-miterlimit="10"/>
        <path d="M590 22V38.3043" stroke="#4DADAC" stroke-width="2" stroke-miterlimit="10"/>
        <path d="M578.503 22V38.3043" stroke="#4DADAC" stroke-width="2" stroke-miterlimit="10"/>
        <path d="M570.196 22V38.3043" stroke="#4DADAC" stroke-width="2" stroke-miterlimit="10"/>
        <path d="M575 22V38.3043" stroke="#4DADAC" stroke-width="2" stroke-miterlimit="10"/>
        <path d="M563.966 22V38.3043" stroke="#4DADAC" stroke-width="2" stroke-miterlimit="10"/>
        <path d="M557.737 22V38.3043" stroke="#4DADAC" stroke-width="2" stroke-miterlimit="10"/>
        <path d="M549.43 22V38.3043" stroke="#4DADAC" stroke-width="2" stroke-miterlimit="10"/>
        <path d="M554 22V38.3043" stroke="#4DADAC" stroke-width="2" stroke-miterlimit="10"/>
        <path d="M543.2 22V38.3043" stroke="#4DADAC" stroke-width="2" stroke-miterlimit="10"/>
        <path d="M532.817 22V38.3043" stroke="#4DADAC" stroke-width="2" stroke-miterlimit="10"/>
        <path d="M538 22V38.3043" stroke="#4DADAC" stroke-width="2" stroke-miterlimit="10"/>
        <path d="M526.587 22V38.3043" stroke="#4DADAC" stroke-width="2" stroke-miterlimit="10"/>
        <path d="M520.357 22V38.3043" stroke="#4DADAC" stroke-width="2" stroke-miterlimit="10"/>
        <path d="M516 22V38.3043" stroke="#4DADAC" stroke-width="2" stroke-miterlimit="10"/>
        <path d="M512.05 22V38.3043" stroke="#4DADAC" stroke-width="2" stroke-miterlimit="10"/>
        <path d="M505.82 22V47" stroke="#4DADAC" stroke-width="2" stroke-miterlimit="10"/>
        <path d="M497.514 22V38.3043" stroke="#4DADAC" stroke-width="2" stroke-miterlimit="10"/>
        <path d="M502 22V38.3043" stroke="#4DADAC" stroke-width="2" stroke-miterlimit="10"/>
        <path d="M489.207 22V38.3043" stroke="#4DADAC" stroke-width="2" stroke-miterlimit="10"/>
        <path d="M493 22V38.3043" stroke="#4DADAC" stroke-width="2" stroke-miterlimit="10"/>
        <path d="M482.977 22V38.3043" stroke="#4DADAC" stroke-width="2" stroke-miterlimit="10"/>
        <path d="M474.671 22V38.3043" stroke="#4DADAC" stroke-width="2" stroke-miterlimit="10"/>
        <path d="M479 22V38.3043" stroke="#4DADAC" stroke-width="2" stroke-miterlimit="10"/>
        <path d="M468.441 22V38.3043" stroke="#4DADAC" stroke-width="2" stroke-miterlimit="10"/>
        <path d="M464 22V38.3043" stroke="#4DADAC" stroke-width="2" stroke-miterlimit="10"/>
        <path d="M460.134 22V38.3043" stroke="#4DADAC" stroke-width="2" stroke-miterlimit="10"/>
        <path d="M453.904 22V38.3043" stroke="#4DADAC" stroke-width="2" stroke-miterlimit="10"/>
        <path d="M445.598 22V38.3043" stroke="#4DADAC" stroke-width="2" stroke-miterlimit="10"/>
        <path d="M450 22V38.3043" stroke="#4DADAC" stroke-width="2" stroke-miterlimit="10"/>
        <path d="M437.291 22V38.3043" stroke="#4DADAC" stroke-width="2" stroke-miterlimit="10"/>
        <path d="M441 22V38.3043" stroke="#4DADAC" stroke-width="2" stroke-miterlimit="10"/>
        <path d="M431.061 22V38.3043" stroke="#4DADAC" stroke-width="2" stroke-miterlimit="10"/>
        <path d="M427 22V38.3043" stroke="#4DADAC" stroke-width="2" stroke-miterlimit="10"/>
        <path d="M422.754 22V38.3043" stroke="#4DADAC" stroke-width="2" stroke-miterlimit="10"/>
        <path d="M416.525 22V38.3043" stroke="#4DADAC" stroke-width="2" stroke-miterlimit="10"/>
        <path d="M408.218 22V47" stroke="#4DADAC" stroke-width="2" stroke-miterlimit="10"/>
        <path d="M401.988 22V38.3043" stroke="#4DADAC" stroke-width="2" stroke-miterlimit="10"/>
        <path d="M413 22V38.3043" stroke="#4DADAC" stroke-width="2" stroke-miterlimit="10"/>
        <path d="M393.681 22V38.3043" stroke="#4DADAC" stroke-width="2" stroke-miterlimit="10"/>
        <path d="M398 22V38.3043" stroke="#4DADAC" stroke-width="2" stroke-miterlimit="10"/>
        <path d="M385.375 22V38.3043" stroke="#4DADAC" stroke-width="2" stroke-miterlimit="10"/>
        <path d="M390 22V38.3043" stroke="#4DADAC" stroke-width="2" stroke-miterlimit="10"/>
        <path d="M379.145 22V38.3043" stroke="#4DADAC" stroke-width="2" stroke-miterlimit="10"/>
        <path d="M370.838 22V38.3043" stroke="#4DADAC" stroke-width="2" stroke-miterlimit="10"/>
        <path d="M375 22V38.3043" stroke="#4DADAC" stroke-width="2" stroke-miterlimit="10"/>
        <path d="M364.608 22V38.3043" stroke="#4DADAC" stroke-width="2" stroke-miterlimit="10"/>
        <path d="M358.378 22V38.3043" stroke="#4DADAC" stroke-width="2" stroke-miterlimit="10"/>
        <path d="M350.072 22V38.3043" stroke="#4DADAC" stroke-width="2" stroke-miterlimit="10"/>
        <path d="M354 22V38.3043" stroke="#4DADAC" stroke-width="2" stroke-miterlimit="10"/>
        <path d="M341.765 22V38.3043" stroke="#4DADAC" stroke-width="2" stroke-miterlimit="10"/>
        <path d="M346 22V38.3043" stroke="#4DADAC" stroke-width="2" stroke-miterlimit="10"/>
        <path d="M333.459 22V38.3043" stroke="#4DADAC" stroke-width="2" stroke-miterlimit="10"/>
        <path d="M338 22V38.3043" stroke="#4DADAC" stroke-width="2" stroke-miterlimit="10"/>
        <path d="M327.229 22V38.3043" stroke="#4DADAC" stroke-width="2" stroke-miterlimit="10"/>
        <path d="M323 22V38.3043" stroke="#4DADAC" stroke-width="2" stroke-miterlimit="10"/>
        <path d="M318.922 22V38.3043" stroke="#4DADAC" stroke-width="2" stroke-miterlimit="10"/>
        <path d="M312.692 22V47" stroke="#4DADAC" stroke-width="2" stroke-miterlimit="10"/>
        <path d="M306.462 22V38.3043" stroke="#4DADAC" stroke-width="2" stroke-miterlimit="10"/>
        <path d="M296.079 22V38.3043" stroke="#4DADAC" stroke-width="2" stroke-miterlimit="10"/>
        <path d="M301 22V38.3043" stroke="#4DADAC" stroke-width="2" stroke-miterlimit="10"/>
        <path d="M289.849 22V38.3043" stroke="#4DADAC" stroke-width="2" stroke-miterlimit="10"/>
        <path d="M281.542 22V38.3043" stroke="#4DADAC" stroke-width="2" stroke-miterlimit="10"/>
        <path d="M275.313 22V38.3043" stroke="#4DADAC" stroke-width="2" stroke-miterlimit="10"/>
        <path d="M269.083 22V38.3043" stroke="#4DADAC" stroke-width="2" stroke-miterlimit="10"/>
        <path d="M260.776 22V38.3043" stroke="#4DADAC" stroke-width="2" stroke-miterlimit="10"/>
        <path d="M254.546 22V38.3043" stroke="#4DADAC" stroke-width="2" stroke-miterlimit="10"/>
        <path d="M244.163 22V38.3043" stroke="#4DADAC" stroke-width="2" stroke-miterlimit="10"/>
        <path d="M249 22V38.3043" stroke="#4DADAC" stroke-width="2" stroke-miterlimit="10"/>
        <path d="M237.933 22V38.3043" stroke="#4DADAC" stroke-width="2" stroke-miterlimit="10"/>
        <path d="M231.703 22V38.3043" stroke="#4DADAC" stroke-width="2" stroke-miterlimit="10"/>
        <path d="M223.397 22V38.3043" stroke="#4DADAC" stroke-width="2" stroke-miterlimit="10"/>
        <path d="M217.167 22V47" stroke="#4DADAC" stroke-width="2" stroke-miterlimit="10"/>
        <path d="M208.86 22V38.3043" stroke="#4DADAC" stroke-width="2" stroke-miterlimit="10"/>
        <path d="M200.553 22V38.3043" stroke="#4DADAC" stroke-width="2" stroke-miterlimit="10"/>
        <path d="M192.247 22V38.3043" stroke="#4DADAC" stroke-width="2" stroke-miterlimit="10"/>
        <path d="M186.017 22V38.3043" stroke="#4DADAC" stroke-width="2" stroke-miterlimit="10"/>
        <path d="M179.787 22V38.3043" stroke="#4DADAC" stroke-width="2" stroke-miterlimit="10"/>
        <path d="M171.48 22V38.3043" stroke="#4DADAC" stroke-width="2" stroke-miterlimit="10"/>
        <path d="M165.25 22V38.3043" stroke="#4DADAC" stroke-width="2" stroke-miterlimit="10"/>
        <path d="M156.944 22V38.3043" stroke="#4DADAC" stroke-width="2" stroke-miterlimit="10"/>
        <path d="M148.637 22V38.3043" stroke="#4DADAC" stroke-width="2" stroke-miterlimit="10"/>
        <path d="M142.407 22V38.3043" stroke="#4DADAC" stroke-width="2" stroke-miterlimit="10"/>
        <path d="M134.101 22V38.3043" stroke="#4DADAC" stroke-width="2" stroke-miterlimit="10"/>
        <path d="M127.871 22V38.3043" stroke="#4DADAC" stroke-width="2" stroke-miterlimit="10"/>
        <path d="M119.564 22V47" stroke="#4DADAC" stroke-width="2" stroke-miterlimit="10"/>
        <path d="M113.334 22V38.3043" stroke="#4DADAC" stroke-width="2" stroke-miterlimit="10"/>
        <path d="M105.028 22V38.3043" stroke="#4DADAC" stroke-width="2" stroke-miterlimit="10"/>
        <path d="M96.7209 22V38.3043" stroke="#4DADAC" stroke-width="2" stroke-miterlimit="10"/>
        <path d="M90.4912 22V38.3043" stroke="#4DADAC" stroke-width="2" stroke-miterlimit="10"/>
        <path d="M82.1846 22V38.3043" stroke="#4DADAC" stroke-width="2" stroke-miterlimit="10"/>
        <path d="M75.9543 22V38.3043" stroke="#4DADAC" stroke-width="2" stroke-miterlimit="10"/>
        <path d="M67.6477 22V38.3043" stroke="#4DADAC" stroke-width="2" stroke-miterlimit="10"/>
        <path d="M61.418 22V38.3043" stroke="#4DADAC" stroke-width="2" stroke-miterlimit="10"/>
        <path d="M53.1113 22V38.3043" stroke="#4DADAC" stroke-width="2" stroke-miterlimit="10"/>
        <path d="M44.8047 22V38.3043" stroke="#4DADAC" stroke-width="2" stroke-miterlimit="10"/>
        <path d="M38.5745 22V38.3043" stroke="#4DADAC" stroke-width="2" stroke-miterlimit="10"/>
        <path d="M30.2683 22L30.2683 38.3043" stroke="#4DADAC" stroke-width="2" stroke-miterlimit="10"/>
        <path d="M23 22V47" stroke="#4DADAC" stroke-width="2" stroke-miterlimit="10"/>
    </g>
    <path d="M890 22V47" stroke="#4DADAC" stroke-width="2" stroke-miterlimit="10"/>
    <path d="M883.77 22V38.3043" stroke="#4DADAC" stroke-width="2" stroke-miterlimit="10"/>
    <path d="M873.387 22V38.3043" stroke="#4DADAC" stroke-width="2" stroke-miterlimit="10"/>
    <path d="M878 22V38.3043" stroke="#4DADAC" stroke-width="2" stroke-miterlimit="10"/>
    <path d="M867.157 22V38.3043" stroke="#4DADAC" stroke-width="2" stroke-miterlimit="10"/>
    <path d="M860.927 22V38.3043" stroke="#4DADAC" stroke-width="2" stroke-miterlimit="10"/>
    <path d="M852.62 22V38.3043" stroke="#4DADAC" stroke-width="2" stroke-miterlimit="10"/>
    <path d="M857 22V38.3043" stroke="#4DADAC" stroke-width="2" stroke-miterlimit="10"/>
    <path d="M846.391 22V38.3043" stroke="#4DADAC" stroke-width="2" stroke-miterlimit="10"/>
    <path d="M838.084 22V38.3043" stroke="#4DADAC" stroke-width="2" stroke-miterlimit="10"/>
    <path d="M843 22V38.3043" stroke="#4DADAC" stroke-width="2" stroke-miterlimit="10"/>
    <path d="M831.854 22V38.3043" stroke="#4DADAC" stroke-width="2" stroke-miterlimit="10"/>
    <path d="M821.471 22V38.3043" stroke="#4DADAC" stroke-width="2" stroke-miterlimit="10"/>
    <path d="M826 22V38.3043" stroke="#4DADAC" stroke-width="2" stroke-miterlimit="10"/>
    <path d="M815.241 22V38.3043" stroke="#4DADAC" stroke-width="2" stroke-miterlimit="10"/>
    <path d="M809.011 22V38.3043" stroke="#4DADAC" stroke-width="2" stroke-miterlimit="10"/>
    <path d="M805 22V38.3043" stroke="#4DADAC" stroke-width="2" stroke-miterlimit="10"/>
    <path d="M800.704 22V38.3043" stroke="#4DADAC" stroke-width="2" stroke-miterlimit="10"/>
    <path d="M794.474 22V47" stroke="#4DADAC" stroke-width="2" stroke-miterlimit="10"/>
    <path d="M786.168 22V38.3043" stroke="#4DADAC" stroke-width="2" stroke-miterlimit="10"/>
    <path d="M791 22V38.3043" stroke="#4DADAC" stroke-width="2" stroke-miterlimit="10"/>
    <path d="M777.861 22V38.3043" stroke="#4DADAC" stroke-width="2" stroke-miterlimit="10"/>
    <path d="M782 22V38.3043" stroke="#4DADAC" stroke-width="2" stroke-miterlimit="10"/>
    <path d="M771.631 22V38.3043" stroke="#4DADAC" stroke-width="2" stroke-miterlimit="10"/>
    <path d="M763.324 22V38.3043" stroke="#4DADAC" stroke-width="2" stroke-miterlimit="10"/>
    <path d="M768 22V38.3043" stroke="#4DADAC" stroke-width="2" stroke-miterlimit="10"/>
    <path d="M757.095 22V38.3043" stroke="#4DADAC" stroke-width="2" stroke-miterlimit="10"/>
    <path d="M753 22V38.3043" stroke="#4DADAC" stroke-width="2" stroke-miterlimit="10"/>
    <path d="M748.788 22V38.3043" stroke="#4DADAC" stroke-width="2" stroke-miterlimit="10"/>
    <path d="M742.558 22V38.3043" stroke="#4DADAC" stroke-width="2" stroke-miterlimit="10"/>
    <path d="M736.328 22V38.3043" stroke="#4DADAC" stroke-width="2" stroke-miterlimit="10"/>
    <path d="M725.945 22V38.3043" stroke="#4DADAC" stroke-width="2" stroke-miterlimit="10"/>
    <path d="M731 22V38.3043" stroke="#4DADAC" stroke-width="2" stroke-miterlimit="10"/>
    <path d="M719.715 22V38.3043" stroke="#4DADAC" stroke-width="2" stroke-miterlimit="10"/>
    <path d="M711.408 22V38.3043" stroke="#4DADAC" stroke-width="2" stroke-miterlimit="10"/>
    <path d="M716 22V38.3043" stroke="#4DADAC" stroke-width="2" stroke-miterlimit="10"/>
    <path d="M701 22V38.3043" stroke="#4DADAC" stroke-width="2" stroke-miterlimit="10"/>
    <path d="M705.179 22V38.3043" stroke="#4DADAC" stroke-width="2" stroke-miterlimit="10"/>
    <path d="M696.872 22V47" stroke="#4DADAC" stroke-width="2" stroke-miterlimit="10"/>
    <path d="M690.642 22V38.3043" stroke="#4DADAC" stroke-width="2" stroke-miterlimit="10"/>
    <path d="M682.335 22V38.3043" stroke="#4DADAC" stroke-width="2" stroke-miterlimit="10"/>
    <path d="M674.029 22V38.3043" stroke="#4DADAC" stroke-width="2" stroke-miterlimit="10"/>
    <path d="M678 22V38.3043" stroke="#4DADAC" stroke-width="2" stroke-miterlimit="10"/>
    <path d="M686 22V38.3043" stroke="#4DADAC" stroke-width="2" stroke-miterlimit="10"/>
    <path d="M667.799 22V38.3043" stroke="#4DADAC" stroke-width="2" stroke-miterlimit="10"/>
    <path d="M659.492 22V38.3043" stroke="#4DADAC" stroke-width="2" stroke-miterlimit="10"/>
    <path d="M664 22V38.3043" stroke="#4DADAC" stroke-width="2" stroke-miterlimit="10"/>
    <path d="M653.262 22V38.3043" stroke="#4DADAC" stroke-width="2" stroke-miterlimit="10"/>
    <path d="M647.032 22V38.3043" stroke="#4DADAC" stroke-width="2" stroke-miterlimit="10"/>
    <path d="M638.726 22V38.3043" stroke="#4DADAC" stroke-width="2" stroke-miterlimit="10"/>
    <path d="M643 22V38.3043" stroke="#4DADAC" stroke-width="2" stroke-miterlimit="10"/>
    <path d="M630.419 22V38.3043" stroke="#4DADAC" stroke-width="2" stroke-miterlimit="10"/>
    <path d="M622.113 22V38.3043" stroke="#4DADAC" stroke-width="2" stroke-miterlimit="10"/>
    <path d="M626 22V38.3043" stroke="#4DADAC" stroke-width="2" stroke-miterlimit="10"/>
    <path d="M635 22V38.3043" stroke="#4DADAC" stroke-width="2" stroke-miterlimit="10"/>
    <path d="M615.883 22V38.3043" stroke="#4DADAC" stroke-width="2" stroke-miterlimit="10"/>
    <path d="M609.653 22V38.3043" stroke="#4DADAC" stroke-width="2" stroke-miterlimit="10"/>
    <path d="M605 22V38.3043" stroke="#4DADAC" stroke-width="2" stroke-miterlimit="10"/>
    <path d="M601.346 22V47" stroke="#4DADAC" stroke-width="2" stroke-miterlimit="10"/>
    <path d="M595.116 22V38.3043" stroke="#4DADAC" stroke-width="2" stroke-miterlimit="10"/>
    <path d="M584.733 22V38.3043" stroke="#4DADAC" stroke-width="2" stroke-miterlimit="10"/>
    <path d="M590 22V38.3043" stroke="#4DADAC" stroke-width="2" stroke-miterlimit="10"/>
    <path d="M578.503 22V38.3043" stroke="#4DADAC" stroke-width="2" stroke-miterlimit="10"/>
    <path d="M570.196 22V38.3043" stroke="#4DADAC" stroke-width="2" stroke-miterlimit="10"/>
    <path d="M575 22V38.3043" stroke="#4DADAC" stroke-width="2" stroke-miterlimit="10"/>
    <path d="M563.966 22V38.3043" stroke="#4DADAC" stroke-width="2" stroke-miterlimit="10"/>
    <path d="M557.737 22V38.3043" stroke="#4DADAC" stroke-width="2" stroke-miterlimit="10"/>
    <path d="M549.43 22V38.3043" stroke="#4DADAC" stroke-width="2" stroke-miterlimit="10"/>
    <path d="M554 22V38.3043" stroke="#4DADAC" stroke-width="2" stroke-miterlimit="10"/>
    <path d="M543.2 22V38.3043" stroke="#4DADAC" stroke-width="2" stroke-miterlimit="10"/>
    <path d="M532.817 22V38.3043" stroke="#4DADAC" stroke-width="2" stroke-miterlimit="10"/>
    <path d="M538 22V38.3043" stroke="#4DADAC" stroke-width="2" stroke-miterlimit="10"/>
    <path d="M526.587 22V38.3043" stroke="#4DADAC" stroke-width="2" stroke-miterlimit="10"/>
    <path d="M520.357 22V38.3043" stroke="#4DADAC" stroke-width="2" stroke-miterlimit="10"/>
    <path d="M516 22V38.3043" stroke="#4DADAC" stroke-width="2" stroke-miterlimit="10"/>
    <path d="M512.05 22V38.3043" stroke="#4DADAC" stroke-width="2" stroke-miterlimit="10"/>
    <path d="M505.82 22V47" stroke="#4DADAC" stroke-width="2" stroke-miterlimit="10"/>
    <path d="M497.514 22V38.3043" stroke="#4DADAC" stroke-width="2" stroke-miterlimit="10"/>
    <path d="M502 22V38.3043" stroke="#4DADAC" stroke-width="2" stroke-miterlimit="10"/>
    <path d="M489.207 22V38.3043" stroke="#4DADAC" stroke-width="2" stroke-miterlimit="10"/>
    <path d="M493 22V38.3043" stroke="#4DADAC" stroke-width="2" stroke-miterlimit="10"/>
    <path d="M482.977 22V38.3043" stroke="#4DADAC" stroke-width="2" stroke-miterlimit="10"/>
    <path d="M474.671 22V38.3043" stroke="#4DADAC" stroke-width="2" stroke-miterlimit="10"/>
    <path d="M479 22V38.3043" stroke="#4DADAC" stroke-width="2" stroke-miterlimit="10"/>
    <path d="M468.441 22V38.3043" stroke="#4DADAC" stroke-width="2" stroke-miterlimit="10"/>
    <path d="M464 22V38.3043" stroke="#4DADAC" stroke-width="2" stroke-miterlimit="10"/>
    <path d="M460.134 22V38.3043" stroke="#4DADAC" stroke-width="2" stroke-miterlimit="10"/>
    <path d="M453.904 22V38.3043" stroke="#4DADAC" stroke-width="2" stroke-miterlimit="10"/>
    <path d="M445.598 22V38.3043" stroke="#4DADAC" stroke-width="2" stroke-miterlimit="10"/>
    <path d="M450 22V38.3043" stroke="#4DADAC" stroke-width="2" stroke-miterlimit="10"/>
    <path d="M437.291 22V38.3043" stroke="#4DADAC" stroke-width="2" stroke-miterlimit="10"/>
    <path d="M441 22V38.3043" stroke="#4DADAC" stroke-width="2" stroke-miterlimit="10"/>
    <path d="M431.061 22V38.3043" stroke="#4DADAC" stroke-width="2" stroke-miterlimit="10"/>
    <path d="M427 22V38.3043" stroke="#4DADAC" stroke-width="2" stroke-miterlimit="10"/>
    <path d="M422.754 22V38.3043" stroke="#4DADAC" stroke-width="2" stroke-miterlimit="10"/>
    <path d="M416.525 22V38.3043" stroke="#4DADAC" stroke-width="2" stroke-miterlimit="10"/>
    <path d="M408.218 22V47" stroke="#4DADAC" stroke-width="2" stroke-miterlimit="10"/>
    <path d="M401.988 22V38.3043" stroke="#4DADAC" stroke-width="2" stroke-miterlimit="10"/>
    <path d="M413 22V38.3043" stroke="#4DADAC" stroke-width="2" stroke-miterlimit="10"/>
    <path d="M393.681 22V38.3043" stroke="#4DADAC" stroke-width="2" stroke-miterlimit="10"/>
    <path d="M398 22V38.3043" stroke="#4DADAC" stroke-width="2" stroke-miterlimit="10"/>
    <path d="M385.375 22V38.3043" stroke="#4DADAC" stroke-width="2" stroke-miterlimit="10"/>
    <path d="M390 22V38.3043" stroke="#4DADAC" stroke-width="2" stroke-miterlimit="10"/>
    <path d="M379.145 22V38.3043" stroke="#4DADAC" stroke-width="2" stroke-miterlimit="10"/>
    <path d="M370.838 22V38.3043" stroke="#4DADAC" stroke-width="2" stroke-miterlimit="10"/>
    <path d="M375 22V38.3043" stroke="#4DADAC" stroke-width="2" stroke-miterlimit="10"/>
    <path d="M364.608 22V38.3043" stroke="#4DADAC" stroke-width="2" stroke-miterlimit="10"/>
    <path d="M358.378 22V38.3043" stroke="#4DADAC" stroke-width="2" stroke-miterlimit="10"/>
    <path d="M350.072 22V38.3043" stroke="#4DADAC" stroke-width="2" stroke-miterlimit="10"/>
    <path d="M354 22V38.3043" stroke="#4DADAC" stroke-width="2" stroke-miterlimit="10"/>
    <path d="M341.765 22V38.3043" stroke="#4DADAC" stroke-width="2" stroke-miterlimit="10"/>
    <path d="M346 22V38.3043" stroke="#4DADAC" stroke-width="2" stroke-miterlimit="10"/>
    <path d="M333.459 22V38.3043" stroke="#4DADAC" stroke-width="2" stroke-miterlimit="10"/>
    <path d="M338 22V38.3043" stroke="#4DADAC" stroke-width="2" stroke-miterlimit="10"/>
    <path d="M327.229 22V38.3043" stroke="#4DADAC" stroke-width="2" stroke-miterlimit="10"/>
    <path d="M323 22V38.3043" stroke="#4DADAC" stroke-width="2" stroke-miterlimit="10"/>
    <path d="M318.922 22V38.3043" stroke="#4DADAC" stroke-width="2" stroke-miterlimit="10"/>
    <path d="M312.692 22V47" stroke="#4DADAC" stroke-width="2" stroke-miterlimit="10"/>
    <path d="M306.462 22V38.3043" stroke="#4DADAC" stroke-width="2" stroke-miterlimit="10"/>
    <path d="M296.079 22V38.3043" stroke="#4DADAC" stroke-width="2" stroke-miterlimit="10"/>
    <path d="M301 22V38.3043" stroke="#4DADAC" stroke-width="2" stroke-miterlimit="10"/>
    <path d="M289.849 22V38.3043" stroke="#4DADAC" stroke-width="2" stroke-miterlimit="10"/>
    <path d="M286 22V38.3043" stroke="#4DADAC" stroke-width="2" stroke-miterlimit="10"/>
    <path d="M281.542 22V38.3043" stroke="#4DADAC" stroke-width="2" stroke-miterlimit="10"/>
    <path d="M275.313 22V38.3043" stroke="#4DADAC" stroke-width="2" stroke-miterlimit="10"/>
    <path d="M269.083 22V38.3043" stroke="#4DADAC" stroke-width="2" stroke-miterlimit="10"/>
    <path d="M265 22V38.3043" stroke="#4DADAC" stroke-width="2" stroke-miterlimit="10"/>
    <path d="M260.776 22V38.3043" stroke="#4DADAC" stroke-width="2" stroke-miterlimit="10"/>
    <path d="M254.546 22V38.3043" stroke="#4DADAC" stroke-width="2" stroke-miterlimit="10"/>
    <path d="M244.163 22V38.3043" stroke="#4DADAC" stroke-width="2" stroke-miterlimit="10"/>
    <path d="M249 22V38.3043" stroke="#4DADAC" stroke-width="2" stroke-miterlimit="10"/>
    <path d="M237.933 22V38.3043" stroke="#4DADAC" stroke-width="2" stroke-miterlimit="10"/>
    <path d="M231.703 22V38.3043" stroke="#4DADAC" stroke-width="2" stroke-miterlimit="10"/>
    <path d="M227 22V38.3043" stroke="#4DADAC" stroke-width="2" stroke-miterlimit="10"/>
    <path d="M223.397 22V38.3043" stroke="#4DADAC" stroke-width="2" stroke-miterlimit="10"/>
    <path d="M217.167 22V47" stroke="#4DADAC" stroke-width="2" stroke-miterlimit="10"/>
    <path d="M208.86 22V38.3043" stroke="#4DADAC" stroke-width="2" stroke-miterlimit="10"/>
    <path d="M205 22V38.3043" stroke="#4DADAC" stroke-width="2" stroke-miterlimit="10"/>
    <path d="M213 22V38.3043" stroke="#4DADAC" stroke-width="2" stroke-miterlimit="10"/>
    <path d="M200.553 22V38.3043" stroke="#4DADAC" stroke-width="2" stroke-miterlimit="10"/>
    <path d="M196 22V38.3043" stroke="#4DADAC" stroke-width="2" stroke-miterlimit="10"/>
    <path d="M192.247 22V38.3043" stroke="#4DADAC" stroke-width="2" stroke-miterlimit="10"/>
    <path d="M186.017 22V38.3043" stroke="#4DADAC" stroke-width="2" stroke-miterlimit="10"/>
    <path d="M179.787 22V38.3043" stroke="#4DADAC" stroke-width="2" stroke-miterlimit="10"/>
    <path d="M171.48 22V38.3043" stroke="#4DADAC" stroke-width="2" stroke-miterlimit="10"/>
    <path d="M176 22V38.3043" stroke="#4DADAC" stroke-width="2" stroke-miterlimit="10"/>
    <path d="M165.25 22V38.3043" stroke="#4DADAC" stroke-width="2" stroke-miterlimit="10"/>
    <path d="M156.944 22V38.3043" stroke="#4DADAC" stroke-width="2" stroke-miterlimit="10"/>
    <path d="M161 22V38.3043" stroke="#4DADAC" stroke-width="2" stroke-miterlimit="10"/>
    <path d="M148.637 22V38.3043" stroke="#4DADAC" stroke-width="2" stroke-miterlimit="10"/>
    <path d="M153 22V38.3043" stroke="#4DADAC" stroke-width="2" stroke-miterlimit="10"/>
    <path d="M142.407 22V38.3043" stroke="#4DADAC" stroke-width="2" stroke-miterlimit="10"/>
    <path d="M134.101 22V38.3043" stroke="#4DADAC" stroke-width="2" stroke-miterlimit="10"/>
    <path d="M138 22V38.3043" stroke="#4DADAC" stroke-width="2" stroke-miterlimit="10"/>
    <path d="M127.871 22V38.3043" stroke="#4DADAC" stroke-width="2" stroke-miterlimit="10"/>
    <path d="M124 22V38.3043" stroke="#4DADAC" stroke-width="2" stroke-miterlimit="10"/>
    <path d="M119.564 22V47" stroke="#4DADAC" stroke-width="2" stroke-miterlimit="10"/>
    <path d="M113.334 22V38.3043" stroke="#4DADAC" stroke-width="2" stroke-miterlimit="10"/>
    <path d="M105.028 22V38.3043" stroke="#4DADAC" stroke-width="2" stroke-miterlimit="10"/>
    <path d="M101 22V38.3043" stroke="#4DADAC" stroke-width="2" stroke-miterlimit="10"/>
    <path d="M109 22V38.3043" stroke="#4DADAC" stroke-width="2" stroke-miterlimit="10"/>
    <path d="M96.7209 22V38.3043" stroke="#4DADAC" stroke-width="2" stroke-miterlimit="10"/>
    <path d="M90.4912 22V38.3043" stroke="#4DADAC" stroke-width="2" stroke-miterlimit="10"/>
    <path d="M86 22V38.3043" stroke="#4DADAC" stroke-width="2" stroke-miterlimit="10"/>
    <path d="M82.1846 22V38.3043" stroke="#4DADAC" stroke-width="2" stroke-miterlimit="10"/>
    <path d="M75.9543 22V38.3043" stroke="#4DADAC" stroke-width="2" stroke-miterlimit="10"/>
    <path d="M72 22V38.3043" stroke="#4DADAC" stroke-width="2" stroke-miterlimit="10"/>
    <path d="M67.6477 22V38.3043" stroke="#4DADAC" stroke-width="2" stroke-miterlimit="10"/>
    <path d="M61.418 22V38.3043" stroke="#4DADAC" stroke-width="2" stroke-miterlimit="10"/>
    <path d="M57 22V38.3043" stroke="#4DADAC" stroke-width="2" stroke-miterlimit="10"/>
    <path d="M53.1113 22V38.3043" stroke="#4DADAC" stroke-width="2" stroke-miterlimit="10"/>
    <path d="M49 22V38.3043" stroke="#4DADAC" stroke-width="2" stroke-miterlimit="10"/>
    <path d="M44.8047 22V38.3043" stroke="#4DADAC" stroke-width="2" stroke-miterlimit="10"/>
    <path d="M38.5745 22V38.3043" stroke="#4DADAC" stroke-width="2" stroke-miterlimit="10"/>
    <path d="M34 22V38.3043" stroke="#4DADAC" stroke-width="2" stroke-miterlimit="10"/>
    <path d="M27 22L27 38.3043" stroke="#4DADAC" stroke-width="2" stroke-miterlimit="10"/>
    <path d="M30.2683 22L30.2683 38.3043" stroke="#4DADAC" stroke-width="2" stroke-miterlimit="10"/>
    <path d="M23 22V47" stroke="#4DADAC" stroke-width="2" stroke-miterlimit="10"/>
    <defs>
        <filter id="filter0_f_64_5834" x="0" y="0" width="913" height="69" filterUnits="userSpaceOnUse" color-interpolation-filters="sRGB">
            <feFlood flood-opacity="0" result="BackgroundImageFix"/>
            <feBlend mode="normal" in="SourceGraphic" in2="BackgroundImageFix" result="shape"/>
            <feGaussianBlur stdDeviation="11" result="effect1_foregroundBlur_64_5834"/>
        </filter>
    </defs>
</svg>
