<svg width="1831" height="1014" viewBox="0 0 1831 1014" fill="none" xmlns="http://www.w3.org/2000/svg">
<path d="M47.78 38.68C48.1 38.68 48.4 38.64 48.68 38.52C48.96 38.42 49.2 38.28 49.42 38.08C49.64 37.88 49.82 37.66 49.96 37.4C50.1 37.14 50.2 36.86 50.24 36.54H55.12C55.08 37.3 54.88 38.02 54.56 38.68C54.22 39.36 53.78 39.94 53.26 40.42C52.72 40.92 52.1 41.3 51.42 41.58C50.74 41.86 50.02 42 49.26 42H27.9C27.1 42 26.34 41.86 25.62 41.54C24.9 41.24 24.28 40.82 23.76 40.3C23.22 39.78 22.8 39.14 22.48 38.42C22.16 37.7 22.02 36.94 22.02 36.12V32.88C22.02 32.08 22.16 31.3 22.48 30.58C22.8 29.86 23.22 29.24 23.76 28.7C24.28 28.18 24.9 27.76 25.62 27.44C26.34 27.14 27.1 27 27.9 27H49.26C50.02 27 50.74 27.14 51.42 27.42C52.1 27.7 52.72 28.1 53.26 28.58C53.78 29.08 54.22 29.66 54.56 30.32C54.88 31 55.08 31.7 55.12 32.46H50.24C50.2 32.16 50.1 31.88 49.96 31.62C49.82 31.36 49.64 31.14 49.42 30.94C49.2 30.74 48.96 30.6 48.68 30.48C48.4 30.36 48.1 30.3 47.78 30.3H29.38C29.02 30.3 28.7 30.38 28.4 30.5C28.1 30.64 27.84 30.82 27.62 31.04C27.38 31.28 27.2 31.54 27.08 31.84C26.96 32.14 26.9 32.46 26.9 32.8V36.2C26.9 36.56 26.96 36.88 27.08 37.18C27.2 37.48 27.38 37.74 27.62 37.96C27.84 38.2 28.1 38.38 28.4 38.5C28.7 38.62 29.02 38.68 29.38 38.68H47.78ZM87.7795 27.08C88.4595 27.2 89.0995 27.44 89.6995 27.78C90.2995 28.14 90.8195 28.56 91.2595 29.08C91.6995 29.6 92.0395 30.18 92.2795 30.82C92.5195 31.48 92.6595 32.16 92.6595 32.88V36.12C92.6595 36.94 92.4995 37.7 92.1795 38.42C91.8595 39.14 91.4395 39.76 90.9195 40.28C90.3795 40.82 89.7595 41.24 89.0395 41.54C88.3195 41.86 87.5795 42 86.7795 42H65.4195C64.6195 42 63.8595 41.86 63.1395 41.54C62.4195 41.24 61.7995 40.82 61.2795 40.28C60.7395 39.76 60.3195 39.14 59.9995 38.42C59.6795 37.7 59.5395 36.94 59.5395 36.12V32.88C59.5395 32.1 59.6995 31.36 60.0195 30.64C60.3195 29.94 60.7395 29.32 61.2595 28.78C61.7795 28.26 62.3795 27.84 63.0995 27.52C63.8195 27.2 64.5795 27.04 65.4195 27H86.7795C86.9395 27 87.1195 27.02 87.2795 27.02C87.4395 27.04 87.6195 27.06 87.7795 27.08ZM87.7795 32.8C87.7795 32.46 87.6995 32.14 87.5795 31.84C87.4595 31.54 87.2795 31.28 87.0595 31.04C86.8195 30.82 86.5595 30.64 86.2595 30.5C85.9595 30.38 85.6395 30.3 85.2995 30.3H66.8995C66.5395 30.3 66.2195 30.38 65.9195 30.5C65.6195 30.64 65.3595 30.82 65.1395 31.04C64.8995 31.28 64.7195 31.54 64.5995 31.84C64.4795 32.14 64.4195 32.46 64.4195 32.8V36.2C64.4195 36.56 64.4795 36.88 64.5995 37.18C64.7195 37.48 64.8995 37.74 65.1395 37.96C65.3595 38.18 65.6195 38.36 65.9195 38.48C66.2195 38.62 66.5395 38.68 66.8995 38.68H85.2995C85.6395 38.68 85.9595 38.62 86.2595 38.48C86.5595 38.36 86.8195 38.18 87.0595 37.96C87.2795 37.74 87.4595 37.48 87.5795 37.18C87.6995 36.88 87.7795 36.56 87.7795 36.2V32.8ZM128.209 30.3C128.389 30.7 128.529 31.1 128.649 31.54C128.749 31.98 128.809 32.42 128.809 32.88V36.12C128.809 36.6 128.749 37.04 128.649 37.46C128.549 37.88 128.409 38.28 128.229 38.66C127.829 39.52 127.249 40.24 126.489 40.82C125.729 41.4 124.889 41.76 123.929 41.92C123.849 41.96 123.749 41.98 123.669 41.98C123.589 41.98 123.489 42 123.409 42H95.8086V27C100.989 27 105.629 27.02 109.749 27.02C110.909 27.02 112.049 27.04 113.209 27.04C114.349 27.04 115.449 27.04 116.489 27.04C117.529 27.04 118.489 27.06 119.389 27.06C120.269 27.06 121.049 27.06 121.729 27.06C122.389 27.06 122.909 27.08 123.309 27.08C123.689 27.08 123.889 27.08 123.929 27.08C124.869 27.24 125.709 27.62 126.469 28.18C127.209 28.76 127.789 29.46 128.209 30.3ZM123.929 32.8C123.929 32.46 123.849 32.14 123.729 31.84C123.609 31.54 123.429 31.28 123.209 31.04C122.969 30.82 122.709 30.64 122.409 30.52C122.109 30.4 121.789 30.32 121.449 30.32H104.289V30.3H100.689V38.68H104.289V38.66H121.749C122.049 38.64 122.329 38.56 122.609 38.42C122.869 38.28 123.089 38.1 123.289 37.88C123.489 37.66 123.629 37.4 123.749 37.12C123.869 36.84 123.929 36.52 123.929 36.2V32.8ZM165.921 30.32V27V30.32ZM137.681 30.32V34.16C138.121 33.84 138.601 33.58 139.141 33.34C140.121 32.94 141.141 32.72 142.201 32.72H153.741V36.04H142.201C141.281 36.04 140.441 36.3 139.701 36.78C138.961 37.26 138.421 37.9 138.081 38.68H165.921V42H132.801V27H165.921V30.32H137.681ZM165.921 30.32V27V30.32ZM221.334 30.3C221.514 30.7 221.654 31.1 221.774 31.54C221.874 31.98 221.934 32.42 221.934 32.88V36.12C221.934 36.6 221.874 37.04 221.774 37.46C221.674 37.88 221.534 38.28 221.354 38.66C220.954 39.52 220.374 40.24 219.614 40.82C218.854 41.4 218.014 41.76 217.054 41.92C216.974 41.96 216.874 41.98 216.794 41.98C216.714 41.98 216.614 42 216.534 42H188.934V27C194.114 27 198.754 27.02 202.874 27.02C204.034 27.02 205.174 27.04 206.334 27.04C207.474 27.04 208.574 27.04 209.614 27.04C210.654 27.04 211.614 27.06 212.514 27.06C213.394 27.06 214.174 27.06 214.854 27.06C215.514 27.06 216.034 27.08 216.434 27.08C216.814 27.08 217.014 27.08 217.054 27.08C217.994 27.24 218.834 27.62 219.594 28.18C220.334 28.76 220.914 29.46 221.334 30.3ZM217.054 32.8C217.054 32.46 216.974 32.14 216.854 31.84C216.734 31.54 216.554 31.28 216.334 31.04C216.094 30.82 215.834 30.64 215.534 30.52C215.234 30.4 214.914 30.32 214.574 30.32H197.414V30.3H193.814V38.68H197.414V38.66H214.874C215.174 38.64 215.454 38.56 215.734 38.42C215.994 38.28 216.214 38.1 216.414 37.88C216.614 37.66 216.754 37.4 216.874 37.12C216.994 36.84 217.054 36.52 217.054 36.2V32.8ZM259.046 30.32V27V30.32ZM230.806 30.32V34.16C231.246 33.84 231.726 33.58 232.266 33.34C233.246 32.94 234.266 32.72 235.326 32.72H246.866V36.04H235.326C234.406 36.04 233.566 36.3 232.826 36.78C232.086 37.26 231.546 37.9 231.206 38.68H259.046V42H225.926V27H259.046V30.32H230.806ZM259.046 30.32V27V30.32ZM55.12 77.84C55.12 78.44 55 79.02 54.8 79.58C54.6 80.14 54.32 80.62 53.96 81.06C53.6 81.5 53.16 81.88 52.66 82.18C52.16 82.5 51.62 82.7 51.02 82.82L38.56 85.32L26.1 82.82C25.5 82.7 24.94 82.5 24.44 82.18C23.94 81.88 23.52 81.5 23.16 81.06C22.8 80.62 22.5 80.14 22.3 79.58C22.1 79.02 22 78.44 22 77.84V67H26.88V77.32C26.88 77.72 27 78.08 27.26 78.4C27.5 78.72 27.82 78.9 28.22 78.98L38.56 81.22L48.9 78.98C49.28 78.9 49.6 78.72 49.86 78.4C50.1 78.08 50.24 77.72 50.24 77.32V67H55.12V77.84ZM93.385 82H88.485V76.56C88.285 76.7 88.065 76.82 87.865 76.94C87.665 77.06 87.445 77.16 87.225 77.24C86.265 77.64 85.285 77.84 84.285 77.84H69.345C68.745 77.84 68.205 77.96 67.685 78.18C67.165 78.4 66.725 78.7 66.345 79.08C65.965 79.46 65.665 79.9 65.445 80.42C65.225 80.94 65.125 81.48 65.125 82.04L60.125 82V72.84C60.125 72.04 60.265 71.26 60.585 70.54C60.885 69.82 61.305 69.2 61.845 68.66C62.365 68.14 63.005 67.72 63.725 67.4C64.445 67.1 65.205 66.94 66.025 66.94H93.385V82ZM84.285 74.5C84.845 74.5 85.385 74.4 85.905 74.18C86.425 73.96 86.865 73.66 87.245 73.28C87.625 72.9 87.925 72.46 88.145 71.94C88.365 71.44 88.485 70.9 88.485 70.3V70.28V70.26H67.525C67.165 70.26 66.845 70.34 66.545 70.46C66.225 70.6 65.965 70.78 65.745 71C65.505 71.24 65.325 71.5 65.205 71.8C65.085 72.1 65.025 72.42 65.025 72.76V75.88C65.225 75.72 65.445 75.58 65.685 75.46C65.925 75.34 66.165 75.22 66.405 75.1C67.325 74.7 68.305 74.5 69.345 74.5H84.285ZM98.25 82V67H103.13V78.68H123.49C123.93 78.68 124.33 78.6 124.73 78.44C125.13 78.28 125.47 78.04 125.77 77.74C126.05 77.46 126.29 77.12 126.45 76.72C126.61 76.34 126.71 75.92 126.71 75.48H131.37V75.94C131.37 76.78 131.21 77.58 130.89 78.3C130.57 79.04 130.13 79.68 129.59 80.24C129.03 80.8 128.39 81.22 127.65 81.54C126.91 81.86 126.13 82 125.29 82H98.25ZM141.314 67V82H136.434V67H141.314ZM178.716 70.3C178.896 70.7 179.036 71.1 179.156 71.54C179.256 71.98 179.316 72.42 179.316 72.88V76.12C179.316 76.6 179.256 77.04 179.156 77.46C179.056 77.88 178.916 78.28 178.736 78.66C178.336 79.52 177.756 80.24 176.996 80.82C176.236 81.4 175.396 81.76 174.436 81.92C174.356 81.96 174.256 81.98 174.176 81.98C174.096 81.98 173.996 82 173.916 82H146.316V67C151.496 67 156.136 67.02 160.256 67.02C161.416 67.02 162.556 67.04 163.716 67.04C164.856 67.04 165.956 67.04 166.996 67.04C168.036 67.04 168.996 67.06 169.896 67.06C170.776 67.06 171.556 67.06 172.236 67.06C172.896 67.06 173.416 67.08 173.816 67.08C174.196 67.08 174.396 67.08 174.436 67.08C175.376 67.24 176.216 67.62 176.976 68.18C177.716 68.76 178.296 69.46 178.716 70.3ZM174.436 72.8C174.436 72.46 174.356 72.14 174.236 71.84C174.116 71.54 173.936 71.28 173.716 71.04C173.476 70.82 173.216 70.64 172.916 70.52C172.616 70.4 172.296 70.32 171.956 70.32H154.796V70.3H151.196V78.68H154.796V78.66H172.256C172.556 78.64 172.836 78.56 173.116 78.42C173.376 78.28 173.596 78.1 173.796 77.88C173.996 77.66 174.136 77.4 174.256 77.12C174.376 76.84 174.436 76.52 174.436 76.2V72.8ZM216.569 82H211.669V76.56C211.469 76.7 211.249 76.82 211.049 76.94C210.849 77.06 210.629 77.16 210.409 77.24C209.449 77.64 208.469 77.84 207.469 77.84H192.529C191.929 77.84 191.389 77.96 190.869 78.18C190.349 78.4 189.909 78.7 189.529 79.08C189.149 79.46 188.849 79.9 188.629 80.42C188.409 80.94 188.309 81.48 188.309 82.04L183.309 82V72.84C183.309 72.04 183.449 71.26 183.769 70.54C184.069 69.82 184.489 69.2 185.029 68.66C185.549 68.14 186.189 67.72 186.909 67.4C187.629 67.1 188.389 66.94 189.209 66.94H216.569V82ZM207.469 74.5C208.029 74.5 208.569 74.4 209.089 74.18C209.609 73.96 210.049 73.66 210.429 73.28C210.809 72.9 211.109 72.46 211.329 71.94C211.549 71.44 211.669 70.9 211.669 70.3V70.28V70.26H190.709C190.349 70.26 190.029 70.34 189.729 70.46C189.409 70.6 189.149 70.78 188.929 71C188.689 71.24 188.509 71.5 188.389 71.8C188.269 72.1 188.209 72.42 188.209 72.76V75.88C188.409 75.72 188.629 75.58 188.869 75.46C189.109 75.34 189.349 75.22 189.589 75.1C190.509 74.7 191.489 74.5 192.529 74.5H207.469ZM251.534 70.32H238.314C238.954 71.12 239.474 72.02 239.834 72.98C240.194 73.96 240.394 75 240.394 76.08V82H235.514V75.82C235.514 75.06 235.354 74.36 235.074 73.68C234.794 73.02 234.394 72.44 233.914 71.94C233.414 71.44 232.834 71.04 232.174 70.76C231.494 70.48 230.794 70.32 230.034 70.32H221.434V67.02H251.534V70.32ZM260.806 67V82H255.926V67H260.806ZM294.069 67.08C294.749 67.2 295.389 67.44 295.989 67.78C296.589 68.14 297.109 68.56 297.549 69.08C297.989 69.6 298.329 70.18 298.569 70.82C298.809 71.48 298.949 72.16 298.949 72.88V76.12C298.949 76.94 298.789 77.7 298.469 78.42C298.149 79.14 297.729 79.76 297.209 80.28C296.669 80.82 296.049 81.24 295.329 81.54C294.609 81.86 293.869 82 293.069 82H271.709C270.909 82 270.149 81.86 269.429 81.54C268.709 81.24 268.089 80.82 267.569 80.28C267.029 79.76 266.609 79.14 266.289 78.42C265.969 77.7 265.829 76.94 265.829 76.12V72.88C265.829 72.1 265.989 71.36 266.309 70.64C266.609 69.94 267.029 69.32 267.549 68.78C268.069 68.26 268.669 67.84 269.389 67.52C270.109 67.2 270.869 67.04 271.709 67H293.069C293.229 67 293.409 67.02 293.569 67.02C293.729 67.04 293.909 67.06 294.069 67.08ZM294.069 72.8C294.069 72.46 293.989 72.14 293.869 71.84C293.749 71.54 293.569 71.28 293.349 71.04C293.109 70.82 292.849 70.64 292.549 70.5C292.249 70.38 291.929 70.3 291.589 70.3H273.189C272.829 70.3 272.509 70.38 272.209 70.5C271.909 70.64 271.649 70.82 271.429 71.04C271.189 71.28 271.009 71.54 270.889 71.84C270.769 72.14 270.709 72.46 270.709 72.8V76.2C270.709 76.56 270.769 76.88 270.889 77.18C271.009 77.48 271.189 77.74 271.429 77.96C271.649 78.18 271.909 78.36 272.209 78.48C272.509 78.62 272.829 78.68 273.189 78.68H291.589C291.929 78.68 292.249 78.62 292.549 78.48C292.849 78.36 293.109 78.18 293.349 77.96C293.569 77.74 293.749 77.48 293.869 77.18C293.989 76.88 294.069 76.56 294.069 76.2V72.8ZM325.087 82C324.107 82 323.187 81.84 322.327 81.48C321.467 81.14 320.707 80.66 320.027 80.04C319.987 80 319.947 79.96 319.907 79.92C319.867 79.88 319.847 79.84 319.807 79.8C319.127 79.12 318.587 78.34 318.187 77.42C317.787 76.52 317.607 75.54 317.607 74.5C317.607 73.94 317.487 73.4 317.267 72.88C317.047 72.36 316.747 71.92 316.367 71.54C315.987 71.18 315.547 70.88 315.027 70.66C314.507 70.44 313.967 70.32 313.407 70.32H308.227V82H303.367V67H314.967C315.947 67 316.867 67.18 317.727 67.52C318.567 67.88 319.347 68.36 320.027 68.98C320.787 69.66 321.367 70.48 321.807 71.44C322.247 72.4 322.467 73.42 322.467 74.5C322.467 75.1 322.567 75.64 322.787 76.14C323.007 76.66 323.307 77.1 323.687 77.48C324.047 77.86 324.487 78.16 325.007 78.38C325.507 78.6 326.047 78.7 326.647 78.7H331.607V67H336.467V82H325.087Z" fill="#4DADAC"/>
<path d="M1592.73 948.68C1593.05 948.68 1593.35 948.64 1593.63 948.52C1593.91 948.42 1594.15 948.28 1594.37 948.08C1594.59 947.88 1594.77 947.66 1594.91 947.4C1595.05 947.14 1595.15 946.86 1595.19 946.54H1600.07C1600.03 947.3 1599.83 948.02 1599.51 948.68C1599.17 949.36 1598.73 949.94 1598.21 950.42C1597.67 950.92 1597.05 951.3 1596.37 951.58C1595.69 951.86 1594.97 952 1594.21 952H1572.85C1572.05 952 1571.29 951.86 1570.57 951.54C1569.85 951.24 1569.23 950.82 1568.71 950.3C1568.17 949.78 1567.75 949.14 1567.43 948.42C1567.11 947.7 1566.97 946.94 1566.97 946.12V942.88C1566.97 942.08 1567.11 941.3 1567.43 940.58C1567.75 939.86 1568.17 939.24 1568.71 938.7C1569.23 938.18 1569.85 937.76 1570.57 937.44C1571.29 937.14 1572.05 937 1572.85 937H1594.21C1594.97 937 1595.69 937.14 1596.37 937.42C1597.05 937.7 1597.67 938.1 1598.21 938.58C1598.73 939.08 1599.17 939.66 1599.51 940.32C1599.83 941 1600.03 941.7 1600.07 942.46H1595.19C1595.15 942.16 1595.05 941.88 1594.91 941.62C1594.77 941.36 1594.59 941.14 1594.37 940.94C1594.15 940.74 1593.91 940.6 1593.63 940.48C1593.35 940.36 1593.05 940.3 1592.73 940.3H1574.33C1573.97 940.3 1573.65 940.38 1573.35 940.5C1573.05 940.64 1572.79 940.82 1572.57 941.04C1572.33 941.28 1572.15 941.54 1572.03 941.84C1571.91 942.14 1571.85 942.46 1571.85 942.8V946.2C1571.85 946.56 1571.91 946.88 1572.03 947.18C1572.15 947.48 1572.33 947.74 1572.57 947.96C1572.79 948.2 1573.05 948.38 1573.35 948.5C1573.65 948.62 1573.97 948.68 1574.33 948.68H1592.73ZM1632.73 937.08C1633.41 937.2 1634.05 937.44 1634.65 937.78C1635.25 938.14 1635.77 938.56 1636.21 939.08C1636.65 939.6 1636.99 940.18 1637.23 940.82C1637.47 941.48 1637.61 942.16 1637.61 942.88V946.12C1637.61 946.94 1637.45 947.7 1637.13 948.42C1636.81 949.14 1636.39 949.76 1635.87 950.28C1635.33 950.82 1634.71 951.24 1633.99 951.54C1633.27 951.86 1632.53 952 1631.73 952H1610.37C1609.57 952 1608.81 951.86 1608.09 951.54C1607.37 951.24 1606.75 950.82 1606.23 950.28C1605.69 949.76 1605.27 949.14 1604.95 948.42C1604.63 947.7 1604.49 946.94 1604.49 946.12V942.88C1604.49 942.1 1604.65 941.36 1604.97 940.64C1605.27 939.94 1605.69 939.32 1606.21 938.78C1606.73 938.26 1607.33 937.84 1608.05 937.52C1608.77 937.2 1609.53 937.04 1610.37 937H1631.73C1631.89 937 1632.07 937.02 1632.23 937.02C1632.39 937.04 1632.57 937.06 1632.73 937.08ZM1632.73 942.8C1632.73 942.46 1632.65 942.14 1632.53 941.84C1632.41 941.54 1632.23 941.28 1632.01 941.04C1631.77 940.82 1631.51 940.64 1631.21 940.5C1630.91 940.38 1630.59 940.3 1630.25 940.3H1611.85C1611.49 940.3 1611.17 940.38 1610.87 940.5C1610.57 940.64 1610.31 940.82 1610.09 941.04C1609.85 941.28 1609.67 941.54 1609.55 941.84C1609.43 942.14 1609.37 942.46 1609.37 942.8V946.2C1609.37 946.56 1609.43 946.88 1609.55 947.18C1609.67 947.48 1609.85 947.74 1610.09 947.96C1610.31 948.18 1610.57 948.36 1610.87 948.48C1611.17 948.62 1611.49 948.68 1611.85 948.68H1630.25C1630.59 948.68 1630.91 948.62 1631.21 948.48C1631.51 948.36 1631.77 948.18 1632.01 947.96C1632.23 947.74 1632.41 947.48 1632.53 947.18C1632.65 946.88 1632.73 946.56 1632.73 946.2V942.8ZM1673.16 940.3C1673.34 940.7 1673.48 941.1 1673.6 941.54C1673.7 941.98 1673.76 942.42 1673.76 942.88V946.12C1673.76 946.6 1673.7 947.04 1673.6 947.46C1673.5 947.88 1673.36 948.28 1673.18 948.66C1672.78 949.52 1672.2 950.24 1671.44 950.82C1670.68 951.4 1669.84 951.76 1668.88 951.92C1668.8 951.96 1668.7 951.98 1668.62 951.98C1668.54 951.98 1668.44 952 1668.36 952H1640.76V937C1645.94 937 1650.58 937.02 1654.7 937.02C1655.86 937.02 1657 937.04 1658.16 937.04C1659.3 937.04 1660.4 937.04 1661.44 937.04C1662.48 937.04 1663.44 937.06 1664.34 937.06C1665.22 937.06 1666 937.06 1666.68 937.06C1667.34 937.06 1667.86 937.08 1668.26 937.08C1668.64 937.08 1668.84 937.08 1668.88 937.08C1669.82 937.24 1670.66 937.62 1671.42 938.18C1672.16 938.76 1672.74 939.46 1673.16 940.3ZM1668.88 942.8C1668.88 942.46 1668.8 942.14 1668.68 941.84C1668.56 941.54 1668.38 941.28 1668.16 941.04C1667.92 940.82 1667.66 940.64 1667.36 940.52C1667.06 940.4 1666.74 940.32 1666.4 940.32H1649.24V940.3H1645.64V948.68H1649.24V948.66H1666.7C1667 948.64 1667.28 948.56 1667.56 948.42C1667.82 948.28 1668.04 948.1 1668.24 947.88C1668.44 947.66 1668.58 947.4 1668.7 947.12C1668.82 946.84 1668.88 946.52 1668.88 946.2V942.8ZM1710.87 940.32V937V940.32ZM1682.63 940.32V944.16C1683.07 943.84 1683.55 943.58 1684.09 943.34C1685.07 942.94 1686.09 942.72 1687.15 942.72H1698.69V946.04H1687.15C1686.23 946.04 1685.39 946.3 1684.65 946.78C1683.91 947.26 1683.37 947.9 1683.03 948.68H1710.87V952H1677.75V937H1710.87V940.32H1682.63ZM1710.87 940.32V937V940.32ZM1766.28 940.3C1766.46 940.7 1766.6 941.1 1766.72 941.54C1766.82 941.98 1766.88 942.42 1766.88 942.88V946.12C1766.88 946.6 1766.82 947.04 1766.72 947.46C1766.62 947.88 1766.48 948.28 1766.3 948.66C1765.9 949.52 1765.32 950.24 1764.56 950.82C1763.8 951.4 1762.96 951.76 1762 951.92C1761.92 951.96 1761.82 951.98 1761.74 951.98C1761.66 951.98 1761.56 952 1761.48 952H1733.88V937C1739.06 937 1743.7 937.02 1747.82 937.02C1748.98 937.02 1750.12 937.04 1751.28 937.04C1752.42 937.04 1753.52 937.04 1754.56 937.04C1755.6 937.04 1756.56 937.06 1757.46 937.06C1758.34 937.06 1759.12 937.06 1759.8 937.06C1760.46 937.06 1760.98 937.08 1761.38 937.08C1761.76 937.08 1761.96 937.08 1762 937.08C1762.94 937.24 1763.78 937.62 1764.54 938.18C1765.28 938.76 1765.86 939.46 1766.28 940.3ZM1762 942.8C1762 942.46 1761.92 942.14 1761.8 941.84C1761.68 941.54 1761.5 941.28 1761.28 941.04C1761.04 940.82 1760.78 940.64 1760.48 940.52C1760.18 940.4 1759.86 940.32 1759.52 940.32H1742.36V940.3H1738.76V948.68H1742.36V948.66H1759.82C1760.12 948.64 1760.4 948.56 1760.68 948.42C1760.94 948.28 1761.16 948.1 1761.36 947.88C1761.56 947.66 1761.7 947.4 1761.82 947.12C1761.94 946.84 1762 946.52 1762 946.2V942.8ZM1804 940.32V937V940.32ZM1775.76 940.32V944.16C1776.2 943.84 1776.68 943.58 1777.22 943.34C1778.2 942.94 1779.22 942.72 1780.28 942.72H1791.82V946.04H1780.28C1779.36 946.04 1778.52 946.3 1777.78 946.78C1777.04 947.26 1776.5 947.9 1776.15 948.68H1804V952H1770.88V937H1804V940.32H1775.76ZM1804 940.32V937V940.32ZM1522.65 987.84C1522.65 988.44 1522.53 989.02 1522.33 989.58C1522.13 990.14 1521.85 990.62 1521.49 991.06C1521.13 991.5 1520.69 991.88 1520.19 992.18C1519.69 992.5 1519.15 992.7 1518.55 992.82L1506.09 995.32L1493.63 992.82C1493.03 992.7 1492.47 992.5 1491.97 992.18C1491.47 991.88 1491.05 991.5 1490.69 991.06C1490.33 990.62 1490.03 990.14 1489.83 989.58C1489.63 989.02 1489.53 988.44 1489.53 987.84V977H1494.41V987.32C1494.41 987.72 1494.53 988.08 1494.79 988.4C1495.03 988.72 1495.35 988.9 1495.75 988.98L1506.09 991.22L1516.43 988.98C1516.81 988.9 1517.13 988.72 1517.39 988.4C1517.63 988.08 1517.77 987.72 1517.77 987.32V977H1522.65V987.84ZM1560.91 992H1556.01V986.56C1555.81 986.7 1555.59 986.82 1555.39 986.94C1555.19 987.06 1554.97 987.16 1554.75 987.24C1553.79 987.64 1552.81 987.84 1551.81 987.84H1536.87C1536.27 987.84 1535.73 987.96 1535.21 988.18C1534.69 988.4 1534.25 988.7 1533.87 989.08C1533.49 989.46 1533.19 989.9 1532.97 990.42C1532.75 990.94 1532.65 991.48 1532.65 992.04L1527.65 992V982.84C1527.65 982.04 1527.79 981.26 1528.11 980.54C1528.41 979.82 1528.83 979.2 1529.37 978.66C1529.89 978.14 1530.53 977.72 1531.25 977.4C1531.97 977.1 1532.73 976.94 1533.55 976.94H1560.91V992ZM1551.81 984.5C1552.37 984.5 1552.91 984.4 1553.43 984.18C1553.95 983.96 1554.39 983.66 1554.77 983.28C1555.15 982.9 1555.45 982.46 1555.67 981.94C1555.89 981.44 1556.01 980.9 1556.01 980.3V980.28V980.26H1535.05C1534.69 980.26 1534.37 980.34 1534.07 980.46C1533.75 980.6 1533.49 980.78 1533.27 981C1533.03 981.24 1532.85 981.5 1532.73 981.8C1532.61 982.1 1532.55 982.42 1532.55 982.76V985.88C1532.75 985.72 1532.97 985.58 1533.21 985.46C1533.45 985.34 1533.69 985.22 1533.93 985.1C1534.85 984.7 1535.83 984.5 1536.87 984.5H1551.81ZM1565.78 992V977H1570.66V988.68H1591.02C1591.46 988.68 1591.86 988.6 1592.26 988.44C1592.66 988.28 1593 988.04 1593.3 987.74C1593.58 987.46 1593.82 987.12 1593.98 986.72C1594.14 986.34 1594.24 985.92 1594.24 985.48H1598.9V985.94C1598.9 986.78 1598.74 987.58 1598.42 988.3C1598.1 989.04 1597.66 989.68 1597.12 990.24C1596.56 990.8 1595.92 991.22 1595.18 991.54C1594.44 991.86 1593.66 992 1592.82 992H1565.78ZM1608.84 977V992H1603.96V977H1608.84ZM1646.24 980.3C1646.42 980.7 1646.56 981.1 1646.68 981.54C1646.78 981.98 1646.84 982.42 1646.84 982.88V986.12C1646.84 986.6 1646.78 987.04 1646.68 987.46C1646.58 987.88 1646.44 988.28 1646.26 988.66C1645.86 989.52 1645.28 990.24 1644.52 990.82C1643.76 991.4 1642.92 991.76 1641.96 991.92C1641.88 991.96 1641.78 991.98 1641.7 991.98C1641.62 991.98 1641.52 992 1641.44 992H1613.84V977C1619.02 977 1623.66 977.02 1627.78 977.02C1628.94 977.02 1630.08 977.04 1631.24 977.04C1632.38 977.04 1633.48 977.04 1634.52 977.04C1635.56 977.04 1636.52 977.06 1637.42 977.06C1638.3 977.06 1639.08 977.06 1639.76 977.06C1640.42 977.06 1640.94 977.08 1641.34 977.08C1641.72 977.08 1641.92 977.08 1641.96 977.08C1642.9 977.24 1643.74 977.62 1644.5 978.18C1645.24 978.76 1645.82 979.46 1646.24 980.3ZM1641.96 982.8C1641.96 982.46 1641.88 982.14 1641.76 981.84C1641.64 981.54 1641.46 981.28 1641.24 981.04C1641 980.82 1640.74 980.64 1640.44 980.52C1640.14 980.4 1639.82 980.32 1639.48 980.32H1622.32V980.3H1618.72V988.68H1622.32V988.66H1639.78C1640.08 988.64 1640.36 988.56 1640.64 988.42C1640.9 988.28 1641.12 988.1 1641.32 987.88C1641.52 987.66 1641.66 987.4 1641.78 987.12C1641.9 986.84 1641.96 986.52 1641.96 986.2V982.8ZM1684.1 992H1679.2V986.56C1679 986.7 1678.78 986.82 1678.58 986.94C1678.38 987.06 1678.16 987.16 1677.94 987.24C1676.98 987.64 1676 987.84 1675 987.84H1660.06C1659.46 987.84 1658.92 987.96 1658.4 988.18C1657.88 988.4 1657.44 988.7 1657.06 989.08C1656.68 989.46 1656.38 989.9 1656.16 990.42C1655.94 990.94 1655.84 991.48 1655.84 992.04L1650.84 992V982.84C1650.84 982.04 1650.98 981.26 1651.3 980.54C1651.6 979.82 1652.02 979.2 1652.56 978.66C1653.08 978.14 1653.72 977.72 1654.44 977.4C1655.16 977.1 1655.92 976.94 1656.74 976.94H1684.1V992ZM1675 984.5C1675.56 984.5 1676.1 984.4 1676.62 984.18C1677.14 983.96 1677.58 983.66 1677.96 983.28C1678.34 982.9 1678.64 982.46 1678.86 981.94C1679.08 981.44 1679.2 980.9 1679.2 980.3V980.28V980.26H1658.24C1657.88 980.26 1657.56 980.34 1657.26 980.46C1656.94 980.6 1656.68 980.78 1656.46 981C1656.22 981.24 1656.04 981.5 1655.92 981.8C1655.8 982.1 1655.74 982.42 1655.74 982.76V985.88C1655.94 985.72 1656.16 985.58 1656.4 985.46C1656.64 985.34 1656.88 985.22 1657.12 985.1C1658.04 984.7 1659.02 984.5 1660.06 984.5H1675ZM1719.06 980.32H1705.84C1706.48 981.12 1707 982.02 1707.36 982.98C1707.72 983.96 1707.92 985 1707.92 986.08V992H1703.04V985.82C1703.04 985.06 1702.88 984.36 1702.6 983.68C1702.32 983.02 1701.92 982.44 1701.44 981.94C1700.94 981.44 1700.36 981.04 1699.7 980.76C1699.02 980.48 1698.32 980.32 1697.56 980.32H1688.96V977.02H1719.06V980.32ZM1728.33 977V992H1723.45V977H1728.33ZM1761.6 977.08C1762.28 977.2 1762.92 977.44 1763.52 977.78C1764.12 978.14 1764.64 978.56 1765.08 979.08C1765.52 979.6 1765.86 980.18 1766.1 980.82C1766.34 981.48 1766.48 982.16 1766.48 982.88V986.12C1766.48 986.94 1766.32 987.7 1766 988.42C1765.68 989.14 1765.26 989.76 1764.74 990.28C1764.2 990.82 1763.58 991.24 1762.86 991.54C1762.14 991.86 1761.4 992 1760.6 992H1739.24C1738.44 992 1737.68 991.86 1736.96 991.54C1736.24 991.24 1735.62 990.82 1735.1 990.28C1734.56 989.76 1734.14 989.14 1733.82 988.42C1733.5 987.7 1733.36 986.94 1733.36 986.12V982.88C1733.36 982.1 1733.52 981.36 1733.84 980.64C1734.14 979.94 1734.56 979.32 1735.08 978.78C1735.6 978.26 1736.2 977.84 1736.92 977.52C1737.64 977.2 1738.4 977.04 1739.24 977H1760.6C1760.76 977 1760.94 977.02 1761.1 977.02C1761.26 977.04 1761.44 977.06 1761.6 977.08ZM1761.6 982.8C1761.6 982.46 1761.52 982.14 1761.4 981.84C1761.28 981.54 1761.1 981.28 1760.88 981.04C1760.64 980.82 1760.38 980.64 1760.08 980.5C1759.78 980.38 1759.46 980.3 1759.12 980.3H1740.72C1740.36 980.3 1740.04 980.38 1739.74 980.5C1739.44 980.64 1739.18 980.82 1738.96 981.04C1738.72 981.28 1738.54 981.54 1738.42 981.84C1738.3 982.14 1738.24 982.46 1738.24 982.8V986.2C1738.24 986.56 1738.3 986.88 1738.42 987.18C1738.54 987.48 1738.72 987.74 1738.96 987.96C1739.18 988.18 1739.44 988.36 1739.74 988.48C1740.04 988.62 1740.36 988.68 1740.72 988.68H1759.12C1759.46 988.68 1759.78 988.62 1760.08 988.48C1760.38 988.36 1760.64 988.18 1760.88 987.96C1761.1 987.74 1761.28 987.48 1761.4 987.18C1761.52 986.88 1761.6 986.56 1761.6 986.2V982.8ZM1792.61 992C1791.63 992 1790.71 991.84 1789.85 991.48C1788.99 991.14 1788.23 990.66 1787.55 990.04C1787.51 990 1787.47 989.96 1787.43 989.92C1787.39 989.88 1787.37 989.84 1787.33 989.8C1786.65 989.12 1786.11 988.34 1785.71 987.42C1785.31 986.52 1785.13 985.54 1785.13 984.5C1785.13 983.94 1785.01 983.4 1784.79 982.88C1784.57 982.36 1784.27 981.92 1783.89 981.54C1783.51 981.18 1783.07 980.88 1782.55 980.66C1782.03 980.44 1781.49 980.32 1780.93 980.32H1775.75V992H1770.89V977H1782.49C1783.47 977 1784.39 977.18 1785.25 977.52C1786.09 977.88 1786.87 978.36 1787.55 978.98C1788.31 979.66 1788.89 980.48 1789.33 981.44C1789.77 982.4 1789.99 983.42 1789.99 984.5C1789.99 985.1 1790.09 985.64 1790.31 986.14C1790.53 986.66 1790.83 987.1 1791.21 987.48C1791.57 987.86 1792.01 988.16 1792.53 988.38C1793.03 988.6 1793.57 988.7 1794.17 988.7H1799.13V977H1803.99V992H1792.61Z" fill="#4DADAC"/>
<g filter="url(#filter0_f_171_2340)">
<path d="M1804 27V898.25H1713.5H1503L1406 987H22" stroke="#4DADAC" stroke-width="10"/>
<path d="M26.9998 987V115.75H117.5H328L425 27H1809" stroke="#4DADAC" stroke-width="10"/>
</g>
<defs>
<filter id="filter0_f_171_2340" x="-0.000244141" y="0" width="1831" height="1014" filterUnits="userSpaceOnUse" color-interpolation-filters="sRGB">
<feFlood flood-opacity="0" result="BackgroundImageFix"/>
<feBlend mode="normal" in="SourceGraphic" in2="BackgroundImageFix" result="shape"/>
<feGaussianBlur stdDeviation="11" result="effect1_foregroundBlur_171_2340"/>
</filter>
</defs>
</svg>
