<svg width="414" height="81" viewBox="0 0 414 81" fill="none" xmlns="http://www.w3.org/2000/svg">
<g filter="url(#filter0_d_335_13)">
<path d="M5 46.152V72H119.867L130.349 65.1579H284.961L294.133 72H409V46.152L386.289 7H28.5849L5 46.152Z" fill="#343332"/>
<path d="M5 46.152V72H119.867L130.349 65.1579H284.961L294.133 72H409V46.152L386.289 7H28.5849L5 46.152Z" stroke="#0A022D" stroke-width="2"/>
</g>
<g filter="url(#filter1_dii_335_13)">
<path d="M5 40.152V66H119.867L130.349 59.1579H284.961L294.133 66H409V40.152L386.289 1H28.5849L5 40.152Z" fill="#FF0000"/>
<path d="M5 40.152V66H119.867L130.349 59.1579H284.961L294.133 66H409V40.152L386.289 1H28.5849L5 40.152Z" stroke="#0A022D" stroke-width="2"/>
</g>
<path d="M108.194 31.796V31.778L108.212 31.796H108.194ZM103.64 29.834C103.946 30.482 104.396 31.022 105.008 31.418C105.62 31.814 106.304 32.012 107.06 32.012H115.952V35H105.656C104.756 35 103.928 34.856 103.154 34.532C102.362 34.226 101.678 33.794 101.066 33.218C101.03 33.182 100.994 33.146 100.958 33.11C100.922 33.074 100.904 33.038 100.868 33.002C100.436 32.57 100.058 32.102 99.752 31.562C99.428 31.022 99.212 30.446 99.068 29.834H94.136C93.632 29.87 93.146 29.978 92.714 30.176C92.264 30.374 91.868 30.644 91.526 30.986C91.202 31.31 90.932 31.67 90.752 32.066C90.572 32.462 90.446 32.894 90.41 33.326V33.344V35H90.392H86V21.5H111.794C112.37 21.5 112.91 21.626 113.414 21.842C113.918 22.058 114.35 22.364 114.728 22.742C115.106 23.12 115.412 23.552 115.628 24.056C115.844 24.56 115.97 25.1 115.97 25.676C115.97 26.252 115.844 26.792 115.628 27.296C115.412 27.8 115.106 28.25 114.728 28.628C114.35 29.006 113.918 29.294 113.414 29.51C112.91 29.726 112.37 29.834 111.794 29.834H103.64ZM110.39 26.846C110.714 26.846 110.984 26.738 111.218 26.504C111.308 26.396 111.38 26.288 111.452 26.144C111.524 26 111.56 25.856 111.56 25.676C111.56 25.352 111.434 25.082 111.218 24.848C110.984 24.614 110.714 24.488 110.39 24.488H90.41V28.016C90.59 27.89 90.77 27.782 90.968 27.674C91.148 27.584 91.346 27.494 91.562 27.386C92.228 27.116 92.894 26.936 93.56 26.864H93.884C93.956 26.864 94.046 26.864 94.118 26.864C94.19 26.864 94.226 26.846 94.262 26.846H110.39ZM150.279 24.488V21.5V24.488ZM124.863 24.488V27.944C125.259 27.656 125.691 27.422 126.177 27.206C127.059 26.846 127.977 26.648 128.931 26.648H139.317V29.636H128.931C128.103 29.636 127.347 29.87 126.681 30.302C126.015 30.734 125.529 31.31 125.223 32.012H150.279V35H120.471V21.5H150.279V24.488H124.863ZM150.279 24.488V21.5V24.488ZM180.433 21.5C181.009 21.5 181.549 21.608 182.053 21.824C182.557 22.04 182.989 22.346 183.367 22.724C183.745 23.102 184.051 23.534 184.267 24.038C184.483 24.542 184.591 25.082 184.591 25.658C184.591 26.234 184.483 26.774 184.267 27.278C184.051 27.782 183.745 28.214 183.367 28.592C182.989 28.97 182.557 29.258 182.053 29.474C181.549 29.69 181.009 29.798 180.433 29.798H162.667C161.893 29.798 161.191 29.996 160.579 30.392C159.949 30.788 159.481 31.31 159.157 31.94V35H154.783V21.5H180.433ZM180.217 25.658C180.217 25.334 180.091 25.064 179.857 24.83C179.623 24.614 179.353 24.488 179.029 24.488H159.157V27.764C159.283 27.692 159.409 27.638 159.553 27.566C159.697 27.494 159.823 27.44 159.967 27.368C160.849 27.008 161.749 26.81 162.667 26.81H169.021H179.029C179.353 26.81 179.623 26.702 179.857 26.468C180.091 26.252 180.217 25.982 180.217 25.658ZM218.485 35H214.075V30.104C213.895 30.23 213.697 30.338 213.517 30.446C213.337 30.554 213.139 30.644 212.941 30.716C212.077 31.076 211.195 31.256 210.295 31.256H196.849C196.309 31.256 195.823 31.364 195.355 31.562C194.887 31.76 194.491 32.03 194.149 32.372C193.807 32.714 193.537 33.11 193.339 33.578C193.141 34.046 193.051 34.532 193.051 35.036L188.551 35V26.756C188.551 26.036 188.677 25.334 188.965 24.686C189.235 24.038 189.613 23.48 190.099 22.994C190.567 22.526 191.143 22.148 191.791 21.86C192.439 21.59 193.123 21.446 193.861 21.446H218.485V35ZM210.295 28.25C210.799 28.25 211.285 28.16 211.753 27.962C212.221 27.764 212.617 27.494 212.959 27.152C213.301 26.81 213.571 26.414 213.769 25.946C213.967 25.496 214.075 25.01 214.075 24.47V24.452V24.434H195.211C194.887 24.434 194.599 24.506 194.329 24.614C194.041 24.74 193.807 24.902 193.609 25.1C193.393 25.316 193.231 25.55 193.123 25.82C193.015 26.09 192.961 26.378 192.961 26.684V29.492C193.141 29.348 193.339 29.222 193.555 29.114C193.771 29.006 193.987 28.898 194.203 28.79C195.031 28.43 195.913 28.25 196.849 28.25H210.295ZM245.057 31.796V31.778L245.075 31.796H245.057ZM240.503 29.834C240.809 30.482 241.259 31.022 241.871 31.418C242.483 31.814 243.167 32.012 243.923 32.012H252.815V35H242.519C241.619 35 240.791 34.856 240.017 34.532C239.225 34.226 238.541 33.794 237.929 33.218C237.893 33.182 237.857 33.146 237.821 33.11C237.785 33.074 237.767 33.038 237.731 33.002C237.299 32.57 236.921 32.102 236.615 31.562C236.291 31.022 236.075 30.446 235.931 29.834H230.999C230.495 29.87 230.009 29.978 229.577 30.176C229.127 30.374 228.731 30.644 228.389 30.986C228.065 31.31 227.795 31.67 227.615 32.066C227.435 32.462 227.309 32.894 227.273 33.326V33.344V35H227.255H222.863V21.5H248.657C249.233 21.5 249.773 21.626 250.277 21.842C250.781 22.058 251.213 22.364 251.591 22.742C251.969 23.12 252.275 23.552 252.491 24.056C252.707 24.56 252.833 25.1 252.833 25.676C252.833 26.252 252.707 26.792 252.491 27.296C252.275 27.8 251.969 28.25 251.591 28.628C251.213 29.006 250.781 29.294 250.277 29.51C249.773 29.726 249.233 29.834 248.657 29.834H240.503ZM247.253 26.846C247.577 26.846 247.847 26.738 248.081 26.504C248.171 26.396 248.243 26.288 248.315 26.144C248.387 26 248.423 25.856 248.423 25.676C248.423 25.352 248.297 25.082 248.081 24.848C247.847 24.614 247.577 24.488 247.253 24.488H227.273V28.016C227.453 27.89 227.633 27.782 227.831 27.674C228.011 27.584 228.209 27.494 228.425 27.386C229.091 27.116 229.757 26.936 230.423 26.864H230.747C230.819 26.864 230.909 26.864 230.981 26.864C231.053 26.864 231.089 26.846 231.125 26.846H247.253ZM287.142 24.488V21.5V24.488ZM261.726 24.488V27.944C262.122 27.656 262.554 27.422 263.04 27.206C263.922 26.846 264.84 26.648 265.794 26.648H276.18V29.636H265.794C264.966 29.636 264.21 29.87 263.544 30.302C262.878 30.734 262.392 31.31 262.086 32.012H287.142V35H257.334V21.5H287.142V24.488H261.726ZM287.142 24.488V21.5V24.488ZM313.84 31.796V31.778L313.858 31.796H313.84ZM309.286 29.834C309.592 30.482 310.042 31.022 310.654 31.418C311.266 31.814 311.95 32.012 312.706 32.012H321.598V35H311.302C310.402 35 309.574 34.856 308.8 34.532C308.008 34.226 307.324 33.794 306.712 33.218C306.676 33.182 306.64 33.146 306.604 33.11C306.568 33.074 306.55 33.038 306.514 33.002C306.082 32.57 305.704 32.102 305.398 31.562C305.074 31.022 304.858 30.446 304.714 29.834H299.782C299.278 29.87 298.792 29.978 298.36 30.176C297.91 30.374 297.514 30.644 297.172 30.986C296.848 31.31 296.578 31.67 296.398 32.066C296.218 32.462 296.092 32.894 296.056 33.326V33.344V35H296.038H291.646V21.5H317.44C318.016 21.5 318.556 21.626 319.06 21.842C319.564 22.058 319.996 22.364 320.374 22.742C320.752 23.12 321.058 23.552 321.274 24.056C321.49 24.56 321.616 25.1 321.616 25.676C321.616 26.252 321.49 26.792 321.274 27.296C321.058 27.8 320.752 28.25 320.374 28.628C319.996 29.006 319.564 29.294 319.06 29.51C318.556 29.726 318.016 29.834 317.44 29.834H309.286ZM316.036 26.846C316.36 26.846 316.63 26.738 316.864 26.504C316.954 26.396 317.026 26.288 317.098 26.144C317.17 26 317.206 25.856 317.206 25.676C317.206 25.352 317.08 25.082 316.864 24.848C316.63 24.614 316.36 24.488 316.036 24.488H296.056V28.016C296.236 27.89 296.416 27.782 296.614 27.674C296.794 27.584 296.992 27.494 297.208 27.386C297.874 27.116 298.54 26.936 299.206 26.864H299.53C299.602 26.864 299.692 26.864 299.764 26.864C299.836 26.864 299.872 26.846 299.908 26.846H316.036Z" fill="#0A022D"/>
<defs>
<filter id="filter0_d_335_13" x="0" y="6" width="414" height="75" filterUnits="userSpaceOnUse" color-interpolation-filters="sRGB">
<feFlood flood-opacity="0" result="BackgroundImageFix"/>
<feColorMatrix in="SourceAlpha" type="matrix" values="0 0 0 0 0 0 0 0 0 0 0 0 0 0 0 0 0 0 127 0" result="hardAlpha"/>
<feOffset dy="4"/>
<feGaussianBlur stdDeviation="2"/>
<feComposite in2="hardAlpha" operator="out"/>
<feColorMatrix type="matrix" values="0 0 0 0 0 0 0 0 0 0 0 0 0 0 0 0 0 0 0.5 0"/>
<feBlend mode="normal" in2="BackgroundImageFix" result="effect1_dropShadow_335_13"/>
<feBlend mode="normal" in="SourceGraphic" in2="effect1_dropShadow_335_13" result="shape"/>
</filter>
<filter id="filter1_dii_335_13" x="0" y="-4" width="414" height="79" filterUnits="userSpaceOnUse" color-interpolation-filters="sRGB">
<feFlood flood-opacity="0" result="BackgroundImageFix"/>
<feColorMatrix in="SourceAlpha" type="matrix" values="0 0 0 0 0 0 0 0 0 0 0 0 0 0 0 0 0 0 127 0" result="hardAlpha"/>
<feOffset dy="4"/>
<feGaussianBlur stdDeviation="2"/>
<feComposite in2="hardAlpha" operator="out"/>
<feColorMatrix type="matrix" values="0 0 0 0 0 0 0 0 0 0 0 0 0 0 0 0 0 0 0.6 0"/>
<feBlend mode="normal" in2="BackgroundImageFix" result="effect1_dropShadow_335_13"/>
<feBlend mode="normal" in="SourceGraphic" in2="effect1_dropShadow_335_13" result="shape"/>
<feColorMatrix in="SourceAlpha" type="matrix" values="0 0 0 0 0 0 0 0 0 0 0 0 0 0 0 0 0 0 127 0" result="hardAlpha"/>
<feOffset dx="4" dy="4"/>
<feGaussianBlur stdDeviation="9"/>
<feComposite in2="hardAlpha" operator="arithmetic" k2="-1" k3="1"/>
<feColorMatrix type="matrix" values="0 0 0 0 0 0 0 0 0 0 0 0 0 0 0 0 0 0 0.6 0"/>
<feBlend mode="normal" in2="shape" result="effect2_innerShadow_335_13"/>
<feColorMatrix in="SourceAlpha" type="matrix" values="0 0 0 0 0 0 0 0 0 0 0 0 0 0 0 0 0 0 127 0" result="hardAlpha"/>
<feOffset dx="-4" dy="-4"/>
<feGaussianBlur stdDeviation="11"/>
<feComposite in2="hardAlpha" operator="arithmetic" k2="-1" k3="1"/>
<feColorMatrix type="matrix" values="0 0 0 0 0 0 0 0 0 0 0 0 0 0 0 0 0 0 0.6 0"/>
<feBlend mode="normal" in2="effect2_innerShadow_335_13" result="effect3_innerShadow_335_13"/>
</filter>
</defs>
</svg>
