<svg width="152" height="150" viewBox="0 0 152 150" fill="none" xmlns="http://www.w3.org/2000/svg">
<path d="M8.5 47.0555V104.944L46.9629 142H104.053L143.502 104.933V47.0665L104.042 9H46.9744L8.5 47.0555Z" fill="url(#paint0_radial_125_33)" stroke="#4DADAC" stroke-width="3"/>
<g filter="url(#filter0_f_125_33)">
<path d="M30.5902 56.5374V96.1498L57.1566 121.5H96.6427L123.894 96.1387V56.5485L96.6313 30.5H57.1681L30.5902 56.5374Z" stroke="#4DADAC" stroke-width="3"/>
</g>
<g filter="url(#filter1_d_125_33)">
<path d="M29.0902 96.7918L56.5558 123H97.2327L125.394 96.7918V55.9071L97.2327 29H56.5558L29.0902 55.9071V96.7918Z" stroke="#4DADAC" stroke-width="3" shape-rendering="crispEdges"/>
</g>
<g filter="url(#filter2_f_125_33)">
<path d="M98.5803 76C98.5803 63.8429 88.7977 54 76.7455 54C64.6932 54 54.9106 63.8429 54.9106 76C54.9106 88.1571 64.6932 98 76.7455 98C88.7977 98 98.5803 88.1571 98.5803 76Z" stroke="#4DADAC" stroke-width="2"/>
</g>
<ellipse cx="22.8348" cy="23" rx="22.8348" ry="23" transform="matrix(1 0 0 -1 53.9106 99)" stroke="#4DADAC" stroke-width="2"/>
<g filter="url(#filter3_f_125_33)">
<path d="M8.74817 46.5555V104.444L47.2111 141.5H104.301L143.75 104.433V46.5665L104.29 8.5H47.2226L8.74817 46.5555Z" stroke="#4DADAC" stroke-width="3"/>
</g>
<line y1="-0.5" x2="14.0914" y2="-0.5" transform="matrix(0.704554 0.70965 0.704554 -0.70965 42.9896 42)" stroke="#4DADAC"/>
<ellipse cx="1.98564" cy="2" rx="1.98564" ry="2" transform="matrix(1 0 0 -1 49.9395 54)" fill="#4DADAC"/>
<line y1="-0.5" x2="14.0914" y2="-0.5" transform="matrix(-0.704554 0.70965 -0.704554 -0.70965 110.501 42)" stroke="#4DADAC"/>
<ellipse cx="101.566" cy="52" rx="1.98564" ry="2" transform="rotate(-180 101.566 52)" fill="#4DADAC"/>
<line y1="-0.5" x2="14.0914" y2="-0.5" transform="matrix(-0.704554 -0.70965 -0.704554 0.70965 110.501 110)" stroke="#4DADAC"/>
<ellipse cx="1.98564" cy="2" rx="1.98564" ry="2" transform="matrix(-1 0 0 1 103.552 98)" fill="#4DADAC"/>
<line y1="-0.5" x2="14.0914" y2="-0.5" transform="matrix(0.704554 -0.70965 0.704554 0.70965 42.9896 110)" stroke="#4DADAC"/>
<ellipse cx="51.9251" cy="100" rx="1.98564" ry="2" fill="#4DADAC"/>
<g filter="url(#filter4_d_125_33)">
<mask id="path-15-outside-1_125_33" maskUnits="userSpaceOnUse" x="10.2456" y="8" width="134" height="94" fill="black">
<rect fill="white" x="10.2456" y="8" width="134" height="94"/>
<path fill-rule="evenodd" clip-rule="evenodd" d="M11.2456 65.5718L11.2456 85.4281H28.0992L28.1171 85.4281C28.6632 85.4238 29.1049 84.9821 29.1092 84.436L29.1092 84.4182V81.4568H79V100.5C79 101.052 79.4477 101.5 80 101.5L143 101.5V50.5H82V20L84.99 20L85.0079 20C85.554 19.9957 85.9957 19.554 86 19.0079L86 18.99V9L66 9V18.99L66 19.0079C66.0043 19.554 66.446 19.9957 66.9921 20L67.01 20H70V69.543H29.1092V66.5818L29.1092 66.5639C29.1049 66.0178 28.6632 65.5761 28.1171 65.5718L28.0992 65.5718H11.2456Z"/>
</mask>
<path fill-rule="evenodd" clip-rule="evenodd" d="M11.2456 65.5718L11.2456 85.4281H28.0992L28.1171 85.4281C28.6632 85.4238 29.1049 84.9821 29.1092 84.436L29.1092 84.4182V81.4568H79V100.5C79 101.052 79.4477 101.5 80 101.5L143 101.5V50.5H82V20L84.99 20L85.0079 20C85.554 19.9957 85.9957 19.554 86 19.0079L86 18.99V9L66 9V18.99L66 19.0079C66.0043 19.554 66.446 19.9957 66.9921 20L67.01 20H70V69.543H29.1092V66.5818L29.1092 66.5639C29.1049 66.0178 28.6632 65.5761 28.1171 65.5718L28.0992 65.5718H11.2456Z" fill="url(#paint1_linear_125_33)"/>
<path d="M11.2456 85.4281V85.9281H10.7456V85.4281H11.2456ZM11.2456 65.5718H10.7456V65.0718H11.2456V65.5718ZM28.0992 85.4281L28.1001 85.9281H28.0992V85.4281ZM28.1171 85.4281L28.121 85.9281L28.118 85.9281L28.1171 85.4281ZM29.1092 84.436L29.6092 84.4369L29.6092 84.4399L29.1092 84.436ZM29.1092 84.4182H29.6092L29.6092 84.419L29.1092 84.4182ZM29.1092 81.4568H28.6092V80.9568H29.1092V81.4568ZM79 81.4568V80.9568H79.5V81.4568H79ZM143 101.5H143.5V102H143V101.5ZM143 50.5V50H143.5V50.5H143ZM82 50.5V51H81.5V50.5H82ZM82 20H81.5V19.5H82V20ZM84.99 20L84.9909 20.5H84.99V20ZM85.0079 20L85.0118 20.5L85.0087 20.5L85.0079 20ZM86 19.0079L86.5 19.0087L86.5 19.0118L86 19.0079ZM86 18.99L86.5 18.99L86.5 18.9909L86 18.99ZM86 9V8.5H86.5V9H86ZM66 9H65.5V8.5H66V9ZM66 18.99L65.5 18.9909V18.99H66ZM66 19.0079L65.5 19.0118L65.5 19.0087L66 19.0079ZM66.9921 20L66.9913 20.5L66.9882 20.5L66.9921 20ZM67.01 20V20.5L67.0091 20.5L67.01 20ZM70 20V19.5H70.5V20H70ZM70 69.543H70.5V70.043H70V69.543ZM29.1092 69.543V70.043H28.6092V69.543H29.1092ZM29.1092 66.5818L29.6092 66.5809V66.5818H29.1092ZM29.1092 66.5639L29.6092 66.56L29.6092 66.5631L29.1092 66.5639ZM28.1171 65.5718L28.118 65.0718L28.121 65.0718L28.1171 65.5718ZM28.0992 65.5718L28.0992 65.0718L28.1001 65.0718L28.0992 65.5718ZM10.7456 85.4281L10.7456 65.5718H11.7456L11.7456 85.4281H10.7456ZM28.0992 85.9281H11.2456V84.9281H28.0992V85.9281ZM28.118 85.9281L28.1001 85.9281L28.0984 84.9281L28.1162 84.9281L28.118 85.9281ZM29.6092 84.4399C29.6028 85.2591 28.9402 85.9217 28.121 85.9281L28.1132 84.9281C28.3862 84.926 28.6071 84.7051 28.6092 84.4321L29.6092 84.4399ZM29.6092 84.419L29.6092 84.4369L28.6092 84.4351L28.6092 84.4173L29.6092 84.419ZM29.6092 81.4568V84.4182H28.6092V81.4568H29.6092ZM79 81.9568H29.1092V80.9568H79V81.9568ZM78.5 100.5V81.4568H79.5V100.5H78.5ZM80 102C79.1716 102 78.5 101.328 78.5 100.5H79.5C79.5 100.776 79.7239 101 80 101V102ZM143 102L80 102V101L143 101V102ZM143.5 50.5V101.5H142.5V50.5H143.5ZM82 50H143V51H82V50ZM81.5 50.5V20H82.5V50.5H81.5ZM84.99 20.5L82 20.5V19.5L84.99 19.5V20.5ZM85.0087 20.5L84.9909 20.5L84.9891 19.5L85.007 19.5L85.0087 20.5ZM86.5 19.0118C86.4935 19.831 85.831 20.4935 85.0118 20.5L85.0039 19.5C85.277 19.4978 85.4978 19.277 85.5 19.0039L86.5 19.0118ZM86.5 18.9909L86.5 19.0087L85.5 19.007L85.5 18.9891L86.5 18.9909ZM86.5 9V18.99H85.5V9H86.5ZM66 8.5L86 8.5V9.5L66 9.5V8.5ZM65.5 18.99V9H66.5V18.99H65.5ZM65.5 19.0087L65.5 18.9909L66.5 18.9891L66.5 19.007L65.5 19.0087ZM66.9882 20.5C66.169 20.4935 65.5065 19.831 65.5 19.0118L66.5 19.0039C66.5022 19.277 66.723 19.4978 66.9961 19.5L66.9882 20.5ZM67.0091 20.5L66.9913 20.5L66.993 19.5L67.0109 19.5L67.0091 20.5ZM70 20.5H67.01V19.5H70V20.5ZM70.5 20V69.543H69.5V20H70.5ZM29.1092 69.043H70V70.043H29.1092V69.043ZM29.6092 66.5818V69.543H28.6092V66.5818H29.6092ZM29.6092 66.5631L29.6092 66.5809L28.6092 66.5826L28.6092 66.5648L29.6092 66.5631ZM28.121 65.0718C28.9402 65.0783 29.6028 65.7408 29.6092 66.56L28.6092 66.5678C28.6071 66.2948 28.3862 66.0739 28.1132 66.0718L28.121 65.0718ZM28.1001 65.0718L28.118 65.0718L28.1162 66.0718L28.0984 66.0718L28.1001 65.0718ZM11.2456 65.0718H28.0992V66.0718H11.2456V65.0718Z" fill="#4DADAC" mask="url(#path-15-outside-1_125_33)"/>
</g>
<path d="M110.333 86.1667L116.813 73.1934H112.333V64.8334L105.667 77.8067H110.333V86.1667ZM111 62.1667C114.667 62.1667 117.8 63.5001 120.4 66.1001C123 68.7001 124.333 71.8334 124.333 75.5001C124.333 79.1667 123 82.3001 120.4 84.9001C117.8 87.5001 114.667 88.8334 111 88.8334C107.333 88.8334 104.2 87.5001 101.6 84.9001C99 82.3001 97.6667 79.1667 97.6667 75.5001C97.6667 71.8334 99 68.7001 101.6 66.1001C104.2 63.5001 107.333 62.1667 111 62.1667Z" fill="black"/>
<defs>
<filter id="filter0_f_125_33" x="25.0902" y="25" width="104.303" height="102" filterUnits="userSpaceOnUse" color-interpolation-filters="sRGB">
<feFlood flood-opacity="0" result="BackgroundImageFix"/>
<feBlend mode="normal" in="SourceGraphic" in2="BackgroundImageFix" result="shape"/>
<feGaussianBlur stdDeviation="2" result="effect1_foregroundBlur_125_33"/>
</filter>
<filter id="filter1_d_125_33" x="23.5902" y="27.5" width="107.303" height="105" filterUnits="userSpaceOnUse" color-interpolation-filters="sRGB">
<feFlood flood-opacity="0" result="BackgroundImageFix"/>
<feColorMatrix in="SourceAlpha" type="matrix" values="0 0 0 0 0 0 0 0 0 0 0 0 0 0 0 0 0 0 127 0" result="hardAlpha"/>
<feOffset dy="4"/>
<feGaussianBlur stdDeviation="2"/>
<feComposite in2="hardAlpha" operator="out"/>
<feColorMatrix type="matrix" values="0 0 0 0 0 0 0 0 0 0 0 0 0 0 0 0 0 0 0.25 0"/>
<feBlend mode="normal" in2="BackgroundImageFix" result="effect1_dropShadow_125_33"/>
<feBlend mode="normal" in="SourceGraphic" in2="effect1_dropShadow_125_33" result="shape"/>
</filter>
<filter id="filter2_f_125_33" x="49.9106" y="49" width="53.6697" height="54" filterUnits="userSpaceOnUse" color-interpolation-filters="sRGB">
<feFlood flood-opacity="0" result="BackgroundImageFix"/>
<feBlend mode="normal" in="SourceGraphic" in2="BackgroundImageFix" result="shape"/>
<feGaussianBlur stdDeviation="2" result="effect1_foregroundBlur_125_33"/>
</filter>
<filter id="filter3_f_125_33" x="0.848169" y="0.6" width="150.802" height="148.8" filterUnits="userSpaceOnUse" color-interpolation-filters="sRGB">
<feFlood flood-opacity="0" result="BackgroundImageFix"/>
<feBlend mode="normal" in="SourceGraphic" in2="BackgroundImageFix" result="shape"/>
<feGaussianBlur stdDeviation="3.2" result="effect1_foregroundBlur_125_33"/>
</filter>
<filter id="filter4_d_125_33" x="6.74561" y="4.5" width="140.754" height="101.5" filterUnits="userSpaceOnUse" color-interpolation-filters="sRGB">
<feFlood flood-opacity="0" result="BackgroundImageFix"/>
<feColorMatrix in="SourceAlpha" type="matrix" values="0 0 0 0 0 0 0 0 0 0 0 0 0 0 0 0 0 0 127 0" result="hardAlpha"/>
<feOffset/>
<feGaussianBlur stdDeviation="2"/>
<feComposite in2="hardAlpha" operator="out"/>
<feColorMatrix type="matrix" values="0 0 0 0 0.301961 0 0 0 0 0.678431 0 0 0 0 0.67451 0 0 0 1 0"/>
<feBlend mode="normal" in2="BackgroundImageFix" result="effect1_dropShadow_125_33"/>
<feBlend mode="normal" in="SourceGraphic" in2="effect1_dropShadow_125_33" result="shape"/>
</filter>
<radialGradient id="paint0_radial_125_33" cx="0" cy="0" r="1" gradientUnits="userSpaceOnUse" gradientTransform="translate(75.7527 75) rotate(-90) scale(239 242.518)">
<stop stop-color="#0A022D"/>
<stop offset="1" stop-color="#210793"/>
</radialGradient>
<linearGradient id="paint1_linear_125_33" x1="11" y1="53.5784" x2="183" y2="53.5784" gradientUnits="userSpaceOnUse">
<stop stop-color="#0A022D"/>
<stop offset="1" stop-color="#F00E12"/>
</linearGradient>
</defs>
</svg>
