<svg width="1853" height="1034" viewBox="0 0 1853 1034" fill="none" xmlns="http://www.w3.org/2000/svg">
<path d="M41.88 41.58C41.88 41.94 42 42.24 42.24 42.48C42.36 42.6 42.5 42.68 42.66 42.76C42.8 42.84 42.96 42.86 43.16 42.86H65.46C65.98 42.86 66.48 42.96 66.96 43.12C67.44 43.28 67.86 43.52 68.26 43.8C68.64 44.08 68.98 44.42 69.26 44.82C69.54 45.22 69.74 45.66 69.9 46.12C70.02 46.52 70.08 46.96 70.08 47.4C70.08 48.04 69.96 48.64 69.72 49.2C69.48 49.76 69.14 50.24 68.72 50.64C68.3 51.06 67.82 51.38 67.26 51.62C66.7 51.86 66.1 51.98 65.46 51.98H37V48.68H63.9C64.26 48.68 64.56 48.56 64.84 48.32C65.08 48.08 65.2 47.78 65.2 47.4C65.2 47.06 65.06 46.76 64.82 46.5C64.56 46.26 64.26 46.12 63.9 46.12H41.6C41.08 46.12 40.58 46.04 40.1 45.88C39.62 45.72 39.2 45.5 38.82 45.2C38.42 44.92 38.08 44.56 37.8 44.16C37.52 43.76 37.3 43.34 37.18 42.86C37.06 42.46 37 42.04 37 41.58C37 40.94 37.12 40.36 37.36 39.8C37.6 39.24 37.92 38.76 38.34 38.34C38.76 37.94 39.24 37.6 39.8 37.36C40.36 37.12 40.96 37 41.6 37H70.08V40.3H43.16C42.8 40.3 42.5 40.44 42.26 40.68C42 40.92 41.88 41.22 41.88 41.58ZM107.816 37V39.28C107.816 40.04 107.676 40.74 107.396 41.38C107.116 42.04 106.716 42.62 106.236 43.1C105.756 43.58 105.176 43.96 104.536 44.24C103.876 44.52 103.176 44.66 102.456 44.66H92.5358C92.8958 45.22 93.1758 45.84 93.3758 46.5C93.5758 47.16 93.6758 47.84 93.6758 48.56V52H88.8158V48.06C88.8158 47.6 88.7158 47.16 88.5358 46.74C88.3558 46.34 88.1158 45.98 87.8158 45.66C87.4958 45.36 87.1358 45.12 86.7358 44.94C86.3158 44.76 85.8758 44.66 85.3958 44.66H80.0358C79.2758 44.66 78.5758 44.52 77.9358 44.24C77.2958 43.96 76.7158 43.58 76.2358 43.1C75.7558 42.62 75.3758 42.04 75.0958 41.38C74.8158 40.74 74.6758 40.04 74.6758 39.28V37H79.5558V39.18C79.5558 39.48 79.5958 39.76 79.7158 40.02C79.8358 40.28 79.9758 40.5 80.1758 40.7C80.3758 40.9 80.5958 41.06 80.8558 41.18C81.1158 41.3 81.3958 41.34 81.7158 41.34H100.776C101.056 41.34 101.336 41.3 101.616 41.18C101.876 41.06 102.096 40.9 102.296 40.7C102.496 40.5 102.636 40.28 102.756 40.02C102.876 39.76 102.936 39.48 102.936 39.18V37H107.816ZM117.056 41.58C117.056 41.94 117.176 42.24 117.416 42.48C117.536 42.6 117.676 42.68 117.836 42.76C117.976 42.84 118.136 42.86 118.336 42.86H140.636C141.156 42.86 141.656 42.96 142.136 43.12C142.616 43.28 143.036 43.52 143.436 43.8C143.816 44.08 144.156 44.42 144.436 44.82C144.716 45.22 144.916 45.66 145.076 46.12C145.196 46.52 145.256 46.96 145.256 47.4C145.256 48.04 145.136 48.64 144.896 49.2C144.656 49.76 144.316 50.24 143.896 50.64C143.476 51.06 142.996 51.38 142.436 51.62C141.876 51.86 141.276 51.98 140.636 51.98H112.176V48.68H139.076C139.436 48.68 139.736 48.56 140.016 48.32C140.256 48.08 140.376 47.78 140.376 47.4C140.376 47.06 140.236 46.76 139.996 46.5C139.736 46.26 139.436 46.12 139.076 46.12H116.776C116.256 46.12 115.756 46.04 115.276 45.88C114.796 45.72 114.376 45.5 113.996 45.2C113.596 44.92 113.256 44.56 112.976 44.16C112.696 43.76 112.476 43.34 112.356 42.86C112.236 42.46 112.176 42.04 112.176 41.58C112.176 40.94 112.296 40.36 112.536 39.8C112.776 39.24 113.096 38.76 113.516 38.34C113.936 37.94 114.416 37.6 114.976 37.36C115.536 37.12 116.136 37 116.776 37H145.256V40.3H118.336C117.976 40.3 117.676 40.44 117.436 40.68C117.176 40.92 117.056 41.22 117.056 41.58ZM179.952 40.32H166.732C167.372 41.12 167.892 42.02 168.252 42.98C168.612 43.96 168.812 45 168.812 46.08V52H163.932V45.82C163.932 45.06 163.772 44.36 163.492 43.68C163.212 43.02 162.812 42.44 162.332 41.94C161.832 41.44 161.252 41.04 160.592 40.76C159.912 40.48 159.212 40.32 158.452 40.32H149.852V37.02H179.952V40.32ZM217.464 40.32V37V40.32ZM189.224 40.32V44.16C189.664 43.84 190.144 43.58 190.684 43.34C191.664 42.94 192.684 42.72 193.744 42.72H205.284V46.04H193.744C192.824 46.04 191.984 46.3 191.244 46.78C190.504 47.26 189.964 47.9 189.624 48.68H217.464V52H184.344V37H217.464V40.32H189.224ZM217.464 40.32V37V40.32ZM277.989 37C278.789 37 279.549 37.16 280.269 37.46C280.989 37.78 281.609 38.2 282.149 38.72C282.669 39.26 283.089 39.88 283.409 40.6C283.709 41.32 283.869 42.08 283.869 42.88V52H278.989V42.8C278.989 42.46 278.909 42.14 278.789 41.84C278.669 41.54 278.489 41.28 278.269 41.04C278.029 40.82 277.769 40.64 277.469 40.5C277.169 40.38 276.849 40.3 276.509 40.3H264.169C262.969 40.3 261.869 40.54 260.829 40.98C259.789 41.42 258.889 42.04 258.109 42.82C257.329 43.6 256.709 44.5 256.269 45.54C255.829 46.58 255.609 47.7 255.609 48.86V52H255.589H250.749H250.729V48.86C250.729 47.7 250.489 46.58 250.049 45.54C249.609 44.5 248.989 43.6 248.209 42.82C247.429 42.04 246.529 41.42 245.489 40.98C244.449 40.54 243.329 40.3 242.169 40.3H229.829C229.469 40.3 229.149 40.38 228.849 40.5C228.549 40.64 228.289 40.82 228.069 41.04C227.829 41.28 227.649 41.54 227.529 41.84C227.409 42.14 227.349 42.46 227.349 42.8V52H222.469V42.88C222.469 42.08 222.609 41.32 222.929 40.6C223.229 39.88 223.649 39.26 224.189 38.72C224.709 38.2 225.329 37.78 226.049 37.46C226.769 37.16 227.529 37 228.349 37H243.389C244.389 37 245.349 37.12 246.289 37.36C247.209 37.6 248.089 37.92 248.929 38.34C249.769 38.76 250.529 39.28 251.249 39.88C251.969 40.48 252.609 41.16 253.169 41.88C253.729 41.16 254.349 40.48 255.069 39.88C255.789 39.28 256.549 38.76 257.389 38.34C258.229 37.92 259.109 37.6 260.049 37.36C260.969 37.12 261.949 37 262.949 37H277.989ZM321.995 40.32V37V40.32ZM293.755 40.32V44.16C294.195 43.84 294.675 43.58 295.215 43.34C296.195 42.94 297.215 42.72 298.275 42.72H309.815V46.04H298.275C297.355 46.04 296.515 46.3 295.775 46.78C295.035 47.26 294.495 47.9 294.155 48.68H321.995V52H288.875V37H321.995V40.32H293.755ZM321.995 40.32V37V40.32ZM69.4 80.3C69.58 80.7 69.72 81.1 69.84 81.54C69.94 81.98 70 82.42 70 82.88V86.12C70 86.6 69.94 87.04 69.84 87.46C69.74 87.88 69.6 88.28 69.42 88.66C69.02 89.52 68.44 90.24 67.68 90.82C66.92 91.4 66.08 91.76 65.12 91.92C65.04 91.96 64.94 91.98 64.86 91.98C64.78 91.98 64.68 92 64.6 92H37V77C42.18 77 46.82 77.02 50.94 77.02C52.1 77.02 53.24 77.04 54.4 77.04C55.54 77.04 56.64 77.04 57.68 77.04C58.72 77.04 59.68 77.06 60.58 77.06C61.46 77.06 62.24 77.06 62.92 77.06C63.58 77.06 64.1 77.08 64.5 77.08C64.88 77.08 65.08 77.08 65.12 77.08C66.06 77.24 66.9 77.62 67.66 78.18C68.4 78.76 68.98 79.46 69.4 80.3ZM65.12 82.8C65.12 82.46 65.04 82.14 64.92 81.84C64.8 81.54 64.62 81.28 64.4 81.04C64.16 80.82 63.9 80.64 63.6 80.52C63.3 80.4 62.98 80.32 62.64 80.32H45.48V80.3H41.88V88.68H45.48V88.66H62.94C63.24 88.64 63.52 88.56 63.8 88.42C64.06 88.28 64.28 88.1 64.48 87.88C64.68 87.66 64.82 87.4 64.94 87.12C65.06 86.84 65.12 86.52 65.12 86.2V82.8ZM107.112 80.32V77V80.32ZM78.8722 80.32V84.16C79.3122 83.84 79.7922 83.58 80.3322 83.34C81.3122 82.94 82.3322 82.72 83.3922 82.72H94.9322V86.04H83.3922C82.4722 86.04 81.6322 86.3 80.8922 86.78C80.1522 87.26 79.6122 87.9 79.2722 88.68H107.112V92H73.9922V77H107.112V80.32H78.8722ZM107.112 80.32V77V80.32ZM155.905 88.68C156.225 88.68 156.525 88.64 156.805 88.52C157.085 88.42 157.325 88.28 157.545 88.08C157.765 87.88 157.945 87.66 158.085 87.4C158.225 87.14 158.325 86.86 158.365 86.54H163.245C163.205 87.3 163.005 88.02 162.685 88.68C162.345 89.36 161.905 89.94 161.385 90.42C160.845 90.92 160.225 91.3 159.545 91.58C158.865 91.86 158.145 92 157.385 92H136.025C135.225 92 134.465 91.86 133.745 91.54C133.025 91.24 132.405 90.82 131.885 90.3C131.345 89.78 130.925 89.14 130.605 88.42C130.285 87.7 130.145 86.94 130.145 86.12V82.88C130.145 82.08 130.285 81.3 130.605 80.58C130.925 79.86 131.345 79.24 131.885 78.7C132.405 78.18 133.025 77.76 133.745 77.44C134.465 77.14 135.225 77 136.025 77H157.385C158.145 77 158.865 77.14 159.545 77.42C160.225 77.7 160.845 78.1 161.385 78.58C161.905 79.08 162.345 79.66 162.685 80.32C163.005 81 163.205 81.7 163.245 82.46H158.365C158.325 82.16 158.225 81.88 158.085 81.62C157.945 81.36 157.765 81.14 157.545 80.94C157.325 80.74 157.085 80.6 156.805 80.48C156.525 80.36 156.225 80.3 155.905 80.3H137.505C137.145 80.3 136.825 80.38 136.525 80.5C136.225 80.64 135.965 80.82 135.745 81.04C135.505 81.28 135.325 81.54 135.205 81.84C135.085 82.14 135.025 82.46 135.025 82.8V86.2C135.025 86.56 135.085 86.88 135.205 87.18C135.325 87.48 135.505 87.74 135.745 87.96C135.965 88.2 136.225 88.38 136.525 88.5C136.825 88.62 137.145 88.68 137.505 88.68H155.905ZM195.905 77.08C196.585 77.2 197.225 77.44 197.825 77.78C198.425 78.14 198.945 78.56 199.385 79.08C199.825 79.6 200.165 80.18 200.405 80.82C200.645 81.48 200.785 82.16 200.785 82.88V86.12C200.785 86.94 200.625 87.7 200.305 88.42C199.985 89.14 199.565 89.76 199.045 90.28C198.505 90.82 197.885 91.24 197.165 91.54C196.445 91.86 195.705 92 194.905 92H173.545C172.745 92 171.985 91.86 171.265 91.54C170.545 91.24 169.925 90.82 169.405 90.28C168.865 89.76 168.445 89.14 168.125 88.42C167.805 87.7 167.665 86.94 167.665 86.12V82.88C167.665 82.1 167.825 81.36 168.145 80.64C168.445 79.94 168.865 79.32 169.385 78.78C169.905 78.26 170.505 77.84 171.225 77.52C171.945 77.2 172.705 77.04 173.545 77H194.905C195.065 77 195.245 77.02 195.405 77.02C195.565 77.04 195.745 77.06 195.905 77.08ZM195.905 82.8C195.905 82.46 195.825 82.14 195.705 81.84C195.585 81.54 195.405 81.28 195.185 81.04C194.945 80.82 194.685 80.64 194.385 80.5C194.085 80.38 193.765 80.3 193.425 80.3H175.025C174.665 80.3 174.345 80.38 174.045 80.5C173.745 80.64 173.485 80.82 173.265 81.04C173.025 81.28 172.845 81.54 172.725 81.84C172.605 82.14 172.545 82.46 172.545 82.8V86.2C172.545 86.56 172.605 86.88 172.725 87.18C172.845 87.48 173.025 87.74 173.265 87.96C173.485 88.18 173.745 88.36 174.045 88.48C174.345 88.62 174.665 88.68 175.025 88.68H193.425C193.765 88.68 194.085 88.62 194.385 88.48C194.685 88.36 194.945 88.18 195.185 87.96C195.405 87.74 195.585 87.48 195.705 87.18C195.825 86.88 195.905 86.56 195.905 86.2V82.8ZM260.723 77C261.523 77 262.283 77.16 263.003 77.46C263.723 77.78 264.343 78.2 264.883 78.72C265.403 79.26 265.823 79.88 266.143 80.6C266.443 81.32 266.603 82.08 266.603 82.88V92H261.723V82.8C261.723 82.46 261.643 82.14 261.523 81.84C261.403 81.54 261.223 81.28 261.003 81.04C260.763 80.82 260.503 80.64 260.203 80.5C259.903 80.38 259.583 80.3 259.243 80.3H246.903C245.703 80.3 244.603 80.54 243.563 80.98C242.523 81.42 241.623 82.04 240.843 82.82C240.063 83.6 239.443 84.5 239.003 85.54C238.563 86.58 238.343 87.7 238.343 88.86V92H238.323H233.483H233.463V88.86C233.463 87.7 233.223 86.58 232.783 85.54C232.343 84.5 231.723 83.6 230.943 82.82C230.163 82.04 229.263 81.42 228.223 80.98C227.183 80.54 226.063 80.3 224.903 80.3H212.563C212.203 80.3 211.883 80.38 211.583 80.5C211.283 80.64 211.023 80.82 210.803 81.04C210.563 81.28 210.383 81.54 210.263 81.84C210.143 82.14 210.083 82.46 210.083 82.8V92H205.203V82.88C205.203 82.08 205.343 81.32 205.663 80.6C205.963 79.88 206.383 79.26 206.923 78.72C207.443 78.2 208.063 77.78 208.783 77.46C209.503 77.16 210.263 77 211.083 77H226.123C227.123 77 228.083 77.12 229.023 77.36C229.943 77.6 230.823 77.92 231.663 78.34C232.503 78.76 233.263 79.28 233.983 79.88C234.703 80.48 235.343 81.16 235.903 81.88C236.463 81.16 237.083 80.48 237.803 79.88C238.523 79.28 239.283 78.76 240.123 78.34C240.963 77.92 241.843 77.6 242.783 77.36C243.703 77.12 244.683 77 245.683 77H260.723Z" fill="#4DADAC"/>
<path d="M1530.88 946.58C1530.88 946.94 1531 947.24 1531.24 947.48C1531.37 947.587 1531.51 947.68 1531.66 947.76C1531.81 947.827 1531.97 947.86 1532.16 947.86H1554.46C1554.98 947.86 1555.48 947.947 1555.96 948.12C1556.44 948.28 1556.87 948.507 1557.26 948.8C1557.65 949.08 1557.98 949.42 1558.26 949.82C1558.54 950.22 1558.75 950.653 1558.9 951.12C1559.02 951.52 1559.08 951.947 1559.08 952.4C1559.08 953.04 1558.96 953.64 1558.72 954.2C1558.48 954.747 1558.15 955.227 1557.72 955.64C1557.31 956.053 1556.82 956.38 1556.26 956.62C1555.7 956.86 1555.1 956.98 1554.46 956.98H1526V953.68H1552.9C1553.26 953.68 1553.57 953.56 1553.84 953.32C1554.08 953.08 1554.2 952.773 1554.2 952.4C1554.2 952.053 1554.07 951.753 1553.82 951.5C1553.57 951.247 1553.26 951.12 1552.9 951.12H1530.6C1530.08 951.12 1529.58 951.04 1529.1 950.88C1528.63 950.72 1528.21 950.493 1527.82 950.2C1527.43 949.907 1527.09 949.56 1526.8 949.16C1526.52 948.76 1526.31 948.327 1526.18 947.86C1526.06 947.46 1526 947.033 1526 946.58C1526 945.94 1526.12 945.347 1526.36 944.8C1526.6 944.24 1526.93 943.753 1527.34 943.34C1527.77 942.927 1528.25 942.6 1528.8 942.36C1529.36 942.12 1529.96 942 1530.6 942H1559.08V945.3H1532.16C1531.81 945.3 1531.51 945.427 1531.26 945.68C1531.01 945.92 1530.88 946.22 1530.88 946.58ZM1596.82 942V944.28C1596.82 945.027 1596.68 945.727 1596.4 946.38C1596.12 947.033 1595.73 947.607 1595.24 948.1C1594.76 948.58 1594.19 948.96 1593.54 949.24C1592.88 949.52 1592.19 949.66 1591.46 949.66H1581.54C1581.9 950.22 1582.18 950.833 1582.38 951.5C1582.58 952.153 1582.68 952.84 1582.68 953.56V957H1577.82V953.06C1577.82 952.593 1577.72 952.153 1577.54 951.74C1577.36 951.327 1577.12 950.967 1576.82 950.66C1576.51 950.353 1576.15 950.113 1575.74 949.94C1575.32 949.753 1574.88 949.66 1574.4 949.66H1569.04C1568.29 949.66 1567.59 949.52 1566.94 949.24C1566.3 948.96 1565.73 948.58 1565.24 948.1C1564.76 947.607 1564.38 947.033 1564.1 946.38C1563.82 945.727 1563.68 945.027 1563.68 944.28V942H1568.56V944.18C1568.56 944.473 1568.61 944.753 1568.72 945.02C1568.84 945.273 1568.99 945.5 1569.18 945.7C1569.38 945.9 1569.6 946.06 1569.86 946.18C1570.12 946.287 1570.41 946.34 1570.72 946.34H1589.78C1590.07 946.34 1590.35 946.287 1590.62 946.18C1590.88 946.06 1591.11 945.9 1591.3 945.7C1591.5 945.5 1591.65 945.273 1591.76 945.02C1591.88 944.753 1591.94 944.473 1591.94 944.18V942H1596.82ZM1606.06 946.58C1606.06 946.94 1606.18 947.24 1606.42 947.48C1606.55 947.587 1606.69 947.68 1606.84 947.76C1606.98 947.827 1607.15 947.86 1607.34 947.86H1629.64C1630.16 947.86 1630.66 947.947 1631.14 948.12C1631.62 948.28 1632.05 948.507 1632.44 948.8C1632.82 949.08 1633.16 949.42 1633.44 949.82C1633.72 950.22 1633.93 950.653 1634.08 951.12C1634.2 951.52 1634.26 951.947 1634.26 952.4C1634.26 953.04 1634.14 953.64 1633.9 954.2C1633.66 954.747 1633.32 955.227 1632.9 955.64C1632.48 956.053 1632 956.38 1631.44 956.62C1630.88 956.86 1630.28 956.98 1629.64 956.98H1601.18V953.68H1628.08C1628.44 953.68 1628.75 953.56 1629.02 953.32C1629.26 953.08 1629.38 952.773 1629.38 952.4C1629.38 952.053 1629.25 951.753 1629 951.5C1628.74 951.247 1628.44 951.12 1628.08 951.12H1605.78C1605.26 951.12 1604.76 951.04 1604.28 950.88C1603.81 950.72 1603.38 950.493 1603 950.2C1602.61 949.907 1602.27 949.56 1601.98 949.16C1601.7 948.76 1601.49 948.327 1601.36 947.86C1601.24 947.46 1601.18 947.033 1601.18 946.58C1601.18 945.94 1601.3 945.347 1601.54 944.8C1601.78 944.24 1602.1 943.753 1602.52 943.34C1602.94 942.927 1603.43 942.6 1603.98 942.36C1604.54 942.12 1605.14 942 1605.78 942H1634.26V945.3H1607.34C1606.99 945.3 1606.69 945.427 1606.44 945.68C1606.18 945.92 1606.06 946.22 1606.06 946.58ZM1668.95 945.32H1655.73C1656.38 946.12 1656.89 947.007 1657.25 947.98C1657.62 948.953 1657.81 949.987 1657.81 951.08V957H1652.93V950.82C1652.93 950.06 1652.78 949.347 1652.49 948.68C1652.21 948.013 1651.82 947.433 1651.33 946.94C1650.84 946.433 1650.26 946.04 1649.59 945.76C1648.92 945.467 1648.21 945.32 1647.45 945.32H1638.85V942.02H1668.95V945.32ZM1706.46 945.32V942V945.32ZM1678.22 945.32V949.16C1678.66 948.84 1679.15 948.567 1679.68 948.34C1680.67 947.927 1681.69 947.72 1682.74 947.72H1694.28V951.04H1682.74C1681.82 951.04 1680.99 951.287 1680.24 951.78C1679.51 952.26 1678.97 952.893 1678.62 953.68H1706.46V957H1673.34V942H1706.46V945.32H1678.22ZM1706.46 945.32V942V945.32ZM1766.99 942C1767.8 942 1768.56 942.153 1769.27 942.46C1769.99 942.767 1770.62 943.187 1771.15 943.72C1771.68 944.253 1772.1 944.88 1772.41 945.6C1772.72 946.307 1772.87 947.067 1772.87 947.88V957H1767.99V947.8C1767.99 947.453 1767.92 947.133 1767.79 946.84C1767.67 946.533 1767.5 946.267 1767.27 946.04C1767.04 945.813 1766.78 945.633 1766.47 945.5C1766.18 945.367 1765.86 945.3 1765.51 945.3H1753.17C1751.98 945.3 1750.87 945.527 1749.83 945.98C1748.8 946.42 1747.9 947.033 1747.11 947.82C1746.34 948.593 1745.72 949.5 1745.27 950.54C1744.83 951.58 1744.61 952.687 1744.61 953.86V957H1744.59H1739.75H1739.73V953.86C1739.73 952.687 1739.5 951.58 1739.05 950.54C1738.61 949.5 1738 948.593 1737.21 947.82C1736.44 947.033 1735.53 946.42 1734.49 945.98C1733.45 945.527 1732.34 945.3 1731.17 945.3H1718.83C1718.48 945.3 1718.16 945.367 1717.85 945.5C1717.56 945.633 1717.3 945.813 1717.07 946.04C1716.84 946.267 1716.66 946.533 1716.53 946.84C1716.41 947.133 1716.35 947.453 1716.35 947.8V957H1711.47V947.88C1711.47 947.067 1711.62 946.307 1711.93 945.6C1712.24 944.88 1712.66 944.253 1713.19 943.72C1713.72 943.187 1714.34 942.767 1715.05 942.46C1715.77 942.153 1716.54 942 1717.35 942H1732.39C1733.39 942 1734.36 942.12 1735.29 942.36C1736.22 942.587 1737.1 942.913 1737.93 943.34C1738.77 943.753 1739.54 944.267 1740.25 944.88C1740.97 945.48 1741.61 946.147 1742.17 946.88C1742.73 946.147 1743.36 945.48 1744.07 944.88C1744.79 944.267 1745.56 943.753 1746.39 943.34C1747.23 942.913 1748.12 942.587 1749.05 942.36C1749.98 942.12 1750.95 942 1751.95 942H1766.99ZM1811 945.32V942V945.32ZM1782.76 945.32V949.16C1783.2 948.84 1783.68 948.567 1784.22 948.34C1785.2 947.927 1786.22 947.72 1787.28 947.72H1798.82V951.04H1787.28C1786.36 951.04 1785.52 951.287 1784.78 951.78C1784.04 952.26 1783.5 952.893 1783.15 953.68H1811V957H1777.88V942H1811V945.32H1782.76ZM1811 945.32V942V945.32ZM1623.79 985.3C1623.98 985.687 1624.12 986.1 1624.23 986.54C1624.34 986.967 1624.39 987.413 1624.39 987.88V991.12C1624.39 991.587 1624.34 992.033 1624.23 992.46C1624.14 992.873 1624 993.273 1623.81 993.66C1623.41 994.513 1622.83 995.233 1622.07 995.82C1621.32 996.393 1620.47 996.76 1619.51 996.92C1619.43 996.947 1619.34 996.967 1619.25 996.98C1619.17 996.98 1619.08 996.987 1618.99 997H1591.39V982C1596.58 982 1601.22 982.007 1605.33 982.02C1606.49 982.02 1607.64 982.027 1608.79 982.04C1609.94 982.04 1611.03 982.04 1612.07 982.04C1613.11 982.04 1614.08 982.047 1614.97 982.06C1615.86 982.06 1616.64 982.06 1617.31 982.06C1617.98 982.06 1618.5 982.067 1618.89 982.08C1619.28 982.08 1619.48 982.08 1619.51 982.08C1620.46 982.24 1621.3 982.607 1622.05 983.18C1622.8 983.753 1623.38 984.46 1623.79 985.3ZM1619.51 987.8C1619.51 987.453 1619.44 987.133 1619.31 986.84C1619.19 986.533 1619.02 986.267 1618.79 986.04C1618.56 985.813 1618.3 985.64 1617.99 985.52C1617.7 985.387 1617.38 985.32 1617.03 985.32H1599.87V985.3H1596.27V993.68H1599.87V993.66H1617.33C1617.64 993.633 1617.92 993.553 1618.19 993.42C1618.46 993.273 1618.68 993.093 1618.87 992.88C1619.07 992.653 1619.22 992.4 1619.33 992.12C1619.45 991.827 1619.51 991.52 1619.51 991.2V987.8ZM1661.5 985.32V982V985.32ZM1633.26 985.32V989.16C1633.7 988.84 1634.19 988.567 1634.72 988.34C1635.71 987.927 1636.73 987.72 1637.78 987.72H1649.32V991.04H1637.78C1636.86 991.04 1636.03 991.287 1635.28 991.78C1634.55 992.26 1634.01 992.893 1633.66 993.68H1661.5V997H1628.38V982H1661.5V985.32H1633.26ZM1661.5 985.32V982V985.32ZM1700.3 993.68C1700.62 993.68 1700.92 993.627 1701.2 993.52C1701.48 993.413 1701.72 993.267 1701.94 993.08C1702.16 992.88 1702.34 992.653 1702.48 992.4C1702.62 992.133 1702.72 991.847 1702.76 991.54H1707.64C1707.6 992.3 1707.41 993.013 1707.08 993.68C1706.74 994.347 1706.31 994.927 1705.78 995.42C1705.24 995.913 1704.63 996.3 1703.94 996.58C1703.26 996.86 1702.54 997 1701.78 997H1680.42C1679.62 997 1678.86 996.847 1678.14 996.54C1677.43 996.233 1676.81 995.82 1676.28 995.3C1675.74 994.767 1675.32 994.14 1675 993.42C1674.69 992.7 1674.54 991.933 1674.54 991.12V987.88C1674.54 987.067 1674.69 986.3 1675 985.58C1675.32 984.86 1675.74 984.233 1676.28 983.7C1676.81 983.167 1677.43 982.747 1678.14 982.44C1678.86 982.133 1679.62 981.987 1680.42 982H1701.78C1702.54 982 1703.26 982.14 1703.94 982.42C1704.63 982.7 1705.24 983.087 1705.78 983.58C1706.31 984.073 1706.74 984.653 1707.08 985.32C1707.41 985.987 1707.6 986.7 1707.64 987.46H1702.76C1702.72 987.153 1702.62 986.873 1702.48 986.62C1702.34 986.353 1702.16 986.127 1701.94 985.94C1701.72 985.74 1701.48 985.587 1701.2 985.48C1700.92 985.36 1700.62 985.3 1700.3 985.3H1681.9C1681.55 985.3 1681.22 985.367 1680.92 985.5C1680.62 985.633 1680.36 985.813 1680.14 986.04C1679.91 986.267 1679.73 986.533 1679.6 986.84C1679.48 987.133 1679.42 987.453 1679.42 987.8V991.2C1679.42 991.547 1679.48 991.873 1679.6 992.18C1679.73 992.473 1679.91 992.733 1680.14 992.96C1680.36 993.187 1680.62 993.367 1680.92 993.5C1681.22 993.62 1681.55 993.68 1681.9 993.68H1700.3ZM1740.3 982.08C1740.99 982.2 1741.63 982.433 1742.22 982.78C1742.82 983.127 1743.34 983.56 1743.78 984.08C1744.22 984.587 1744.56 985.167 1744.8 985.82C1745.05 986.473 1745.18 987.16 1745.18 987.88V991.12C1745.18 991.933 1745.02 992.7 1744.7 993.42C1744.39 994.127 1743.97 994.747 1743.44 995.28C1742.9 995.813 1742.28 996.233 1741.56 996.54C1740.85 996.847 1740.1 997 1739.3 997H1717.94C1717.14 997 1716.38 996.847 1715.66 996.54C1714.95 996.233 1714.33 995.813 1713.8 995.28C1713.26 994.747 1712.84 994.127 1712.52 993.42C1712.21 992.7 1712.06 991.933 1712.06 991.12V987.88C1712.07 987.093 1712.23 986.347 1712.54 985.64C1712.84 984.933 1713.26 984.313 1713.78 983.78C1714.3 983.247 1714.91 982.827 1715.62 982.52C1716.34 982.2 1717.11 982.027 1717.94 982H1739.3C1739.47 982 1739.64 982.007 1739.8 982.02C1739.97 982.033 1740.14 982.053 1740.3 982.08ZM1740.3 987.8C1740.3 987.453 1740.23 987.133 1740.1 986.84C1739.98 986.533 1739.8 986.267 1739.58 986.04C1739.35 985.813 1739.08 985.633 1738.78 985.5C1738.48 985.367 1738.16 985.3 1737.82 985.3H1719.42C1719.07 985.3 1718.74 985.367 1718.44 985.5C1718.14 985.633 1717.88 985.813 1717.66 986.04C1717.43 986.267 1717.25 986.533 1717.12 986.84C1717 987.133 1716.94 987.453 1716.94 987.8V991.2C1716.94 991.547 1717 991.873 1717.12 992.18C1717.25 992.473 1717.43 992.733 1717.66 992.96C1717.88 993.173 1718.14 993.347 1718.44 993.48C1718.74 993.613 1719.07 993.68 1719.42 993.68H1737.82C1738.16 993.68 1738.48 993.613 1738.78 993.48C1739.08 993.347 1739.35 993.173 1739.58 992.96C1739.8 992.733 1739.98 992.473 1740.1 992.18C1740.23 991.873 1740.3 991.547 1740.3 991.2V987.8ZM1805.11 982C1805.93 982 1806.69 982.153 1807.39 982.46C1808.11 982.767 1808.74 983.187 1809.27 983.72C1809.81 984.253 1810.23 984.88 1810.53 985.6C1810.84 986.307 1810.99 987.067 1810.99 987.88V997H1806.11V987.8C1806.11 987.453 1806.05 987.133 1805.91 986.84C1805.79 986.533 1805.62 986.267 1805.39 986.04C1805.17 985.813 1804.9 985.633 1804.59 985.5C1804.3 985.367 1803.98 985.3 1803.63 985.3H1791.29C1790.11 985.3 1788.99 985.527 1787.95 985.98C1786.93 986.42 1786.02 987.033 1785.23 987.82C1784.46 988.593 1783.85 989.5 1783.39 990.54C1782.95 991.58 1782.73 992.687 1782.73 993.86V997H1782.71H1777.87H1777.85V993.86C1777.85 992.687 1777.63 991.58 1777.17 990.54C1776.73 989.5 1776.12 988.593 1775.33 987.82C1774.56 987.033 1773.65 986.42 1772.61 985.98C1771.57 985.527 1770.47 985.3 1769.29 985.3H1756.95C1756.61 985.3 1756.28 985.367 1755.97 985.5C1755.68 985.633 1755.42 985.813 1755.19 986.04C1754.97 986.267 1754.79 986.533 1754.65 986.84C1754.53 987.133 1754.47 987.453 1754.47 987.8V997H1749.59V987.88C1749.59 987.067 1749.75 986.307 1750.05 985.6C1750.36 984.88 1750.78 984.253 1751.31 983.72C1751.85 983.187 1752.47 982.767 1753.17 982.46C1753.89 982.153 1754.66 982 1755.47 982H1770.51C1771.51 982 1772.48 982.12 1773.41 982.36C1774.35 982.587 1775.23 982.913 1776.05 983.34C1776.89 983.753 1777.67 984.267 1778.37 984.88C1779.09 985.48 1779.73 986.147 1780.29 986.88C1780.85 986.147 1781.49 985.48 1782.19 984.88C1782.91 984.267 1783.69 983.753 1784.51 983.34C1785.35 982.913 1786.24 982.587 1787.17 982.36C1788.11 982.12 1789.07 982 1790.07 982H1805.11Z" fill="#4DADAC"/>
<g filter="url(#filter0_d_105_6)">
<path d="M1514.53 903.25H1512.59L1511.16 904.559L1415.49 992H42V145H340.814H342.548L343.91 143.926L473.184 42H1810.84V903.25H1725.25H1514.53Z" stroke="#4DADAC" stroke-width="10" shape-rendering="crispEdges"/>
</g>
<defs>
<filter id="filter0_d_105_6" x="0.799999" y="0.799999" width="1851.24" height="1032.4" filterUnits="userSpaceOnUse" color-interpolation-filters="sRGB">
<feFlood flood-opacity="0" result="BackgroundImageFix"/>
<feColorMatrix in="SourceAlpha" type="matrix" values="0 0 0 0 0 0 0 0 0 0 0 0 0 0 0 0 0 0 127 0" result="hardAlpha"/>
<feOffset/>
<feGaussianBlur stdDeviation="18.1"/>
<feComposite in2="hardAlpha" operator="out"/>
<feColorMatrix type="matrix" values="0 0 0 0 0.301961 0 0 0 0 0.678431 0 0 0 0 0.67451 0 0 0 1 0"/>
<feBlend mode="normal" in2="BackgroundImageFix" result="effect1_dropShadow_105_6"/>
<feBlend mode="normal" in="SourceGraphic" in2="effect1_dropShadow_105_6" result="shape"/>
</filter>
</defs>
</svg>
