<svg width="512" height="513" viewBox="0 0 512 513" fill="none" xmlns="http://www.w3.org/2000/svg">
<g filter="url(#filter0_d_232_1315)">
<path d="M26 161.52L160.408 26H352.751L486 161.52V354.955L352.751 487H160.408L26 354.955V161.52Z" fill="#254A7F"/>
<path d="M26 161.52L160.408 26H352.751L486 161.52V354.955L352.751 487H160.408L26 354.955V161.52Z" stroke="#81D1A9" stroke-width="12"/>
</g>
<path d="M147.962 206.4V210.72H141.578C137.546 210.72 136.106 212.544 136.106 214.704C136.106 215.088 136.202 215.52 136.298 216C137.354 220.464 148.298 223.008 149.018 230.496C149.066 230.784 149.066 231.072 149.066 231.36C149.066 234.912 146.954 240 138.458 240H131.21V235.632H138.65C141.962 235.632 143.882 233.376 143.882 231.36C143.882 225.504 132.41 223.152 131.066 216.096C131.018 215.904 131.018 215.616 131.018 215.28C131.018 212.592 132.698 206.4 141.578 206.4H147.962ZM150.845 206.4H156.557L165.149 221.232H165.293L173.885 206.4H178.541L167.165 225.84V240H162.125V225.84L150.845 206.4ZM196.431 206.4V210.72H190.047C186.015 210.72 184.575 212.544 184.575 214.704C184.575 215.088 184.671 215.52 184.767 216C185.823 220.464 196.767 223.008 197.487 230.496C197.535 230.784 197.535 231.072 197.535 231.36C197.535 234.912 195.423 240 186.927 240H179.679V235.632H187.119C190.431 235.632 192.351 233.376 192.351 231.36C192.351 225.504 180.879 223.152 179.535 216.096C179.487 215.904 179.487 215.616 179.487 215.28C179.487 212.592 181.167 206.4 190.047 206.4H196.431ZM200.72 206.4H210.8H215.6H225.68V210.48H215.6V240H210.8V210.48H200.72V206.4ZM234.923 195.696H239.147L241.931 203.088H239.051L234.923 195.696ZM240.107 206.4H249.323V210.72H240.107C235.595 210.72 232.427 213.936 232.427 218.448V220.512H247.835V224.592H232.427V228.048C232.427 232.56 235.595 235.632 240.107 235.632H250.043V240H240.107C233.243 240 227.627 234.912 227.627 228.048V218.448C227.627 211.584 233.243 206.4 240.107 206.4ZM253.408 206.4H259.216L269.056 228.288L269.632 229.44L279.664 206.4H285.76V240H280.672C280.672 240 280.624 232.944 280.624 225.936C280.624 222.384 280.624 219.36 280.672 216.72C280.672 215.616 280.768 213.36 280.768 213.36L280.672 213.312C280.672 213.312 279.232 216.576 278.512 218.16C275.776 224.016 271.216 235.2 271.216 235.2H266.944C266.944 235.2 263.728 228 262.144 224.4C258.544 216.192 257.92 213.984 257.92 213.984L257.824 214.032C257.824 214.416 257.92 216.048 258.016 218.112C258.064 220.608 258.064 223.056 258.064 226.464C258.064 233.232 258.016 240 258.016 240H253.408V206.4ZM303.013 206.4H312.229V210.72H303.013C298.501 210.72 295.333 213.936 295.333 218.448V220.512H310.741V224.592H295.333V228.048C295.333 232.56 298.501 235.632 303.013 235.632H312.949V240H303.013C296.149 240 290.533 234.912 290.533 228.048V218.448C290.533 211.584 296.149 206.4 303.013 206.4ZM341.9 210.912C341.66 210.912 335.036 210.912 335.036 210.912V235.488C335.036 235.488 341.612 235.488 341.9 235.488C348.188 235.488 350.204 229.488 350.204 223.2C350.204 216.912 348.188 210.912 341.9 210.912ZM330.236 206.4C332.828 206.4 335.42 206.4 338.012 206.4C339.308 206.4 340.604 206.4 341.9 206.4C351.404 206.4 355.244 213.696 355.244 223.2C355.244 232.704 351.404 240 341.9 240C338.684 240 335.42 240 332.204 240C331.532 240 330.908 240 330.236 240V206.4ZM371.075 206.4H380.291V210.72H371.075C366.563 210.72 363.395 213.936 363.395 218.448V220.512H378.803V224.592H363.395V228.048C363.395 232.56 366.563 235.632 371.075 235.632H381.011V240H371.075C364.211 240 358.595 234.912 358.595 228.048V218.448C358.595 211.584 364.211 206.4 371.075 206.4ZM87.0078 267.968C91.8078 267.968 94.7358 269.552 97.5677 272.72L94.4958 275.888C92.4318 273.872 90.5598 272.48 87.0078 272.48C80.7198 272.48 75.8238 278.96 75.8238 285.248C75.8238 291.536 80.7198 298.016 87.0078 298.016C90.2238 298.016 93.3438 296.528 95.3118 294.032L98.8638 297.248C95.9838 300.512 91.8558 302.528 87.0078 302.528C77.5038 302.528 70.7838 294.752 70.7838 285.248C70.7838 275.744 77.5038 267.968 87.0078 267.968ZM115.591 272.912C109.351 272.912 104.503 278.24 104.503 285.248C104.503 292.304 109.351 297.632 115.591 297.632C121.879 297.632 126.727 292.304 126.727 285.248C126.727 278.24 121.879 272.912 115.591 272.912ZM115.591 267.968C124.663 267.968 131.911 275.84 131.911 285.248C131.911 294.704 124.663 302.528 115.591 302.528C106.519 302.528 99.3194 294.704 99.3194 285.248C99.3194 275.84 106.519 267.968 115.591 267.968ZM135.213 268.4H141.021L150.861 290.288L151.437 291.44L161.469 268.4H167.565V302H162.477C162.477 302 162.429 294.944 162.429 287.936C162.429 284.384 162.429 281.36 162.477 278.72C162.477 277.616 162.573 275.36 162.573 275.36L162.477 275.312C162.477 275.312 161.036 278.576 160.317 280.16C157.581 286.016 153.021 297.2 153.021 297.2H148.749C148.749 297.2 145.533 290 143.949 286.4C140.349 278.192 139.725 275.984 139.725 275.984L139.629 276.032C139.629 276.416 139.725 278.048 139.821 280.112C139.868 282.608 139.868 285.056 139.868 288.464C139.868 295.232 139.821 302 139.821 302H135.213V268.4ZM172.338 268.4H178.146L187.986 290.288L188.562 291.44L198.594 268.4H204.69V302H199.602C199.602 302 199.554 294.944 199.554 287.936C199.554 284.384 199.554 281.36 199.602 278.72C199.602 277.616 199.698 275.36 199.698 275.36L199.602 275.312C199.602 275.312 198.161 278.576 197.442 280.16C194.706 286.016 190.146 297.2 190.146 297.2H185.874C185.874 297.2 182.658 290 181.074 286.4C177.474 278.192 176.85 275.984 176.85 275.984L176.754 276.032C176.754 276.416 176.85 278.048 176.946 280.112C176.993 282.608 176.993 285.056 176.993 288.464C176.993 295.232 176.946 302 176.946 302H172.338V268.4ZM236.247 268.4V290.048C236.247 296.048 232.503 302.528 222.855 302.528C213.687 302.528 209.463 296.768 209.463 290.048V268.4H214.743V290.048C214.743 295.04 217.863 298.208 222.855 298.256C227.127 298.256 231.447 295.856 231.447 290.048V268.4H236.247ZM241.009 268.4H246.097L263.233 294.128V268.4H267.793V302H262.753L245.617 276.272V302H241.009V268.4ZM272.603 302V268.4H277.643V302H272.603ZM297.711 267.968C302.511 267.968 305.439 269.552 308.271 272.72L305.199 275.888C303.135 273.872 301.263 272.48 297.711 272.48C291.423 272.48 286.527 278.96 286.527 285.248C286.527 291.536 291.423 298.016 297.711 298.016C300.927 298.016 304.047 296.528 306.015 294.032L309.567 297.248C306.687 300.512 302.559 302.528 297.711 302.528C288.207 302.528 281.487 294.752 281.487 285.248C281.487 275.744 288.207 267.968 297.711 267.968ZM325.839 272.192C321.567 272.192 317.247 274.592 317.247 280.4V288.512H333.951V280.4C333.951 275.408 330.831 272.24 325.839 272.192ZM312.447 280.4C312.447 274.64 316.575 267.92 325.839 267.92C335.007 267.92 338.991 273.68 338.991 280.4V302H333.951V292.592H317.247V302H312.447V280.4ZM340.853 268.4H350.933H355.733H365.813V272.48H355.733V302H350.933V272.48H340.853V268.4ZM369.166 302V268.4H374.206V302H369.166ZM393.841 272.912C387.601 272.912 382.753 278.24 382.753 285.248C382.753 292.304 387.601 297.632 393.841 297.632C400.129 297.632 404.977 292.304 404.977 285.248C404.977 278.24 400.129 272.912 393.841 272.912ZM393.841 267.968C402.913 267.968 410.161 275.84 410.161 285.248C410.161 294.704 402.913 302.528 393.841 302.528C384.769 302.528 377.569 294.704 377.569 285.248C377.569 275.84 384.769 267.968 393.841 267.968ZM413.463 268.4H418.551L435.687 294.128V268.4H440.247V302H435.207L418.071 276.272V302H413.463V268.4Z" fill="#81D1A9"/>
<defs>
<filter id="filter0_d_232_1315" x="0.700001" y="0.700001" width="510.6" height="511.6" filterUnits="userSpaceOnUse" color-interpolation-filters="sRGB">
<feFlood flood-opacity="0" result="BackgroundImageFix"/>
<feColorMatrix in="SourceAlpha" type="matrix" values="0 0 0 0 0 0 0 0 0 0 0 0 0 0 0 0 0 0 127 0" result="hardAlpha"/>
<feOffset/>
<feGaussianBlur stdDeviation="9.65"/>
<feComposite in2="hardAlpha" operator="out"/>
<feColorMatrix type="matrix" values="0 0 0 0 0.505882 0 0 0 0 0.819608 0 0 0 0 0.662745 0 0 0 1 0"/>
<feBlend mode="normal" in2="BackgroundImageFix" result="effect1_dropShadow_232_1315"/>
<feBlend mode="normal" in="SourceGraphic" in2="effect1_dropShadow_232_1315" result="shape"/>
</filter>
</defs>
</svg>
