<svg width="512" height="513" viewBox="0 0 512 513" fill="none" xmlns="http://www.w3.org/2000/svg">
<g filter="url(#filter0_d_171_1141)">
<path d="M26 161.52L160.408 26H352.751L486 161.52V354.955L352.751 487H160.408L26 354.955V161.52Z" fill="#480405"/>
<path d="M26 161.52L160.408 26H352.751L486 161.52V354.955L352.751 487H160.408L26 354.955V161.52Z" stroke="#F00E12" stroke-width="12"/>
</g>
<path d="M181.994 206.4V210.72H175.61C171.578 210.72 170.138 212.544 170.138 214.704C170.138 215.088 170.234 215.52 170.33 216C171.386 220.464 182.33 223.008 183.05 230.496C183.098 230.784 183.098 231.072 183.098 231.36C183.098 234.912 180.986 240 172.49 240H165.242V235.632H172.682C175.994 235.632 177.914 233.376 177.914 231.36C177.914 225.504 166.442 223.152 165.098 216.096C165.05 215.904 165.05 215.616 165.05 215.28C165.05 212.592 166.73 206.4 175.61 206.4H181.994ZM184.877 206.4H190.589L199.181 221.232H199.325L207.917 206.4H212.573L201.197 225.84V240H196.157V225.84L184.877 206.4ZM230.462 206.4V210.72H224.078C220.046 210.72 218.606 212.544 218.606 214.704C218.606 215.088 218.702 215.52 218.798 216C219.854 220.464 230.798 223.008 231.518 230.496C231.566 230.784 231.566 231.072 231.566 231.36C231.566 234.912 229.454 240 220.958 240H213.71V235.632H221.15C224.462 235.632 226.382 233.376 226.382 231.36C226.382 225.504 214.91 223.152 213.566 216.096C213.518 215.904 213.518 215.616 213.518 215.28C213.518 212.592 215.198 206.4 224.078 206.4H230.462ZM234.752 206.4H244.832H249.632H259.712V210.48H249.632V240H244.832V210.48H234.752V206.4ZM268.954 195.696H273.178L275.962 203.088H273.082L268.954 195.696ZM274.138 206.4H283.354V210.72H274.138C269.626 210.72 266.458 213.936 266.458 218.448V220.512H281.866V224.592H266.458V228.048C266.458 232.56 269.626 235.632 274.138 235.632H284.074V240H274.138C267.274 240 261.658 234.912 261.658 228.048V218.448C261.658 211.584 267.274 206.4 274.138 206.4ZM287.439 206.4H293.247L303.087 228.288L303.663 229.44L313.695 206.4H319.791V240H314.703C314.703 240 314.655 232.944 314.655 225.936C314.655 222.384 314.655 219.36 314.703 216.72C314.703 215.616 314.799 213.36 314.799 213.36L314.703 213.312C314.703 213.312 313.263 216.576 312.543 218.16C309.807 224.016 305.247 235.2 305.247 235.2H300.975C300.975 235.2 297.759 228 296.175 224.4C292.575 216.192 291.951 213.984 291.951 213.984L291.855 214.032C291.855 214.416 291.951 216.048 292.047 218.112C292.095 220.608 292.095 223.056 292.095 226.464C292.095 233.232 292.047 240 292.047 240H287.439V206.4ZM337.044 206.4H346.26V210.72H337.044C332.532 210.72 329.364 213.936 329.364 218.448V220.512H344.772V224.592H329.364V228.048C329.364 232.56 332.532 235.632 337.044 235.632H346.98V240H337.044C330.18 240 324.564 234.912 324.564 228.048V218.448C324.564 211.584 330.18 206.4 337.044 206.4ZM151.728 272.912C151.488 272.912 144.864 272.912 144.864 272.912V297.488C144.864 297.488 151.44 297.488 151.728 297.488C158.016 297.488 160.032 291.488 160.032 285.2C160.032 278.912 158.016 272.912 151.728 272.912ZM140.064 268.4C142.656 268.4 145.248 268.4 147.84 268.4C149.136 268.4 150.432 268.4 151.728 268.4C161.232 268.4 165.072 275.696 165.072 285.2C165.072 294.704 161.232 302 151.728 302C148.512 302 145.248 302 142.032 302C141.36 302 140.736 302 140.064 302V268.4ZM166.035 268.4H171.171V273.008L169.299 278.624H166.803L169.059 273.536H166.035V268.4ZM200.786 268.4V290.048C200.786 296.048 197.042 302.528 187.394 302.528C178.226 302.528 174.002 296.768 174.002 290.048V268.4H179.282V290.048C179.282 295.04 182.402 298.208 187.394 298.256C191.666 298.256 195.986 295.856 195.986 290.048V268.4H200.786ZM217.212 272.72C216.972 272.72 210.348 272.72 210.348 272.72V284.528C212.124 284.528 216.3 284.528 217.212 284.528C221.388 284.528 223.692 282.08 223.692 278.384C223.692 275.504 221.34 272.72 217.212 272.72ZM205.548 268.4C208.14 268.4 210.78 268.4 213.42 268.4C214.668 268.4 215.964 268.4 217.212 268.4C226.044 268.4 228.54 273.92 228.54 278.384C228.54 282.368 226.86 286.784 221.484 288.272L229.74 302H224.316L216.396 288.8C214.812 288.8 211.788 288.8 210.348 288.8V302H205.548V268.4ZM247.016 267.968C251.816 267.968 254.744 269.552 257.576 272.72L254.36 276.272C252.488 274.16 250.568 272.48 247.016 272.48C240.728 272.48 235.832 278.96 235.832 285.248C235.832 291.536 240.728 298.016 247.016 298.016C249.608 298.016 252.152 297.056 254.072 295.376V288.656H244.856V284.576H258.872V286.112V297.248C255.992 300.512 251.864 302.528 247.016 302.528C237.512 302.528 230.792 294.752 230.792 285.248C230.792 275.744 237.512 267.968 247.016 267.968ZM276.153 268.4H285.369V272.72H276.153C271.641 272.72 268.473 275.936 268.473 280.448V282.512H283.881V286.592H268.473V290.048C268.473 294.56 271.641 297.632 276.153 297.632H286.089V302H276.153C269.289 302 263.673 296.912 263.673 290.048V280.448C263.673 273.584 269.289 268.4 276.153 268.4ZM289.455 268.4H294.543L311.679 294.128V268.4H316.239V302H311.199L294.063 276.272V302H289.455V268.4ZM336.312 267.968C341.112 267.968 344.04 269.552 346.872 272.72L343.8 275.888C341.736 273.872 339.864 272.48 336.312 272.48C330.024 272.48 325.128 278.96 325.128 285.248C325.128 291.536 330.024 298.016 336.312 298.016C339.528 298.016 342.648 296.528 344.616 294.032L348.168 297.248C345.288 300.512 341.16 302.528 336.312 302.528C326.808 302.528 320.088 294.752 320.088 285.248C320.088 275.744 326.808 267.968 336.312 267.968ZM361.513 268.4H370.729V272.72H361.513C357.001 272.72 353.833 275.936 353.833 280.448V282.512H369.241V286.592H353.833V290.048C353.833 294.56 357.001 297.632 361.513 297.632H371.449V302H361.513C354.649 302 349.033 296.912 349.033 290.048V280.448C349.033 273.584 354.649 268.4 361.513 268.4Z" fill="#EF0E12"/>
<defs>
<filter id="filter0_d_171_1141" x="0.700001" y="0.700001" width="510.6" height="511.6" filterUnits="userSpaceOnUse" color-interpolation-filters="sRGB">
<feFlood flood-opacity="0" result="BackgroundImageFix"/>
<feColorMatrix in="SourceAlpha" type="matrix" values="0 0 0 0 0 0 0 0 0 0 0 0 0 0 0 0 0 0 127 0" result="hardAlpha"/>
<feOffset/>
<feGaussianBlur stdDeviation="9.65"/>
<feComposite in2="hardAlpha" operator="out"/>
<feColorMatrix type="matrix" values="0 0 0 0 0.941176 0 0 0 0 0.054902 0 0 0 0 0.0745098 0 0 0 1 0"/>
<feBlend mode="normal" in2="BackgroundImageFix" result="effect1_dropShadow_171_1141"/>
<feBlend mode="normal" in="SourceGraphic" in2="effect1_dropShadow_171_1141" result="shape"/>
</filter>
</defs>
</svg>
