<svg width="1853" height="1034" viewBox="0 0 1853 1034" fill="none" xmlns="http://www.w3.org/2000/svg">
<path d="M41.88 51.58C41.88 51.94 42 52.24 42.24 52.48C42.3733 52.5867 42.5133 52.68 42.66 52.76C42.8067 52.8267 42.9733 52.86 43.16 52.86H65.46C65.98 52.86 66.48 52.9467 66.96 53.12C67.44 53.28 67.8733 53.5067 68.26 53.8C68.6467 54.08 68.98 54.42 69.26 54.82C69.54 55.22 69.7533 55.6533 69.9 56.12C70.02 56.52 70.08 56.9467 70.08 57.4C70.08 58.04 69.96 58.64 69.72 59.2C69.48 59.7467 69.1467 60.2267 68.72 60.64C68.3067 61.0533 67.82 61.38 67.26 61.62C66.7 61.86 66.1 61.98 65.46 61.98H37V58.68H63.9C64.26 58.68 64.5733 58.56 64.84 58.32C65.08 58.08 65.2 57.7733 65.2 57.4C65.2 57.0533 65.0733 56.7533 64.82 56.5C64.5667 56.2467 64.26 56.12 63.9 56.12H41.6C41.08 56.12 40.58 56.04 40.1 55.88C39.6333 55.72 39.2067 55.4933 38.82 55.2C38.4333 54.9067 38.0933 54.56 37.8 54.16C37.52 53.76 37.3133 53.3267 37.18 52.86C37.06 52.46 37 52.0333 37 51.58C37 50.94 37.12 50.3467 37.36 49.8C37.6 49.24 37.9267 48.7533 38.34 48.34C38.7667 47.9267 39.2533 47.6 39.8 47.36C40.36 47.12 40.96 47 41.6 47H70.08V50.3H43.16C42.8133 50.3 42.5133 50.4267 42.26 50.68C42.0067 50.92 41.88 51.22 41.88 51.58ZM107.816 47V49.28C107.816 50.0267 107.676 50.7267 107.396 51.38C107.116 52.0333 106.729 52.6067 106.236 53.1C105.756 53.58 105.189 53.96 104.536 54.24C103.882 54.52 103.189 54.66 102.456 54.66H92.5358C92.8958 55.22 93.1758 55.8333 93.3758 56.5C93.5758 57.1533 93.6758 57.84 93.6758 58.56V62H88.8158V58.06C88.8158 57.5933 88.7224 57.1533 88.5358 56.74C88.3624 56.3267 88.1224 55.9667 87.8158 55.66C87.5091 55.3533 87.1491 55.1133 86.7358 54.94C86.3224 54.7533 85.8758 54.66 85.3958 54.66H80.0358C79.2891 54.66 78.5891 54.52 77.9358 54.24C77.2958 53.96 76.7291 53.58 76.2358 53.1C75.7558 52.6067 75.3758 52.0333 75.0958 51.38C74.8158 50.7267 74.6758 50.0267 74.6758 49.28V47H79.5558V49.18C79.5558 49.4733 79.6091 49.7533 79.7158 50.02C79.8358 50.2733 79.9891 50.5 80.1758 50.7C80.3758 50.9 80.6024 51.06 80.8558 51.18C81.1224 51.2867 81.4091 51.34 81.7158 51.34H100.776C101.069 51.34 101.349 51.2867 101.616 51.18C101.882 51.06 102.109 50.9 102.296 50.7C102.496 50.5 102.649 50.2733 102.756 50.02C102.876 49.7533 102.936 49.4733 102.936 49.18V47H107.816ZM117.056 51.58C117.056 51.94 117.176 52.24 117.416 52.48C117.549 52.5867 117.689 52.68 117.836 52.76C117.982 52.8267 118.149 52.86 118.336 52.86H140.636C141.156 52.86 141.656 52.9467 142.136 53.12C142.616 53.28 143.049 53.5067 143.436 53.8C143.822 54.08 144.156 54.42 144.436 54.82C144.716 55.22 144.929 55.6533 145.076 56.12C145.196 56.52 145.256 56.9467 145.256 57.4C145.256 58.04 145.136 58.64 144.896 59.2C144.656 59.7467 144.322 60.2267 143.896 60.64C143.482 61.0533 142.996 61.38 142.436 61.62C141.876 61.86 141.276 61.98 140.636 61.98H112.176V58.68H139.076C139.436 58.68 139.749 58.56 140.016 58.32C140.256 58.08 140.376 57.7733 140.376 57.4C140.376 57.0533 140.249 56.7533 139.996 56.5C139.742 56.2467 139.436 56.12 139.076 56.12H116.776C116.256 56.12 115.756 56.04 115.276 55.88C114.809 55.72 114.382 55.4933 113.996 55.2C113.609 54.9067 113.269 54.56 112.976 54.16C112.696 53.76 112.489 53.3267 112.356 52.86C112.236 52.46 112.176 52.0333 112.176 51.58C112.176 50.94 112.296 50.3467 112.536 49.8C112.776 49.24 113.102 48.7533 113.516 48.34C113.942 47.9267 114.429 47.6 114.976 47.36C115.536 47.12 116.136 47 116.776 47H145.256V50.3H118.336C117.989 50.3 117.689 50.4267 117.436 50.68C117.182 50.92 117.056 51.22 117.056 51.58ZM179.952 50.32H166.732C167.385 51.12 167.892 52.0067 168.252 52.98C168.625 53.9533 168.812 54.9867 168.812 56.08V62H163.932V55.82C163.932 55.06 163.785 54.3467 163.492 53.68C163.212 53.0133 162.825 52.4333 162.332 51.94C161.838 51.4333 161.258 51.04 160.592 50.76C159.925 50.4667 159.212 50.32 158.452 50.32H149.852V47.02H179.952V50.32ZM217.464 50.32V47V50.32ZM189.224 50.32V54.16C189.664 53.84 190.15 53.5667 190.684 53.34C191.67 52.9267 192.69 52.72 193.744 52.72H205.284V56.04H193.744C192.824 56.04 191.99 56.2867 191.244 56.78C190.51 57.26 189.97 57.8933 189.624 58.68H217.464V62H184.344V47H217.464V50.32H189.224ZM217.464 50.32V47V50.32ZM277.989 47C278.802 47 279.562 47.1533 280.269 47.46C280.989 47.7667 281.615 48.1867 282.149 48.72C282.682 49.2533 283.102 49.88 283.409 50.6C283.715 51.3067 283.869 52.0667 283.869 52.88V62H278.989V52.8C278.989 52.4533 278.922 52.1333 278.789 51.84C278.669 51.5333 278.495 51.2667 278.269 51.04C278.042 50.8133 277.775 50.6333 277.469 50.5C277.175 50.3667 276.855 50.3 276.509 50.3H264.169C262.982 50.3 261.869 50.5267 260.829 50.98C259.802 51.42 258.895 52.0333 258.109 52.82C257.335 53.5933 256.722 54.5 256.269 55.54C255.829 56.58 255.609 57.6867 255.609 58.86V62H255.589H250.749H250.729V58.86C250.729 57.6867 250.502 56.58 250.049 55.54C249.609 54.5 248.995 53.5933 248.209 52.82C247.435 52.0333 246.529 51.42 245.489 50.98C244.449 50.5267 243.342 50.3 242.169 50.3H229.829C229.482 50.3 229.155 50.3667 228.849 50.5C228.555 50.6333 228.295 50.8133 228.069 51.04C227.842 51.2667 227.662 51.5333 227.529 51.84C227.409 52.1333 227.349 52.4533 227.349 52.8V62H222.469V52.88C222.469 52.0667 222.622 51.3067 222.929 50.6C223.235 49.88 223.655 49.2533 224.189 48.72C224.722 48.1867 225.342 47.7667 226.049 47.46C226.769 47.1533 227.535 47 228.349 47H243.389C244.389 47 245.355 47.12 246.289 47.36C247.222 47.5867 248.102 47.9133 248.929 48.34C249.769 48.7533 250.542 49.2667 251.249 49.88C251.969 50.48 252.609 51.1467 253.169 51.88C253.729 51.1467 254.362 50.48 255.069 49.88C255.789 49.2667 256.562 48.7533 257.389 48.34C258.229 47.9133 259.115 47.5867 260.049 47.36C260.982 47.12 261.949 47 262.949 47H277.989ZM321.995 50.32V47V50.32ZM293.755 50.32V54.16C294.195 53.84 294.682 53.5667 295.215 53.34C296.202 52.9267 297.222 52.72 298.275 52.72H309.815V56.04H298.275C297.355 56.04 296.522 56.2867 295.775 56.78C295.042 57.26 294.502 57.8933 294.155 58.68H321.995V62H288.875V47H321.995V50.32H293.755ZM321.995 50.32V47V50.32ZM69.4 90.3C69.5867 90.6867 69.7333 91.1 69.84 91.54C69.9467 91.9667 70 92.4133 70 92.88V96.12C70 96.5867 69.9467 97.0333 69.84 97.46C69.7467 97.8733 69.6067 98.2733 69.42 98.66C69.02 99.5133 68.44 100.233 67.68 100.82C66.9333 101.393 66.08 101.76 65.12 101.92C65.04 101.947 64.9533 101.967 64.86 101.98C64.78 101.98 64.6933 101.987 64.6 102H37V87C42.1867 87 46.8333 87.0067 50.94 87.02C52.1 87.02 53.2533 87.0267 54.4 87.04C55.5467 87.04 56.64 87.04 57.68 87.04C58.72 87.04 59.6867 87.0467 60.58 87.06C61.4733 87.06 62.2533 87.06 62.92 87.06C63.5867 87.06 64.1133 87.0667 64.5 87.08C64.8867 87.08 65.0933 87.08 65.12 87.08C66.0667 87.24 66.9133 87.6067 67.66 88.18C68.4067 88.7533 68.9867 89.46 69.4 90.3ZM65.12 92.8C65.12 92.4533 65.0533 92.1333 64.92 91.84C64.8 91.5333 64.6267 91.2667 64.4 91.04C64.1733 90.8133 63.9067 90.64 63.6 90.52C63.3067 90.3867 62.9867 90.32 62.64 90.32H45.48V90.3H41.88V98.68H45.48V98.66H62.94C63.2467 98.6333 63.5333 98.5533 63.8 98.42C64.0667 98.2733 64.2933 98.0933 64.48 97.88C64.68 97.6533 64.8333 97.4 64.94 97.12C65.06 96.8267 65.12 96.52 65.12 96.2V92.8ZM107.112 90.32V87V90.32ZM78.8722 90.32V94.16C79.3122 93.84 79.7989 93.5667 80.3322 93.34C81.3189 92.9267 82.3389 92.72 83.3922 92.72H94.9322V96.04H83.3922C82.4722 96.04 81.6389 96.2867 80.8922 96.78C80.1589 97.26 79.6189 97.8933 79.2722 98.68H107.112V102H73.9922V87H107.112V90.32H78.8722ZM107.112 90.32V87V90.32ZM155.905 98.68C156.225 98.68 156.525 98.6267 156.805 98.52C157.085 98.4133 157.332 98.2667 157.545 98.08C157.772 97.88 157.952 97.6533 158.085 97.4C158.232 97.1333 158.325 96.8467 158.365 96.54H163.245C163.205 97.3 163.018 98.0133 162.685 98.68C162.352 99.3467 161.918 99.9267 161.385 100.42C160.852 100.913 160.238 101.3 159.545 101.58C158.865 101.86 158.145 102 157.385 102H136.025C135.225 102 134.465 101.847 133.745 101.54C133.038 101.233 132.418 100.82 131.885 100.3C131.352 99.7667 130.925 99.14 130.605 98.42C130.298 97.7 130.145 96.9333 130.145 96.12V92.88C130.145 92.0667 130.298 91.3 130.605 90.58C130.925 89.86 131.352 89.2333 131.885 88.7C132.418 88.1667 133.038 87.7467 133.745 87.44C134.465 87.1333 135.225 86.9867 136.025 87H157.385C158.145 87 158.865 87.14 159.545 87.42C160.238 87.7 160.852 88.0867 161.385 88.58C161.918 89.0733 162.352 89.6533 162.685 90.32C163.018 90.9867 163.205 91.7 163.245 92.46H158.365C158.325 92.1533 158.232 91.8733 158.085 91.62C157.952 91.3533 157.772 91.1267 157.545 90.94C157.332 90.74 157.085 90.5867 156.805 90.48C156.525 90.36 156.225 90.3 155.905 90.3H137.505C137.158 90.3 136.832 90.3667 136.525 90.5C136.232 90.6333 135.972 90.8133 135.745 91.04C135.518 91.2667 135.338 91.5333 135.205 91.84C135.085 92.1333 135.025 92.4533 135.025 92.8V96.2C135.025 96.5467 135.085 96.8733 135.205 97.18C135.338 97.4733 135.518 97.7333 135.745 97.96C135.972 98.1867 136.232 98.3667 136.525 98.5C136.832 98.62 137.158 98.68 137.505 98.68H155.905ZM195.905 87.08C196.598 87.2 197.238 87.4333 197.825 87.78C198.425 88.1267 198.945 88.56 199.385 89.08C199.825 89.5867 200.165 90.1667 200.405 90.82C200.658 91.4733 200.785 92.16 200.785 92.88V96.12C200.785 96.9333 200.625 97.7 200.305 98.42C199.998 99.1267 199.578 99.7467 199.045 100.28C198.511 100.813 197.885 101.233 197.165 101.54C196.458 101.847 195.705 102 194.905 102H173.545C172.745 102 171.985 101.847 171.265 101.54C170.558 101.233 169.938 100.813 169.405 100.28C168.871 99.7467 168.445 99.1267 168.125 98.42C167.818 97.7 167.665 96.9333 167.665 96.12V92.88C167.678 92.0933 167.838 91.3467 168.145 90.64C168.451 89.9333 168.865 89.3133 169.385 88.78C169.905 88.2467 170.518 87.8267 171.225 87.52C171.945 87.2 172.718 87.0267 173.545 87H194.905C195.078 87 195.245 87.0067 195.405 87.02C195.578 87.0333 195.745 87.0533 195.905 87.08ZM195.905 92.8C195.905 92.4533 195.838 92.1333 195.705 91.84C195.585 91.5333 195.411 91.2667 195.185 91.04C194.958 90.8133 194.691 90.6333 194.385 90.5C194.091 90.3667 193.771 90.3 193.425 90.3H175.025C174.678 90.3 174.351 90.3667 174.045 90.5C173.751 90.6333 173.491 90.8133 173.265 91.04C173.038 91.2667 172.858 91.5333 172.725 91.84C172.605 92.1333 172.545 92.4533 172.545 92.8V96.2C172.545 96.5467 172.605 96.8733 172.725 97.18C172.858 97.4733 173.038 97.7333 173.265 97.96C173.491 98.1733 173.751 98.3467 174.045 98.48C174.351 98.6133 174.678 98.68 175.025 98.68H193.425C193.771 98.68 194.091 98.6133 194.385 98.48C194.691 98.3467 194.958 98.1733 195.185 97.96C195.411 97.7333 195.585 97.4733 195.705 97.18C195.838 96.8733 195.905 96.5467 195.905 96.2V92.8ZM260.723 87C261.536 87 262.296 87.1533 263.003 87.46C263.723 87.7667 264.35 88.1867 264.883 88.72C265.416 89.2533 265.836 89.88 266.143 90.6C266.45 91.3067 266.603 92.0667 266.603 92.88V102H261.723V92.8C261.723 92.4533 261.656 92.1333 261.523 91.84C261.403 91.5333 261.23 91.2667 261.003 91.04C260.776 90.8133 260.51 90.6333 260.203 90.5C259.91 90.3667 259.59 90.3 259.243 90.3H246.903C245.716 90.3 244.603 90.5267 243.563 90.98C242.536 91.42 241.63 92.0333 240.843 92.82C240.07 93.5933 239.456 94.5 239.003 95.54C238.563 96.58 238.343 97.6867 238.343 98.86V102H238.323H233.483H233.463V98.86C233.463 97.6867 233.236 96.58 232.783 95.54C232.343 94.5 231.73 93.5933 230.943 92.82C230.17 92.0333 229.263 91.42 228.223 90.98C227.183 90.5267 226.076 90.3 224.903 90.3H212.563C212.216 90.3 211.89 90.3667 211.583 90.5C211.29 90.6333 211.03 90.8133 210.803 91.04C210.576 91.2667 210.396 91.5333 210.263 91.84C210.143 92.1333 210.083 92.4533 210.083 92.8V102H205.203V92.88C205.203 92.0667 205.356 91.3067 205.663 90.6C205.97 89.88 206.39 89.2533 206.923 88.72C207.456 88.1867 208.076 87.7667 208.783 87.46C209.503 87.1533 210.27 87 211.083 87H226.123C227.123 87 228.09 87.12 229.023 87.36C229.956 87.5867 230.836 87.9133 231.663 88.34C232.503 88.7533 233.276 89.2667 233.983 89.88C234.703 90.48 235.343 91.1467 235.903 91.88C236.463 91.1467 237.096 90.48 237.803 89.88C238.523 89.2667 239.296 88.7533 240.123 88.34C240.963 87.9133 241.85 87.5867 242.783 87.36C243.716 87.12 244.683 87 245.683 87H260.723Z" fill="#4DADAC"/>
<path d="M1530.88 946.58C1530.88 946.94 1531 947.24 1531.24 947.48C1531.37 947.587 1531.51 947.68 1531.66 947.76C1531.81 947.827 1531.97 947.86 1532.16 947.86H1554.46C1554.98 947.86 1555.48 947.947 1555.96 948.12C1556.44 948.28 1556.87 948.507 1557.26 948.8C1557.65 949.08 1557.98 949.42 1558.26 949.82C1558.54 950.22 1558.75 950.653 1558.9 951.12C1559.02 951.52 1559.08 951.947 1559.08 952.4C1559.08 953.04 1558.96 953.64 1558.72 954.2C1558.48 954.747 1558.15 955.227 1557.72 955.64C1557.31 956.053 1556.82 956.38 1556.26 956.62C1555.7 956.86 1555.1 956.98 1554.46 956.98H1526V953.68H1552.9C1553.26 953.68 1553.57 953.56 1553.84 953.32C1554.08 953.08 1554.2 952.773 1554.2 952.4C1554.2 952.053 1554.07 951.753 1553.82 951.5C1553.57 951.247 1553.26 951.12 1552.9 951.12H1530.6C1530.08 951.12 1529.58 951.04 1529.1 950.88C1528.63 950.72 1528.21 950.493 1527.82 950.2C1527.43 949.907 1527.09 949.56 1526.8 949.16C1526.52 948.76 1526.31 948.327 1526.18 947.86C1526.06 947.46 1526 947.033 1526 946.58C1526 945.94 1526.12 945.347 1526.36 944.8C1526.6 944.24 1526.93 943.753 1527.34 943.34C1527.77 942.927 1528.25 942.6 1528.8 942.36C1529.36 942.12 1529.96 942 1530.6 942H1559.08V945.3H1532.16C1531.81 945.3 1531.51 945.427 1531.26 945.68C1531.01 945.92 1530.88 946.22 1530.88 946.58ZM1596.82 942V944.28C1596.82 945.027 1596.68 945.727 1596.4 946.38C1596.12 947.033 1595.73 947.607 1595.24 948.1C1594.76 948.58 1594.19 948.96 1593.54 949.24C1592.88 949.52 1592.19 949.66 1591.46 949.66H1581.54C1581.9 950.22 1582.18 950.833 1582.38 951.5C1582.58 952.153 1582.68 952.84 1582.68 953.56V957H1577.82V953.06C1577.82 952.593 1577.72 952.153 1577.54 951.74C1577.36 951.327 1577.12 950.967 1576.82 950.66C1576.51 950.353 1576.15 950.113 1575.74 949.94C1575.32 949.753 1574.88 949.66 1574.4 949.66H1569.04C1568.29 949.66 1567.59 949.52 1566.94 949.24C1566.3 948.96 1565.73 948.58 1565.24 948.1C1564.76 947.607 1564.38 947.033 1564.1 946.38C1563.82 945.727 1563.68 945.027 1563.68 944.28V942H1568.56V944.18C1568.56 944.473 1568.61 944.753 1568.72 945.02C1568.84 945.273 1568.99 945.5 1569.18 945.7C1569.38 945.9 1569.6 946.06 1569.86 946.18C1570.12 946.287 1570.41 946.34 1570.72 946.34H1589.78C1590.07 946.34 1590.35 946.287 1590.62 946.18C1590.88 946.06 1591.11 945.9 1591.3 945.7C1591.5 945.5 1591.65 945.273 1591.76 945.02C1591.88 944.753 1591.94 944.473 1591.94 944.18V942H1596.82ZM1606.06 946.58C1606.06 946.94 1606.18 947.24 1606.42 947.48C1606.55 947.587 1606.69 947.68 1606.84 947.76C1606.98 947.827 1607.15 947.86 1607.34 947.86H1629.64C1630.16 947.86 1630.66 947.947 1631.14 948.12C1631.62 948.28 1632.05 948.507 1632.44 948.8C1632.82 949.08 1633.16 949.42 1633.44 949.82C1633.72 950.22 1633.93 950.653 1634.08 951.12C1634.2 951.52 1634.26 951.947 1634.26 952.4C1634.26 953.04 1634.14 953.64 1633.9 954.2C1633.66 954.747 1633.32 955.227 1632.9 955.64C1632.48 956.053 1632 956.38 1631.44 956.62C1630.88 956.86 1630.28 956.98 1629.64 956.98H1601.18V953.68H1628.08C1628.44 953.68 1628.75 953.56 1629.02 953.32C1629.26 953.08 1629.38 952.773 1629.38 952.4C1629.38 952.053 1629.25 951.753 1629 951.5C1628.74 951.247 1628.44 951.12 1628.08 951.12H1605.78C1605.26 951.12 1604.76 951.04 1604.28 950.88C1603.81 950.72 1603.38 950.493 1603 950.2C1602.61 949.907 1602.27 949.56 1601.98 949.16C1601.7 948.76 1601.49 948.327 1601.36 947.86C1601.24 947.46 1601.18 947.033 1601.18 946.58C1601.18 945.94 1601.3 945.347 1601.54 944.8C1601.78 944.24 1602.1 943.753 1602.52 943.34C1602.94 942.927 1603.43 942.6 1603.98 942.36C1604.54 942.12 1605.14 942 1605.78 942H1634.26V945.3H1607.34C1606.99 945.3 1606.69 945.427 1606.44 945.68C1606.18 945.92 1606.06 946.22 1606.06 946.58ZM1668.95 945.32H1655.73C1656.38 946.12 1656.89 947.007 1657.25 947.98C1657.62 948.953 1657.81 949.987 1657.81 951.08V957H1652.93V950.82C1652.93 950.06 1652.78 949.347 1652.49 948.68C1652.21 948.013 1651.82 947.433 1651.33 946.94C1650.84 946.433 1650.26 946.04 1649.59 945.76C1648.92 945.467 1648.21 945.32 1647.45 945.32H1638.85V942.02H1668.95V945.32ZM1706.46 945.32V942V945.32ZM1678.22 945.32V949.16C1678.66 948.84 1679.15 948.567 1679.68 948.34C1680.67 947.927 1681.69 947.72 1682.74 947.72H1694.28V951.04H1682.74C1681.82 951.04 1680.99 951.287 1680.24 951.78C1679.51 952.26 1678.97 952.893 1678.62 953.68H1706.46V957H1673.34V942H1706.46V945.32H1678.22ZM1706.46 945.32V942V945.32ZM1766.99 942C1767.8 942 1768.56 942.153 1769.27 942.46C1769.99 942.767 1770.62 943.187 1771.15 943.72C1771.68 944.253 1772.1 944.88 1772.41 945.6C1772.72 946.307 1772.87 947.067 1772.87 947.88V957H1767.99V947.8C1767.99 947.453 1767.92 947.133 1767.79 946.84C1767.67 946.533 1767.5 946.267 1767.27 946.04C1767.04 945.813 1766.78 945.633 1766.47 945.5C1766.18 945.367 1765.86 945.3 1765.51 945.3H1753.17C1751.98 945.3 1750.87 945.527 1749.83 945.98C1748.8 946.42 1747.9 947.033 1747.11 947.82C1746.34 948.593 1745.72 949.5 1745.27 950.54C1744.83 951.58 1744.61 952.687 1744.61 953.86V957H1744.59H1739.75H1739.73V953.86C1739.73 952.687 1739.5 951.58 1739.05 950.54C1738.61 949.5 1738 948.593 1737.21 947.82C1736.44 947.033 1735.53 946.42 1734.49 945.98C1733.45 945.527 1732.34 945.3 1731.17 945.3H1718.83C1718.48 945.3 1718.16 945.367 1717.85 945.5C1717.56 945.633 1717.3 945.813 1717.07 946.04C1716.84 946.267 1716.66 946.533 1716.53 946.84C1716.41 947.133 1716.35 947.453 1716.35 947.8V957H1711.47V947.88C1711.47 947.067 1711.62 946.307 1711.93 945.6C1712.24 944.88 1712.66 944.253 1713.19 943.72C1713.72 943.187 1714.34 942.767 1715.05 942.46C1715.77 942.153 1716.54 942 1717.35 942H1732.39C1733.39 942 1734.36 942.12 1735.29 942.36C1736.22 942.587 1737.1 942.913 1737.93 943.34C1738.77 943.753 1739.54 944.267 1740.25 944.88C1740.97 945.48 1741.61 946.147 1742.17 946.88C1742.73 946.147 1743.36 945.48 1744.07 944.88C1744.79 944.267 1745.56 943.753 1746.39 943.34C1747.23 942.913 1748.12 942.587 1749.05 942.36C1749.98 942.12 1750.95 942 1751.95 942H1766.99ZM1811 945.32V942V945.32ZM1782.76 945.32V949.16C1783.2 948.84 1783.68 948.567 1784.22 948.34C1785.2 947.927 1786.22 947.72 1787.28 947.72H1798.82V951.04H1787.28C1786.36 951.04 1785.52 951.287 1784.78 951.78C1784.04 952.26 1783.5 952.893 1783.15 953.68H1811V957H1777.88V942H1811V945.32H1782.76ZM1811 945.32V942V945.32ZM1623.79 985.3C1623.98 985.687 1624.12 986.1 1624.23 986.54C1624.34 986.967 1624.39 987.413 1624.39 987.88V991.12C1624.39 991.587 1624.34 992.033 1624.23 992.46C1624.14 992.873 1624 993.273 1623.81 993.66C1623.41 994.513 1622.83 995.233 1622.07 995.82C1621.32 996.393 1620.47 996.76 1619.51 996.92C1619.43 996.947 1619.34 996.967 1619.25 996.98C1619.17 996.98 1619.08 996.987 1618.99 997H1591.39V982C1596.58 982 1601.22 982.007 1605.33 982.02C1606.49 982.02 1607.64 982.027 1608.79 982.04C1609.94 982.04 1611.03 982.04 1612.07 982.04C1613.11 982.04 1614.08 982.047 1614.97 982.06C1615.86 982.06 1616.64 982.06 1617.31 982.06C1617.98 982.06 1618.5 982.067 1618.89 982.08C1619.28 982.08 1619.48 982.08 1619.51 982.08C1620.46 982.24 1621.3 982.607 1622.05 983.18C1622.8 983.753 1623.38 984.46 1623.79 985.3ZM1619.51 987.8C1619.51 987.453 1619.44 987.133 1619.31 986.84C1619.19 986.533 1619.02 986.267 1618.79 986.04C1618.56 985.813 1618.3 985.64 1617.99 985.52C1617.7 985.387 1617.38 985.32 1617.03 985.32H1599.87V985.3H1596.27V993.68H1599.87V993.66H1617.33C1617.64 993.633 1617.92 993.553 1618.19 993.42C1618.46 993.273 1618.68 993.093 1618.87 992.88C1619.07 992.653 1619.22 992.4 1619.33 992.12C1619.45 991.827 1619.51 991.52 1619.51 991.2V987.8ZM1661.5 985.32V982V985.32ZM1633.26 985.32V989.16C1633.7 988.84 1634.19 988.567 1634.72 988.34C1635.71 987.927 1636.73 987.72 1637.78 987.72H1649.32V991.04H1637.78C1636.86 991.04 1636.03 991.287 1635.28 991.78C1634.55 992.26 1634.01 992.893 1633.66 993.68H1661.5V997H1628.38V982H1661.5V985.32H1633.26ZM1661.5 985.32V982V985.32ZM1700.3 993.68C1700.62 993.68 1700.92 993.627 1701.2 993.52C1701.48 993.413 1701.72 993.267 1701.94 993.08C1702.16 992.88 1702.34 992.653 1702.48 992.4C1702.62 992.133 1702.72 991.847 1702.76 991.54H1707.64C1707.6 992.3 1707.41 993.013 1707.08 993.68C1706.74 994.347 1706.31 994.927 1705.78 995.42C1705.24 995.913 1704.63 996.3 1703.94 996.58C1703.26 996.86 1702.54 997 1701.78 997H1680.42C1679.62 997 1678.86 996.847 1678.14 996.54C1677.43 996.233 1676.81 995.82 1676.28 995.3C1675.74 994.767 1675.32 994.14 1675 993.42C1674.69 992.7 1674.54 991.933 1674.54 991.12V987.88C1674.54 987.067 1674.69 986.3 1675 985.58C1675.32 984.86 1675.74 984.233 1676.28 983.7C1676.81 983.167 1677.43 982.747 1678.14 982.44C1678.86 982.133 1679.62 981.987 1680.42 982H1701.78C1702.54 982 1703.26 982.14 1703.94 982.42C1704.63 982.7 1705.24 983.087 1705.78 983.58C1706.31 984.073 1706.74 984.653 1707.08 985.32C1707.41 985.987 1707.6 986.7 1707.64 987.46H1702.76C1702.72 987.153 1702.62 986.873 1702.48 986.62C1702.34 986.353 1702.16 986.127 1701.94 985.94C1701.72 985.74 1701.48 985.587 1701.2 985.48C1700.92 985.36 1700.62 985.3 1700.3 985.3H1681.9C1681.55 985.3 1681.22 985.367 1680.92 985.5C1680.62 985.633 1680.36 985.813 1680.14 986.04C1679.91 986.267 1679.73 986.533 1679.6 986.84C1679.48 987.133 1679.42 987.453 1679.42 987.8V991.2C1679.42 991.547 1679.48 991.873 1679.6 992.18C1679.73 992.473 1679.91 992.733 1680.14 992.96C1680.36 993.187 1680.62 993.367 1680.92 993.5C1681.22 993.62 1681.55 993.68 1681.9 993.68H1700.3ZM1740.3 982.08C1740.99 982.2 1741.63 982.433 1742.22 982.78C1742.82 983.127 1743.34 983.56 1743.78 984.08C1744.22 984.587 1744.56 985.167 1744.8 985.82C1745.05 986.473 1745.18 987.16 1745.18 987.88V991.12C1745.18 991.933 1745.02 992.7 1744.7 993.42C1744.39 994.127 1743.97 994.747 1743.44 995.28C1742.9 995.813 1742.28 996.233 1741.56 996.54C1740.85 996.847 1740.1 997 1739.3 997H1717.94C1717.14 997 1716.38 996.847 1715.66 996.54C1714.95 996.233 1714.33 995.813 1713.8 995.28C1713.26 994.747 1712.84 994.127 1712.52 993.42C1712.21 992.7 1712.06 991.933 1712.06 991.12V987.88C1712.07 987.093 1712.23 986.347 1712.54 985.64C1712.84 984.933 1713.26 984.313 1713.78 983.78C1714.3 983.247 1714.91 982.827 1715.62 982.52C1716.34 982.2 1717.11 982.027 1717.94 982H1739.3C1739.47 982 1739.64 982.007 1739.8 982.02C1739.97 982.033 1740.14 982.053 1740.3 982.08ZM1740.3 987.8C1740.3 987.453 1740.23 987.133 1740.1 986.84C1739.98 986.533 1739.8 986.267 1739.58 986.04C1739.35 985.813 1739.08 985.633 1738.78 985.5C1738.48 985.367 1738.16 985.3 1737.82 985.3H1719.42C1719.07 985.3 1718.74 985.367 1718.44 985.5C1718.14 985.633 1717.88 985.813 1717.66 986.04C1717.43 986.267 1717.25 986.533 1717.12 986.84C1717 987.133 1716.94 987.453 1716.94 987.8V991.2C1716.94 991.547 1717 991.873 1717.12 992.18C1717.25 992.473 1717.43 992.733 1717.66 992.96C1717.88 993.173 1718.14 993.347 1718.44 993.48C1718.74 993.613 1719.07 993.68 1719.42 993.68H1737.82C1738.16 993.68 1738.48 993.613 1738.78 993.48C1739.08 993.347 1739.35 993.173 1739.58 992.96C1739.8 992.733 1739.98 992.473 1740.1 992.18C1740.23 991.873 1740.3 991.547 1740.3 991.2V987.8ZM1805.11 982C1805.93 982 1806.69 982.153 1807.39 982.46C1808.11 982.767 1808.74 983.187 1809.27 983.72C1809.81 984.253 1810.23 984.88 1810.53 985.6C1810.84 986.307 1810.99 987.067 1810.99 987.88V997H1806.11V987.8C1806.11 987.453 1806.05 987.133 1805.91 986.84C1805.79 986.533 1805.62 986.267 1805.39 986.04C1805.17 985.813 1804.9 985.633 1804.59 985.5C1804.3 985.367 1803.98 985.3 1803.63 985.3H1791.29C1790.11 985.3 1788.99 985.527 1787.95 985.98C1786.93 986.42 1786.02 987.033 1785.23 987.82C1784.46 988.593 1783.85 989.5 1783.39 990.54C1782.95 991.58 1782.73 992.687 1782.73 993.86V997H1782.71H1777.87H1777.85V993.86C1777.85 992.687 1777.63 991.58 1777.17 990.54C1776.73 989.5 1776.12 988.593 1775.33 987.82C1774.56 987.033 1773.65 986.42 1772.61 985.98C1771.57 985.527 1770.47 985.3 1769.29 985.3H1756.95C1756.61 985.3 1756.28 985.367 1755.97 985.5C1755.68 985.633 1755.42 985.813 1755.19 986.04C1754.97 986.267 1754.79 986.533 1754.65 986.84C1754.53 987.133 1754.47 987.453 1754.47 987.8V997H1749.59V987.88C1749.59 987.067 1749.75 986.307 1750.05 985.6C1750.36 984.88 1750.78 984.253 1751.31 983.72C1751.85 983.187 1752.47 982.767 1753.17 982.46C1753.89 982.153 1754.66 982 1755.47 982H1770.51C1771.51 982 1772.48 982.12 1773.41 982.36C1774.35 982.587 1775.23 982.913 1776.05 983.34C1776.89 983.753 1777.67 984.267 1778.37 984.88C1779.09 985.48 1779.73 986.147 1780.29 986.88C1780.85 986.147 1781.49 985.48 1782.19 984.88C1782.91 984.267 1783.69 983.753 1784.51 983.34C1785.35 982.913 1786.24 982.587 1787.17 982.36C1788.11 982.12 1789.07 982 1790.07 982H1805.11Z" fill="#4DADAC"/>
<g filter="url(#filter0_d_105_6)">
<path d="M1514.53 903.25H1512.59L1511.16 904.559L1415.49 992H42V145H340.814H342.548L343.91 143.926L473.184 42H1810.84V903.25H1725.25H1514.53Z" stroke="#4DADAC" stroke-width="10" shape-rendering="crispEdges"/>
</g>
<defs>
<filter id="filter0_d_105_6" x="0.799999" y="0.799999" width="1851.24" height="1032.4" filterUnits="userSpaceOnUse" color-interpolation-filters="sRGB">
<feFlood flood-opacity="0" result="BackgroundImageFix"/>
<feColorMatrix in="SourceAlpha" type="matrix" values="0 0 0 0 0 0 0 0 0 0 0 0 0 0 0 0 0 0 127 0" result="hardAlpha"/>
<feOffset/>
<feGaussianBlur stdDeviation="18.1"/>
<feComposite in2="hardAlpha" operator="out"/>
<feColorMatrix type="matrix" values="0 0 0 0 0.301961 0 0 0 0 0.678431 0 0 0 0 0.67451 0 0 0 1 0"/>
<feBlend mode="normal" in2="BackgroundImageFix" result="effect1_dropShadow_105_6"/>
<feBlend mode="normal" in="SourceGraphic" in2="effect1_dropShadow_105_6" result="shape"/>
</filter>
</defs>
</svg>
