<svg width="1853" height="1034" viewBox="0 0 1853 1034" fill="none" xmlns="http://www.w3.org/2000/svg">
<path d="M41.88 60.58C41.88 60.94 42 61.24 42.24 61.48C42.36 61.6 42.5 61.68 42.66 61.76C42.8 61.84 42.96 61.86 43.16 61.86H65.46C65.98 61.86 66.48 61.96 66.96 62.12C67.44 62.28 67.86 62.52 68.26 62.8C68.64 63.08 68.98 63.42 69.26 63.82C69.54 64.22 69.74 64.66 69.9 65.12C70.02 65.52 70.08 65.96 70.08 66.4C70.08 67.04 69.96 67.64 69.72 68.2C69.48 68.76 69.14 69.24 68.72 69.64C68.3 70.06 67.82 70.38 67.26 70.62C66.7 70.86 66.1 70.98 65.46 70.98H37V67.68H63.9C64.26 67.68 64.56 67.56 64.84 67.32C65.08 67.08 65.2 66.78 65.2 66.4C65.2 66.06 65.06 65.76 64.82 65.5C64.56 65.26 64.26 65.12 63.9 65.12H41.6C41.08 65.12 40.58 65.04 40.1 64.88C39.62 64.72 39.2 64.5 38.82 64.2C38.42 63.92 38.08 63.56 37.8 63.16C37.52 62.76 37.3 62.34 37.18 61.86C37.06 61.46 37 61.04 37 60.58C37 59.94 37.12 59.36 37.36 58.8C37.6 58.24 37.92 57.76 38.34 57.34C38.76 56.94 39.24 56.6 39.8 56.36C40.36 56.12 40.96 56 41.6 56H70.08V59.3H43.16C42.8 59.3 42.5 59.44 42.26 59.68C42 59.92 41.88 60.22 41.88 60.58ZM107.816 56V58.28C107.816 59.04 107.676 59.74 107.396 60.38C107.116 61.04 106.716 61.62 106.236 62.1C105.756 62.58 105.176 62.96 104.536 63.24C103.876 63.52 103.176 63.66 102.456 63.66H92.5358C92.8958 64.22 93.1758 64.84 93.3758 65.5C93.5758 66.16 93.6758 66.84 93.6758 67.56V71H88.8158V67.06C88.8158 66.6 88.7158 66.16 88.5358 65.74C88.3558 65.34 88.1158 64.98 87.8158 64.66C87.4958 64.36 87.1358 64.12 86.7358 63.94C86.3158 63.76 85.8758 63.66 85.3958 63.66H80.0358C79.2758 63.66 78.5758 63.52 77.9358 63.24C77.2958 62.96 76.7158 62.58 76.2358 62.1C75.7558 61.62 75.3758 61.04 75.0958 60.38C74.8158 59.74 74.6758 59.04 74.6758 58.28V56H79.5558V58.18C79.5558 58.48 79.5958 58.76 79.7158 59.02C79.8358 59.28 79.9758 59.5 80.1758 59.7C80.3758 59.9 80.5958 60.06 80.8558 60.18C81.1158 60.3 81.3958 60.34 81.7158 60.34H100.776C101.056 60.34 101.336 60.3 101.616 60.18C101.876 60.06 102.096 59.9 102.296 59.7C102.496 59.5 102.636 59.28 102.756 59.02C102.876 58.76 102.936 58.48 102.936 58.18V56H107.816ZM117.056 60.58C117.056 60.94 117.176 61.24 117.416 61.48C117.536 61.6 117.676 61.68 117.836 61.76C117.976 61.84 118.136 61.86 118.336 61.86H140.636C141.156 61.86 141.656 61.96 142.136 62.12C142.616 62.28 143.036 62.52 143.436 62.8C143.816 63.08 144.156 63.42 144.436 63.82C144.716 64.22 144.916 64.66 145.076 65.12C145.196 65.52 145.256 65.96 145.256 66.4C145.256 67.04 145.136 67.64 144.896 68.2C144.656 68.76 144.316 69.24 143.896 69.64C143.476 70.06 142.996 70.38 142.436 70.62C141.876 70.86 141.276 70.98 140.636 70.98H112.176V67.68H139.076C139.436 67.68 139.736 67.56 140.016 67.32C140.256 67.08 140.376 66.78 140.376 66.4C140.376 66.06 140.236 65.76 139.996 65.5C139.736 65.26 139.436 65.12 139.076 65.12H116.776C116.256 65.12 115.756 65.04 115.276 64.88C114.796 64.72 114.376 64.5 113.996 64.2C113.596 63.92 113.256 63.56 112.976 63.16C112.696 62.76 112.476 62.34 112.356 61.86C112.236 61.46 112.176 61.04 112.176 60.58C112.176 59.94 112.296 59.36 112.536 58.8C112.776 58.24 113.096 57.76 113.516 57.34C113.936 56.94 114.416 56.6 114.976 56.36C115.536 56.12 116.136 56 116.776 56H145.256V59.3H118.336C117.976 59.3 117.676 59.44 117.436 59.68C117.176 59.92 117.056 60.22 117.056 60.58ZM179.952 59.32H166.732C167.372 60.12 167.892 61.02 168.252 61.98C168.612 62.96 168.812 64 168.812 65.08V71H163.932V64.82C163.932 64.06 163.772 63.36 163.492 62.68C163.212 62.02 162.812 61.44 162.332 60.94C161.832 60.44 161.252 60.04 160.592 59.76C159.912 59.48 159.212 59.32 158.452 59.32H149.852V56.02H179.952V59.32ZM217.464 59.32V56V59.32ZM189.224 59.32V63.16C189.664 62.84 190.144 62.58 190.684 62.34C191.664 61.94 192.684 61.72 193.744 61.72H205.284V65.04H193.744C192.824 65.04 191.984 65.3 191.244 65.78C190.504 66.26 189.964 66.9 189.624 67.68H217.464V71H184.344V56H217.464V59.32H189.224ZM217.464 59.32V56V59.32ZM277.989 56C278.789 56 279.549 56.16 280.269 56.46C280.989 56.78 281.609 57.2 282.149 57.72C282.669 58.26 283.089 58.88 283.409 59.6C283.709 60.32 283.869 61.08 283.869 61.88V71H278.989V61.8C278.989 61.46 278.909 61.14 278.789 60.84C278.669 60.54 278.489 60.28 278.269 60.04C278.029 59.82 277.769 59.64 277.469 59.5C277.169 59.38 276.849 59.3 276.509 59.3H264.169C262.969 59.3 261.869 59.54 260.829 59.98C259.789 60.42 258.889 61.04 258.109 61.82C257.329 62.6 256.709 63.5 256.269 64.54C255.829 65.58 255.609 66.7 255.609 67.86V71H255.589H250.749H250.729V67.86C250.729 66.7 250.489 65.58 250.049 64.54C249.609 63.5 248.989 62.6 248.209 61.82C247.429 61.04 246.529 60.42 245.489 59.98C244.449 59.54 243.329 59.3 242.169 59.3H229.829C229.469 59.3 229.149 59.38 228.849 59.5C228.549 59.64 228.289 59.82 228.069 60.04C227.829 60.28 227.649 60.54 227.529 60.84C227.409 61.14 227.349 61.46 227.349 61.8V71H222.469V61.88C222.469 61.08 222.609 60.32 222.929 59.6C223.229 58.88 223.649 58.26 224.189 57.72C224.709 57.2 225.329 56.78 226.049 56.46C226.769 56.16 227.529 56 228.349 56H243.389C244.389 56 245.349 56.12 246.289 56.36C247.209 56.6 248.089 56.92 248.929 57.34C249.769 57.76 250.529 58.28 251.249 58.88C251.969 59.48 252.609 60.16 253.169 60.88C253.729 60.16 254.349 59.48 255.069 58.88C255.789 58.28 256.549 57.76 257.389 57.34C258.229 56.92 259.109 56.6 260.049 56.36C260.969 56.12 261.949 56 262.949 56H277.989ZM321.995 59.32V56V59.32ZM293.755 59.32V63.16C294.195 62.84 294.675 62.58 295.215 62.34C296.195 61.94 297.215 61.72 298.275 61.72H309.815V65.04H298.275C297.355 65.04 296.515 65.3 295.775 65.78C295.035 66.26 294.495 66.9 294.155 67.68H321.995V71H288.875V56H321.995V59.32H293.755ZM321.995 59.32V56V59.32ZM367.408 59.3C367.588 59.7 367.728 60.1 367.848 60.54C367.948 60.98 368.008 61.42 368.008 61.88V65.12C368.008 65.6 367.948 66.04 367.848 66.46C367.748 66.88 367.608 67.28 367.428 67.66C367.028 68.52 366.448 69.24 365.688 69.82C364.928 70.4 364.088 70.76 363.128 70.92C363.048 70.96 362.948 70.98 362.868 70.98C362.788 70.98 362.688 71 362.608 71H335.008V56C340.188 56 344.828 56.02 348.948 56.02C350.108 56.02 351.248 56.04 352.408 56.04C353.548 56.04 354.648 56.04 355.688 56.04C356.728 56.04 357.688 56.06 358.588 56.06C359.468 56.06 360.248 56.06 360.928 56.06C361.588 56.06 362.108 56.08 362.508 56.08C362.888 56.08 363.088 56.08 363.128 56.08C364.068 56.24 364.908 56.62 365.668 57.18C366.408 57.76 366.988 58.46 367.408 59.3ZM363.128 61.8C363.128 61.46 363.048 61.14 362.928 60.84C362.808 60.54 362.628 60.28 362.408 60.04C362.168 59.82 361.908 59.64 361.608 59.52C361.308 59.4 360.988 59.32 360.648 59.32H343.488V59.3H339.888V67.68H343.488V67.66H360.948C361.248 67.64 361.528 67.56 361.808 67.42C362.068 67.28 362.288 67.1 362.488 66.88C362.688 66.66 362.828 66.4 362.948 66.12C363.068 65.84 363.128 65.52 363.128 65.2V61.8ZM405.12 59.32V56V59.32ZM376.88 59.32V63.16C377.32 62.84 377.8 62.58 378.34 62.34C379.32 61.94 380.34 61.72 381.4 61.72H392.94V65.04H381.4C380.48 65.04 379.64 65.3 378.9 65.78C378.16 66.26 377.62 66.9 377.28 67.68H405.12V71H372V56H405.12V59.32H376.88ZM405.12 59.32V56V59.32ZM69.4 99.3C69.58 99.7 69.72 100.1 69.84 100.54C69.94 100.98 70 101.42 70 101.88V105.12C70 105.6 69.94 106.04 69.84 106.46C69.74 106.88 69.6 107.28 69.42 107.66C69.02 108.52 68.44 109.24 67.68 109.82C66.92 110.4 66.08 110.76 65.12 110.92C65.04 110.96 64.94 110.98 64.86 110.98C64.78 110.98 64.68 111 64.6 111H37V96C42.18 96 46.82 96.02 50.94 96.02C52.1 96.02 53.24 96.04 54.4 96.04C55.54 96.04 56.64 96.04 57.68 96.04C58.72 96.04 59.68 96.06 60.58 96.06C61.46 96.06 62.24 96.06 62.92 96.06C63.58 96.06 64.1 96.08 64.5 96.08C64.88 96.08 65.08 96.08 65.12 96.08C66.06 96.24 66.9 96.62 67.66 97.18C68.4 97.76 68.98 98.46 69.4 99.3ZM65.12 101.8C65.12 101.46 65.04 101.14 64.92 100.84C64.8 100.54 64.62 100.28 64.4 100.04C64.16 99.82 63.9 99.64 63.6 99.52C63.3 99.4 62.98 99.32 62.64 99.32H45.48V99.3H41.88V107.68H45.48V107.66H62.94C63.24 107.64 63.52 107.56 63.8 107.42C64.06 107.28 64.28 107.1 64.48 106.88C64.68 106.66 64.82 106.4 64.94 106.12C65.06 105.84 65.12 105.52 65.12 105.2V101.8ZM107.112 99.32V96V99.32ZM78.8722 99.32V103.16C79.3122 102.84 79.7922 102.58 80.3322 102.34C81.3122 101.94 82.3322 101.72 83.3922 101.72H94.9322V105.04H83.3922C82.4722 105.04 81.6322 105.3 80.8922 105.78C80.1522 106.26 79.6122 106.9 79.2722 107.68H107.112V111H73.9922V96H107.112V99.32H78.8722ZM107.112 99.32V96V99.32ZM118.457 102.34C119.437 101.94 120.457 101.72 121.517 101.72H133.057V105.04H121.517C120.877 105.04 120.297 105.16 119.757 105.4C119.197 105.64 118.717 105.96 118.317 106.36C117.897 106.78 117.577 107.26 117.337 107.8C117.097 108.36 116.997 108.94 116.997 109.56V111H112.117V96H145.237V99.32H116.997V103.16C117.437 102.84 117.917 102.58 118.457 102.34ZM182.757 99.32V96V99.32ZM154.517 99.32V103.16C154.957 102.84 155.437 102.58 155.977 102.34C156.957 101.94 157.977 101.72 159.037 101.72H170.577V105.04H159.037C158.117 105.04 157.277 105.3 156.537 105.78C155.797 106.26 155.257 106.9 154.917 107.68H182.757V111H149.637V96H182.757V99.32H154.517ZM182.757 99.32V96V99.32ZM208.857 111C207.877 111 206.957 110.84 206.097 110.48C205.237 110.14 204.477 109.66 203.797 109.04C203.757 109 203.717 108.96 203.677 108.92C203.637 108.88 203.617 108.84 203.577 108.8C202.897 108.12 202.357 107.34 201.957 106.42C201.557 105.52 201.377 104.54 201.377 103.5C201.377 102.94 201.257 102.4 201.037 101.88C200.817 101.36 200.517 100.92 200.137 100.54C199.757 100.18 199.317 99.88 198.797 99.66C198.277 99.44 197.737 99.32 197.177 99.32H191.997V111H187.137V96H198.737C199.717 96 200.637 96.18 201.497 96.52C202.337 96.88 203.117 97.36 203.797 97.98C204.557 98.66 205.137 99.48 205.577 100.44C206.017 101.4 206.237 102.42 206.237 103.5C206.237 104.1 206.337 104.64 206.557 105.14C206.777 105.66 207.077 106.1 207.457 106.48C207.817 106.86 208.257 107.16 208.777 107.38C209.277 107.6 209.817 107.7 210.417 107.7H215.377V96H220.237V111H208.857ZM230.122 100.58C230.122 100.94 230.242 101.24 230.482 101.48C230.602 101.6 230.742 101.68 230.902 101.76C231.042 101.84 231.202 101.86 231.402 101.86H253.702C254.222 101.86 254.722 101.96 255.202 102.12C255.682 102.28 256.102 102.52 256.502 102.8C256.882 103.08 257.222 103.42 257.502 103.82C257.782 104.22 257.982 104.66 258.142 105.12C258.262 105.52 258.322 105.96 258.322 106.4C258.322 107.04 258.202 107.64 257.962 108.2C257.722 108.76 257.382 109.24 256.962 109.64C256.542 110.06 256.062 110.38 255.502 110.62C254.942 110.86 254.342 110.98 253.702 110.98H225.242V107.68H252.142C252.502 107.68 252.802 107.56 253.082 107.32C253.322 107.08 253.442 106.78 253.442 106.4C253.442 106.06 253.302 105.76 253.062 105.5C252.802 105.26 252.502 105.12 252.142 105.12H229.842C229.322 105.12 228.822 105.04 228.342 104.88C227.862 104.72 227.442 104.5 227.062 104.2C226.662 103.92 226.322 103.56 226.042 103.16C225.762 102.76 225.542 102.34 225.422 101.86C225.302 101.46 225.242 101.04 225.242 100.58C225.242 99.94 225.362 99.36 225.602 98.8C225.842 98.24 226.162 97.76 226.582 97.34C227.002 96.94 227.482 96.6 228.042 96.36C228.602 96.12 229.202 96 229.842 96H258.322V99.3H231.402C231.042 99.3 230.742 99.44 230.502 99.68C230.242 99.92 230.122 100.22 230.122 100.58ZM296.038 99.32V96V99.32ZM267.798 99.32V103.16C268.238 102.84 268.718 102.58 269.258 102.34C270.238 101.94 271.258 101.72 272.318 101.72H283.858V105.04H272.318C271.398 105.04 270.558 105.3 269.818 105.78C269.078 106.26 268.538 106.9 268.198 107.68H296.038V111H262.918V96H296.038V99.32H267.798ZM296.038 99.32V96V99.32Z" fill="#4DADAC"/>
<path d="M1530.88 932.58C1530.88 932.94 1531 933.24 1531.24 933.48C1531.36 933.6 1531.5 933.68 1531.66 933.76C1531.8 933.84 1531.96 933.86 1532.16 933.86H1554.46C1554.98 933.86 1555.48 933.96 1555.96 934.12C1556.44 934.28 1556.86 934.52 1557.26 934.8C1557.64 935.08 1557.98 935.42 1558.26 935.82C1558.54 936.22 1558.74 936.66 1558.9 937.12C1559.02 937.52 1559.08 937.96 1559.08 938.4C1559.08 939.04 1558.96 939.64 1558.72 940.2C1558.48 940.76 1558.14 941.24 1557.72 941.64C1557.3 942.06 1556.82 942.38 1556.26 942.62C1555.7 942.86 1555.1 942.98 1554.46 942.98H1526V939.68H1552.9C1553.26 939.68 1553.56 939.56 1553.84 939.32C1554.08 939.08 1554.2 938.78 1554.2 938.4C1554.2 938.06 1554.06 937.76 1553.82 937.5C1553.56 937.26 1553.26 937.12 1552.9 937.12H1530.6C1530.08 937.12 1529.58 937.04 1529.1 936.88C1528.62 936.72 1528.2 936.5 1527.82 936.2C1527.42 935.92 1527.08 935.56 1526.8 935.16C1526.52 934.76 1526.3 934.34 1526.18 933.86C1526.06 933.46 1526 933.04 1526 932.58C1526 931.94 1526.12 931.36 1526.36 930.8C1526.6 930.24 1526.92 929.76 1527.34 929.34C1527.76 928.94 1528.24 928.6 1528.8 928.36C1529.36 928.12 1529.96 928 1530.6 928H1559.08V931.3H1532.16C1531.8 931.3 1531.5 931.44 1531.26 931.68C1531 931.92 1530.88 932.22 1530.88 932.58ZM1596.82 928V930.28C1596.82 931.04 1596.68 931.74 1596.4 932.38C1596.12 933.04 1595.72 933.62 1595.24 934.1C1594.76 934.58 1594.18 934.96 1593.54 935.24C1592.88 935.52 1592.18 935.66 1591.46 935.66H1581.54C1581.9 936.22 1582.18 936.84 1582.38 937.5C1582.58 938.16 1582.68 938.84 1582.68 939.56V943H1577.82V939.06C1577.82 938.6 1577.72 938.16 1577.54 937.74C1577.36 937.34 1577.12 936.98 1576.82 936.66C1576.5 936.36 1576.14 936.12 1575.74 935.94C1575.32 935.76 1574.88 935.66 1574.4 935.66H1569.04C1568.28 935.66 1567.58 935.52 1566.94 935.24C1566.3 934.96 1565.72 934.58 1565.24 934.1C1564.76 933.62 1564.38 933.04 1564.1 932.38C1563.82 931.74 1563.68 931.04 1563.68 930.28V928H1568.56V930.18C1568.56 930.48 1568.6 930.76 1568.72 931.02C1568.84 931.28 1568.98 931.5 1569.18 931.7C1569.38 931.9 1569.6 932.06 1569.86 932.18C1570.12 932.3 1570.4 932.34 1570.72 932.34H1589.78C1590.06 932.34 1590.34 932.3 1590.62 932.18C1590.88 932.06 1591.1 931.9 1591.3 931.7C1591.5 931.5 1591.64 931.28 1591.76 931.02C1591.88 930.76 1591.94 930.48 1591.94 930.18V928H1596.82ZM1606.06 932.58C1606.06 932.94 1606.18 933.24 1606.42 933.48C1606.54 933.6 1606.68 933.68 1606.84 933.76C1606.98 933.84 1607.14 933.86 1607.34 933.86H1629.64C1630.16 933.86 1630.66 933.96 1631.14 934.12C1631.62 934.28 1632.04 934.52 1632.44 934.8C1632.82 935.08 1633.16 935.42 1633.44 935.82C1633.72 936.22 1633.92 936.66 1634.08 937.12C1634.2 937.52 1634.26 937.96 1634.26 938.4C1634.26 939.04 1634.14 939.64 1633.9 940.2C1633.66 940.76 1633.32 941.24 1632.9 941.64C1632.48 942.06 1632 942.38 1631.44 942.62C1630.88 942.86 1630.28 942.98 1629.64 942.98H1601.18V939.68H1628.08C1628.44 939.68 1628.74 939.56 1629.02 939.32C1629.26 939.08 1629.38 938.78 1629.38 938.4C1629.38 938.06 1629.24 937.76 1629 937.5C1628.74 937.26 1628.44 937.12 1628.08 937.12H1605.78C1605.26 937.12 1604.76 937.04 1604.28 936.88C1603.8 936.72 1603.38 936.5 1603 936.2C1602.6 935.92 1602.26 935.56 1601.98 935.16C1601.7 934.76 1601.48 934.34 1601.36 933.86C1601.24 933.46 1601.18 933.04 1601.18 932.58C1601.18 931.94 1601.3 931.36 1601.54 930.8C1601.78 930.24 1602.1 929.76 1602.52 929.34C1602.94 928.94 1603.42 928.6 1603.98 928.36C1604.54 928.12 1605.14 928 1605.78 928H1634.26V931.3H1607.34C1606.98 931.3 1606.68 931.44 1606.44 931.68C1606.18 931.92 1606.06 932.22 1606.06 932.58ZM1668.95 931.32H1655.73C1656.37 932.12 1656.89 933.02 1657.25 933.98C1657.61 934.96 1657.81 936 1657.81 937.08V943H1652.93V936.82C1652.93 936.06 1652.77 935.36 1652.49 934.68C1652.21 934.02 1651.81 933.44 1651.33 932.94C1650.83 932.44 1650.25 932.04 1649.59 931.76C1648.91 931.48 1648.21 931.32 1647.45 931.32H1638.85V928.02H1668.95V931.32ZM1706.46 931.32V928V931.32ZM1678.22 931.32V935.16C1678.66 934.84 1679.14 934.58 1679.68 934.34C1680.66 933.94 1681.68 933.72 1682.74 933.72H1694.28V937.04H1682.74C1681.82 937.04 1680.98 937.3 1680.24 937.78C1679.5 938.26 1678.96 938.9 1678.62 939.68H1706.46V943H1673.34V928H1706.46V931.32H1678.22ZM1706.46 931.32V928V931.32ZM1766.99 928C1767.79 928 1768.55 928.16 1769.27 928.46C1769.99 928.78 1770.61 929.2 1771.15 929.72C1771.67 930.26 1772.09 930.88 1772.41 931.6C1772.71 932.32 1772.87 933.08 1772.87 933.88V943H1767.99V933.8C1767.99 933.46 1767.91 933.14 1767.79 932.84C1767.67 932.54 1767.49 932.28 1767.27 932.04C1767.03 931.82 1766.77 931.64 1766.47 931.5C1766.17 931.38 1765.85 931.3 1765.51 931.3H1753.17C1751.97 931.3 1750.87 931.54 1749.83 931.98C1748.79 932.42 1747.89 933.04 1747.11 933.82C1746.33 934.6 1745.71 935.5 1745.27 936.54C1744.83 937.58 1744.61 938.7 1744.61 939.86V943H1744.59H1739.75H1739.73V939.86C1739.73 938.7 1739.49 937.58 1739.05 936.54C1738.61 935.5 1737.99 934.6 1737.21 933.82C1736.43 933.04 1735.53 932.42 1734.49 931.98C1733.45 931.54 1732.33 931.3 1731.17 931.3H1718.83C1718.47 931.3 1718.15 931.38 1717.85 931.5C1717.55 931.64 1717.29 931.82 1717.07 932.04C1716.83 932.28 1716.65 932.54 1716.53 932.84C1716.41 933.14 1716.35 933.46 1716.35 933.8V943H1711.47V933.88C1711.47 933.08 1711.61 932.32 1711.93 931.6C1712.23 930.88 1712.65 930.26 1713.19 929.72C1713.71 929.2 1714.33 928.78 1715.05 928.46C1715.77 928.16 1716.53 928 1717.35 928H1732.39C1733.39 928 1734.35 928.12 1735.29 928.36C1736.21 928.6 1737.09 928.92 1737.93 929.34C1738.77 929.76 1739.53 930.28 1740.25 930.88C1740.97 931.48 1741.61 932.16 1742.17 932.88C1742.73 932.16 1743.35 931.48 1744.07 930.88C1744.79 930.28 1745.55 929.76 1746.39 929.34C1747.23 928.92 1748.11 928.6 1749.05 928.36C1749.97 928.12 1750.95 928 1751.95 928H1766.99ZM1811 931.32V928V931.32ZM1782.76 931.32V935.16C1783.2 934.84 1783.68 934.58 1784.22 934.34C1785.2 933.94 1786.22 933.72 1787.28 933.72H1798.82V937.04H1787.28C1786.36 937.04 1785.52 937.3 1784.78 937.78C1784.04 938.26 1783.5 938.9 1783.15 939.68H1811V943H1777.88V928H1811V931.32H1782.76ZM1811 931.32V928V931.32ZM1501.23 971.3C1501.41 971.7 1501.55 972.1 1501.67 972.54C1501.77 972.98 1501.83 973.42 1501.83 973.88V977.12C1501.83 977.6 1501.77 978.04 1501.67 978.46C1501.57 978.88 1501.43 979.28 1501.25 979.66C1500.85 980.52 1500.27 981.24 1499.51 981.82C1498.75 982.4 1497.91 982.76 1496.95 982.92C1496.87 982.96 1496.77 982.98 1496.69 982.98C1496.61 982.98 1496.51 983 1496.43 983H1468.83V968C1474.01 968 1478.65 968.02 1482.77 968.02C1483.93 968.02 1485.07 968.04 1486.23 968.04C1487.37 968.04 1488.47 968.04 1489.51 968.04C1490.55 968.04 1491.51 968.06 1492.41 968.06C1493.29 968.06 1494.07 968.06 1494.75 968.06C1495.41 968.06 1495.93 968.08 1496.33 968.08C1496.71 968.08 1496.91 968.08 1496.95 968.08C1497.89 968.24 1498.73 968.62 1499.49 969.18C1500.23 969.76 1500.81 970.46 1501.23 971.3ZM1496.95 973.8C1496.95 973.46 1496.87 973.14 1496.75 972.84C1496.63 972.54 1496.45 972.28 1496.23 972.04C1495.99 971.82 1495.73 971.64 1495.43 971.52C1495.13 971.4 1494.81 971.32 1494.47 971.32H1477.31V971.3H1473.71V979.68H1477.31V979.66H1494.77C1495.07 979.64 1495.35 979.56 1495.63 979.42C1495.89 979.28 1496.11 979.1 1496.31 978.88C1496.51 978.66 1496.65 978.4 1496.77 978.12C1496.89 977.84 1496.95 977.52 1496.95 977.2V973.8ZM1538.94 971.32V968V971.32ZM1510.7 971.32V975.16C1511.14 974.84 1511.62 974.58 1512.16 974.34C1513.14 973.94 1514.16 973.72 1515.22 973.72H1526.76V977.04H1515.22C1514.3 977.04 1513.46 977.3 1512.72 977.78C1511.98 978.26 1511.44 978.9 1511.1 979.68H1538.94V983H1505.82V968H1538.94V971.32H1510.7ZM1538.94 971.32V968V971.32ZM1584.36 971.3C1584.54 971.7 1584.68 972.1 1584.8 972.54C1584.9 972.98 1584.96 973.42 1584.96 973.88V977.12C1584.96 977.6 1584.9 978.04 1584.8 978.46C1584.7 978.88 1584.56 979.28 1584.38 979.66C1583.98 980.52 1583.4 981.24 1582.64 981.82C1581.88 982.4 1581.04 982.76 1580.08 982.92C1580 982.96 1579.9 982.98 1579.82 982.98C1579.74 982.98 1579.64 983 1579.56 983H1551.96V968C1557.14 968 1561.78 968.02 1565.9 968.02C1567.06 968.02 1568.2 968.04 1569.36 968.04C1570.5 968.04 1571.6 968.04 1572.64 968.04C1573.68 968.04 1574.64 968.06 1575.54 968.06C1576.42 968.06 1577.2 968.06 1577.88 968.06C1578.54 968.06 1579.06 968.08 1579.46 968.08C1579.84 968.08 1580.04 968.08 1580.08 968.08C1581.02 968.24 1581.86 968.62 1582.62 969.18C1583.36 969.76 1583.94 970.46 1584.36 971.3ZM1580.08 973.8C1580.08 973.46 1580 973.14 1579.88 972.84C1579.76 972.54 1579.58 972.28 1579.36 972.04C1579.12 971.82 1578.86 971.64 1578.56 971.52C1578.26 971.4 1577.94 971.32 1577.6 971.32H1560.44V971.3H1556.84V979.68H1560.44V979.66H1577.9C1578.2 979.64 1578.48 979.56 1578.76 979.42C1579.02 979.28 1579.24 979.1 1579.44 978.88C1579.64 978.66 1579.78 978.4 1579.9 978.12C1580.02 977.84 1580.08 977.52 1580.08 977.2V973.8ZM1622.07 971.32V968V971.32ZM1593.83 971.32V975.16C1594.27 974.84 1594.75 974.58 1595.29 974.34C1596.27 973.94 1597.29 973.72 1598.35 973.72H1609.89V977.04H1598.35C1597.43 977.04 1596.59 977.3 1595.85 977.78C1595.11 978.26 1594.57 978.9 1594.23 979.68H1622.07V983H1588.95V968H1622.07V971.32H1593.83ZM1622.07 971.32V968V971.32ZM1633.41 974.34C1634.39 973.94 1635.41 973.72 1636.47 973.72H1648.01V977.04H1636.47C1635.83 977.04 1635.25 977.16 1634.71 977.4C1634.15 977.64 1633.67 977.96 1633.27 978.36C1632.85 978.78 1632.53 979.26 1632.29 979.8C1632.05 980.36 1631.95 980.94 1631.95 981.56V983H1627.07V968H1660.19V971.32H1631.95V975.16C1632.39 974.84 1632.87 974.58 1633.41 974.34ZM1697.71 971.32V968V971.32ZM1669.47 971.32V975.16C1669.91 974.84 1670.39 974.58 1670.93 974.34C1671.91 973.94 1672.93 973.72 1673.99 973.72H1685.53V977.04H1673.99C1673.07 977.04 1672.23 977.3 1671.49 977.78C1670.75 978.26 1670.21 978.9 1669.87 979.68H1697.71V983H1664.59V968H1697.71V971.32H1669.47ZM1697.71 971.32V968V971.32ZM1723.81 983C1722.83 983 1721.91 982.84 1721.05 982.48C1720.19 982.14 1719.43 981.66 1718.75 981.04C1718.71 981 1718.67 980.96 1718.63 980.92C1718.59 980.88 1718.57 980.84 1718.53 980.8C1717.85 980.12 1717.31 979.34 1716.91 978.42C1716.51 977.52 1716.33 976.54 1716.33 975.5C1716.33 974.94 1716.21 974.4 1715.99 973.88C1715.77 973.36 1715.47 972.92 1715.09 972.54C1714.71 972.18 1714.27 971.88 1713.75 971.66C1713.23 971.44 1712.69 971.32 1712.13 971.32H1706.95V983H1702.09V968H1713.69C1714.67 968 1715.59 968.18 1716.45 968.52C1717.29 968.88 1718.07 969.36 1718.75 969.98C1719.51 970.66 1720.09 971.48 1720.53 972.44C1720.97 973.4 1721.19 974.42 1721.19 975.5C1721.19 976.1 1721.29 976.64 1721.51 977.14C1721.73 977.66 1722.03 978.1 1722.41 978.48C1722.77 978.86 1723.21 979.16 1723.73 979.38C1724.23 979.6 1724.77 979.7 1725.37 979.7H1730.33V968H1735.19V983H1723.81ZM1745.08 972.58C1745.08 972.94 1745.2 973.24 1745.44 973.48C1745.56 973.6 1745.7 973.68 1745.86 973.76C1746 973.84 1746.16 973.86 1746.36 973.86H1768.66C1769.18 973.86 1769.68 973.96 1770.16 974.12C1770.64 974.28 1771.06 974.52 1771.46 974.8C1771.84 975.08 1772.18 975.42 1772.46 975.82C1772.74 976.22 1772.94 976.66 1773.1 977.12C1773.22 977.52 1773.28 977.96 1773.28 978.4C1773.28 979.04 1773.16 979.64 1772.92 980.2C1772.68 980.76 1772.34 981.24 1771.92 981.64C1771.5 982.06 1771.02 982.38 1770.46 982.62C1769.9 982.86 1769.3 982.98 1768.66 982.98H1740.2V979.68H1767.1C1767.46 979.68 1767.76 979.56 1768.04 979.32C1768.28 979.08 1768.4 978.78 1768.4 978.4C1768.4 978.06 1768.26 977.76 1768.02 977.5C1767.76 977.26 1767.46 977.12 1767.1 977.12H1744.8C1744.28 977.12 1743.78 977.04 1743.3 976.88C1742.82 976.72 1742.4 976.5 1742.02 976.2C1741.62 975.92 1741.28 975.56 1741 975.16C1740.72 974.76 1740.5 974.34 1740.38 973.86C1740.26 973.46 1740.2 973.04 1740.2 972.58C1740.2 971.94 1740.32 971.36 1740.56 970.8C1740.8 970.24 1741.12 969.76 1741.54 969.34C1741.96 968.94 1742.44 968.6 1743 968.36C1743.56 968.12 1744.16 968 1744.8 968H1773.28V971.3H1746.36C1746 971.3 1745.7 971.44 1745.46 971.68C1745.2 971.92 1745.08 972.22 1745.08 972.58ZM1811 971.32V968V971.32ZM1782.76 971.32V975.16C1783.2 974.84 1783.68 974.58 1784.22 974.34C1785.2 973.94 1786.22 973.72 1787.28 973.72H1798.82V977.04H1787.28C1786.36 977.04 1785.52 977.3 1784.78 977.78C1784.04 978.26 1783.5 978.9 1783.15 979.68H1811V983H1777.88V968H1811V971.32H1782.76ZM1811 971.32V968V971.32Z" fill="#4DADAC"/>
<g filter="url(#filter0_d_105_6)">
<path d="M1514.53 903.25H1512.59L1511.16 904.559L1415.49 992H42V145H340.814H342.548L343.91 143.926L473.184 42H1810.84V903.25H1725.25H1514.53Z" stroke="#4DADAC" stroke-width="10" shape-rendering="crispEdges"/>
</g>
<defs>
<filter id="filter0_d_105_6" x="0.799999" y="0.799999" width="1851.24" height="1032.4" filterUnits="userSpaceOnUse" color-interpolation-filters="sRGB">
<feFlood flood-opacity="0" result="BackgroundImageFix"/>
<feColorMatrix in="SourceAlpha" type="matrix" values="0 0 0 0 0 0 0 0 0 0 0 0 0 0 0 0 0 0 127 0" result="hardAlpha"/>
<feOffset/>
<feGaussianBlur stdDeviation="18.1"/>
<feComposite in2="hardAlpha" operator="out"/>
<feColorMatrix type="matrix" values="0 0 0 0 0.301961 0 0 0 0 0.678431 0 0 0 0 0.67451 0 0 0 1 0"/>
<feBlend mode="normal" in2="BackgroundImageFix" result="effect1_dropShadow_105_6"/>
<feBlend mode="normal" in="SourceGraphic" in2="effect1_dropShadow_105_6" result="shape"/>
</filter>
</defs>
</svg>
