<svg width="196" height="168" viewBox="0 0 196 168" fill="none" xmlns="http://www.w3.org/2000/svg">
<path d="M18.174 160.069L167.952 148.749L187.694 38.4537C187.694 38.4537 191.113 27.926 177.435 29.7624C68.7228 46.1002 45.0236 49.7888 45.0236 49.7888C45.0236 49.7888 33.7044 49.5197 31.3297 64.5276C28.955 79.5355 14.2162 157.979 14.2162 157.979C14.2162 157.979 13.4247 159.815 18.1582 160.084L18.174 160.069Z" stroke="#F28F5A" stroke-width="10" stroke-miterlimit="10"/>
<path d="M166.116 9.7676L81.8786 22.9233L71.62 8.45361L20.2796 15.0394L7.91553 28.4642V146.39C7.91553 146.39 10.2902 155.873 14.2321 157.979" stroke="#F28F5A" stroke-width="10" stroke-miterlimit="10"/>
<path d="M84.6965 29.8257L167.145 17.0342" stroke="#F28F5A" stroke-width="10" stroke-miterlimit="10"/>
<path d="M85.9155 37.5355L170.105 23.9683" stroke="#F28F5A" stroke-width="10" stroke-miterlimit="10"/>
<path d="M18.7123 160.069L168.491 148.749L188.232 38.4537C188.232 38.4537 191.652 27.926 177.974 29.7624C69.2453 46.1002 45.5619 49.7888 45.5619 49.7888C45.5619 49.7888 34.2427 49.5197 31.868 64.5276C29.4933 79.5355 14.7546 157.979 14.7546 157.979C14.7546 157.979 13.963 159.815 18.6965 160.084L18.7123 160.069Z" stroke="#AA301F" stroke-width="4" stroke-miterlimit="10"/>
<path d="M164.834 9.75177L82.4011 22.9233L72.1425 8.45361L20.818 15.0394L8.45386 28.4642V146.39C8.45386 146.39 10.8285 155.873 14.7705 157.979" stroke="#AA301F" stroke-width="4" stroke-miterlimit="10"/>
<path d="M87.3562 33.3876L168.063 21.1343" stroke="#AA301F" stroke-width="4" stroke-miterlimit="10"/>
</svg>
