<svg width="1780" height="1360" viewBox="0 0 1780 1360" fill="none" xmlns="http://www.w3.org/2000/svg">
<g clip-path="url(#clip0_376_31)">
<g filter="url(#filter0_f_376_31)">
<path d="M1015.5 275L948 211H388.5L211 413V1099L260.5 1148.5H1468.5L1568.5 1056.5V344L1532.5 313.143M1015.5 275H1488L1532.5 313.143M1015.5 275H401.5L237.5 455.5V1076L299.5 1133.5H477L515.5 1119.5H904.5H1293.5L1339 1133.5H1429L1532.5 1046.5V313.143" stroke="#AD4D4D" stroke-width="22"/>
</g>
<g filter="url(#filter1_f_376_31)">
<path d="M409 276L244 457V1076.5L303 1133H485.5L521.5 1099H1301L1344 1133H1435.5L1536.5 1048V312.5L1488.5 276H409Z" fill="#010003"/>
<path d="M409 274H408.117L407.522 274.653L242.522 455.653L242 456.225V457V1076.5V1077.35L242.617 1077.94L301.617 1134.44L302.197 1135H303H485.5H486.295L486.873 1134.45L522.295 1101H1300.3L1342.76 1134.57L1343.3 1135H1344H1435.5H1436.23L1436.79 1134.53L1537.79 1049.53L1538.5 1048.93V1048V312.5V311.508L1537.71 310.908L1489.71 274.408L1489.17 274H1488.5H409Z" stroke="#FF0000" stroke-width="4"/>
<path d="M409 274H408.117L407.522 274.653L242.522 455.653L242 456.225V457V1076.5V1077.35L242.617 1077.94L301.617 1134.44L302.197 1135H303H485.5H486.295L486.873 1134.45L522.295 1101H1300.3L1342.76 1134.57L1343.3 1135H1344H1435.5H1436.23L1436.79 1134.53L1537.79 1049.53L1538.5 1048.93V1048V312.5V311.508L1537.71 310.908L1489.71 274.408L1489.17 274H1488.5H409Z" stroke="#FF0000" stroke-width="4"/>
</g>
<path d="M409 274H408.117L407.522 274.653L242.522 455.653L242 456.225V457V1076.5V1077.35L242.617 1077.94L301.617 1134.44L302.197 1135H303H485.5H486.295L486.873 1134.45L522.295 1101H1300.3L1342.76 1134.57L1343.3 1135H1344H1435.5H1436.23L1436.79 1134.53L1537.79 1049.53L1538.5 1048.93V1048V312.5V311.508L1537.71 310.908L1489.71 274.408L1489.17 274H1488.5H409Z" fill="#010003"/>
<path d="M409 274H408.117L407.522 274.653L242.522 455.653L242 456.225V457V1076.5V1077.35L242.617 1077.94L301.617 1134.44L302.197 1135H303H485.5H486.295L486.873 1134.45L522.295 1101H1300.3L1342.76 1134.57L1343.3 1135H1344H1435.5H1436.23L1436.79 1134.53L1537.79 1049.53L1538.5 1048.93V1048V312.5V311.508L1537.71 310.908L1489.71 274.408L1489.17 274H1488.5H409Z" stroke="#FF0000" stroke-width="4"/>
<path d="M409 274H408.117L407.522 274.653L242.522 455.653L242 456.225V457V1076.5V1077.35L242.617 1077.94L301.617 1134.44L302.197 1135H303H485.5H486.295L486.873 1134.45L522.295 1101H1300.3L1342.76 1134.57L1343.3 1135H1344H1435.5H1436.23L1436.79 1134.53L1537.79 1049.53L1538.5 1048.93V1048V312.5V311.508L1537.71 310.908L1489.71 274.408L1489.17 274H1488.5H409Z" stroke="#FF0000" stroke-width="4"/>
<g filter="url(#filter2_f_376_31)">
<path d="M525.648 698H502.128V671.888C501.168 672.56 500.112 673.136 499.152 673.712C498.192 674.288 497.136 674.768 496.08 675.152C491.472 677.072 486.768 678.032 481.968 678.032H410.256C407.376 678.032 404.784 678.608 402.288 679.664C399.792 680.72 397.68 682.16 395.856 683.984C394.032 685.808 392.592 687.92 391.536 690.416C390.48 692.912 390 695.504 390 698.192L366 698V654.032C366 650.192 366.672 646.448 368.208 642.992C369.648 639.536 371.664 636.56 374.256 633.968C376.752 631.472 379.824 629.456 383.28 627.92C386.736 626.48 390.384 625.712 394.32 625.712H525.648V698ZM481.968 662C484.656 662 487.248 661.52 489.744 660.464C492.24 659.408 494.352 657.968 496.176 656.144C498 654.32 499.44 652.208 500.496 649.712C501.552 647.312 502.128 644.72 502.128 641.84V641.744V641.648H401.52C399.792 641.648 398.256 642.032 396.816 642.608C395.28 643.28 394.032 644.144 392.976 645.2C391.824 646.352 390.96 647.6 390.384 649.04C389.808 650.48 389.52 652.016 389.52 653.648V668.624C390.48 667.856 391.536 667.184 392.688 666.608C393.84 666.032 394.992 665.456 396.144 664.88C400.56 662.96 405.264 662 410.256 662H481.968ZM549 698V626H572.424V682.064H670.152C672.264 682.064 674.184 681.68 676.104 680.912C678.024 680.144 679.656 678.992 681.096 677.552C682.44 676.208 683.592 674.576 684.36 672.656C685.128 670.832 685.608 668.816 685.608 666.704H707.976V668.912C707.976 672.944 707.208 676.784 705.672 680.24C704.136 683.792 702.024 686.864 699.432 689.552C696.744 692.24 693.672 694.256 690.12 695.792C686.568 697.328 682.824 698 678.792 698H549ZM891.257 641.936V626V641.936ZM755.705 641.936V660.368C757.817 658.832 760.121 657.584 762.713 656.432C767.417 654.512 772.313 653.456 777.401 653.456H832.793V669.392H777.401C772.985 669.392 768.953 670.64 765.401 672.944C761.849 675.248 759.257 678.32 757.625 682.064H891.257V698H732.281V626H891.257V641.936H755.705ZM891.257 641.936V626V641.936ZM1033.65 680.912V680.816L1033.75 680.912H1033.65ZM1009.36 670.448C1010.99 673.904 1013.39 676.784 1016.66 678.896C1019.92 681.008 1023.57 682.064 1027.6 682.064H1075.03V698H1020.11C1015.31 698 1010.9 697.232 1006.77 695.504C1002.55 693.872 998.897 691.568 995.633 688.496C995.441 688.304 995.249 688.112 995.057 687.92C994.865 687.728 994.769 687.536 994.577 687.344C992.273 685.04 990.257 682.544 988.625 679.664C986.897 676.784 985.745 673.712 984.977 670.448H958.673C955.985 670.64 953.393 671.216 951.089 672.272C948.689 673.328 946.577 674.768 944.753 676.592C943.025 678.32 941.585 680.24 940.625 682.352C939.665 684.464 938.993 686.768 938.801 689.072V689.168V698H938.705H915.281V626H1052.85C1055.92 626 1058.8 626.672 1061.49 627.824C1064.18 628.976 1066.48 630.608 1068.5 632.624C1070.51 634.64 1072.15 636.944 1073.3 639.632C1074.45 642.32 1075.12 645.2 1075.12 648.272C1075.12 651.344 1074.45 654.224 1073.3 656.912C1072.15 659.6 1070.51 662 1068.5 664.016C1066.48 666.032 1064.18 667.568 1061.49 668.72C1058.8 669.872 1055.92 670.448 1052.85 670.448H1009.36ZM1045.36 654.512C1047.09 654.512 1048.53 653.936 1049.78 652.688C1050.26 652.112 1050.64 651.536 1051.03 650.768C1051.41 650 1051.6 649.232 1051.6 648.272C1051.6 646.544 1050.93 645.104 1049.78 643.856C1048.53 642.608 1047.09 641.936 1045.36 641.936H938.801V660.752C939.761 660.08 940.721 659.504 941.777 658.928C942.737 658.448 943.793 657.968 944.945 657.392C948.497 655.952 952.049 654.992 955.601 654.608H957.329C957.713 654.608 958.193 654.608 958.577 654.608C958.961 654.608 959.153 654.512 959.345 654.512H1045.36ZM1237.7 641.936H1174.24C1177.31 645.776 1179.81 650.096 1181.54 654.704C1183.27 659.408 1184.23 664.4 1184.23 669.584V698H1160.8V668.336C1160.8 664.688 1160.03 661.328 1158.69 658.064C1157.35 654.896 1155.43 652.112 1153.12 649.712C1150.72 647.312 1147.94 645.392 1144.77 644.048C1141.51 642.704 1138.15 641.936 1134.5 641.936H1093.22V626.096H1237.7V641.936ZM1417.76 641.936V626V641.936ZM1282.21 641.936V660.368C1284.32 658.832 1286.62 657.584 1289.21 656.432C1293.92 654.512 1298.81 653.456 1303.9 653.456H1359.29V669.392H1303.9C1299.49 669.392 1295.45 670.64 1291.9 672.944C1288.35 675.248 1285.76 678.32 1284.13 682.064H1417.76V698H1258.78V626H1417.76V641.936H1282.21ZM1417.76 641.936V626V641.936Z" fill="#FF0000"/>
<path fill-rule="evenodd" clip-rule="evenodd" d="M1440 733.5H1441.04L1441.77 732.768L1471.32 703.216C1472.44 703.72 1473.69 704 1475 704C1479.97 704 1484 699.971 1484 695C1484 690.029 1479.97 686 1475 686C1470.03 686 1466 690.029 1466 695C1466 696.837 1466.55 698.545 1467.5 699.969L1438.96 728.5H345V733.5H1440Z" fill="#FF0000"/>
</g>
<path d="M525.648 698H502.128V671.888C501.168 672.56 500.112 673.136 499.152 673.712C498.192 674.288 497.136 674.768 496.08 675.152C491.472 677.072 486.768 678.032 481.968 678.032H410.256C407.376 678.032 404.784 678.608 402.288 679.664C399.792 680.72 397.68 682.16 395.856 683.984C394.032 685.808 392.592 687.92 391.536 690.416C390.48 692.912 390 695.504 390 698.192L366 698V654.032C366 650.192 366.672 646.448 368.208 642.992C369.648 639.536 371.664 636.56 374.256 633.968C376.752 631.472 379.824 629.456 383.28 627.92C386.736 626.48 390.384 625.712 394.32 625.712H525.648V698ZM481.968 662C484.656 662 487.248 661.52 489.744 660.464C492.24 659.408 494.352 657.968 496.176 656.144C498 654.32 499.44 652.208 500.496 649.712C501.552 647.312 502.128 644.72 502.128 641.84V641.744V641.648H401.52C399.792 641.648 398.256 642.032 396.816 642.608C395.28 643.28 394.032 644.144 392.976 645.2C391.824 646.352 390.96 647.6 390.384 649.04C389.808 650.48 389.52 652.016 389.52 653.648V668.624C390.48 667.856 391.536 667.184 392.688 666.608C393.84 666.032 394.992 665.456 396.144 664.88C400.56 662.96 405.264 662 410.256 662H481.968ZM549 698V626H572.424V682.064H670.152C672.264 682.064 674.184 681.68 676.104 680.912C678.024 680.144 679.656 678.992 681.096 677.552C682.44 676.208 683.592 674.576 684.36 672.656C685.128 670.832 685.608 668.816 685.608 666.704H707.976V668.912C707.976 672.944 707.208 676.784 705.672 680.24C704.136 683.792 702.024 686.864 699.432 689.552C696.744 692.24 693.672 694.256 690.12 695.792C686.568 697.328 682.824 698 678.792 698H549ZM891.257 641.936V626V641.936ZM755.705 641.936V660.368C757.817 658.832 760.121 657.584 762.713 656.432C767.417 654.512 772.313 653.456 777.401 653.456H832.793V669.392H777.401C772.985 669.392 768.953 670.64 765.401 672.944C761.849 675.248 759.257 678.32 757.625 682.064H891.257V698H732.281V626H891.257V641.936H755.705ZM891.257 641.936V626V641.936ZM1033.65 680.912V680.816L1033.75 680.912H1033.65ZM1009.36 670.448C1010.99 673.904 1013.39 676.784 1016.66 678.896C1019.92 681.008 1023.57 682.064 1027.6 682.064H1075.03V698H1020.11C1015.31 698 1010.9 697.232 1006.77 695.504C1002.55 693.872 998.897 691.568 995.633 688.496C995.441 688.304 995.249 688.112 995.057 687.92C994.865 687.728 994.769 687.536 994.577 687.344C992.273 685.04 990.257 682.544 988.625 679.664C986.897 676.784 985.745 673.712 984.977 670.448H958.673C955.985 670.64 953.393 671.216 951.089 672.272C948.689 673.328 946.577 674.768 944.753 676.592C943.025 678.32 941.585 680.24 940.625 682.352C939.665 684.464 938.993 686.768 938.801 689.072V689.168V698H938.705H915.281V626H1052.85C1055.92 626 1058.8 626.672 1061.49 627.824C1064.18 628.976 1066.48 630.608 1068.5 632.624C1070.51 634.64 1072.15 636.944 1073.3 639.632C1074.45 642.32 1075.12 645.2 1075.12 648.272C1075.12 651.344 1074.45 654.224 1073.3 656.912C1072.15 659.6 1070.51 662 1068.5 664.016C1066.48 666.032 1064.18 667.568 1061.49 668.72C1058.8 669.872 1055.92 670.448 1052.85 670.448H1009.36ZM1045.36 654.512C1047.09 654.512 1048.53 653.936 1049.78 652.688C1050.26 652.112 1050.64 651.536 1051.03 650.768C1051.41 650 1051.6 649.232 1051.6 648.272C1051.6 646.544 1050.93 645.104 1049.78 643.856C1048.53 642.608 1047.09 641.936 1045.36 641.936H938.801V660.752C939.761 660.08 940.721 659.504 941.777 658.928C942.737 658.448 943.793 657.968 944.945 657.392C948.497 655.952 952.049 654.992 955.601 654.608H957.329C957.713 654.608 958.193 654.608 958.577 654.608C958.961 654.608 959.153 654.512 959.345 654.512H1045.36ZM1237.7 641.936H1174.24C1177.31 645.776 1179.81 650.096 1181.54 654.704C1183.27 659.408 1184.23 664.4 1184.23 669.584V698H1160.8V668.336C1160.8 664.688 1160.03 661.328 1158.69 658.064C1157.35 654.896 1155.43 652.112 1153.12 649.712C1150.72 647.312 1147.94 645.392 1144.77 644.048C1141.51 642.704 1138.15 641.936 1134.5 641.936H1093.22V626.096H1237.7V641.936ZM1417.76 641.936V626V641.936ZM1282.21 641.936V660.368C1284.32 658.832 1286.62 657.584 1289.21 656.432C1293.92 654.512 1298.81 653.456 1303.9 653.456H1359.29V669.392H1303.9C1299.49 669.392 1295.45 670.64 1291.9 672.944C1288.35 675.248 1285.76 678.32 1284.13 682.064H1417.76V698H1258.78V626H1417.76V641.936H1282.21ZM1417.76 641.936V626V641.936Z" fill="#FF0000"/>
<path fill-rule="evenodd" clip-rule="evenodd" d="M1440 733.5H1441.04L1441.77 732.768L1471.32 703.216C1472.44 703.72 1473.69 704 1475 704C1479.97 704 1484 699.971 1484 695C1484 690.029 1479.97 686 1475 686C1470.03 686 1466 690.029 1466 695C1466 696.837 1466.55 698.545 1467.5 699.969L1438.96 728.5H345V733.5H1440Z" fill="#FF0000"/>
<g filter="url(#filter3_f_376_31)">
<path d="M403.14 964.32H384.187L376.672 981.778L388.109 1036.09H399.872L410.328 981.778L403.14 964.32Z" stroke="#E1070A" stroke-width="8"/>
<path d="M301.592 1099.78L288 1073.91L378.613 921H410.005L499 1070.68L483.466 1099.78H301.592Z" stroke="#E1070A" stroke-width="8"/>
<path d="M400.099 1052.25H386.45L379.908 1064.05L386.45 1076.18H400.099L407.092 1064.05L400.099 1052.25Z" stroke="#E1070A" stroke-width="8"/>
</g>
<g filter="url(#filter4_f_376_31)">
<path d="M1423.14 345.32H1404.19L1396.67 362.778L1408.11 417.09H1419.87L1430.33 362.778L1423.14 345.32Z" stroke="#E1070A" stroke-width="8"/>
<path d="M1321.59 480.777L1308 454.914L1398.61 302H1430L1519 451.681L1503.47 480.777H1321.59Z" stroke="#E1070A" stroke-width="8"/>
<path d="M1420.1 433.254H1406.45L1399.91 445.047L1406.45 457.177H1420.1L1427.09 445.047L1420.1 433.254Z" stroke="#E1070A" stroke-width="8"/>
</g>
<path d="M403.14 964.32H384.187L376.672 981.778L388.109 1036.09H399.872L410.328 981.778L403.14 964.32Z" stroke="#E1070A" stroke-width="8"/>
<path d="M301.592 1099.78L288 1073.91L378.613 921H410.005L499 1070.68L483.466 1099.78H301.592Z" stroke="#E1070A" stroke-width="8"/>
<path d="M400.099 1052.25H386.45L379.908 1064.05L386.45 1076.18H400.099L407.092 1064.05L400.099 1052.25Z" stroke="#E1070A" stroke-width="8"/>
<path d="M1423.14 345.32H1404.19L1396.67 362.778L1408.11 417.09H1419.87L1430.33 362.778L1423.14 345.32Z" stroke="#E1070A" stroke-width="8"/>
<path d="M1321.59 480.777L1308 454.914L1398.61 302H1430L1519 451.681L1503.47 480.777H1321.59Z" stroke="#E1070A" stroke-width="8"/>
<path d="M1420.1 433.254H1406.45L1399.91 445.047L1406.45 457.177H1420.1L1427.09 445.047L1420.1 433.254Z" stroke="#E1070A" stroke-width="8"/>
<g filter="url(#filter5_f_376_31)">
<path d="M622.752 766.96C622.432 766.96 613.6 766.96 613.6 766.96V782.704C615.968 782.704 621.536 782.704 622.752 782.704C628.32 782.704 631.392 779.44 631.392 774.512C631.392 770.672 628.256 766.96 622.752 766.96ZM607.2 761.2C610.656 761.2 614.176 761.2 617.696 761.2C619.36 761.2 621.088 761.2 622.752 761.2C634.528 761.2 637.856 768.56 637.856 774.512C637.856 779.824 635.616 785.712 628.448 787.696L639.456 806H632.224L621.664 788.4C619.552 788.4 615.52 788.4 613.6 788.4V806H607.2V761.2ZM656.368 779.568C651.632 779.568 647.984 782.192 646.704 786.416H665.84C664.624 782.192 661.168 779.568 656.368 779.568ZM646.32 791.664C647.024 796.784 650.928 800.752 656.368 800.752C659.76 800.752 662.512 799.28 664.24 796.912L668.592 801.264C665.52 804.592 661.168 806.64 656.368 806.64C647.216 806.64 639.92 799.152 639.92 790C639.92 780.848 647.216 773.36 656.368 773.36C665.52 773.36 672.624 780.848 672.624 790C672.624 790.64 672.624 791.024 672.56 791.664C668.72 791.6 665.328 791.6 661.488 791.6C656.432 791.6 651.376 791.6 646.32 791.664ZM693.123 800.944C699.203 800.944 703.619 796.08 703.619 790.064C703.619 783.984 699.203 779.184 693.123 779.184C687.107 779.184 682.883 783.984 682.883 790.064C682.883 796.08 687.107 800.944 693.123 800.944ZM693.123 806.704C683.139 806.704 676.483 799.856 676.483 790.064C676.483 780.912 681.539 773.424 692.291 773.36C692.355 773.36 692.355 773.36 692.419 773.36C699.907 773.36 703.363 778.16 703.363 778.16V758H709.763V790.064C709.763 801.84 701.251 806.704 693.123 806.704ZM738.417 759.6L732.913 769.52H729.073L732.785 759.6H738.417ZM730.993 779.568C726.257 779.568 722.609 782.192 721.329 786.416H740.465C739.249 782.192 735.793 779.568 730.993 779.568ZM720.945 791.664C721.649 796.784 725.553 800.752 730.993 800.752C734.385 800.752 737.137 799.28 738.865 796.912L743.217 801.264C740.145 804.592 735.793 806.64 730.993 806.64C721.841 806.64 714.545 799.152 714.545 790C714.545 780.848 721.841 773.36 730.993 773.36C740.145 773.36 747.249 780.848 747.249 790C747.249 790.64 747.249 791.024 747.185 791.664C743.345 791.6 739.953 791.6 736.113 791.6C731.057 791.6 726.001 791.6 720.945 791.664ZM775.876 778.608C775.876 778.608 779.78 773.68 785.284 773.36C785.54 773.36 785.796 773.36 786.052 773.36C794.052 773.36 798.212 780.272 798.212 787.248C798.212 787.248 798.212 789.36 798.212 792.112C798.212 797.68 798.212 806.064 798.212 806.064H791.812C791.812 806.064 791.812 799.024 791.812 794.288C791.812 791.92 791.812 790.192 791.812 790.192C791.812 789.744 791.812 789.232 791.812 788.784C791.812 784.752 791.556 779.696 786.756 778.544C786.244 778.416 785.668 778.352 785.156 778.352C781.444 778.352 778.308 781.552 778.308 787.248C778.244 787.248 778.244 806.064 778.244 806.064H771.844C771.844 806.064 771.844 797.616 771.844 792.048C771.844 789.232 771.844 787.12 771.844 787.12C771.844 781.936 769.156 778.352 765.124 778.352C765.06 778.352 765.06 778.352 764.996 778.352C759.812 778.48 758.276 782.192 758.276 790.192C758.276 790.192 758.276 791.984 758.276 794.288C758.276 799.024 758.276 806.064 758.276 806.064H752.26V789.488C752.26 777.2 758.98 773.68 764.292 773.296C764.676 773.232 764.996 773.232 765.38 773.232C772.42 773.232 775.876 778.608 775.876 778.608ZM820.7 779.12C814.684 779.12 810.46 783.984 810.46 790C810.46 796.08 814.684 800.88 820.7 800.88C826.78 800.88 831.196 796.08 831.196 790C831.196 783.984 826.78 779.12 820.7 779.12ZM820.7 773.36C828.956 773.424 837.34 778.288 837.34 790V806H830.94V801.904C830.876 801.968 827.1 806.704 820.508 806.704H820.444C810.268 806.704 803.868 798.96 803.868 789.936C803.868 781.936 809.116 773.36 820.572 773.36C820.636 773.36 820.636 773.36 820.7 773.36ZM859.715 773.296V780.656C853.699 780.656 849.475 784.368 849.475 789.936V805.936H843.075V789.936C843.075 779.504 849.923 773.296 859.715 773.296ZM878.278 773.296V780.656C872.262 780.656 868.038 784.368 868.038 789.936V805.936H861.638V789.936C861.638 779.504 868.486 773.296 878.278 773.296ZM897.513 779.12C891.497 779.12 887.273 783.984 887.273 790C887.273 796.08 891.497 800.88 897.513 800.88C903.593 800.88 908.009 796.08 908.009 790C908.009 783.984 903.593 779.12 897.513 779.12ZM897.513 773.36C905.769 773.424 914.153 778.288 914.153 790V806H907.753V801.904C907.689 801.968 903.913 806.704 897.321 806.704H897.257C887.081 806.704 880.681 798.96 880.681 789.936C880.681 781.936 885.929 773.36 897.385 773.36C897.449 773.36 897.449 773.36 897.513 773.36ZM935.888 779.12C929.872 779.12 925.648 783.984 925.648 790C925.648 796.08 929.872 800.88 935.888 800.88C941.968 800.88 946.384 796.08 946.384 790C946.384 783.984 941.968 779.12 935.888 779.12ZM935.888 773.36C943.632 773.616 952.528 778.224 952.528 790V798.064V805.744C952.528 811.056 950.672 822.832 934.16 822.832C925.84 822.832 921.936 817.456 921.936 817.456L926.288 813.104C926.288 813.104 929.168 816.944 935.12 816.944C935.312 816.944 935.44 816.88 935.632 816.88C941.712 816.688 946.128 814 946.128 806.704V801.904C946.128 801.904 942.352 806.704 936.144 806.704C936.08 806.704 936.016 806.704 935.888 806.704C925.328 806.512 919.248 799.152 919.248 790C919.248 780.208 925.904 773.36 935.888 773.36ZM973.431 779.568C968.695 779.568 965.047 782.192 963.767 786.416H982.903C981.687 782.192 978.231 779.568 973.431 779.568ZM963.383 791.664C964.087 796.784 967.991 800.752 973.431 800.752C976.823 800.752 979.575 799.28 981.303 796.912L985.655 801.264C982.583 804.592 978.231 806.64 973.431 806.64C964.279 806.64 956.983 799.152 956.983 790C956.983 780.848 964.279 773.36 973.431 773.36C982.583 773.36 989.687 780.848 989.687 790C989.687 790.64 989.687 791.024 989.623 791.664C985.783 791.6 982.391 791.6 978.551 791.6C973.495 791.6 968.439 791.6 963.383 791.664ZM1028.72 773.296V780.656C1022.7 780.656 1018.48 784.368 1018.48 789.936V805.936H1012.08V789.936C1012.08 779.504 1018.92 773.296 1028.72 773.296ZM1047.12 779.568C1042.38 779.568 1038.73 782.192 1037.45 786.416H1056.59C1055.37 782.192 1051.92 779.568 1047.12 779.568ZM1037.07 791.664C1037.77 796.784 1041.68 800.752 1047.12 800.752C1050.51 800.752 1053.26 799.28 1054.99 796.912L1059.34 801.264C1056.27 804.592 1051.92 806.64 1047.12 806.64C1037.97 806.64 1030.67 799.152 1030.67 790C1030.67 780.848 1037.97 773.36 1047.12 773.36C1056.27 773.36 1063.37 780.848 1063.37 790C1063.37 790.64 1063.37 791.024 1063.31 791.664C1059.47 791.6 1056.08 791.6 1052.24 791.6C1047.18 791.6 1042.13 791.6 1037.07 791.664ZM1083.87 779.12C1077.86 779.12 1073.63 783.984 1073.63 790C1073.63 796.08 1077.86 800.88 1083.87 800.88C1089.95 800.88 1094.37 796.08 1094.37 790C1094.37 783.984 1089.95 779.12 1083.87 779.12ZM1083.87 773.36C1092 773.36 1100.51 778.224 1100.51 790V822.064H1094.11V801.904C1094.11 801.904 1090.27 806.704 1084 806.704C1083.94 806.704 1083.94 806.704 1083.87 806.704C1072.29 806.64 1067.23 799.152 1067.23 790C1067.23 780.208 1073.89 773.36 1083.87 773.36ZM1106.89 774H1113.29V789.872C1113.29 797.936 1117.64 801.072 1121.74 801.072C1128.01 801.072 1131.27 797.232 1131.27 789.872V774H1137.03V791.728C1137.03 799.792 1131.46 806.64 1121.74 806.64C1117.96 806.64 1106.89 805.872 1106.89 791.728V774ZM1143.45 774H1149.85V806H1143.45V774ZM1143.45 758.64H1149.85V764.976H1143.45V758.64ZM1171.41 774V779.632H1164.89C1161.62 779.632 1160.09 780.72 1160.09 782.704C1160.09 782.832 1160.09 782.96 1160.09 783.088C1160.41 786.8 1172.76 788.528 1172.76 797.04C1172.76 797.424 1172.76 797.872 1172.69 798.32C1172.12 802.48 1169.69 806 1161.94 806H1154.77V800.304H1162.13C1162.2 800.304 1162.26 800.304 1162.33 800.304C1165.08 800.304 1167 799.024 1167 797.232C1167 797.04 1167 796.848 1166.93 796.656C1165.97 792.688 1154.33 791.536 1154.33 783.152C1154.33 777.136 1159.45 774 1164.89 774H1171.41Z" fill="#FF0000"/>
</g>
<path d="M622.752 766.96C622.432 766.96 613.6 766.96 613.6 766.96V782.704C615.968 782.704 621.536 782.704 622.752 782.704C628.32 782.704 631.392 779.44 631.392 774.512C631.392 770.672 628.256 766.96 622.752 766.96ZM607.2 761.2C610.656 761.2 614.176 761.2 617.696 761.2C619.36 761.2 621.088 761.2 622.752 761.2C634.528 761.2 637.856 768.56 637.856 774.512C637.856 779.824 635.616 785.712 628.448 787.696L639.456 806H632.224L621.664 788.4C619.552 788.4 615.52 788.4 613.6 788.4V806H607.2V761.2ZM656.368 779.568C651.632 779.568 647.984 782.192 646.704 786.416H665.84C664.624 782.192 661.168 779.568 656.368 779.568ZM646.32 791.664C647.024 796.784 650.928 800.752 656.368 800.752C659.76 800.752 662.512 799.28 664.24 796.912L668.592 801.264C665.52 804.592 661.168 806.64 656.368 806.64C647.216 806.64 639.92 799.152 639.92 790C639.92 780.848 647.216 773.36 656.368 773.36C665.52 773.36 672.624 780.848 672.624 790C672.624 790.64 672.624 791.024 672.56 791.664C668.72 791.6 665.328 791.6 661.488 791.6C656.432 791.6 651.376 791.6 646.32 791.664ZM693.123 800.944C699.203 800.944 703.619 796.08 703.619 790.064C703.619 783.984 699.203 779.184 693.123 779.184C687.107 779.184 682.883 783.984 682.883 790.064C682.883 796.08 687.107 800.944 693.123 800.944ZM693.123 806.704C683.139 806.704 676.483 799.856 676.483 790.064C676.483 780.912 681.539 773.424 692.291 773.36C692.355 773.36 692.355 773.36 692.419 773.36C699.907 773.36 703.363 778.16 703.363 778.16V758H709.763V790.064C709.763 801.84 701.251 806.704 693.123 806.704ZM738.417 759.6L732.913 769.52H729.073L732.785 759.6H738.417ZM730.993 779.568C726.257 779.568 722.609 782.192 721.329 786.416H740.465C739.249 782.192 735.793 779.568 730.993 779.568ZM720.945 791.664C721.649 796.784 725.553 800.752 730.993 800.752C734.385 800.752 737.137 799.28 738.865 796.912L743.217 801.264C740.145 804.592 735.793 806.64 730.993 806.64C721.841 806.64 714.545 799.152 714.545 790C714.545 780.848 721.841 773.36 730.993 773.36C740.145 773.36 747.249 780.848 747.249 790C747.249 790.64 747.249 791.024 747.185 791.664C743.345 791.6 739.953 791.6 736.113 791.6C731.057 791.6 726.001 791.6 720.945 791.664ZM775.876 778.608C775.876 778.608 779.78 773.68 785.284 773.36C785.54 773.36 785.796 773.36 786.052 773.36C794.052 773.36 798.212 780.272 798.212 787.248C798.212 787.248 798.212 789.36 798.212 792.112C798.212 797.68 798.212 806.064 798.212 806.064H791.812C791.812 806.064 791.812 799.024 791.812 794.288C791.812 791.92 791.812 790.192 791.812 790.192C791.812 789.744 791.812 789.232 791.812 788.784C791.812 784.752 791.556 779.696 786.756 778.544C786.244 778.416 785.668 778.352 785.156 778.352C781.444 778.352 778.308 781.552 778.308 787.248C778.244 787.248 778.244 806.064 778.244 806.064H771.844C771.844 806.064 771.844 797.616 771.844 792.048C771.844 789.232 771.844 787.12 771.844 787.12C771.844 781.936 769.156 778.352 765.124 778.352C765.06 778.352 765.06 778.352 764.996 778.352C759.812 778.48 758.276 782.192 758.276 790.192C758.276 790.192 758.276 791.984 758.276 794.288C758.276 799.024 758.276 806.064 758.276 806.064H752.26V789.488C752.26 777.2 758.98 773.68 764.292 773.296C764.676 773.232 764.996 773.232 765.38 773.232C772.42 773.232 775.876 778.608 775.876 778.608ZM820.7 779.12C814.684 779.12 810.46 783.984 810.46 790C810.46 796.08 814.684 800.88 820.7 800.88C826.78 800.88 831.196 796.08 831.196 790C831.196 783.984 826.78 779.12 820.7 779.12ZM820.7 773.36C828.956 773.424 837.34 778.288 837.34 790V806H830.94V801.904C830.876 801.968 827.1 806.704 820.508 806.704H820.444C810.268 806.704 803.868 798.96 803.868 789.936C803.868 781.936 809.116 773.36 820.572 773.36C820.636 773.36 820.636 773.36 820.7 773.36ZM859.715 773.296V780.656C853.699 780.656 849.475 784.368 849.475 789.936V805.936H843.075V789.936C843.075 779.504 849.923 773.296 859.715 773.296ZM878.278 773.296V780.656C872.262 780.656 868.038 784.368 868.038 789.936V805.936H861.638V789.936C861.638 779.504 868.486 773.296 878.278 773.296ZM897.513 779.12C891.497 779.12 887.273 783.984 887.273 790C887.273 796.08 891.497 800.88 897.513 800.88C903.593 800.88 908.009 796.08 908.009 790C908.009 783.984 903.593 779.12 897.513 779.12ZM897.513 773.36C905.769 773.424 914.153 778.288 914.153 790V806H907.753V801.904C907.689 801.968 903.913 806.704 897.321 806.704H897.257C887.081 806.704 880.681 798.96 880.681 789.936C880.681 781.936 885.929 773.36 897.385 773.36C897.449 773.36 897.449 773.36 897.513 773.36ZM935.888 779.12C929.872 779.12 925.648 783.984 925.648 790C925.648 796.08 929.872 800.88 935.888 800.88C941.968 800.88 946.384 796.08 946.384 790C946.384 783.984 941.968 779.12 935.888 779.12ZM935.888 773.36C943.632 773.616 952.528 778.224 952.528 790V798.064V805.744C952.528 811.056 950.672 822.832 934.16 822.832C925.84 822.832 921.936 817.456 921.936 817.456L926.288 813.104C926.288 813.104 929.168 816.944 935.12 816.944C935.312 816.944 935.44 816.88 935.632 816.88C941.712 816.688 946.128 814 946.128 806.704V801.904C946.128 801.904 942.352 806.704 936.144 806.704C936.08 806.704 936.016 806.704 935.888 806.704C925.328 806.512 919.248 799.152 919.248 790C919.248 780.208 925.904 773.36 935.888 773.36ZM973.431 779.568C968.695 779.568 965.047 782.192 963.767 786.416H982.903C981.687 782.192 978.231 779.568 973.431 779.568ZM963.383 791.664C964.087 796.784 967.991 800.752 973.431 800.752C976.823 800.752 979.575 799.28 981.303 796.912L985.655 801.264C982.583 804.592 978.231 806.64 973.431 806.64C964.279 806.64 956.983 799.152 956.983 790C956.983 780.848 964.279 773.36 973.431 773.36C982.583 773.36 989.687 780.848 989.687 790C989.687 790.64 989.687 791.024 989.623 791.664C985.783 791.6 982.391 791.6 978.551 791.6C973.495 791.6 968.439 791.6 963.383 791.664ZM1028.72 773.296V780.656C1022.7 780.656 1018.48 784.368 1018.48 789.936V805.936H1012.08V789.936C1012.08 779.504 1018.92 773.296 1028.72 773.296ZM1047.12 779.568C1042.38 779.568 1038.73 782.192 1037.45 786.416H1056.59C1055.37 782.192 1051.92 779.568 1047.12 779.568ZM1037.07 791.664C1037.77 796.784 1041.68 800.752 1047.12 800.752C1050.51 800.752 1053.26 799.28 1054.99 796.912L1059.34 801.264C1056.27 804.592 1051.92 806.64 1047.12 806.64C1037.97 806.64 1030.67 799.152 1030.67 790C1030.67 780.848 1037.97 773.36 1047.12 773.36C1056.27 773.36 1063.37 780.848 1063.37 790C1063.37 790.64 1063.37 791.024 1063.31 791.664C1059.47 791.6 1056.08 791.6 1052.24 791.6C1047.18 791.6 1042.13 791.6 1037.07 791.664ZM1083.87 779.12C1077.86 779.12 1073.63 783.984 1073.63 790C1073.63 796.08 1077.86 800.88 1083.87 800.88C1089.95 800.88 1094.37 796.08 1094.37 790C1094.37 783.984 1089.95 779.12 1083.87 779.12ZM1083.87 773.36C1092 773.36 1100.51 778.224 1100.51 790V822.064H1094.11V801.904C1094.11 801.904 1090.27 806.704 1084 806.704C1083.94 806.704 1083.94 806.704 1083.87 806.704C1072.29 806.64 1067.23 799.152 1067.23 790C1067.23 780.208 1073.89 773.36 1083.87 773.36ZM1106.89 774H1113.29V789.872C1113.29 797.936 1117.64 801.072 1121.74 801.072C1128.01 801.072 1131.27 797.232 1131.27 789.872V774H1137.03V791.728C1137.03 799.792 1131.46 806.64 1121.74 806.64C1117.96 806.64 1106.89 805.872 1106.89 791.728V774ZM1143.45 774H1149.85V806H1143.45V774ZM1143.45 758.64H1149.85V764.976H1143.45V758.64ZM1171.41 774V779.632H1164.89C1161.62 779.632 1160.09 780.72 1160.09 782.704C1160.09 782.832 1160.09 782.96 1160.09 783.088C1160.41 786.8 1172.76 788.528 1172.76 797.04C1172.76 797.424 1172.76 797.872 1172.69 798.32C1172.12 802.48 1169.69 806 1161.94 806H1154.77V800.304H1162.13C1162.2 800.304 1162.26 800.304 1162.33 800.304C1165.08 800.304 1167 799.024 1167 797.232C1167 797.04 1167 796.848 1166.93 796.656C1165.97 792.688 1154.33 791.536 1154.33 783.152C1154.33 777.136 1159.45 774 1164.89 774H1171.41Z" fill="#FF0000"/>
</g>
<defs>
<filter id="filter0_f_376_31" x="0" y="0" width="1779.5" height="1359.5" filterUnits="userSpaceOnUse" color-interpolation-filters="sRGB">
<feFlood flood-opacity="0" result="BackgroundImageFix"/>
<feBlend mode="normal" in="SourceGraphic" in2="BackgroundImageFix" result="shape"/>
<feGaussianBlur stdDeviation="100" result="effect1_foregroundBlur_376_31"/>
</filter>
<filter id="filter1_f_376_31" x="230" y="262" width="1320.5" height="885" filterUnits="userSpaceOnUse" color-interpolation-filters="sRGB">
<feFlood flood-opacity="0" result="BackgroundImageFix"/>
<feBlend mode="normal" in="SourceGraphic" in2="BackgroundImageFix" result="shape"/>
<feGaussianBlur stdDeviation="5" result="effect1_foregroundBlur_376_31"/>
</filter>
<filter id="filter2_f_376_31" x="335" y="615.712" width="1159" height="127.788" filterUnits="userSpaceOnUse" color-interpolation-filters="sRGB">
<feFlood flood-opacity="0" result="BackgroundImageFix"/>
<feBlend mode="normal" in="SourceGraphic" in2="BackgroundImageFix" result="shape"/>
<feGaussianBlur stdDeviation="5" result="effect1_foregroundBlur_376_31"/>
</filter>
<filter id="filter3_f_376_31" x="273.42" y="907" width="240.17" height="206.776" filterUnits="userSpaceOnUse" color-interpolation-filters="sRGB">
<feFlood flood-opacity="0" result="BackgroundImageFix"/>
<feBlend mode="normal" in="SourceGraphic" in2="BackgroundImageFix" result="shape"/>
<feGaussianBlur stdDeviation="5" result="effect1_foregroundBlur_376_31"/>
</filter>
<filter id="filter4_f_376_31" x="1293.42" y="288" width="240.17" height="206.776" filterUnits="userSpaceOnUse" color-interpolation-filters="sRGB">
<feFlood flood-opacity="0" result="BackgroundImageFix"/>
<feBlend mode="normal" in="SourceGraphic" in2="BackgroundImageFix" result="shape"/>
<feGaussianBlur stdDeviation="5" result="effect1_foregroundBlur_376_31"/>
</filter>
<filter id="filter5_f_376_31" x="597.199" y="748" width="585.559" height="84.832" filterUnits="userSpaceOnUse" color-interpolation-filters="sRGB">
<feFlood flood-opacity="0" result="BackgroundImageFix"/>
<feBlend mode="normal" in="SourceGraphic" in2="BackgroundImageFix" result="shape"/>
<feGaussianBlur stdDeviation="5" result="effect1_foregroundBlur_376_31"/>
</filter>
<clipPath id="clip0_376_31">
<rect width="1780" height="1360" fill="white"/>
</clipPath>
</defs>
</svg>
