<svg width="1780" height="1360" viewBox="0 0 1780 1360" fill="none" xmlns="http://www.w3.org/2000/svg">
<g clip-path="url(#clip0_352_3538)">
<path d="M244.522 455.653L244 456.225V457V1076.5V1077.35L244.617 1077.94L303.617 1134.44L304.197 1135H305H487.5H488.295L488.873 1134.45L524.295 1101H1302.3L1344.76 1134.57L1345.3 1135H1346H1437.5H1438.23L1438.79 1134.53L1539.79 1049.53L1540.5 1048.93V1048V312.5V311.508L1539.71 310.908L1491.71 274.408L1491.17 274H1490.5H411H410.117L409.522 274.653L244.522 455.653Z" fill="#0A022D"/>
<path d="M244.522 455.653L244 456.225V457V1076.5V1077.35L244.617 1077.94L303.617 1134.44L304.197 1135H305H487.5H488.295L488.873 1134.45L524.295 1101H1302.3L1344.76 1134.57L1345.3 1135H1346H1437.5H1438.23L1438.79 1134.53L1539.79 1049.53L1540.5 1048.93V1048V312.5V311.508L1539.71 310.908L1491.71 274.408L1491.17 274H1490.5H411H410.117L409.522 274.653L244.522 455.653Z" stroke="#4DADAC" stroke-width="4"/>
<path d="M244.522 455.653L244 456.225V457V1076.5V1077.35L244.617 1077.94L303.617 1134.44L304.197 1135H305H487.5H488.295L488.873 1134.45L524.295 1101H1302.3L1344.76 1134.57L1345.3 1135H1346H1437.5H1438.23L1438.79 1134.53L1539.79 1049.53L1540.5 1048.93V1048V312.5V311.508L1539.71 310.908L1491.71 274.408L1491.17 274H1490.5H411H410.117L409.522 274.653L244.522 455.653Z" stroke="#4DADAC" stroke-width="4"/>
<g filter="url(#filter0_f_352_3538)">
<path d="M1015.5 275L948 211H388.5L211 413V1099L260.5 1148.5H1468.5L1568.5 1056.5V344L1532.5 313.143M1015.5 275H1488L1532.5 313.143M1015.5 275H401.5L237.5 455.5V1076L299.5 1133.5H477L515.5 1119.5H904.5H1293.5L1339 1133.5H1429L1532.5 1046.5V313.143" stroke="#4DADAC" stroke-width="22"/>
</g>
</g>
<defs>
<filter id="filter0_f_352_3538" x="0" y="0" width="1779.5" height="1359.5" filterUnits="userSpaceOnUse" color-interpolation-filters="sRGB">
<feFlood flood-opacity="0" result="BackgroundImageFix"/>
<feBlend mode="normal" in="SourceGraphic" in2="BackgroundImageFix" result="shape"/>
<feGaussianBlur stdDeviation="100" result="effect1_foregroundBlur_352_3538"/>
</filter>
<clipPath id="clip0_352_3538">
<rect width="1780" height="1360" fill="white"/>
</clipPath>
</defs>
</svg>
