<svg width="196" height="168" viewBox="0 0 196 168" fill="none" xmlns="http://www.w3.org/2000/svg">
<path d="M18.1752 160.077L167.962 148.757L187.704 38.4557C187.704 38.4557 191.124 27.9274 177.445 29.7639C68.7267 46.1025 45.0263 49.7914 45.0263 49.7914C45.0263 49.7914 33.7064 49.5222 31.3316 64.531C28.9568 79.5397 14.2172 157.987 14.2172 157.987C14.2172 157.987 13.4256 159.824 18.1594 160.093L18.1752 160.077Z" stroke="#95C11F" stroke-width="10" stroke-miterlimit="10"/>
<path d="M166.125 9.76816L81.8831 22.9245L71.6239 8.4541L20.2808 15.0402L7.91602 28.4657V146.398C7.91602 146.398 10.2908 155.882 14.233 157.987" stroke="#95C11F" stroke-width="10" stroke-miterlimit="10"/>
<path d="M84.7012 29.8274L167.154 17.0352" stroke="#95C11F" stroke-width="10" stroke-miterlimit="10"/>
<path d="M85.9202 37.5372L170.115 23.9692" stroke="#95C11F" stroke-width="10" stroke-miterlimit="10"/>
<path d="M18.7135 160.077L168.5 148.757L188.242 38.4557C188.242 38.4557 191.662 27.9274 177.983 29.7639C69.2492 46.1025 45.5646 49.7914 45.5646 49.7914C45.5646 49.7914 34.2447 49.5222 31.8699 64.531C29.4951 79.5397 14.7555 157.987 14.7555 157.987C14.7555 157.987 13.9639 159.824 18.6977 160.093L18.7135 160.077Z" stroke="#BFDFD1" stroke-width="4" stroke-miterlimit="10"/>
<path d="M164.843 9.75232L82.4055 22.9245L72.1464 8.4541L20.8191 15.0402L8.45435 28.4657V146.398C8.45435 146.398 10.8291 155.882 14.7713 157.987" stroke="#BFDFD1" stroke-width="4" stroke-miterlimit="10"/>
<path d="M87.3611 33.3897L168.073 21.1357" stroke="#BFDFD1" stroke-width="4" stroke-miterlimit="10"/>
</svg>
