<svg width="185" height="185" viewBox="0 0 185 185" fill="none" xmlns="http://www.w3.org/2000/svg">
<g clip-path="url(#clip0_200_670)">
<path d="M92.4964 0C41.4125 0 0 41.415 0 92.4964C0 143.578 41.4125 185 92.4964 185C143.58 185 185 143.585 185 92.4964C185 41.4078 143.58 0 92.4964 0ZM92.4964 179.183C44.6242 179.183 5.81584 140.373 5.81584 92.5036C5.81584 44.6347 44.6242 5.8172 92.4964 5.8172C140.369 5.8172 179.184 44.6275 179.184 92.5036C179.184 140.38 140.376 179.183 92.4964 179.183Z" fill="white"/>
<path d="M87.3678 11.6994C103.224 10.7444 120.23 14.5574 133.779 22.8635C135.782 24.0935 139.479 25.7215 138.567 28.5867C137.113 33.1956 130.885 27.7691 128.621 26.5752C66.9689 -5.94754 -1.82285 53.4255 22.0626 118.695C25.4986 128.08 30.8876 136.017 37.1664 143.693C37.7451 147.029 34.461 148.679 31.9871 146.334C25.8964 140.568 19.104 127.703 16.2829 119.781C-1.76498 69.1551 33.8823 14.9336 87.3678 11.6994Z" fill="white"/>
<path d="M41.3402 155.22C39.293 152.81 41.1521 149.677 44.2047 150.357C45.4416 150.632 49.2971 154.04 50.78 154.995C116.924 197.575 195.069 125.837 158.431 56.3706C157.23 54.0987 151.812 47.8763 156.42 46.422C159.603 45.4163 162.417 51.5736 163.719 53.9685C201.956 124.108 124.7 201.685 53.9773 163.714C51.1417 162.194 43.2209 157.434 41.3474 155.22H41.3402Z" fill="white"/>
<path d="M25.2164 89.6892C26.4967 89.3998 34.2584 89.3998 35.5387 89.6892C38.3743 90.3259 38.3599 94.8842 35.2349 95.369C33.7086 95.6077 26.6269 95.6294 25.2236 95.3111C22.4603 94.6961 22.4531 90.3042 25.2236 89.6892H25.2164Z" fill="white"/>
<path d="M149.461 89.6892C150.742 89.3998 158.503 89.3998 159.784 89.6892C162.619 90.3259 162.605 94.8842 159.48 95.369C157.954 95.6077 150.872 95.6294 149.469 95.3111C146.705 94.6961 146.698 90.3042 149.469 89.6892H149.461Z" fill="white"/>
<path d="M91.6794 147.478C92.9959 147.188 94.5584 147.622 95.1154 148.939C95.5494 149.952 95.6 158.49 95.3107 159.785C94.6741 162.636 90.0157 162.737 89.6034 159.148C89.3864 157.26 89.3502 151.587 89.6323 149.771C89.7987 148.7 90.5944 147.709 91.6794 147.47V147.478Z" fill="white"/>
<path d="M58.079 32.2623C59.07 31.9657 60.2853 32.0525 61.1027 32.6964C62.0141 33.42 66.5062 41.3788 66.5134 42.4786C66.5134 44.7939 63.9238 45.966 61.9562 44.8445C61.0376 44.3236 56.3647 36.0319 56.3574 34.896C56.3574 33.9988 57.2038 32.5228 58.079 32.2623Z" fill="white"/>
<path d="M124.542 32.2625C126.828 31.5752 129.034 33.1018 128.556 35.5256C128.383 36.4084 124.629 43.0431 123.927 43.9186C121.786 46.5812 117.959 44.9677 118.581 41.8421C118.82 40.641 123.543 32.5592 124.549 32.2553L124.542 32.2625Z" fill="white"/>
<path d="M34.2516 56.4427C35.0545 56.2763 35.3511 56.4427 36.0528 56.6598C37.1884 57.0071 42.9247 60.2774 43.9157 61.0806C46.5994 63.2294 44.9429 67.0425 41.8397 66.4275C40.8993 66.2393 33.5499 62.0067 32.8844 61.2759C31.4088 59.6624 32.0743 56.8985 34.2516 56.4427Z" fill="white"/>
<path d="M149.475 56.4501C152.188 55.9147 153.953 59.0259 152.304 61.1097C151.74 61.8187 144.419 66.0803 143.435 66.3336C140.571 67.086 138.625 64.1051 140.332 61.7753C140.875 61.0445 148.492 56.6455 149.475 56.4501Z" fill="white"/>
<path d="M41.847 118.572C44.5668 118.037 46.274 121.047 44.6681 123.225C44.1473 123.934 36.8124 128.188 35.7997 128.456C32.9858 129.194 30.9098 126.155 32.6965 123.898C33.2752 123.167 40.8922 118.768 41.847 118.572Z" fill="white"/>
<path d="M141.888 118.573C142.691 118.406 142.987 118.573 143.689 118.79C144.752 119.122 151.429 122.979 152.116 123.731C154.04 125.837 152.29 129.114 149.483 128.557C148.601 128.384 141.967 124.629 141.092 123.927C139.074 122.299 139.327 119.108 141.895 118.573H141.888Z" fill="white"/>
<path d="M62.4187 139.895C64.7045 139.215 66.9107 140.727 66.4333 143.158C66.2452 144.099 62.0136 151.442 61.283 152.115C59.1852 154.025 55.9012 152.303 56.4582 149.482C56.6318 148.606 60.0894 142.463 60.7839 141.508C61.1455 141.009 61.8544 140.068 62.4259 139.902L62.4187 139.895Z" fill="white"/>
<path d="M128.642 150.111C128.642 152.405 126.002 153.642 124.078 152.485C123.181 151.949 118.486 143.636 118.486 142.529C118.486 141.899 118.906 140.98 119.456 140.402C119.687 140.156 119.948 139.975 120.201 139.895C120.439 139.823 120.685 139.772 120.931 139.75C121.741 139.664 122.559 139.844 123.224 140.336C124.129 141.002 128.635 149.004 128.642 150.111Z" fill="white"/>
<path d="M143.688 31.5314C144.745 31.2999 145.41 31.4591 146.3 32.0162C146.98 32.4431 152.188 37.6525 152.622 38.3326C154.532 41.3642 151.392 44.0847 148.513 42.4423C147.262 41.726 146.582 40.1559 145.613 39.2081C144.419 38.0432 141.873 36.7264 141.634 34.8597C141.446 33.4126 142.191 31.857 143.696 31.5314H143.688Z" fill="white"/>
<path d="M99.1511 98.3062C102.804 93.4295 101.372 86.6066 95.4474 84.5084L95.433 81.2959C99.9106 82.1786 103.383 84.6386 105.69 87.8511H105.755L104.164 77.056L99.5923 53.5412L97.5018 43.4335L96.3589 38.4121C96.3589 38.4121 96.4312 38.4194 96.4674 38.4266L95.6066 34.2808C95.5704 33.9479 95.527 33.6296 95.4691 33.3329V33.3185C94.4854 27.8413 90.4707 27.6749 89.8052 34.0348L89.6099 34.9681L88.9083 38.4121L87.7653 43.9978L86.239 51.4285L85.6748 54.1707L80.8138 77.8012L78.6582 87.8511C80.6909 84.3637 84.0183 81.7807 88.684 81.1512C89.0095 81.1078 89.3278 81.0716 89.6388 81.0427V84.3347C79.5624 88.6832 83.5988 102.148 94.2322 101.244L105.083 120.084C106.804 119.129 108.316 117.827 109.589 116.286L99.1511 98.3062ZM85.6748 77.6493C85.5012 77.6927 85.3348 77.7434 85.1612 77.8012L85.1902 77.6638L92.3876 41.3063L100.041 77.1862L100.323 78.5248C99.0787 77.9966 97.8056 77.5842 96.518 77.302C96.1491 77.2152 95.773 77.1428 95.404 77.0777C93.5016 76.7449 91.5702 76.6725 89.6461 76.8679C88.3151 76.9981 86.9913 77.2586 85.6748 77.6493ZM92.5034 95.441C90.8758 95.441 89.5593 94.1241 89.5593 92.5034C89.5593 90.8827 90.8758 89.5659 92.5034 89.5659C94.1309 89.5659 95.4402 90.8755 95.4402 92.5034C95.4402 94.1314 94.1237 95.441 92.5034 95.441Z" fill="white"/>
<path d="M90.4273 47.8398C90.3911 48.1654 90.3694 48.368 90.3694 48.368L89.4941 51.9929L90.3043 48.368L90.4273 47.8398Z" fill="white"/>
<path d="M120.201 139.895C119.948 139.975 119.688 140.156 119.456 140.402C120.02 140.387 120.548 140.148 120.932 139.75C120.686 139.772 120.44 139.823 120.201 139.895Z" fill="white"/>
<path d="M121.438 137.703L111.883 112.82L111.868 112.835C111.231 114.072 110.472 115.23 109.589 116.286C108.316 117.827 106.805 119.13 105.083 120.085C103.766 120.808 102.334 121.322 100.786 121.575L118.017 139.895C118.48 140.257 118.979 140.409 119.456 140.401C119.688 140.155 119.948 139.974 120.201 139.895C120.44 139.823 120.686 139.772 120.932 139.75C121.395 139.265 121.641 138.535 121.438 137.703ZM110.711 121.206L113.857 129.65L107.499 123.268L110.711 121.206Z" fill="white"/>
</g>
<defs>
<clipPath id="clip0_200_670">
<rect width="185" height="185" fill="white"/>
</clipPath>
</defs>
</svg>
