<svg width="167" height="179" viewBox="0 0 167 179" fill="none" xmlns="http://www.w3.org/2000/svg">
<g clip-path="url(#clip0_200_694)">
<path d="M40.7432 170.763H35.9542C25.879 168.504 20.8945 156.556 27.7507 148.223C33.2665 141.517 43.4206 141.504 48.9467 148.223C55.8029 156.556 50.8184 168.504 40.7432 170.763ZM46.5093 156.994C46.5093 152.458 42.8549 148.781 38.347 148.781C33.839 148.781 30.1847 152.458 30.1847 156.994C30.1847 161.53 33.839 165.206 38.347 165.206C42.8549 165.206 46.5093 161.53 46.5093 156.994Z" fill="white"/>
<path d="M132.428 71.2848C132.795 74.7995 133.899 78.2487 134.139 81.7876C136.95 123.589 90.115 150.237 56.0294 125.61C22.7425 101.558 31.9161 48.9753 71.1919 37.724C80.5472 35.044 89.4774 35.3958 98.9012 37.555C101.633 13.514 130.477 2.4524 148.688 18.6119C168.115 35.8476 157.892 68.4288 132.425 71.2882L132.428 71.2848ZM126.545 16.6528C114.592 17.6979 105.116 27.4798 104.15 39.4658C115.987 45.1087 124.921 54.0974 130.525 66.004C146.439 64.4691 156.829 49.3306 152.105 33.7574C148.814 22.9096 137.735 15.6732 126.545 16.6528ZM128.609 85.392C128.609 61.0889 109.028 41.3905 84.8769 41.3905C60.7259 41.3905 41.1446 61.0924 41.1446 85.392C41.1446 109.692 60.7259 129.394 84.8769 129.394C109.028 129.394 128.609 109.692 128.609 85.392Z" fill="white"/>
<path d="M35.6387 74.3823C35.6387 82.0016 29.499 88.1826 21.9229 88.1826C14.3468 88.1826 8.20703 82.005 8.20703 74.3823C8.20703 66.7596 14.3468 60.582 21.9229 60.582C29.499 60.582 35.6387 66.7596 35.6387 74.3823ZM30.0852 74.3823C30.0852 69.8466 26.4308 66.1697 21.9229 66.1697C17.4149 66.1697 13.7606 69.8466 13.7606 74.3823C13.7606 78.918 17.4149 82.5949 21.9229 82.5949C26.4308 82.5949 30.0852 78.918 30.0852 74.3823Z" fill="white"/>
<path d="M27.4282 107.425C27.4282 115.045 21.2885 121.226 13.7124 121.226C6.1363 121.226 0 115.048 0 107.425C0 99.8025 6.13973 93.625 13.7158 93.625C21.2919 93.625 27.4317 99.8025 27.4317 107.425H27.4282ZM21.8747 107.425C21.8747 102.89 18.2204 99.2127 13.7124 99.2127C9.20445 99.2127 5.5501 102.89 5.5501 107.425C5.5501 111.961 9.20445 115.638 13.7124 115.638C18.2204 115.638 21.8747 111.961 21.8747 107.425Z" fill="white"/>
<path d="M161.563 93.6529C161.563 99.7615 156.64 104.718 150.566 104.718C144.491 104.718 139.568 99.7649 139.568 93.6529C139.568 87.5409 144.491 82.5879 150.566 82.5879C156.64 82.5879 161.563 87.5409 161.563 93.6529ZM155.982 93.6564C155.982 90.6452 153.555 88.2032 150.562 88.2032C147.57 88.2032 145.142 90.6452 145.142 93.6564C145.142 96.6675 147.57 99.1096 150.562 99.1096C153.555 99.1096 155.982 96.6675 155.982 93.6564Z" fill="white"/>
<path d="M104.087 148.726C104.087 154.835 99.1647 159.791 93.0901 159.791C87.0155 159.791 82.0928 154.838 82.0928 148.726C82.0928 142.614 87.0155 137.661 93.0901 137.661C99.1647 137.661 104.087 142.614 104.087 148.726ZM98.5065 148.733C98.5065 145.722 96.0794 143.28 93.0867 143.28C90.094 143.28 87.6669 145.722 87.6669 148.733C87.6669 151.744 90.094 154.186 93.0867 154.186C96.0794 154.186 98.5065 151.744 98.5065 148.733Z" fill="white"/>
<path d="M93.1378 19.2985C93.1378 23.8928 89.4354 27.618 84.8692 27.618C80.3029 27.618 76.6006 23.8928 76.6006 19.2985C76.6006 14.7041 80.3029 10.979 84.8692 10.979C89.4354 10.979 93.1378 14.7041 93.1378 19.2985ZM87.5705 19.3019C87.5705 17.805 86.3638 16.5909 84.876 16.5909C83.3882 16.5909 82.1815 17.805 82.1815 19.3019C82.1815 20.7989 83.3882 22.013 84.876 22.013C86.3638 22.013 87.5705 20.7989 87.5705 19.3019Z" fill="white"/>
<path d="M43.8731 132.205C43.8731 136.799 40.1708 140.524 35.6045 140.524C31.0383 140.524 27.3359 136.799 27.3359 132.205C27.3359 127.61 31.0383 123.885 35.6045 123.885C40.1708 123.885 43.8731 127.61 43.8731 132.205ZM38.3059 132.208C38.3059 130.711 37.0992 129.497 35.6114 129.497C34.1236 129.497 32.9169 130.711 32.9169 132.208C32.9169 133.705 34.1236 134.919 35.6114 134.919C37.0992 134.919 38.3059 133.705 38.3059 132.208Z" fill="white"/>
<path d="M120.443 85.3953H120.296C118.88 85.3953 117.728 84.2915 117.615 82.8704C116.35 66.7592 103.388 53.6936 87.379 52.445C85.97 52.3346 84.873 51.1757 84.873 49.7546V49.6029C84.873 48.0404 86.186 46.8056 87.7389 46.9056C106.354 48.0818 121.941 63.8032 123.124 82.5083C123.223 84.0673 121.996 85.3918 120.443 85.3918V85.3953Z" fill="white"/>
<path d="M144.947 41.3354H144.748C143.442 41.3354 142.355 40.3765 142.129 39.0831C141.101 33.2436 136.709 28.8286 130.906 27.7904C129.62 27.5627 128.667 26.4693 128.667 25.1552V24.9551C128.667 23.3064 130.124 22.0233 131.742 22.2786C139.801 23.5513 146.339 30.1255 147.604 38.238C147.858 39.8661 146.582 41.332 144.944 41.332L144.947 41.3354Z" fill="white"/>
<path d="M60.2693 24.8136C60.2693 38.5173 49.2274 49.6272 35.6076 49.6272C21.9877 49.6272 10.9492 38.5173 10.9492 24.8136C10.9492 11.1099 21.9911 0 35.611 0C49.2308 0 60.2728 11.1099 60.2728 24.8136H60.2693ZM54.7124 24.8136C54.7124 14.1969 46.1593 5.59116 35.6076 5.59116C25.0559 5.59116 16.5027 14.1969 16.5027 24.8136C16.5027 35.4302 25.0559 44.036 35.6076 44.036C46.1593 44.036 54.7124 35.4302 54.7124 24.8136Z" fill="white"/>
<path d="M46.3002 24.8134H46.1322C44.8946 24.8134 43.8456 23.958 43.5165 22.7577C42.7315 19.8776 40.5204 17.6528 37.6545 16.8595C36.4615 16.5284 35.6113 15.4729 35.6113 14.2278V14.0588C35.6113 12.279 37.2808 10.9993 38.9949 11.4339C43.7839 12.6549 47.6954 16.587 48.9055 21.4056C49.3409 23.1302 48.0656 24.8099 46.2967 24.8099L46.3002 24.8134Z" fill="white"/>
<path d="M167 154.187C167 167.89 155.958 179 142.339 179C128.719 179 117.677 167.89 117.677 154.187C117.677 140.483 128.719 129.373 142.339 129.373C155.958 129.373 167 140.483 167 154.187ZM161.443 154.187C161.443 143.57 152.89 134.964 142.339 134.964C131.787 134.964 123.234 143.57 123.234 154.187C123.234 164.803 131.787 173.409 142.339 173.409C152.89 173.409 161.443 164.803 161.443 154.187Z" fill="white"/>
<path d="M153.031 154.186H152.863C151.625 154.186 150.576 153.331 150.247 152.131C149.462 149.251 147.251 147.026 144.385 146.233C143.192 145.901 142.342 144.846 142.342 143.601V143.432C142.342 141.652 144.011 140.372 145.725 140.807C150.514 142.028 154.426 145.96 155.636 150.779C156.071 152.503 154.796 154.183 153.027 154.183L153.031 154.186Z" fill="white"/>
</g>
<defs>
<clipPath id="clip0_200_694">
<rect width="167" height="179" fill="white"/>
</clipPath>
</defs>
</svg>
