<svg width="185" height="144" viewBox="0 0 185 144" fill="none" xmlns="http://www.w3.org/2000/svg">
<g clip-path="url(#clip0_200_749)">
<path d="M63.5123 121.05C63.5123 125.801 59.6435 129.66 54.8636 129.66C50.0836 129.66 46.2148 125.808 46.2148 121.05C46.2148 116.291 50.0836 112.44 54.8636 112.44C59.6435 112.44 63.5123 116.291 63.5123 121.05ZM57.785 121.05C57.785 119.452 56.4834 118.149 54.8708 118.149C53.2582 118.149 51.9565 119.444 51.9565 121.05C51.9565 122.655 53.2582 123.951 54.8708 123.951C56.4834 123.951 57.785 122.655 57.785 121.05Z" fill="white"/>
<path d="M42.5561 60.6217C43.9879 60.3337 45.8247 61.5 47.5096 61.6511C50.6769 61.9463 51.6893 60.9744 54.119 60.6289C57.5829 60.1394 59.0436 64.4299 55.6521 66.1361C52.2606 67.8422 45.0943 67.8782 41.7968 65.8985C39.5695 64.5595 40.0974 61.1184 42.5488 60.6217H42.5561Z" fill="white"/>
<path d="M57.0043 46.2457C58.3204 45.9721 60.0848 46.8288 60.3451 48.1678C60.6489 49.766 60.7067 53.3078 59.2532 54.2509C54.3648 57.4256 53.1789 47.0376 57.0043 46.2385V46.2457Z" fill="white"/>
<path d="M39.6708 46.2457C44.0602 45.3386 43.7999 53.0127 41.9125 54.2509C40.2204 55.3595 37.8485 54.5892 37.5809 52.4943C37.3134 50.3995 37.1181 46.7712 39.6708 46.2457Z" fill="white"/>
<path d="M95.7506 138.226C95.8157 137.305 95.4035 136.463 95.3745 135.541C95.0781 127.14 94.5863 114.528 95.3962 106.407C95.7361 102.995 97.7464 101.944 98.1948 100.202C98.5708 98.726 98.1442 96.5735 98.3177 94.9322C98.701 91.4551 100.935 87.3445 103.727 85.2136C105.592 83.7954 115.188 79.7424 115.55 79.1809C115.666 79.001 115.991 76.6685 116.331 75.8262C117.293 73.4362 119.903 70.535 122.478 69.8943L117.813 67.1731C104.529 57.9225 107.032 42.6032 106.959 28.4357C94.9407 22.4246 103.669 5.86712 114.097 3.49148C119.462 2.26766 138.307 2.49803 144.324 3.03075C153.037 3.80103 161.245 10.6616 163.747 18.9332C164.991 23.0509 165.367 35.1667 164.651 39.4357C164.318 41.4154 162.641 43.3375 161.1 44.5325C160.616 44.9069 159.076 45.418 159.018 45.5116C158.772 45.9003 159.018 48.3048 158.909 49.183C158.396 53.2072 156.95 57.0874 154.701 60.4565C153.804 61.7955 150.781 64.5671 150.47 65.2366C150.21 65.8125 150.116 69.412 150.275 70.0095C150.333 70.2111 152.669 71.6869 153.189 72.2268C154.202 73.285 154.889 75.1567 155.937 75.9702C163.378 81.7365 178.347 82.4204 179.193 94.889L179.179 138.234C181.833 138.14 185.231 138.111 184.978 141.639C184.863 143.287 183.894 144.043 182.267 144L2.03209 143.964C0.383339 143.734 -0.101162 142.474 7.69412e-05 140.933C0.195324 138.061 3.59407 138.154 5.79963 138.234V103.542C7.20975 92.0094 17.0733 81.7869 28.9183 81.067C28.6146 79.3033 29.41 75.7326 28.7303 74.2425C28.5061 73.7457 27.2479 72.8531 26.7634 72.2484C25.7003 70.931 24.5795 69.556 23.7117 68.0946C22.6198 66.2517 21.752 62.9474 20.7902 61.6588C20.1322 60.7805 17.9989 59.3695 16.9938 58.2465C13.5227 54.3591 11.2015 48.3479 11.187 43.1359C11.187 41.5378 12.4163 36.0306 12.2428 35.2963C12.1271 34.814 10.3554 33.3598 9.83473 32.6471C-6.43584 10.2369 26.0691 -13.102 42.535 8.72509C64.8726 5.96791 82.2858 28.3781 77.072 49.3342C75.9005 54.0351 73.2466 55.6045 71.8292 58.8584C71.3086 60.0534 71.1422 62.0259 70.636 63.4225C69.3127 67.0363 66.7962 71.0605 63.976 73.6882C62.9419 74.6528 58.1981 77.5036 58.0028 77.8131C57.757 78.2091 57.6847 80.3903 57.8076 80.8367C57.8799 81.1102 62.1175 82.2549 63.1371 82.7876C68.6836 85.6816 72.0968 91.7718 72.2848 97.9557C79.7837 97.6606 88.8012 97.099 89.6328 106.753C90.3487 115.032 89.9366 127.054 89.6328 135.548C89.6039 136.463 89.1917 137.305 89.2568 138.234H95.7578L95.7506 138.226ZM36.1497 10.2225C23.3357 -2.37564 3.91225 13.9803 14.1157 28.7453C14.5062 29.0836 14.7665 28.3422 14.9112 28.0902C16.0537 26.1753 16.9215 24.3108 18.3027 22.475C22.6776 16.6583 29.0846 12.1374 36.1497 10.2153V10.2225ZM133.498 28.9253H112.73V48.5207C112.73 51.1411 115.398 56.4539 117.069 58.5776C129.073 73.8681 153.869 64.9271 153.197 45.6987C149.74 44.2086 147.744 41.0626 147.411 37.3624C147.245 35.5123 147.845 31.2073 147.064 29.8899C146.233 28.4861 141.207 29.2564 141.699 25.585C142.255 21.4096 148.286 23.3893 150.485 25.3114C155.156 29.386 152.003 33.9357 153.348 38.2839C154.209 41.0698 158.584 41.1346 158.982 38.1039C159.437 34.6484 159.256 23.2957 158.157 20.1858C156.313 14.945 150.854 9.81933 145.256 8.94106C136.413 7.55167 124.43 9.44499 115.326 9.02745C112.462 10.0569 109.772 11.907 108.333 14.6498C106.894 17.3926 105.527 22.7198 110.018 23.1733L133.788 23.2381C136.774 24.1164 136.441 28.335 133.506 28.9109L133.498 28.9253ZM72.2703 44.7413C72.5524 32.6471 66.8468 19.725 54.6475 15.7224C43.3087 12.0006 30.1042 16.3128 22.9958 25.7145C17.8543 32.5175 14.9979 42.9992 18.8595 50.99C19.1343 51.5659 19.6911 52.7249 20.2551 53.0129C20.3057 45.1372 24.2107 38.4638 29.4679 32.8775C30.5887 31.6896 32.9823 28.8389 34.5154 28.8965C35.9255 28.9541 40.5463 32.1216 42.412 32.9423C47.4812 35.1883 53.0421 36.4193 58.4729 37.4488C62.8406 38.2767 67.2735 37.528 70.2962 41.5018C71.1639 42.6392 71.3013 43.863 72.2703 44.7485V44.7413ZM34.8842 35.4403C27.1032 42.9848 22.7716 53.8191 28.0722 64.1208C36.7282 80.9231 62.1826 77.3524 65.9718 58.7936C66.4925 56.2596 67.0927 47.0593 65.9284 45.1372C64.822 43.3231 58.7115 43.2871 56.3179 42.8408C48.7756 41.4226 41.5443 39.2989 34.8842 35.4475V35.4403ZM144.512 69.556C141.489 70.5638 138.481 71.7588 135.256 72.0252C132.876 72.2196 130.606 71.7516 128.263 71.8884L136.029 79.6129L144.179 71.5501L144.519 69.556H144.512ZM122.485 87.8844C123.092 88.3092 129.969 83.7018 131.141 83.0323L123.693 75.6895C119.477 78.3315 121.285 84.033 122.485 87.8844ZM149.205 88.2516C150.275 85.084 151.707 80.4479 149.877 77.338C149.617 76.8989 148.496 75.6031 147.997 75.6895C147.375 75.7974 141.525 82.2405 140.542 83.2051L149.205 88.2444V88.2516ZM52.0442 79.98C46.1217 81.5134 40.2571 80.4767 34.7106 78.1803C32.5557 91.7502 51.6176 93.6076 52.0442 79.98ZM173.77 138.226V96.336C173.77 95.7528 173.054 93.3556 172.75 92.6789C170.545 87.7836 160.775 85.3576 156.436 82.4924C155.988 85.5664 154.585 91.9302 152.466 94.1835C149.935 96.8759 146.435 92.4125 143.789 91.8438L144.15 97.9557H156.971C160.074 97.9557 164.232 101.93 164.651 105.054C164.55 115.435 165.078 125.888 164.759 136.268C164.738 136.959 164.477 137.564 164.376 138.226H173.77ZM104.059 97.9557H127.54L128.256 91.4839C125.891 92.5781 123.063 95.7024 120.323 94.8746C118.385 94.2915 116.418 87.3589 115.789 85.3648C110.054 88.0356 103.17 90.1953 104.052 97.9557H104.059ZM11.2304 106.407V138.226H20.6239C20.5227 137.564 20.2624 136.959 20.2407 136.268C20.1105 132.165 19.6911 124.181 20.2841 120.452C20.7324 117.623 24.97 117.191 25.8088 120.661C26.6983 124.34 25.1435 134.8 26.3801 136.988C26.5392 137.269 27.4142 138.061 27.7396 138.154L81.1288 138.234C82.3798 138.205 83.4283 137.37 83.7537 136.175L83.8405 106.76C83.7176 105.025 82.1845 103.621 80.4201 103.693L28.7737 103.736C24.001 104.104 27.7396 111.151 23.9793 112.274C19.4235 113.635 19.8719 106.854 20.6095 104.233C21.3905 101.447 25.0857 97.9629 28.0361 97.9629H66.5069C66.3551 92.031 62.1826 87.5029 56.4047 86.459C52.0225 96.5231 39.1868 98.0853 32.0061 89.6985C31.2468 88.8059 30.7623 87.4309 30.1983 86.8046C29.4317 85.9479 24.0516 87.8988 22.844 88.4819C15.7066 91.923 11.8017 98.7116 11.2376 106.414L11.2304 106.407ZM138.372 97.9557L137.591 88.122C136.846 87.2149 135.848 86.4518 134.916 87.5029C133.534 89.065 133.983 95.6521 133.31 97.9485H138.365L138.372 97.9557ZM103.597 103.787C102.309 104.219 101.225 105.356 101.167 106.76C101.97 115.838 100.126 126.672 101.167 135.541C101.369 137.291 102.425 138.27 104.226 138.248C121.95 138.032 139.761 138.601 157.427 137.96C158.497 137.406 159.032 136.391 158.982 135.189C158.309 126.031 159.813 115.766 158.982 106.746C158.772 104.514 157.774 103.902 155.554 103.686L103.597 103.78V103.787Z" fill="white"/>
<path d="M122.239 52.768C124.004 50.8459 126.202 52.7248 128.111 52.984C129.095 53.1136 130.693 53.1064 131.691 53.0128C133.831 52.804 136.579 50.8027 138.185 53.0272C141.872 58.1312 131.105 59.0311 128.126 58.7287C125.53 58.4624 118.833 56.4683 122.239 52.7752V52.768Z" fill="white"/>
<path d="M120.576 37.6215C122.319 37.2399 123.982 38.0966 124.264 39.9107C124.626 42.2072 124.647 46.001 121.545 46.1738C117.619 46.3969 117.445 38.3054 120.569 37.6215H120.576Z" fill="white"/>
<path d="M136.688 38.3845C137.939 37.0239 140.607 37.3262 141.359 39.0827C142.032 40.6593 142.025 44.8347 140.289 45.7417C136.015 47.9878 134.555 40.7025 136.688 38.3845Z" fill="white"/>
<path d="M138.785 121.057C138.785 125.816 134.909 129.667 130.136 129.667C125.363 129.667 121.487 125.808 121.487 121.057C121.487 116.306 125.363 112.447 130.136 112.447C134.909 112.447 138.785 116.306 138.785 121.057ZM133.043 121.05C133.043 119.452 131.741 118.149 130.129 118.149C128.516 118.149 127.215 119.445 127.215 121.05C127.215 122.655 128.516 123.951 130.129 123.951C131.741 123.951 133.043 122.655 133.043 121.05Z" fill="white"/>
</g>
<defs>
<clipPath id="clip0_200_749">
<rect width="185" height="144" fill="white"/>
</clipPath>
</defs>
</svg>
