<svg width="181" height="120" viewBox="0 0 181 120" fill="none" xmlns="http://www.w3.org/2000/svg">
<g clip-path="url(#clip0_200_763)">
<path d="M37.9271 51.6483C41.3314 50.9048 41.0489 55.5641 46.3249 55.1321C49.7574 54.8489 49.4749 52.583 51.1559 51.8466C54.0304 50.5791 56.4389 53.4823 54.7509 56.1588C52.5261 59.6993 47.575 61.2642 43.5774 60.6765C41.0842 60.3083 35.9919 57.2635 35.8789 54.5798C35.8224 53.2769 36.5922 51.9457 37.9201 51.6554L37.9271 51.6483Z" fill="white"/>
<path d="M19.5147 114.47C21.5982 114.916 22.4034 119.434 18.4764 119.788C15.7925 120.028 6.10229 120.17 3.80686 119.618C1.77982 119.136 0.480249 117.019 0.289552 115.015C-0.437923 107.233 -0.105968 99.7488 5.05698 93.6238C5.56551 93.0219 7.2041 91.9102 7.27472 91.7898C7.58549 91.2517 7.24647 88.3131 7.43717 87.1802C7.82563 84.886 9.93036 82.79 11.9362 81.7987C15.3546 80.1064 23.6959 76.9129 27.2909 77.012C27.9689 77.0333 28.5551 77.2882 29.2049 77.3802C28.8165 75.3268 29.8123 69.7753 29.0354 68.1892C28.76 67.6227 25.0873 65.3214 24.2609 64.5001C21.6406 61.8872 19.6771 57.7874 19.324 54.077C9.91624 54.8771 4.03993 44.8931 10.1776 37.2882C10.5872 36.7783 11.908 35.9357 11.9362 35.7941C12.5648 33.2025 11.682 27.0209 11.915 23.8415C12.6778 13.4397 20.4964 3.81676 30.5398 1.1685C36.0276 -0.290164 50.8667 -0.141465 56.8984 0.332955C68.7216 1.26055 78.313 11.8465 79.2665 23.4946C79.4431 25.6613 78.8639 35.0718 79.4501 36.0278C79.6408 36.3464 80.5731 36.7146 81.0322 37.2669C87.2193 44.7231 81.237 54.9267 71.8999 54.0841C71.3914 58.0989 69.4279 61.9722 66.5392 64.7904C65.9036 65.4135 61.9907 68.0688 61.9907 68.3592V74.1867L81.1876 72.4023C93.8584 72.2678 106.508 72.4732 119.101 73.8327V68.3592C119.101 68.0688 115.195 65.4064 114.553 64.7904C111.565 61.9085 109.813 58.191 109.192 54.0841C99.996 54.9196 93.9431 44.978 99.9112 37.4723C100.434 36.8208 101.465 36.3322 101.649 36.0278C102.228 35.0648 101.656 25.9375 101.811 23.8274C102.659 12.2855 112.547 1.39509 124.215 0.347117C126.256 0.163013 132.626 0.00723347 134.427 0.347117C137.012 0.84278 136.871 4.92846 134.717 5.56574C133.114 6.04016 129.342 5.50201 127.372 5.62239C118.967 6.15345 111.459 10.7985 108.606 18.9628C108.358 19.6709 107.469 22.6236 107.469 23.1264V33.9035C108.387 33.9531 109.446 33.9389 110.103 33.1883C111.304 31.8217 112.335 25.7109 113.521 23.5371C114.998 20.8251 118.084 19.6355 121.029 19.4018C128.834 18.7858 141.766 18.8566 149.613 19.4018C153.709 19.6851 156.329 20.8746 158.053 24.7196C158.936 26.6951 159.931 31.8713 160.892 33.1812C161.45 33.946 162.658 33.946 163.519 33.9035V6.88279C163.519 6.43669 162.17 5.70736 161.598 5.62947C156.075 4.88597 149.019 6.28091 143.327 5.57282C140.72 4.71603 140.692 1.26763 143.256 0.361278L163.675 0.37544C166.507 1.12602 168.541 3.3565 169.127 6.21718L169.156 35.7941C177.751 42.2873 172.369 55.0683 161.775 54.077C161.401 57.8582 159.522 61.8306 156.838 64.5001C156.012 65.3214 152.339 67.6298 152.063 68.1892C151.287 69.7683 152.282 75.3197 151.894 77.3802C153.688 76.8916 155.63 76.8421 157.467 77.2669C160.27 77.9254 170.49 82.0607 172.129 84.1212C174.672 87.3147 173.068 90.487 173.824 91.7898C173.895 91.9173 175.533 93.0219 176.042 93.6238C177.85 95.7693 179.58 98.6441 180.273 101.399C180.965 104.153 181.24 113.075 180.717 115.978C180.393 117.77 178.274 119.724 176.395 119.774L141.829 119.795C138.531 119.37 139.583 114.477 141.497 114.477H175.519V106.171C175.519 105.69 174.975 103.31 174.792 102.659C174.1 100.152 172.751 98.0848 170.709 96.4774C168.824 97.8086 166.966 99.3947 164.607 99.8267C158.745 100.896 150.488 97.7874 147.833 92.2076C143.341 95.4436 139.357 96.8527 133.728 96.4703C128.516 96.1234 119.115 90.749 119.115 84.9709V79.4974L102.03 78.0671C88.646 77.9821 75.2548 77.8617 62.0049 79.8514L62.0402 82.2802C69.0677 85.5374 80.4601 87.5555 85.7996 93.2627C86.5342 94.0487 88.6248 97.6528 88.8579 97.7874C89.437 98.1272 93.9714 97.7449 95.2709 97.9007C98.7459 98.3184 103.245 102.206 103.245 105.81V114.47H133.036C133.135 114.47 134.364 115.716 134.435 115.886C135.155 117.557 134.329 119.165 132.676 119.759L101.38 119.696C92.7142 116.382 103.542 101.519 90.9061 103.516V116.056C90.9061 117.147 87.9256 119.993 86.5059 119.774H29.0142C26.9024 119.958 25.8854 118.025 26.4575 116.127C26.5563 115.808 27.863 114.463 27.9689 114.463H85.2558V103.686C85.2558 102.758 83.3771 99.3381 82.7273 98.4459C78.2494 92.3351 67.5139 91.2446 61.1008 87.6617C56.8066 95.1037 48.7761 97.9927 40.4843 95.9109C37.6027 95.1887 35.7593 93.6026 33.2731 92.1864C30.448 97.7449 22.4881 100.903 16.4988 99.8054C14.1398 99.3735 12.2823 97.7874 10.3965 96.4562C8.98394 97.5679 7.86094 98.9628 7.10522 100.598C6.519 101.852 5.59376 104.875 5.59376 106.15V114.456H19.5217L19.5147 114.47ZM73.6303 33.9106C74.0258 33.5211 73.6303 24.2735 73.6303 22.7794C73.6303 17.1147 67.1184 9.66558 62.1249 7.45634C56.1074 4.801 36.3243 4.78684 30.1796 7.1377C24.7765 9.20532 17.5794 16.7182 17.5794 22.7794V33.9106C18.4411 33.9531 19.6489 33.9531 20.2068 33.1883C21.3934 31.5739 22.1986 26.1287 23.4981 23.7707C25.0943 20.8817 27.9477 19.6638 31.1401 19.416C38.9446 18.7999 51.8696 18.8707 59.7235 19.416C62.9866 19.6426 66.2849 20.9455 67.8176 24.0256C68.9618 26.3199 69.5833 31.149 70.8546 32.9971C71.3278 33.684 73.2277 34.3213 73.6303 33.9247V33.9106ZM30.1655 25.1515C27.7147 25.6967 26.7682 31.4889 26.0478 33.7477C25.7017 34.8311 24.8118 35.8861 24.6423 36.9341C24.0702 40.6091 24.381 53.0503 25.617 56.4066C27.0013 60.1736 38.429 69.0531 42.243 70.1294C44.5455 70.7808 46.3606 70.8021 48.6702 70.1931C52.9008 69.0814 65.1408 59.6567 66.066 55.125C66.7723 51.6624 67.0901 40.3542 66.5533 36.927C66.4686 36.3818 63.1067 27.1908 62.7676 26.5818C62.245 25.633 61.5175 25.1019 60.4086 25.0595L30.1584 25.1444L30.1655 25.1515ZM120.062 25.1515C119.228 25.3639 118.734 25.8596 118.324 26.5889C117.992 27.1908 114.623 36.3889 114.538 36.9341C114.016 40.2692 114.369 53.4397 115.513 56.4066C117.01 60.2728 128.502 69.1664 132.422 70.2002C135.098 70.9012 137.57 70.7525 140.141 69.662C142.472 68.6778 152.756 60.9525 154.154 58.9699C154.754 58.1273 155.701 56.1304 155.962 55.125C156.739 52.151 156.937 40.0426 156.449 36.927C156.287 35.8791 155.39 34.824 155.044 33.7406C154.182 31.0216 153.568 25.4489 150.305 25.0595L120.055 25.1444L120.062 25.1515ZM19.3381 39.5682C11.2723 38.6477 11.2723 49.3257 19.3381 48.3981V39.5682ZM71.8646 48.3981C79.881 49.3328 79.8668 38.6902 71.8646 39.5682V48.3981ZM109.234 39.5682C101.225 38.5981 101.225 49.3753 109.234 48.3981V39.5682ZM161.761 48.3981C169.827 49.3186 169.827 38.6406 161.761 39.5682V48.3981ZM56.7077 72.4236C54.8149 73.2237 53.2398 74.6045 51.2552 75.263C47.4342 76.5305 43.7615 76.5447 39.9475 75.263C37.9629 74.5974 36.3878 73.2308 34.495 72.4236V83.2007C34.495 85.2046 37.8993 88.7734 39.6721 89.6727C44.4395 92.1085 52.1804 91.0251 55.2386 86.3234C55.5988 85.7711 56.7077 83.3423 56.7077 82.8467V72.4236ZM146.604 72.4236C144.718 73.2308 143.136 74.5974 141.151 75.263C137.288 76.5659 133.707 76.5659 129.844 75.263C127.859 74.5974 126.284 73.2308 124.391 72.4236V82.8467C124.391 83.3353 125.5 85.7711 125.86 86.3234C128.918 91.0251 136.659 92.1085 141.427 89.6727C143.192 88.7663 146.604 85.2046 146.604 83.2007V72.4236ZM25.9419 82.3935C22.9048 84.1637 16.3999 85.2542 13.8644 87.2581C11.1875 89.3753 14.1469 92.9015 16.4282 93.8858C20.0303 95.4365 26.7965 93.114 28.4633 89.524C29.6499 86.9678 29.6004 82.4431 25.9419 82.3935ZM154.62 82.3935C151.308 82.7051 151.604 87.7396 152.876 89.9913C154.26 92.4554 159.204 94.5301 161.944 94.4947C165.546 94.4452 170.808 89.8072 167.037 87.1094C166.147 86.4721 156.937 82.8325 155.694 82.5564C155.305 82.4714 155.072 82.3581 154.62 82.4006V82.3935Z" fill="white"/>
<path d="M127.824 51.6483C131.348 50.8765 130.903 55.564 136.222 55.1321C139.619 54.8559 139.471 52.59 141.046 51.8395C143.821 50.5224 146.35 53.461 144.648 56.1588C141.498 61.1721 133.707 62.1634 128.996 58.8C126.786 57.228 123.636 52.5617 127.817 51.6483H127.824Z" fill="white"/>
</g>
<defs>
<clipPath id="clip0_200_763">
<rect width="181" height="120" fill="white"/>
</clipPath>
</defs>
</svg>
