<svg width="88" height="87" viewBox="0 0 88 87" fill="none" xmlns="http://www.w3.org/2000/svg">
<path d="M41.0186 44.162H28.3102C27.5901 44.162 26.9869 43.918 26.5006 43.43C26.0143 42.942 25.7703 42.3387 25.7686 41.6203C25.7669 40.9018 26.0109 40.2986 26.5006 39.8106C26.9903 39.3226 27.5935 39.0786 28.3102 39.0786H41.0186V26.3703C41.0186 25.6501 41.2626 25.0469 41.7506 24.5606C42.2386 24.0743 42.8418 23.8303 43.5602 23.8286C44.2787 23.8269 44.8827 24.0709 45.3724 24.5606C45.8621 25.0503 46.1053 25.6535 46.1019 26.3703V39.0786H58.8102C59.5304 39.0786 60.1344 39.3226 60.6224 39.8106C61.1104 40.2986 61.3536 40.9018 61.3519 41.6203C61.3502 42.3387 61.1062 42.9428 60.6199 43.4325C60.1336 43.9222 59.5304 44.1653 58.8102 44.162H46.1019V56.8703C46.1019 57.5904 45.8579 58.1945 45.3699 58.6825C44.8819 59.1705 44.2787 59.4137 43.5602 59.412C42.8418 59.4103 42.2386 59.1663 41.7506 58.68C41.2626 58.1937 41.0186 57.5904 41.0186 56.8703V44.162Z" fill="white"/>
<path d="M87.9939 43.5C87.9939 67.5236 68.2936 87 43.9939 87C19.6942 87 0 67.5236 0 43.5C0 19.4764 19.7003 0 44 0C68.2997 0 88 19.4764 88 43.5H87.9939ZM81.0795 43.5C81.0795 20.0721 67.3433 6.62012 44 6.62012C20.6567 6.62012 6.90826 20.091 6.90826 43.5C6.90826 66.909 20.362 80.1983 43.9939 80.1983C67.6258 80.1983 81.0795 66.9279 81.0795 43.5Z" fill="white"/>
<path d="M67.0379 34.1201H66.7868C64.9369 34.1201 63.3689 32.9131 62.877 31.2193C61.7036 27.1552 58.3984 24.0159 54.1146 22.8965C52.3314 22.4292 51.0605 20.9399 51.0605 19.1829V18.9444C51.0605 16.4329 53.556 14.6272 56.1182 15.2405C63.2767 16.9634 69.1234 22.512 70.9323 29.3114C71.5831 31.745 69.6769 34.1152 67.0328 34.1152L67.0379 34.1201Z" fill="white"/>
<path d="M41.0186 44.162H28.3102C27.5901 44.162 26.9869 43.918 26.5006 43.43C26.0143 42.942 25.7703 42.3387 25.7686 41.6203C25.7669 40.9018 26.0109 40.2986 26.5006 39.8106C26.9903 39.3226 27.5935 39.0786 28.3102 39.0786H41.0186V26.3703C41.0186 25.6501 41.2626 25.0469 41.7506 24.5606C42.2386 24.0743 42.8418 23.8303 43.5602 23.8286C44.2787 23.8269 44.8827 24.0709 45.3724 24.5606C45.8621 25.0503 46.1053 25.6535 46.1019 26.3703V39.0786H58.8102C59.5304 39.0786 60.1344 39.3226 60.6224 39.8106C61.1104 40.2986 61.3536 40.9018 61.3519 41.6203C61.3502 42.3387 61.1062 42.9428 60.6199 43.4325C60.1336 43.9222 59.5304 44.1653 58.8102 44.162H46.1019V56.8703C46.1019 57.5904 45.8579 58.1945 45.3699 58.6825C44.8819 59.1705 44.2787 59.4137 43.5602 59.412C42.8418 59.4103 42.2386 59.1663 41.7506 58.68C41.2626 58.1937 41.0186 57.5904 41.0186 56.8703V44.162Z" fill="white"/>
<path d="M87.9939 43.5C87.9939 67.5236 68.2936 87 43.9939 87C19.6942 87 0 67.5236 0 43.5C0 19.4764 19.7003 0 44 0C68.2997 0 88 19.4764 88 43.5H87.9939ZM81.0795 43.5C81.0795 20.0721 67.3433 6.62012 44 6.62012C20.6567 6.62012 6.90826 20.091 6.90826 43.5C6.90826 66.909 20.362 80.1983 43.9939 80.1983C67.6258 80.1983 81.0795 66.9279 81.0795 43.5Z" fill="white"/>
<path d="M67.0379 34.1201H66.7868C64.9369 34.1201 63.3689 32.9131 62.877 31.2193C61.7036 27.1552 58.3984 24.0159 54.1146 22.8965C52.3314 22.4292 51.0605 20.9399 51.0605 19.1829V18.9444C51.0605 16.4329 53.556 14.6272 56.1182 15.2405C63.2767 16.9634 69.1234 22.512 70.9323 29.3114C71.5831 31.745 69.6769 34.1152 67.0328 34.1152L67.0379 34.1201Z" fill="white"/>
</svg>
