<svg width="185" height="251" viewBox="0 0 185 251" fill="none" xmlns="http://www.w3.org/2000/svg">
<g clip-path="url(#clip0_200_651)">
<path d="M126.261 244.114H182.359C182.752 244.114 184.224 245.401 184.509 245.882C186.069 248.544 183.714 251.108 180.916 251H3.53324C-2.052 250.342 0.0682282 244.114 2.56146 244.114H26.8067C26.2865 242.414 25.0987 241.069 24.4705 239.34C23.3613 236.314 23.1454 233.406 23.43 230.184C31.1355 205.596 40.7354 181.597 48.9513 157.156C50.3845 155.182 52.809 155.506 54.566 156.989C58.9145 160.683 65.6187 168.09 69.6825 172.501C71.5671 174.554 76.8186 179.691 76.8383 182.069L57.6875 237.011L54.2519 244.114H98.3449C96.5878 241.353 95.2332 238.338 94.9191 235.037C93.6038 221.019 96.0283 205.036 94.9191 190.89C94.8112 189.495 94.5069 188.11 94.1437 186.764L60.1022 155.624C49.5599 144.386 59.474 117.43 61.1034 103.864C60.2396 104.06 60.0531 105.013 59.7488 105.691C55.4004 115.465 51.3857 140.28 43.6311 145.958C36.3183 151.311 25.5012 149.258 20.7307 141.586C15.8227 133.688 18.954 128.128 21.2902 120.161C24.1466 110.465 27.6901 96.6829 31.4791 87.6944C34.9343 79.4721 61.1034 65.5326 69.8003 62.3105C81.0787 58.1257 98.7866 54.2061 105.903 67.124C110.104 74.747 107.562 89.0107 106.61 97.6849C104.902 113.127 102.212 128.521 99.4344 143.787C99.5326 144.288 102.114 146.684 102.742 147.284C110.89 155.015 128.735 166.773 129.707 178.159C128.489 196.391 131.267 216.598 129.707 234.595C129.412 238.013 128.077 241.304 126.261 244.143V244.114ZM105.373 241.481C112.175 247.719 122.099 242.336 122.855 233.583C124.367 215.92 121.716 196.077 122.796 178.188C122.207 173.846 117.545 169.779 114.521 166.862C108.975 161.508 102.654 156.793 97.1081 151.429C95.8909 150.25 92.3474 147.048 92.0627 145.663C91.778 144.278 94.3105 135.338 94.7621 132.873C98.2075 114.002 100.072 94.7673 101.78 75.6508C98.5117 58.5284 77.4665 66.2006 66.8163 71.0632C57.0298 75.5231 47.528 81.7414 39.2827 88.6276C35.1306 100.367 30.7625 112.155 27.1797 124.081C25.4325 129.896 22.6153 135.908 28.8091 140.368C34.1784 144.229 40.3232 141.498 42.8753 135.879C47.4004 125.898 50.0605 106.182 56.4507 98.4609C59.2089 95.1308 68.1807 86.3093 69.4076 95.2094C68.0432 107.96 64.0482 120.967 62.6445 133.59C62.2028 137.598 61.5648 147.922 64.6862 150.791C76.053 161.243 88.3719 171.253 99.6406 182C102.34 185.153 101.535 191.882 101.751 195.831C101.81 196.991 102.242 198.061 102.281 199.22C102.674 210.517 100.553 223.72 101.771 234.556C102.036 236.874 103.685 239.939 105.373 241.491V241.481ZM53.5059 166.145C52.8581 166.597 52.6912 167.294 52.3967 167.962C43.7391 187.324 38.6054 210.478 30.3601 230.253C28.3576 246.53 48.4311 248.505 51.8078 233.082L69.231 182.835L53.5157 166.145H53.5059Z" fill="white"/>
<path d="M116.328 89.217C117.438 89.05 118.468 89.885 119.361 90.4155L163.494 124.208C172.593 135.152 161.295 153.62 147.484 148.571L109.359 121.025C108.878 120.053 109.104 118.923 109.182 117.892C109.84 109.522 112.755 100.357 113.56 91.8694C113.708 90.7691 115.298 89.3742 116.328 89.217ZM119.411 98.9521L116.073 116.507L116.427 117.852L149.909 142.225C157.064 145.142 164.122 131.586 156.878 127.411L119.42 98.9521H119.411Z" fill="white"/>
<path d="M124.455 27.6138C124.455 42.8697 112.107 55.2277 96.863 55.2277C81.6189 55.2277 69.2705 42.8599 69.2705 27.6138C69.2705 12.3678 81.6287 0 96.863 0C112.097 0 124.455 12.3678 124.455 27.6138ZM117.869 27.6335C117.869 16.14 108.554 6.8175 97.0691 6.8175C85.5845 6.8175 76.2692 16.14 76.2692 27.6335C76.2692 39.127 85.5845 48.4495 97.0691 48.4495C108.554 48.4495 117.869 39.127 117.869 27.6335Z" fill="white"/>
</g>
<defs>
<clipPath id="clip0_200_651">
<rect width="185" height="251" fill="white"/>
</clipPath>
</defs>
</svg>
