<svg width="282" height="185" viewBox="0 0 282 185" fill="none" xmlns="http://www.w3.org/2000/svg">
<g clip-path="url(#clip0_200_731)">
<path d="M175.54 72.0499C175.54 91.1374 160 106.611 140.831 106.611C121.661 106.611 106.127 91.1374 106.127 72.0499C106.127 62.7241 109.839 54.2582 115.863 48.041C116.429 48.564 117.472 49.2845 119.406 50.2199C119.412 50.2199 119.418 50.2199 119.429 50.2316L122.745 51.6784C122.745 51.6784 123.048 51.7946 123.607 51.9747C117.926 56.8148 114.331 64.0024 114.331 72.0267C114.331 86.5994 126.194 98.4121 140.831 98.4121C155.467 98.4121 167.325 86.5994 167.325 72.0267C167.325 63.9908 163.718 56.7974 158.025 51.9515C158.521 51.7888 159.016 51.6087 159.517 51.4169L163.432 49.7086C163.432 49.7086 165.122 48.7964 166.014 48.2618C171.916 54.4616 175.54 62.8345 175.54 72.0499Z" fill="white"/>
<path d="M246.359 27.9716C245.729 28.1575 245.053 28.2214 244.506 28.2331H244.5C244.174 28.1749 243.812 28.1575 243.41 28.1924H233.47C240.893 31.9924 245.974 39.6971 245.974 48.5872C245.974 61.2482 235.667 71.5153 222.953 71.5153C210.239 71.5153 199.931 61.2482 199.931 48.5872C199.931 39.6971 205.012 31.9924 212.436 28.1924H202.553C202.332 28.1749 202.122 28.1691 201.924 28.1808C200.945 28.1517 200.194 28.0471 199.623 27.9019C194.705 33.3986 191.722 40.6384 191.722 48.5756C191.722 65.7513 205.706 79.6791 222.959 79.6791C240.211 79.6791 254.195 65.7513 254.195 48.5756C254.195 40.6675 251.235 33.4567 246.359 27.9716Z" fill="white"/>
<path d="M80.7635 26.5599C80.5828 26.5773 80.4022 26.5831 80.2391 26.5889H80.2332C79.9069 26.5308 79.5457 26.5134 79.1437 26.5482H65.0489C74.6688 29.2908 81.7132 38.1169 81.7132 48.5816C81.7132 61.2485 71.4 71.5098 58.6862 71.5098C45.9723 71.5098 35.6649 61.2485 35.6649 48.5816C35.6649 38.1169 42.7036 29.2908 52.3234 26.5482H38.2869C38.0655 26.5308 37.8557 26.525 37.6576 26.5366C37.3139 26.525 36.9992 26.5076 36.7079 26.4785C30.9977 32.1147 27.4609 39.9298 27.4609 48.57C27.4609 65.7516 41.445 79.6735 58.6978 79.6735C75.9506 79.6735 89.9288 65.7516 89.9288 48.57C89.9288 39.9705 86.427 32.1902 80.7635 26.5599Z" fill="white"/>
<path d="M281.546 126.21C281.027 120.417 279.028 114.937 275.969 110.109C275.002 108.575 273.924 107.11 272.753 105.722C265.79 97.4418 255.5 91.8405 244.657 91.1375C232.362 90.3414 212.616 90.1904 200.421 91.1433C189.938 91.9684 179.812 97.5639 173.123 105.722C169.696 109.9 167.173 114.745 165.967 119.975C165.915 120.207 165.862 120.44 165.816 120.672L116.172 120.73C115.817 119.347 115.38 117.988 114.867 116.663C112.869 111.439 109.728 106.692 105.789 102.741C102.952 99.8997 99.7004 97.4651 96.1578 95.5651C95.6218 95.2745 95.0741 94.9956 94.5147 94.74C93.8505 94.4204 93.1746 94.1183 92.487 93.8394C91.9451 93.6127 91.3974 93.4036 90.8381 93.2118C87.779 92.1136 84.5627 91.3989 81.259 91.1433C69.0637 90.1904 49.3171 90.3414 37.0169 91.1375C33.6491 91.3583 30.3629 92.0207 27.2281 93.0782C26.628 93.2815 26.0336 93.4965 25.4451 93.7231C24.7867 93.9846 24.1341 94.2577 23.4874 94.554C22.9571 94.7923 22.4386 95.0421 21.92 95.3036C18.1268 97.2269 14.6541 99.7486 11.6417 102.741C7.67375 106.681 4.52151 111.445 2.52296 116.75C2.28406 117.378 2.06265 118.017 1.85871 118.662C0.891483 121.718 0.402041 124.856 0.174801 128.04C0.0466135 129.847 0 131.66 0 133.484C0 136.413 0.116534 139.359 0.180627 142.293C0.238894 144.855 0.262201 147.406 0.13984 149.928C0.215587 151.038 2.42973 152.932 3.32121 153.124H76.2946C76.1956 155.878 75.275 158.777 75.106 161.497C74.7972 166.674 74.5408 176.267 75.1235 181.223C75.3449 183.1 75.9159 184.361 77.8737 184.849L202.209 185C204.546 185.052 206.137 184.123 206.509 181.752C206.976 178.794 206.981 172.943 206.847 167.94C206.777 165.424 206.673 163.118 206.568 161.502C206.556 161.322 206.539 161.142 206.521 160.962C206.253 158.353 205.309 155.779 205.385 153.124H278.358C279.529 153.124 281.4 150.759 281.586 149.393C282.251 144.35 282.017 131.485 281.546 126.21ZM79.4935 145.018H8.26224C8.33799 144.135 8.37295 143.223 8.3846 142.293C8.4487 137.633 7.84855 132.566 8.11075 128.04C8.13988 127.412 8.19232 126.802 8.26224 126.198C8.65263 122.938 9.63734 119.841 11.0824 116.994C14.1996 110.864 19.4786 105.867 25.684 102.741C27.3155 101.922 29.0052 101.23 30.7416 100.684C31.4233 100.463 32.105 100.272 32.7926 100.103C33.8297 99.8474 34.8727 99.644 35.9215 99.4929C36.6732 99.3825 37.4248 99.3012 38.1823 99.2489C38.4853 99.2257 38.8057 99.2082 39.1379 99.185C48.041 98.6388 68.4403 98.2669 80.2976 99.4871C81.4396 99.6034 82.4942 99.737 83.4556 99.8823C84.6559 100.062 85.6989 100.272 86.5671 100.51C86.6778 100.539 86.7827 100.568 86.8876 100.597C87.4469 100.76 88.0063 100.946 88.5598 101.155C89.7601 101.591 90.9546 102.125 92.1258 102.741C98.0224 105.832 103.36 111.004 106.057 116.994C106.85 118.749 107.409 120.568 107.695 122.433C102.993 123.403 98.64 125.373 94.7245 128.04C92.4404 129.591 90.302 131.381 88.3267 133.345C86.4972 135.158 84.8133 137.127 83.275 139.196C82.5234 140.207 81.8125 141.241 81.1366 142.293C80.5598 143.188 80.0121 144.1 79.4935 145.018ZM198.405 176.865H83.275V160.945C83.275 156.296 84.7666 151.747 87.2605 147.598C88.3734 145.739 89.6902 143.961 91.1702 142.293C94.3108 138.725 98.168 135.657 102.311 133.345C105.545 131.532 108.959 130.184 112.339 129.429C113.795 129.097 115.246 128.877 116.679 128.778C129.457 127.889 150.171 127.755 163.631 128.644C164.295 128.691 164.942 128.737 165.571 128.784C170.174 129.144 174.999 130.788 179.491 133.345C183.57 135.669 187.375 138.743 190.486 142.293C191.954 143.966 193.271 145.744 194.384 147.598C196.895 151.776 198.405 156.337 198.405 160.945V176.865ZM273.411 145.018H202.186C201.667 144.1 201.12 143.188 200.549 142.293C199.08 139.998 197.426 137.796 195.614 135.739C194.885 134.914 194.128 134.112 193.347 133.345C191.366 131.375 189.222 129.591 186.932 128.04C183.022 125.39 178.681 123.426 173.979 122.433C174.107 121.602 174.294 120.783 174.527 119.975C176.117 114.426 180.045 109.388 184.887 105.722C188.08 103.293 191.675 101.463 195.252 100.475C204.126 98.0229 233.283 98.5342 243.497 99.2489C249.137 99.6382 255.314 102.026 260.581 105.722C265.819 109.394 270.16 114.368 272.182 119.975C272.974 122.16 273.411 124.443 273.411 126.779V145.018Z" fill="white"/>
<path d="M158.806 26.1182C146.582 22.9573 138.908 22.5041 126.515 25.2583C120.921 26.4959 112.642 27.5302 113.539 35.1942C113.795 37.3848 116.446 40.412 116.522 41.609C116.61 42.9512 115.369 45.6763 115.217 47.2394C115.211 47.2626 115.211 47.2858 115.205 47.3091C115.211 47.4485 115.293 47.7681 115.864 48.291C116.429 48.814 117.472 49.5345 119.406 50.47C119.412 50.47 119.418 50.47 119.43 50.4816L122.745 51.9284C122.745 51.9284 123.048 52.0446 123.607 52.2247C124.12 52.3932 124.854 52.6199 125.763 52.8639V52.7767C130.483 54.119 135.395 54.822 140.318 54.8685C145.586 54.915 150.853 54.2236 155.899 52.7767V52.8755C156.598 52.6722 157.309 52.4514 158.026 52.2015C158.521 52.0388 159.016 51.8587 159.517 51.6669L163.433 49.9587C163.433 49.9587 165.123 49.0464 166.014 48.5118C166.253 48.3666 166.434 48.2562 166.515 48.1865C166.498 47.8262 166.474 47.5066 166.445 47.2394C166.294 45.6763 165.053 42.9512 165.14 41.609C165.216 40.412 167.867 37.3848 168.123 35.1942C168.875 28.762 163.718 27.3849 158.806 26.1182ZM120.98 41.9402L119.278 39.8136H119.267C116.895 36.7224 114.512 32.074 119.587 30.1798C123.45 28.7446 130.023 27.4837 134.177 26.8852C142.503 25.6825 149.74 26.9491 157.787 29.0119C159.436 29.436 162.786 30.0984 163.934 31.2431C166.603 33.9043 164.155 37.1988 162.501 39.6625C162.501 39.6741 162.483 39.6915 162.471 39.7032C162.448 39.7438 162.425 39.7787 162.402 39.8136H162.384L160.683 41.9402H142.911C144.986 41.8356 146.967 39.6625 146.967 39.6625H146.984C147.211 39.3603 147.462 38.9129 147.689 38.4074C148.493 36.5713 148.977 33.8811 146.949 33.7939C145.12 33.7125 145.475 35.4789 145.108 36.6643C144.974 37.1059 144.752 37.5358 144.461 37.9251C143.937 38.6456 143.185 39.2093 142.34 39.4417V32.3006C142.34 32.1786 143.925 32.3761 143.855 30.7085C143.814 29.7091 143.127 29.3663 142.253 29.285C140.75 29.1513 137.096 28.8434 137.9 31.3709C138.221 32.3645 139.322 32.2134 139.322 32.3006V39.4417C138.489 39.2674 137.726 38.6631 137.189 37.9251C136.904 37.53 136.683 37.0942 136.554 36.6643C136.187 35.4789 136.543 33.7125 134.713 33.7939C132.685 33.8811 133.169 36.5713 133.973 38.4074C134.2 38.9129 134.451 39.3603 134.678 39.6625H134.69C134.69 39.6625 136.671 41.8356 138.751 41.9402H120.98ZM158.672 49.5287C157.606 49.8076 156.54 50.0574 155.468 50.284C150.905 51.2428 146.297 51.7483 141.682 51.8064C141.513 51.8064 141.344 51.8122 141.175 51.8064C140.878 51.8122 140.586 51.8122 140.289 51.8064C140.138 51.8064 139.98 51.8064 139.829 51.8006C135.267 51.7367 130.71 51.2312 126.195 50.2782C125.192 50.0632 124.19 49.8308 123.188 49.5752L118.031 47.8495H163.631L158.672 49.5287Z" fill="white"/>
<path d="M164.202 38.9072L164.167 38.9479C164.167 38.9479 164.19 38.9188 164.196 38.9072H164.202Z" fill="white"/>
<path d="M222.958 17.4663C222.725 17.4663 222.492 17.4663 222.265 17.4779C222.329 17.536 222.393 17.5709 222.451 17.5709H225.493C224.659 17.5012 223.815 17.4663 222.958 17.4663Z" fill="white"/>
<path d="M243.02 14.3521C240.794 9.14587 236.039 4.86935 230.696 2.97513C228.942 2.35341 227.13 2.05708 225.324 1.64453H220.639L215.267 2.97513C209.883 4.97975 205.216 9.04128 202.944 14.3521C199.931 14.6426 194.419 13.1086 195.2 18.0127C195.619 20.6506 197.175 23.7244 197.787 26.3914C197.787 26.3914 197.624 27.3908 199.622 27.9021C200.193 28.0474 200.945 28.152 201.924 28.181C202.122 28.1694 202.332 28.1752 202.553 28.1926H243.41C243.812 28.1578 244.173 28.1752 244.499 28.2333H244.505C245.053 28.2217 245.729 28.1578 246.358 27.9718C247.174 27.722 247.914 27.2571 248.176 26.3914C248.864 23.8522 249.988 21.2142 250.588 18.6809C251.911 13.097 246.62 14.6077 243.02 14.3521ZM245.187 24.8051H202.798L200.951 24.8109L200.613 24.6657L198.509 17.5711H216.491C216.799 17.5711 217.411 16.438 217.388 16.0139C217.359 15.4793 216.531 14.3869 216.065 14.3869H206.597C206.987 13.4282 207.733 12.4055 208.403 11.6269C216.124 2.55678 229.991 2.63231 237.659 11.7373C238.288 12.4869 239.005 13.4805 239.366 14.3869H222.877C222.539 14.3869 221.595 15.3979 221.531 15.8163C221.467 16.2114 221.909 17.1818 222.265 17.4781C222.492 17.4665 222.725 17.4665 222.958 17.4665C223.815 17.4665 224.66 17.5013 225.493 17.5711H247.454L245.187 24.8051Z" fill="white"/>
<path d="M78.7539 12.7075C76.5281 7.50133 71.7735 3.22482 66.4305 1.3306C64.6766 0.708879 62.8645 0.412544 61.0583 0H56.3736L51.0014 1.3306C45.6175 3.33522 40.9504 7.39675 38.6779 12.7075C35.6655 12.9981 30.1535 11.4641 30.9343 16.3681C31.3538 19.0061 32.9095 22.0798 33.5213 24.7469C33.5213 24.7469 33.3582 25.7463 35.3567 26.2576C35.7296 26.3505 36.1725 26.4261 36.7085 26.4784C36.9999 26.5074 37.3145 26.5249 37.6583 26.5365C37.8564 26.5249 38.0661 26.5307 38.2876 26.5481H79.1443C79.5463 26.5132 79.9076 26.5307 80.2339 26.5888H80.2397C80.4029 26.5888 80.5835 26.5772 80.7641 26.5597C81.1895 26.5249 81.6556 26.4551 82.0926 26.3273C82.9083 26.0775 83.6483 25.6126 83.9105 24.7469C84.5981 22.2077 85.7226 19.5697 86.3228 17.0363C87.6454 11.4525 82.3548 12.9632 78.7539 12.7075ZM80.9214 23.1606H40.6707L36.6852 23.1664L36.3473 23.0211L34.2438 15.9265H52.225C52.5338 15.9265 53.1456 14.7935 53.1223 14.3693C53.0932 13.8348 52.2658 12.7424 51.7996 12.7424H42.3313C42.7217 11.7837 43.4675 10.761 44.1376 9.98241C51.8579 0.912246 65.7254 0.987783 73.3933 10.0928C74.0226 10.8424 74.7393 11.836 75.1006 12.7424H58.611C58.2731 12.7424 57.3292 13.7534 57.2651 14.1718C57.201 14.5669 57.6438 15.5372 57.9992 15.8336C58.2265 15.8219 58.4596 15.8219 58.6926 15.8219C59.5491 15.8219 60.394 15.8568 61.2272 15.9265H83.188L80.9214 23.1606Z" fill="white"/>
<path d="M83.456 99.8823C74.85 107.628 59.9453 121.573 59.9453 121.573C59.9453 121.573 44.4755 107.151 35.9219 99.493C36.6735 99.3826 37.4252 99.3013 38.1826 99.249C38.4856 99.2257 38.8061 99.2083 39.1382 99.1851L42.407 101.951L59.9453 117.296L77.3846 101.951L80.2979 99.4872C81.4399 99.6034 82.4946 99.7371 83.456 99.8823Z" fill="white"/>
<path d="M88.5594 101.155C85.413 104.153 81.5499 108.04 79.8485 110.178C76.8594 113.944 66.3539 122.45 62.6598 125.751C62.619 125.785 62.5782 125.82 62.5374 125.861C62.6248 126.006 62.6481 126.117 62.6481 126.117C62.6481 126.117 72.8682 136.419 74.3598 137.906C75.8573 139.399 75.7407 141.346 75.7407 141.346V145.018H61.6052C61.4245 142.026 61.0109 137.796 60.1252 137.796C59.2395 137.796 59.4959 142.02 59.7931 145.018H45.7682C45.541 142.473 45.541 140.654 45.541 140.654C45.541 140.654 54.9569 128.975 56.1048 127.261C56.4486 126.738 56.9555 126.355 57.4915 126.076C57.3633 125.96 57.2468 125.855 57.1303 125.751C53.4362 122.45 42.9306 113.944 39.9416 110.178C38.1469 107.924 33.9634 103.74 30.7412 100.684C31.4229 100.463 32.1047 100.272 32.7922 100.103C39.2948 106.251 49.9343 116.738 51.9678 118.127C53.4478 119.138 57.0778 122.514 59.898 125.199C62.7181 122.508 66.3423 119.138 67.8223 118.127C69.8092 116.767 80.035 106.704 86.5667 100.51C86.6774 100.539 86.7823 100.568 86.8872 100.597C87.4465 100.76 88.0059 100.946 88.5594 101.155Z" fill="white"/>
<path d="M247.063 99.586C238.457 107.331 223.215 121.573 223.215 121.573C223.215 121.573 207.745 107.151 199.191 99.493C199.943 99.3826 200.695 99.3013 201.452 99.249C201.755 99.2257 202.076 99.2083 202.408 99.1851L205.677 101.951L223.215 117.296L240.654 101.951L243.905 99.1909C245.047 99.3071 246.102 99.4407 247.063 99.586Z" fill="white"/>
<path d="M251.957 101.085C248.811 104.083 244.86 108.04 243.159 110.178C240.17 113.944 229.664 122.45 225.97 125.751C225.93 125.785 225.889 125.82 225.848 125.861C225.935 126.006 225.959 126.117 225.959 126.117C225.959 126.117 236.179 136.419 237.67 137.906C239.168 139.399 239.051 141.346 239.051 141.346V145.018H224.916C224.735 142.026 224.321 137.796 223.436 137.796C222.55 137.796 222.806 142.02 223.104 145.018H209.079C208.852 142.473 208.852 140.654 208.852 140.654C208.852 140.654 218.267 128.975 219.415 127.261C219.759 126.738 220.266 126.355 220.802 126.076C220.674 125.96 220.557 125.855 220.441 125.751C216.747 122.45 206.241 113.944 203.252 110.178C201.457 107.924 197.274 103.74 194.052 100.684C194.733 100.463 195.415 100.272 196.103 100.103C202.605 106.251 213.245 116.738 215.278 118.127C216.758 119.138 220.388 122.514 223.208 125.199C226.029 122.508 229.653 119.138 231.133 118.127C233.12 116.767 243.433 106.634 249.965 100.44C250.075 100.469 250.18 100.498 250.285 100.527C250.844 100.69 251.404 100.876 251.957 101.085Z" fill="white"/>
<path d="M133.425 165.86C133.425 165.86 133.565 165.709 133.53 165.611L136.6 136.343L144.979 136.279C145.131 136.314 145.224 137.424 145.253 137.674C146.378 147.377 147.205 157.133 148.242 166.842C148.271 167.156 148.056 167.383 147.875 167.609C145.754 169.446 143.837 172.031 141.705 173.792C141.04 174.338 140.697 174.396 140.003 173.844L133.419 167.197C133.436 166.755 133.39 166.296 133.419 165.855L133.425 165.86Z" fill="white"/>
<path d="M147.823 128.04C148.225 128.458 148.341 128.679 148.184 129.278L145.492 134.635L136.117 134.612L133.425 129.272V128.034H147.823V128.04Z" fill="white"/>
</g>
<defs>
<clipPath id="clip0_200_731">
<rect width="282" height="185" fill="white"/>
</clipPath>
</defs>
</svg>
