<svg width="176" height="185" viewBox="0 0 176 185" fill="none" xmlns="http://www.w3.org/2000/svg">
<g clip-path="url(#clip0_200_691)">
<path d="M88.815 0L153.762 21.4674C157.914 22.463 158.727 28.2767 155.151 30.516L134.823 37.4785L134.611 69.2966C134.364 70.8503 134.014 72.3201 133.142 73.6477C132.519 74.596 129.981 76.4852 129.923 76.6967C129.562 78.0425 129.755 80.5664 129.518 82.0362C127.743 93.131 122.486 102.854 113.525 109.715L106.281 114.292C131.925 118.876 155.413 135.085 169.227 157.059C175.242 166.629 181.629 178.344 167.422 184.387C115.902 185.616 64.1779 184.548 12.5849 184.927C5.76032 184.453 1.60795 181.057 0.0476173 174.358C0.146049 173.311 -0.0909166 172.089 0.0476173 171.082C0.368433 168.734 2.67612 164.565 3.86094 162.34C16.9342 137.736 42.4645 119.208 69.8979 114.296L62.654 109.718C53.6821 102.767 48.4761 93.2149 46.6606 82.0399C46.4127 80.5117 46.5658 78.0717 46.2596 76.7004C46.2122 76.4852 43.6676 74.6105 43.0369 73.655C42.1619 72.3274 41.8156 70.8539 41.5677 69.3039L41.3562 37.4858L21.0282 30.5233C17.419 28.2657 18.2794 22.9262 22.1401 21.5622L87.3604 0H88.815ZM148.84 26.2123L87.9619 6.2914L27.3279 26.3911L60.6052 37.1284L77.1745 28.3824C73.5435 17.0032 97.1453 16.5436 99.1941 24.3778C101.556 33.401 87.7432 34.8489 81.8665 32.5767L68.4433 39.6778L88.2354 46.2062L148.837 26.2087L148.84 26.2123ZM92.8143 26.5661C90.667 24.4362 85.7709 24.6185 83.3575 26.3911C86.223 27.8572 89.8613 27.5509 92.8143 26.5661ZM47.7033 39.6778V69.7087C47.7033 71.6855 54.9581 74.1036 56.646 74.5923C72.9456 79.3337 96.2375 79.3592 112.891 76.3247C115.512 75.8469 128.469 73.0131 128.469 69.7051V39.6741L88.6255 52.4247L86.6131 52.2496L63.7112 44.7729V52.4174C69.8869 54.2811 71.841 62.1226 67.51 66.9587C66.7517 67.8049 64.043 69.2565 63.8862 69.5191C63.168 70.7081 64.3966 74.4428 60.9807 74.6543C56.708 74.9206 58.035 70.1318 57.4663 69.22C57.397 69.1106 55.7309 68.5088 55.1622 68.0675C49.2527 63.5304 50.8677 54.9157 57.5392 52.173V42.8289L47.7033 39.6778ZM63.7331 60.8205C63.7331 59.1246 62.3587 57.7496 60.6635 57.7496C58.9683 57.7496 57.5939 59.1246 57.5939 60.8205C57.5939 62.5165 58.9683 63.8915 60.6635 63.8915C62.3587 63.8915 63.7331 62.5165 63.7331 60.8205ZM123.376 80.0813C118.264 81.3797 113.124 82.6526 107.871 83.3091C92.9419 85.1801 75.9314 84.9175 61.1593 82.0909C58.6474 81.6095 55.5924 80.3658 53.3212 80.0959C52.4462 79.9901 52.7598 81.0624 52.7853 81.7299C53.4014 98.5397 72.1764 112.403 88.2062 112.341C106.081 112.271 122.256 98.0839 123.372 80.0813H123.376ZM84.7392 118.41C54.8013 119.642 27.193 135.934 11.5386 161.286C10.2007 163.456 6.54777 169.43 6.26341 171.662C5.78948 175.379 8.1482 178.457 11.8558 178.741H164.32C173.707 176.546 169.172 169.058 166.004 163.558C149.595 135.063 117.874 117.046 84.7356 118.41H84.7392Z" fill="white"/>
</g>
<defs>
<clipPath id="clip0_200_691">
<rect width="176" height="185" fill="white"/>
</clipPath>
</defs>
</svg>
