<svg width="1608" height="538" viewBox="0 0 1608 538" fill="none" xmlns="http://www.w3.org/2000/svg">
<g opacity="0.74" filter="url(#filter0_f_171_2260)">
<ellipse cx="804" cy="269" rx="604" ry="69" fill="#EF0F12"/>
</g>
<path d="M414.648 293H391.128V266.888C390.168 267.56 389.112 268.136 388.152 268.712C387.192 269.288 386.136 269.768 385.08 270.152C380.472 272.072 375.768 273.032 370.968 273.032H299.256C296.376 273.032 293.784 273.608 291.288 274.664C288.792 275.72 286.68 277.16 284.856 278.984C283.032 280.808 281.592 282.92 280.536 285.416C279.48 287.912 279 290.504 279 293.192L255 293V249.032C255 245.192 255.672 241.448 257.208 237.992C258.648 234.536 260.664 231.56 263.256 228.968C265.752 226.472 268.824 224.456 272.28 222.92C275.736 221.48 279.384 220.712 283.32 220.712H414.648V293ZM370.968 257C373.656 257 376.248 256.52 378.744 255.464C381.24 254.408 383.352 252.968 385.176 251.144C387 249.32 388.44 247.208 389.496 244.712C390.552 242.312 391.128 239.72 391.128 236.84V236.744V236.648H290.52C288.792 236.648 287.256 237.032 285.816 237.608C284.28 238.28 283.032 239.144 281.976 240.2C280.824 241.352 279.96 242.6 279.384 244.04C278.808 245.48 278.52 247.016 278.52 248.648V263.624C279.48 262.856 280.536 262.184 281.688 261.608C282.84 261.032 283.992 260.456 285.144 259.88C289.56 257.96 294.264 257 299.256 257H370.968ZM438 293V221H461.424V277.064H559.152C561.264 277.064 563.184 276.68 565.104 275.912C567.024 275.144 568.656 273.992 570.096 272.552C571.44 271.208 572.592 269.576 573.36 267.656C574.128 265.832 574.608 263.816 574.608 261.704H596.976V263.912C596.976 267.944 596.208 271.784 594.672 275.24C593.136 278.792 591.024 281.864 588.432 284.552C585.744 287.24 582.672 289.256 579.12 290.792C575.568 292.328 571.824 293 567.792 293H438ZM780.257 236.936V221V236.936ZM644.705 236.936V255.368C646.817 253.832 649.121 252.584 651.713 251.432C656.417 249.512 661.313 248.456 666.401 248.456H721.793V264.392H666.401C661.985 264.392 657.953 265.64 654.401 267.944C650.849 270.248 648.257 273.32 646.625 277.064H780.257V293H621.281V221H780.257V236.936H644.705ZM780.257 236.936V221V236.936ZM922.649 275.912V275.816L922.745 275.912H922.649ZM898.361 265.448C899.993 268.904 902.393 271.784 905.657 273.896C908.921 276.008 912.569 277.064 916.601 277.064H964.025V293H909.113C904.313 293 899.897 292.232 895.769 290.504C891.545 288.872 887.897 286.568 884.633 283.496C884.441 283.304 884.249 283.112 884.057 282.92C883.865 282.728 883.769 282.536 883.577 282.344C881.273 280.04 879.257 277.544 877.625 274.664C875.897 271.784 874.745 268.712 873.977 265.448H847.673C844.985 265.64 842.393 266.216 840.089 267.272C837.689 268.328 835.577 269.768 833.753 271.592C832.025 273.32 830.585 275.24 829.625 277.352C828.665 279.464 827.993 281.768 827.801 284.072V284.168V293H827.705H804.281V221H941.849C944.921 221 947.801 221.672 950.489 222.824C953.177 223.976 955.481 225.608 957.497 227.624C959.513 229.64 961.145 231.944 962.297 234.632C963.449 237.32 964.121 240.2 964.121 243.272C964.121 246.344 963.449 249.224 962.297 251.912C961.145 254.6 959.513 257 957.497 259.016C955.481 261.032 953.177 262.568 950.489 263.72C947.801 264.872 944.921 265.448 941.849 265.448H898.361ZM934.361 249.512C936.089 249.512 937.529 248.936 938.777 247.688C939.257 247.112 939.641 246.536 940.025 245.768C940.409 245 940.601 244.232 940.601 243.272C940.601 241.544 939.929 240.104 938.777 238.856C937.529 237.608 936.089 236.936 934.361 236.936H827.801V255.752C828.761 255.08 829.721 254.504 830.777 253.928C831.737 253.448 832.793 252.968 833.945 252.392C837.497 250.952 841.049 249.992 844.601 249.608H846.329C846.713 249.608 847.193 249.608 847.577 249.608C847.961 249.608 848.153 249.512 848.345 249.512H934.361ZM1126.7 236.936H1063.24C1066.31 240.776 1068.81 245.096 1070.54 249.704C1072.27 254.408 1073.23 259.4 1073.23 264.584V293H1049.8V263.336C1049.8 259.688 1049.03 256.328 1047.69 253.064C1046.35 249.896 1044.43 247.112 1042.12 244.712C1039.72 242.312 1036.94 240.392 1033.77 239.048C1030.51 237.704 1027.15 236.936 1023.5 236.936H982.219V221.096H1126.7V236.936ZM1306.76 236.936V221V236.936ZM1171.21 236.936V255.368C1173.32 253.832 1175.62 252.584 1178.21 251.432C1182.92 249.512 1187.81 248.456 1192.9 248.456H1248.29V264.392H1192.9C1188.49 264.392 1184.45 265.64 1180.9 267.944C1177.35 270.248 1174.76 273.32 1173.13 277.064H1306.76V293H1147.78V221H1306.76V236.936H1171.21ZM1306.76 236.936V221V236.936Z" fill="#FF0000"/>
<path fill-rule="evenodd" clip-rule="evenodd" d="M1329 328.5H1330.04L1330.77 327.768L1360.32 298.216C1361.44 298.72 1362.69 299 1364 299C1368.97 299 1373 294.971 1373 290C1373 285.029 1368.97 281 1364 281C1359.03 281 1355 285.029 1355 290C1355 291.837 1355.55 293.545 1356.5 294.969L1327.96 323.5H234V328.5H1329Z" fill="#FF0000"/>
<defs>
<filter id="filter0_f_171_2260" x="0" y="0" width="1608" height="538" filterUnits="userSpaceOnUse" color-interpolation-filters="sRGB">
<feFlood flood-opacity="0" result="BackgroundImageFix"/>
<feBlend mode="normal" in="SourceGraphic" in2="BackgroundImageFix" result="shape"/>
<feGaussianBlur stdDeviation="100" result="effect1_foregroundBlur_171_2260"/>
</filter>
</defs>
</svg>
