<svg width="153" height="152" viewBox="0 0 153 152" fill="none" xmlns="http://www.w3.org/2000/svg">
<path d="M8.5 102.441V44.5592L47.2445 7.5H104.763L144.5 44.5703V102.43L104.751 140.5H47.256L8.5 102.441Z" fill="url(#paint0_radial_125_32)" stroke="#4DADAC" stroke-width="3"/>
<g filter="url(#filter0_f_125_32)">
<path d="M30.75 92.9594V53.3534L57.512 28H97.2985L124.75 53.3645V92.9483L97.2871 119H57.5234L30.75 92.9594Z" stroke="#4DADAC" stroke-width="3"/>
</g>
<path d="M29.25 52.7082L56.9143 26.5H97.8854L126.25 52.7082V93.5929L97.8854 120.5H56.9143L29.25 93.5929V52.7082Z" stroke="#4DADAC" stroke-width="3"/>
<g filter="url(#filter1_f_125_32)">
<circle cx="77.25" cy="73.5" r="22" stroke="#4DADAC" stroke-width="2"/>
</g>
<g filter="url(#filter2_f_125_32)">
<path d="M8.75 102.941V45.0592L47.4945 8H105.013L144.75 45.0703V102.93L105.001 141H47.506L8.75 102.941Z" stroke="#4DADAC" stroke-width="3"/>
</g>
<line x1="42.8964" y1="107.146" x2="52.8964" y2="97.1464" stroke="#4DADAC"/>
<circle cx="52.25" cy="97.5" r="2" fill="#4DADAC"/>
<line y1="-0.5" x2="14.1421" y2="-0.5" transform="matrix(-0.707107 -0.707107 -0.707107 0.707107 111.25 107.5)" stroke="#4DADAC"/>
<circle cx="2" cy="2" r="2" transform="matrix(-1 0 0 1 104.25 95.5)" fill="#4DADAC"/>
<line x1="111.604" y1="39.8536" x2="101.604" y2="49.8536" stroke="#4DADAC"/>
<circle cx="102.25" cy="49.5" r="2" transform="rotate(180 102.25 49.5)" fill="#4DADAC"/>
<line y1="-0.5" x2="14.1421" y2="-0.5" transform="matrix(0.707107 0.707107 0.707107 -0.707107 43.25 39.5)" stroke="#4DADAC"/>
<circle cx="2" cy="2" r="2" transform="matrix(1 0 0 -1 50.25 51.5)" fill="#4DADAC"/>
<g filter="url(#filter3_d_125_32)">
<mask id="path-14-outside-1_125_32" maskUnits="userSpaceOnUse" x="50" y="54" width="94" height="89" fill="black">
<rect fill="white" x="50" y="54" width="94" height="89"/>
<path fill-rule="evenodd" clip-rule="evenodd" d="M51 57C51 55.8954 51.8954 55 53 55H103C104.105 55 105 55.8954 105 57V66H143V82H105V90C105 91.1046 104.105 92 103 92H85V142H69V92H53C51.8954 92 51 91.1046 51 90V57Z"/>
</mask>
<path fill-rule="evenodd" clip-rule="evenodd" d="M51 57C51 55.8954 51.8954 55 53 55H103C104.105 55 105 55.8954 105 57V66H143V82H105V90C105 91.1046 104.105 92 103 92H85V142H69V92H53C51.8954 92 51 91.1046 51 90V57Z" fill="#88DEB1"/>
<path d="M105 66H104V67H105V66ZM143 66H144V65H143V66ZM143 82V83H144V82H143ZM105 82V81H104V82H105ZM85 92V91H84V92H85ZM85 142V143H86V142H85ZM69 142H68V143H69V142ZM69 92H70V91H69V92ZM53 54C51.3431 54 50 55.3431 50 57H52C52 56.4477 52.4477 56 53 56V54ZM103 54H53V56H103V54ZM106 57C106 55.3431 104.657 54 103 54V56C103.552 56 104 56.4477 104 57H106ZM106 66V57H104V66H106ZM105 67H143V65H105V67ZM142 66V82H144V66H142ZM143 81H105V83H143V81ZM106 90V82H104V90H106ZM103 93C104.657 93 106 91.6569 106 90H104C104 90.5523 103.552 91 103 91V93ZM85 93H103V91H85V93ZM86 142V92H84V142H86ZM69 143H85V141H69V143ZM68 92V142H70V92H68ZM53 93H69V91H53V93ZM50 90C50 91.6569 51.3431 93 53 93V91C52.4477 91 52 90.5523 52 90H50ZM50 57V90H52V57H50Z" fill="#4DADAC" mask="url(#path-14-outside-1_125_32)"/>
</g>
<g filter="url(#filter4_d_125_32)">
<path d="M76.7204 77.8656L69.6765 78.612L77.8615 61.7465L78.8194 70.7868L85.8633 70.0404L77.6783 86.9059L76.7204 77.8656Z" fill="#151F66"/>
</g>
<defs>
<filter id="filter0_f_125_32" x="25.25" y="22.5" width="105" height="102" filterUnits="userSpaceOnUse" color-interpolation-filters="sRGB">
<feFlood flood-opacity="0" result="BackgroundImageFix"/>
<feBlend mode="normal" in="SourceGraphic" in2="BackgroundImageFix" result="shape"/>
<feGaussianBlur stdDeviation="2" result="effect1_foregroundBlur_125_32"/>
</filter>
<filter id="filter1_f_125_32" x="50.25" y="46.5" width="54" height="54" filterUnits="userSpaceOnUse" color-interpolation-filters="sRGB">
<feFlood flood-opacity="0" result="BackgroundImageFix"/>
<feBlend mode="normal" in="SourceGraphic" in2="BackgroundImageFix" result="shape"/>
<feGaussianBlur stdDeviation="2" result="effect1_foregroundBlur_125_32"/>
</filter>
<filter id="filter2_f_125_32" x="0.85" y="0.0999999" width="151.8" height="148.8" filterUnits="userSpaceOnUse" color-interpolation-filters="sRGB">
<feFlood flood-opacity="0" result="BackgroundImageFix"/>
<feBlend mode="normal" in="SourceGraphic" in2="BackgroundImageFix" result="shape"/>
<feGaussianBlur stdDeviation="3.2" result="effect1_foregroundBlur_125_32"/>
</filter>
<filter id="filter3_d_125_32" x="41.8" y="45.8" width="110.4" height="105.4" filterUnits="userSpaceOnUse" color-interpolation-filters="sRGB">
<feFlood flood-opacity="0" result="BackgroundImageFix"/>
<feColorMatrix in="SourceAlpha" type="matrix" values="0 0 0 0 0 0 0 0 0 0 0 0 0 0 0 0 0 0 127 0" result="hardAlpha"/>
<feOffset/>
<feGaussianBlur stdDeviation="4.1"/>
<feComposite in2="hardAlpha" operator="out"/>
<feColorMatrix type="matrix" values="0 0 0 0 0.301961 0 0 0 0 0.678431 0 0 0 0 0.67451 0 0 0 1 0"/>
<feBlend mode="normal" in2="BackgroundImageFix" result="effect1_dropShadow_125_32"/>
<feBlend mode="normal" in="SourceGraphic" in2="effect1_dropShadow_125_32" result="shape"/>
</filter>
<filter id="filter4_d_125_32" x="64.2765" y="56.3466" width="26.9868" height="35.9594" filterUnits="userSpaceOnUse" color-interpolation-filters="sRGB">
<feFlood flood-opacity="0" result="BackgroundImageFix"/>
<feColorMatrix in="SourceAlpha" type="matrix" values="0 0 0 0 0 0 0 0 0 0 0 0 0 0 0 0 0 0 127 0" result="hardAlpha"/>
<feOffset/>
<feGaussianBlur stdDeviation="2.7"/>
<feComposite in2="hardAlpha" operator="out"/>
<feColorMatrix type="matrix" values="0 0 0 0 1 0 0 0 0 1 0 0 0 0 1 0 0 0 1 0"/>
<feBlend mode="normal" in2="BackgroundImageFix" result="effect1_dropShadow_125_32"/>
<feBlend mode="normal" in="SourceGraphic" in2="effect1_dropShadow_125_32" result="shape"/>
</filter>
<radialGradient id="paint0_radial_125_32" cx="0" cy="0" r="1" gradientUnits="userSpaceOnUse" gradientTransform="translate(76.25 74.5) rotate(90) scale(239 244.272)">
<stop stop-color="#0A022D"/>
<stop offset="1" stop-color="#210793"/>
</radialGradient>
</defs>
</svg>
