<svg width="1014" height="294" viewBox="0 0 1014 294" fill="none" xmlns="http://www.w3.org/2000/svg">
<g filter="url(#filter0_f_116_17892)">
<path d="M45.4057 33.5215C44.6166 30.3331 45.8791 23.9563 57.2414 23.9563C68.6038 23.9563 675.857 25.1157 978.063 25.6954C987.531 25.6954 997 25.1737 997 33.5215V250.043L959.126 267.435L80.913 267.435L45.4057 251.782L45.4057 217L17 206.565L17 85.6954L45.4057 71.7824L45.4057 33.5215Z" fill="black"/>
<path d="M45.4057 217L45.4057 251.782L80.913 267.435L959.126 267.435L997 250.043C997 181.348 997 41.8694 997 33.5215C997 25.1737 987.531 25.6954 978.063 25.6954C675.857 25.1157 68.6038 23.9563 57.2414 23.9563C45.8791 23.9563 44.6166 30.3331 45.4057 33.5215L45.4057 71.7824M45.4057 217L17 206.565L17 85.6954L45.4057 71.7824M45.4057 217L45.4057 71.7824" stroke="#E07902" stroke-width="14"/>
<path d="M850.237 267.435L828.932 277H724.778L703.473 267.435M324.729 23.9565L346.034 17L703.473 17.8696L722.411 24.8261" stroke="#E07902" stroke-width="14"/>
</g>
<path d="M45.4057 33.5215C44.6166 30.3331 45.8791 23.9563 57.2414 23.9563C68.6038 23.9563 675.857 25.1157 978.063 25.6954C987.531 25.6954 997 25.1737 997 33.5215V250.043L959.126 267.435L80.913 267.435L45.4057 251.782L45.4057 217L17 206.565L17 85.6954L45.4057 71.7824L45.4057 33.5215Z" fill="black"/>
<path d="M45.4057 217L45.4057 251.782L80.913 267.435L959.126 267.435L997 250.043C997 181.348 997 41.8694 997 33.5215C997 25.1737 987.531 25.6954 978.063 25.6954C675.857 25.1157 68.6038 23.9563 57.2414 23.9563C45.8791 23.9563 44.6166 30.3331 45.4057 33.5215L45.4057 71.7824M45.4057 217L17 206.565L17 85.6954L45.4057 71.7824M45.4057 217L45.4057 71.7824" stroke="#E07902" stroke-width="8"/>
<path d="M850.237 267.435L828.932 277H724.778L703.473 267.435M324.729 23.9565L346.034 17L703.473 17.8696L722.411 24.8261" stroke="#E07902" stroke-width="8"/>
<defs>
<filter id="filter0_f_116_17892" x="0" y="-0.00292969" width="1014" height="294.003" filterUnits="userSpaceOnUse" color-interpolation-filters="sRGB">
<feFlood flood-opacity="0" result="BackgroundImageFix"/>
<feBlend mode="normal" in="SourceGraphic" in2="BackgroundImageFix" result="shape"/>
<feGaussianBlur stdDeviation="5" result="effect1_foregroundBlur_116_17892"/>
</filter>
</defs>
</svg>
