<svg width="838" height="103" viewBox="0 0 838 103" fill="none" xmlns="http://www.w3.org/2000/svg">
    <g filter="url(#filter0_d_335_14)">
        <path d="M159 68.152V94H350.635L368.122 87.1579H626.064L641.365 94H833V68.152L795.11 29H198.347L159 68.152Z" fill="#343332"/>
        <path d="M159 68.152V94H350.635L368.122 87.1579H626.064L641.365 94H833V68.152L795.11 29H198.347L159 68.152Z" stroke="#0A022D" stroke-width="2"/>
    </g>
    <g filter="url(#filter1_dii_335_14)">
        <path d="M159 49.152V75H350.635L368.122 68.1579H626.064L641.365 75H833V49.152L795.11 10H198.347L159 49.152Z" fill="#4DADAC"/>
        <path d="M159 49.152V75H350.635L368.122 68.1579H626.064L641.365 75H833V49.152L795.11 10H198.347L159 49.152Z" stroke="#0A022D" stroke-width="2"/>
    </g>
    <g filter="url(#filter2_dii_335_14)">
        <path d="M159 49.152V75H350.635L368.122 68.1579H626.064L641.365 75H833V49.152L795.11 10H198.347L159 49.152Z" fill="#4DADAC"/>
        <path d="M159 49.152V75H350.635L368.122 68.1579H626.064L641.365 75H833V49.152L795.11 10H198.347L159 49.152Z" stroke="#0A022D" stroke-width="2"/>
    </g>
    <path d="M241.592 42.728V42.704L241.616 42.728H241.592ZM235.52 40.112C235.928 40.976 236.528 41.696 237.344 42.224C238.16 42.752 239.072 43.016 240.08 43.016H251.936V47H238.208C237.008 47 235.904 46.808 234.872 46.376C233.816 45.968 232.904 45.392 232.088 44.624C232.04 44.576 231.992 44.528 231.944 44.48C231.896 44.432 231.872 44.384 231.824 44.336C231.248 43.76 230.744 43.136 230.336 42.416C229.904 41.696 229.616 40.928 229.424 40.112H222.848C222.176 40.16 221.528 40.304 220.952 40.568C220.352 40.832 219.824 41.192 219.368 41.648C218.936 42.08 218.576 42.56 218.336 43.088C218.096 43.616 217.928 44.192 217.88 44.768V44.792V47H217.856H212V29H246.392C247.16 29 247.88 29.168 248.552 29.456C249.224 29.744 249.8 30.152 250.304 30.656C250.808 31.16 251.216 31.736 251.504 32.408C251.792 33.08 251.96 33.8 251.96 34.568C251.96 35.336 251.792 36.056 251.504 36.728C251.216 37.4 250.808 38 250.304 38.504C249.8 39.008 249.224 39.392 248.552 39.68C247.88 39.968 247.16 40.112 246.392 40.112H235.52ZM244.52 36.128C244.952 36.128 245.312 35.984 245.624 35.672C245.744 35.528 245.84 35.384 245.936 35.192C246.032 35 246.08 34.808 246.08 34.568C246.08 34.136 245.912 33.776 245.624 33.464C245.312 33.152 244.952 32.984 244.52 32.984H217.88V37.688C218.12 37.52 218.36 37.376 218.624 37.232C218.864 37.112 219.128 36.992 219.416 36.848C220.304 36.488 221.192 36.248 222.08 36.152H222.512C222.608 36.152 222.728 36.152 222.824 36.152C222.92 36.152 222.968 36.128 223.016 36.128H244.52ZM297.705 32.984V29V32.984ZM263.817 32.984V37.592C264.345 37.208 264.921 36.896 265.569 36.608C266.745 36.128 267.969 35.864 269.241 35.864H283.089V39.848H269.241C268.137 39.848 267.129 40.16 266.241 40.736C265.353 41.312 264.705 42.08 264.297 43.016H297.705V47H257.961V29H297.705V32.984H263.817ZM297.705 32.984V29V32.984ZM333.897 43.016C334.281 43.016 334.641 42.968 334.977 42.824C335.313 42.704 335.601 42.536 335.865 42.296C336.129 42.056 336.345 41.792 336.513 41.48C336.681 41.168 336.801 40.832 336.849 40.448H342.705C342.657 41.36 342.417 42.224 342.033 43.016C341.625 43.832 341.097 44.528 340.473 45.104C339.825 45.704 339.081 46.16 338.265 46.496C337.449 46.832 336.585 47 335.673 47H310.041C309.081 47 308.169 46.832 307.305 46.448C306.441 46.088 305.697 45.584 305.073 44.96C304.425 44.336 303.921 43.568 303.537 42.704C303.153 41.84 302.985 40.928 302.985 39.944V36.056C302.985 35.096 303.153 34.16 303.537 33.296C303.921 32.432 304.425 31.688 305.073 31.04C305.697 30.416 306.441 29.912 307.305 29.528C308.169 29.168 309.081 29 310.041 29H335.673C336.585 29 337.449 29.168 338.265 29.504C339.081 29.84 339.825 30.32 340.473 30.896C341.097 31.496 341.625 32.192 342.033 32.984C342.417 33.8 342.657 34.64 342.705 35.552H336.849C336.801 35.192 336.681 34.856 336.513 34.544C336.345 34.232 336.129 33.968 335.865 33.728C335.601 33.488 335.313 33.32 334.977 33.176C334.641 33.032 334.281 32.96 333.897 32.96H311.817C311.385 32.96 311.001 33.056 310.641 33.2C310.281 33.368 309.969 33.584 309.705 33.848C309.417 34.136 309.201 34.448 309.057 34.808C308.913 35.168 308.841 35.552 308.841 35.96V40.04C308.841 40.472 308.913 40.856 309.057 41.216C309.201 41.576 309.417 41.888 309.705 42.152C309.969 42.44 310.281 42.656 310.641 42.8C311.001 42.944 311.385 43.016 311.817 43.016H333.897ZM381.896 29.096C382.712 29.24 383.48 29.528 384.2 29.936C384.92 30.368 385.544 30.872 386.072 31.496C386.6 32.12 387.008 32.816 387.296 33.584C387.584 34.376 387.752 35.192 387.752 36.056V39.944C387.752 40.928 387.56 41.84 387.176 42.704C386.792 43.568 386.288 44.312 385.664 44.936C385.016 45.584 384.272 46.088 383.408 46.448C382.544 46.832 381.656 47 380.696 47H355.064C354.104 47 353.192 46.832 352.328 46.448C351.464 46.088 350.72 45.584 350.096 44.936C349.448 44.312 348.944 43.568 348.56 42.704C348.176 41.84 348.008 40.928 348.008 39.944V36.056C348.008 35.12 348.2 34.232 348.584 33.368C348.944 32.528 349.448 31.784 350.072 31.136C350.696 30.512 351.416 30.008 352.28 29.624C353.144 29.24 354.056 29.048 355.064 29H380.696C380.888 29 381.104 29.024 381.296 29.024C381.488 29.048 381.704 29.072 381.896 29.096ZM381.896 35.96C381.896 35.552 381.8 35.168 381.656 34.808C381.512 34.448 381.296 34.136 381.032 33.848C380.744 33.584 380.432 33.368 380.072 33.2C379.712 33.056 379.328 32.96 378.92 32.96H356.84C356.408 32.96 356.024 33.056 355.664 33.2C355.304 33.368 354.992 33.584 354.728 33.848C354.44 34.136 354.224 34.448 354.08 34.808C353.936 35.168 353.864 35.552 353.864 35.96V40.04C353.864 40.472 353.936 40.856 354.08 41.216C354.224 41.576 354.44 41.888 354.728 42.152C354.992 42.416 355.304 42.632 355.664 42.776C356.024 42.944 356.408 43.016 356.84 43.016H378.92C379.328 43.016 379.712 42.944 380.072 42.776C380.432 42.632 380.744 42.416 381.032 42.152C381.296 41.888 381.512 41.576 381.656 41.216C381.8 40.856 381.896 40.472 381.896 40.04V35.96ZM459.679 29C460.639 29 461.551 29.192 462.415 29.552C463.279 29.936 464.023 30.44 464.671 31.064C465.295 31.712 465.799 32.456 466.183 33.32C466.543 34.184 466.735 35.096 466.735 36.056V47H460.879V35.96C460.879 35.552 460.783 35.168 460.639 34.808C460.495 34.448 460.279 34.136 460.015 33.848C459.727 33.584 459.415 33.368 459.055 33.2C458.695 33.056 458.311 32.96 457.903 32.96H443.095C441.655 32.96 440.335 33.248 439.087 33.776C437.839 34.304 436.759 35.048 435.823 35.984C434.887 36.92 434.143 38 433.615 39.248C433.087 40.496 432.823 41.84 432.823 43.232V47H432.799H426.991H426.967V43.232C426.967 41.84 426.679 40.496 426.151 39.248C425.623 38 424.879 36.92 423.943 35.984C423.007 35.048 421.927 34.304 420.679 33.776C419.431 33.248 418.087 32.96 416.695 32.96H401.887C401.455 32.96 401.071 33.056 400.711 33.2C400.351 33.368 400.039 33.584 399.775 33.848C399.487 34.136 399.271 34.448 399.127 34.808C398.983 35.168 398.911 35.552 398.911 35.96V47H393.055V36.056C393.055 35.096 393.223 34.184 393.607 33.32C393.967 32.456 394.471 31.712 395.119 31.064C395.743 30.44 396.487 29.936 397.351 29.552C398.215 29.192 399.127 29 400.111 29H418.159C419.359 29 420.511 29.144 421.639 29.432C422.743 29.72 423.799 30.104 424.807 30.608C425.815 31.112 426.727 31.736 427.591 32.456C428.455 33.176 429.223 33.992 429.895 34.856C430.567 33.992 431.311 33.176 432.175 32.456C433.039 31.736 433.951 31.112 434.959 30.608C435.967 30.104 437.023 29.72 438.151 29.432C439.255 29.144 440.431 29 441.631 29H459.679ZM539.366 29C540.326 29 541.238 29.192 542.102 29.552C542.966 29.936 543.71 30.44 544.358 31.064C544.982 31.712 545.486 32.456 545.87 33.32C546.23 34.184 546.422 35.096 546.422 36.056V47H540.566V35.96C540.566 35.552 540.47 35.168 540.326 34.808C540.182 34.448 539.966 34.136 539.702 33.848C539.414 33.584 539.102 33.368 538.742 33.2C538.382 33.056 537.998 32.96 537.59 32.96H522.782C521.342 32.96 520.022 33.248 518.774 33.776C517.526 34.304 516.446 35.048 515.51 35.984C514.574 36.92 513.83 38 513.302 39.248C512.774 40.496 512.51 41.84 512.51 43.232V47H512.486H506.678H506.654V43.232C506.654 41.84 506.366 40.496 505.838 39.248C505.31 38 504.566 36.92 503.63 35.984C502.694 35.048 501.614 34.304 500.366 33.776C499.118 33.248 497.774 32.96 496.382 32.96H481.574C481.142 32.96 480.758 33.056 480.398 33.2C480.038 33.368 479.726 33.584 479.462 33.848C479.174 34.136 478.958 34.448 478.814 34.808C478.67 35.168 478.598 35.552 478.598 35.96V47H472.742V36.056C472.742 35.096 472.91 34.184 473.294 33.32C473.654 32.456 474.158 31.712 474.806 31.064C475.43 30.44 476.174 29.936 477.038 29.552C477.902 29.192 478.814 29 479.798 29H497.846C499.046 29 500.198 29.144 501.326 29.432C502.43 29.72 503.486 30.104 504.494 30.608C505.502 31.112 506.414 31.736 507.278 32.456C508.142 33.176 508.91 33.992 509.582 34.856C510.254 33.992 510.998 33.176 511.862 32.456C512.726 31.736 513.638 31.112 514.646 30.608C515.654 30.104 516.71 29.72 517.838 29.432C518.942 29.144 520.118 29 521.318 29H539.366ZM592.174 32.984V29V32.984ZM558.286 32.984V37.592C558.814 37.208 559.39 36.896 560.038 36.608C561.214 36.128 562.438 35.864 563.71 35.864H577.558V39.848H563.71C562.606 39.848 561.598 40.16 560.71 40.736C559.822 41.312 559.174 42.08 558.766 43.016H592.174V47H552.43V29H592.174V32.984H558.286ZM592.174 32.984V29V32.984ZM623.494 47C622.318 47 621.214 46.808 620.182 46.376C619.15 45.968 618.238 45.392 617.422 44.648C617.374 44.6 617.326 44.552 617.278 44.504C617.23 44.456 617.206 44.408 617.158 44.36C616.342 43.544 615.694 42.608 615.214 41.504C614.734 40.424 614.518 39.248 614.518 38C614.518 37.328 614.374 36.68 614.11 36.056C613.846 35.432 613.486 34.904 613.03 34.448C612.574 34.016 612.046 33.656 611.422 33.392C610.798 33.128 610.15 32.984 609.478 32.984H603.262V47H597.43V29H611.35C612.526 29 613.63 29.216 614.662 29.624C615.67 30.056 616.606 30.632 617.422 31.376C618.334 32.192 619.03 33.176 619.558 34.328C620.086 35.48 620.35 36.704 620.35 38C620.35 38.72 620.47 39.368 620.734 39.968C620.998 40.592 621.358 41.12 621.814 41.576C622.246 42.032 622.774 42.392 623.398 42.656C623.998 42.92 624.646 43.04 625.366 43.04H631.318V29H637.15V47H623.494ZM673.342 43.016C673.726 43.016 674.086 42.968 674.422 42.824C674.758 42.704 675.046 42.536 675.31 42.296C675.574 42.056 675.79 41.792 675.958 41.48C676.126 41.168 676.246 40.832 676.294 40.448H682.15C682.102 41.36 681.862 42.224 681.478 43.016C681.07 43.832 680.542 44.528 679.918 45.104C679.27 45.704 678.526 46.16 677.71 46.496C676.894 46.832 676.03 47 675.118 47H649.486C648.526 47 647.614 46.832 646.75 46.448C645.886 46.088 645.142 45.584 644.518 44.96C643.87 44.336 643.366 43.568 642.982 42.704C642.598 41.84 642.43 40.928 642.43 39.944V36.056C642.43 35.096 642.598 34.16 642.982 33.296C643.366 32.432 643.87 31.688 644.518 31.04C645.142 30.416 645.886 29.912 646.75 29.528C647.614 29.168 648.526 29 649.486 29H675.118C676.03 29 676.894 29.168 677.71 29.504C678.526 29.84 679.27 30.32 679.918 30.896C680.542 31.496 681.07 32.192 681.478 32.984C681.862 33.8 682.102 34.64 682.15 35.552H676.294C676.246 35.192 676.126 34.856 675.958 34.544C675.79 34.232 675.574 33.968 675.31 33.728C675.046 33.488 674.758 33.32 674.422 33.176C674.086 33.032 673.726 32.96 673.342 32.96H651.262C650.83 32.96 650.446 33.056 650.086 33.2C649.726 33.368 649.414 33.584 649.15 33.848C648.862 34.136 648.646 34.448 648.502 34.808C648.358 35.168 648.286 35.552 648.286 35.96V40.04C648.286 40.472 648.358 40.856 648.502 41.216C648.646 41.576 648.862 41.888 649.15 42.152C649.414 42.44 649.726 42.656 650.086 42.8C650.446 42.944 650.83 43.016 651.262 43.016H673.342ZM727.174 32.984V29V32.984ZM693.286 32.984V37.592C693.814 37.208 694.39 36.896 695.038 36.608C696.214 36.128 697.438 35.864 698.71 35.864H712.558V39.848H698.71C697.606 39.848 696.598 40.16 695.71 40.736C694.822 41.312 694.174 42.08 693.766 43.016H727.174V47H687.43V29H727.174V32.984H693.286ZM727.174 32.984V29V32.984ZM762.772 42.728V42.704L762.796 42.728H762.772ZM756.7 40.112C757.108 40.976 757.708 41.696 758.524 42.224C759.34 42.752 760.252 43.016 761.26 43.016H773.116V47H759.388C758.188 47 757.084 46.808 756.052 46.376C754.996 45.968 754.084 45.392 753.268 44.624C753.22 44.576 753.172 44.528 753.124 44.48C753.076 44.432 753.052 44.384 753.004 44.336C752.428 43.76 751.924 43.136 751.516 42.416C751.084 41.696 750.796 40.928 750.604 40.112H744.028C743.356 40.16 742.708 40.304 742.132 40.568C741.532 40.832 741.004 41.192 740.548 41.648C740.116 42.08 739.756 42.56 739.516 43.088C739.276 43.616 739.108 44.192 739.06 44.768V44.792V47H739.036H733.18V29H767.572C768.34 29 769.06 29.168 769.732 29.456C770.404 29.744 770.98 30.152 771.484 30.656C771.988 31.16 772.396 31.736 772.684 32.408C772.972 33.08 773.14 33.8 773.14 34.568C773.14 35.336 772.972 36.056 772.684 36.728C772.396 37.4 771.988 38 771.484 38.504C770.98 39.008 770.404 39.392 769.732 39.68C769.06 39.968 768.34 40.112 767.572 40.112H756.7ZM765.7 36.128C766.132 36.128 766.492 35.984 766.804 35.672C766.924 35.528 767.02 35.384 767.116 35.192C767.212 35 767.26 34.808 767.26 34.568C767.26 34.136 767.092 33.776 766.804 33.464C766.492 33.152 766.132 32.984 765.7 32.984H739.06V37.688C739.3 37.52 739.54 37.376 739.804 37.232C740.044 37.112 740.308 36.992 740.596 36.848C741.484 36.488 742.372 36.248 743.26 36.152H743.692C743.788 36.152 743.908 36.152 744.004 36.152C744.1 36.152 744.148 36.128 744.196 36.128H765.7Z" fill="#0A022D"/>
    <defs>
        <filter id="filter0_d_335_14" x="154" y="28" width="684" height="75" filterUnits="userSpaceOnUse" color-interpolation-filters="sRGB">
            <feFlood flood-opacity="0" result="BackgroundImageFix"/>
            <feColorMatrix in="SourceAlpha" type="matrix" values="0 0 0 0 0 0 0 0 0 0 0 0 0 0 0 0 0 0 127 0" result="hardAlpha"/>
            <feOffset dy="4"/>
            <feGaussianBlur stdDeviation="2"/>
            <feComposite in2="hardAlpha" operator="out"/>
            <feColorMatrix type="matrix" values="0 0 0 0 0 0 0 0 0 0 0 0 0 0 0 0 0 0 0.5 0"/>
            <feBlend mode="normal" in2="BackgroundImageFix" result="effect1_dropShadow_335_14"/>
            <feBlend mode="normal" in="SourceGraphic" in2="effect1_dropShadow_335_14" result="shape"/>
        </filter>
        <filter id="filter1_dii_335_14" x="154" y="5" width="684" height="79" filterUnits="userSpaceOnUse" color-interpolation-filters="sRGB">
            <feFlood flood-opacity="0" result="BackgroundImageFix"/>
            <feColorMatrix in="SourceAlpha" type="matrix" values="0 0 0 0 0 0 0 0 0 0 0 0 0 0 0 0 0 0 127 0" result="hardAlpha"/>
            <feOffset dy="4"/>
            <feGaussianBlur stdDeviation="2"/>
            <feComposite in2="hardAlpha" operator="out"/>
            <feColorMatrix type="matrix" values="0 0 0 0 0 0 0 0 0 0 0 0 0 0 0 0 0 0 0.6 0"/>
            <feBlend mode="normal" in2="BackgroundImageFix" result="effect1_dropShadow_335_14"/>
            <feBlend mode="normal" in="SourceGraphic" in2="effect1_dropShadow_335_14" result="shape"/>
            <feColorMatrix in="SourceAlpha" type="matrix" values="0 0 0 0 0 0 0 0 0 0 0 0 0 0 0 0 0 0 127 0" result="hardAlpha"/>
            <feOffset dx="4" dy="4"/>
            <feGaussianBlur stdDeviation="9"/>
            <feComposite in2="hardAlpha" operator="arithmetic" k2="-1" k3="1"/>
            <feColorMatrix type="matrix" values="0 0 0 0 0 0 0 0 0 0 0 0 0 0 0 0 0 0 0.6 0"/>
            <feBlend mode="normal" in2="shape" result="effect2_innerShadow_335_14"/>
            <feColorMatrix in="SourceAlpha" type="matrix" values="0 0 0 0 0 0 0 0 0 0 0 0 0 0 0 0 0 0 127 0" result="hardAlpha"/>
            <feOffset dx="-4" dy="-4"/>
            <feGaussianBlur stdDeviation="11"/>
            <feComposite in2="hardAlpha" operator="arithmetic" k2="-1" k3="1"/>
            <feColorMatrix type="matrix" values="0 0 0 0 0 0 0 0 0 0 0 0 0 0 0 0 0 0 0.6 0"/>
            <feBlend mode="normal" in2="effect2_innerShadow_335_14" result="effect3_innerShadow_335_14"/>
        </filter>
        <filter id="filter2_dii_335_14" x="154" y="5" width="684" height="79" filterUnits="userSpaceOnUse" color-interpolation-filters="sRGB">
            <feFlood flood-opacity="0" result="BackgroundImageFix"/>
            <feColorMatrix in="SourceAlpha" type="matrix" values="0 0 0 0 0 0 0 0 0 0 0 0 0 0 0 0 0 0 127 0" result="hardAlpha"/>
            <feOffset dy="4"/>
            <feGaussianBlur stdDeviation="2"/>
            <feComposite in2="hardAlpha" operator="out"/>
            <feColorMatrix type="matrix" values="0 0 0 0 0 0 0 0 0 0 0 0 0 0 0 0 0 0 0.6 0"/>
            <feBlend mode="normal" in2="BackgroundImageFix" result="effect1_dropShadow_335_14"/>
            <feBlend mode="normal" in="SourceGraphic" in2="effect1_dropShadow_335_14" result="shape"/>
            <feColorMatrix in="SourceAlpha" type="matrix" values="0 0 0 0 0 0 0 0 0 0 0 0 0 0 0 0 0 0 127 0" result="hardAlpha"/>
            <feOffset dx="4" dy="4"/>
            <feGaussianBlur stdDeviation="9"/>
            <feComposite in2="hardAlpha" operator="arithmetic" k2="-1" k3="1"/>
            <feColorMatrix type="matrix" values="0 0 0 0 0 0 0 0 0 0 0 0 0 0 0 0 0 0 0.6 0"/>
            <feBlend mode="normal" in2="shape" result="effect2_innerShadow_335_14"/>
            <feColorMatrix in="SourceAlpha" type="matrix" values="0 0 0 0 0 0 0 0 0 0 0 0 0 0 0 0 0 0 127 0" result="hardAlpha"/>
            <feOffset dx="-4" dy="-4"/>
            <feGaussianBlur stdDeviation="11"/>
            <feComposite in2="hardAlpha" operator="arithmetic" k2="-1" k3="1"/>
            <feColorMatrix type="matrix" values="0 0 0 0 0 0 0 0 0 0 0 0 0 0 0 0 0 0 0.6 0"/>
            <feBlend mode="normal" in2="effect2_innerShadow_335_14" result="effect3_innerShadow_335_14"/>
        </filter>
    </defs>
</svg>
