<svg width="130" height="129" viewBox="0 0 130 129" fill="none" xmlns="http://www.w3.org/2000/svg">
<path d="M117.098 32.0878C118.212 31.3692 119.33 30.6597 120.45 29.9548C111.115 14.7042 95.6894 3.56583 77.5595 0C77.1416 1.27203 76.7329 2.54407 76.3311 3.8161C93.577 7.06966 108.256 17.611 117.098 32.0878Z" fill="#4DADAC"/>
<path d="M114.832 98.9269C115.734 99.944 116.634 100.961 117.521 101.992C125.36 91.2533 130 78.0416 130 63.7577C130 60.8324 129.784 57.9577 129.403 55.1335C128.097 55.3425 126.788 55.5583 125.477 55.7305C125.833 58.3573 126.03 61.0345 126.03 63.7577C126.03 76.8477 121.874 88.9779 114.832 98.9269Z" fill="#4DADAC"/>
<path d="M33.3095 11.6731C39.2472 8.04524 45.8508 5.40244 52.8929 3.97886C52.5439 2.69535 52.2017 1.41183 51.8573 0.130615C44.4019 1.6667 37.4218 4.49778 31.1375 8.3575C31.8607 9.46422 32.5771 10.5755 33.3095 11.6731Z" fill="#4DADAC"/>
<path d="M9.8089 29.4841C3.59798 39.4377 0 51.1822 0 63.7578C0 63.7739 0.00227731 63.79 0.00227731 63.8061C1.32942 63.3813 2.66346 62.9749 3.99749 62.5662C4.22021 51.0123 7.67811 40.2459 13.4872 31.1167C12.2703 30.561 11.0442 30.0145 9.8089 29.4841Z" fill="#4DADAC"/>
<path d="M4.22949 86.7551C7.54504 95.4734 12.6768 103.303 19.1747 109.769C20.0794 108.802 20.9818 107.831 21.8818 106.86C15.912 100.894 11.1752 93.7054 8.07086 85.7058C6.78734 86.0342 5.51071 86.3992 4.22949 86.7551Z" fill="#4DADAC"/>
<path d="M103.444 111.084C92.9412 119.635 79.5687 124.788 65.0001 124.788C58.5618 124.788 52.3555 123.777 46.5234 121.922C46.0757 123.166 45.6302 124.411 45.1963 125.662C51.4439 127.667 58.0957 128.757 65.0001 128.757C80.4596 128.757 94.6563 123.311 105.825 114.262C105.042 113.192 104.249 112.134 103.444 111.084Z" fill="#4DADAC"/>
<path d="M65.5464 118.129C35.9085 118.129 11.7949 94.018 11.7949 64.3778C11.7949 34.7376 35.9085 10.6263 65.5464 10.6263C80.1059 10.6263 93.3176 16.4538 102.996 25.8907C103.746 24.993 104.504 24.1044 105.264 23.2158C94.9685 13.2645 80.9646 7.12939 65.5464 7.12939C33.9798 7.12939 8.30029 32.8089 8.30029 64.3755C8.30029 95.9421 33.9798 121.622 65.5464 121.622C93.3268 121.622 116.531 101.726 121.7 75.438C120.579 75.0684 119.459 74.7102 118.338 74.3566C113.645 99.2416 91.7723 118.129 65.5464 118.129Z" fill="#4DADAC"/>
<path d="M19.3999 61.2737C20.1875 50.6359 24.6051 40.2185 32.7218 32.0996C36.0213 28.8001 39.7157 26.155 43.6397 24.0862C43.2333 23.1701 42.8039 22.2654 42.393 21.3516C38.1521 23.565 34.1615 26.4167 30.6025 29.9757C21.8843 38.6939 17.1796 49.9034 16.3989 61.3334C17.3977 61.3127 18.3988 61.2943 19.3999 61.2737Z" fill="#4DADAC"/>
<path d="M91.3066 102.796C73.9412 114.646 50.2456 113.294 34.3153 98.7756C33.576 99.4553 32.816 100.112 32.0652 100.78C48.9414 116.354 74.1388 117.943 92.6889 105.489C92.2319 104.587 91.7704 103.689 91.3066 102.796Z" fill="#4DADAC"/>
<path d="M100.064 29.9798C91.8141 21.73 81.3324 17.0551 70.5454 15.9163V18.9448C80.561 20.0722 90.278 24.437 97.9424 32.1014C106.775 40.9344 111.255 52.4838 111.402 64.0836C112.401 63.9941 113.402 63.916 114.401 63.8379C114.192 51.5516 109.418 39.3341 100.064 29.9798Z" fill="#4DADAC"/>
<path d="M86.7117 29.606C86.342 30.3683 85.9747 31.1306 85.605 31.8952C95.5585 38.3357 102.394 49.1778 103.262 61.6777H105.783C104.904 48.179 97.4987 36.4736 86.7117 29.606Z" fill="#4DADAC"/>
<path d="M102.233 73.5713C99.3955 85.1803 91.3202 94.732 80.6709 99.6112C80.8959 100.438 81.1163 101.267 81.339 102.093C93.0583 96.8674 101.914 86.3444 104.835 73.5713H102.233Z" fill="#4DADAC"/>
<path d="M48.762 99.7167C37.5341 94.6676 29.1282 84.4408 26.6277 72.0718C25.8126 72.2922 24.9975 72.5103 24.1824 72.7285C26.8895 85.8644 35.858 96.7157 47.8137 102.059C48.1306 101.278 48.4429 100.495 48.762 99.7167Z" fill="#4DADAC"/>
<path d="M54.0869 24.5132C38.9327 28.5107 27.1515 40.882 24.0977 56.399C24.9059 56.6653 25.7141 56.9248 26.5223 57.1796C29.3029 42.4456 40.4504 30.6759 54.8148 26.9218C54.5714 26.1181 54.3303 25.3168 54.0869 24.5132Z" fill="#4DADAC"/>
</svg>
