<svg width="414" height="94" viewBox="0 0 414 94" fill="none" xmlns="http://www.w3.org/2000/svg">
<g filter="url(#filter0_d_171_2290)">
<path d="M5 59.152V85H119.867L130.349 78.1579H284.961L294.133 85H409V59.152L386.289 20H28.5849L5 59.152Z" fill="#343332"/>
<path d="M5 59.152V85H119.867L130.349 78.1579H284.961L294.133 85H409V59.152L386.289 20H28.5849L5 59.152Z" stroke="#0A022D" stroke-width="2"/>
</g>
<g filter="url(#filter1_dii_171_2290)">
<path d="M5 40.152V66H119.867L130.349 59.1579H284.961L294.133 66H409V40.152L386.289 1H28.5849L5 40.152Z" fill="#FF0000"/>
<path d="M5 40.152V66H119.867L130.349 59.1579H284.961L294.133 66H409V40.152L386.289 1H28.5849L5 40.152Z" stroke="#0A022D" stroke-width="2"/>
</g>
<path d="M111.635 30.796V30.778L111.653 30.796H111.635ZM107.081 28.834C107.387 29.482 107.837 30.022 108.449 30.418C109.061 30.814 109.745 31.012 110.501 31.012H119.393V34H109.097C108.197 34 107.369 33.856 106.595 33.532C105.803 33.226 105.119 32.794 104.507 32.218C104.471 32.182 104.435 32.146 104.399 32.11C104.363 32.074 104.345 32.038 104.309 32.002C103.877 31.57 103.499 31.102 103.193 30.562C102.869 30.022 102.653 29.446 102.509 28.834H97.5774C97.0734 28.87 96.5874 28.978 96.1554 29.176C95.7054 29.374 95.3094 29.644 94.9674 29.986C94.6434 30.31 94.3734 30.67 94.1934 31.066C94.0134 31.462 93.8874 31.894 93.8514 32.326V32.344V34H93.8334H89.4414V20.5H115.235C115.811 20.5 116.351 20.626 116.855 20.842C117.359 21.058 117.791 21.364 118.169 21.742C118.547 22.12 118.853 22.552 119.069 23.056C119.285 23.56 119.411 24.1 119.411 24.676C119.411 25.252 119.285 25.792 119.069 26.296C118.853 26.8 118.547 27.25 118.169 27.628C117.791 28.006 117.359 28.294 116.855 28.51C116.351 28.726 115.811 28.834 115.235 28.834H107.081ZM113.831 25.846C114.155 25.846 114.425 25.738 114.659 25.504C114.749 25.396 114.821 25.288 114.893 25.144C114.965 25 115.001 24.856 115.001 24.676C115.001 24.352 114.875 24.082 114.659 23.848C114.425 23.614 114.155 23.488 113.831 23.488H93.8514V27.016C94.0314 26.89 94.2114 26.782 94.4094 26.674C94.5894 26.584 94.7874 26.494 95.0034 26.386C95.6694 26.116 96.3354 25.936 97.0014 25.864H97.3254C97.3974 25.864 97.4874 25.864 97.5594 25.864C97.6314 25.864 97.6674 25.846 97.7034 25.846H113.831ZM153.72 23.488V20.5V23.488ZM128.304 23.488V26.944C128.7 26.656 129.132 26.422 129.618 26.206C130.5 25.846 131.418 25.648 132.372 25.648H142.758V28.636H132.372C131.544 28.636 130.788 28.87 130.122 29.302C129.456 29.734 128.97 30.31 128.664 31.012H153.72V34H123.912V20.5H153.72V23.488H128.304ZM153.72 23.488V20.5V23.488ZM183.875 20.5C184.451 20.5 184.991 20.608 185.495 20.824C185.999 21.04 186.431 21.346 186.809 21.724C187.187 22.102 187.493 22.534 187.709 23.038C187.925 23.542 188.033 24.082 188.033 24.658C188.033 25.234 187.925 25.774 187.709 26.278C187.493 26.782 187.187 27.214 186.809 27.592C186.431 27.97 185.999 28.258 185.495 28.474C184.991 28.69 184.451 28.798 183.875 28.798H166.109C165.335 28.798 164.633 28.996 164.021 29.392C163.391 29.788 162.923 30.31 162.599 30.94V34H158.225V20.5H183.875ZM183.659 24.658C183.659 24.334 183.533 24.064 183.299 23.83C183.065 23.614 182.795 23.488 182.471 23.488H162.599V26.764C162.725 26.692 162.851 26.638 162.995 26.566C163.139 26.494 163.265 26.44 163.409 26.368C164.291 26.008 165.191 25.81 166.109 25.81H172.463H182.471C182.795 25.81 183.065 25.702 183.299 25.468C183.533 25.252 183.659 24.982 183.659 24.658ZM221.926 34H217.516V29.104C217.336 29.23 217.138 29.338 216.958 29.446C216.778 29.554 216.58 29.644 216.382 29.716C215.518 30.076 214.636 30.256 213.736 30.256H200.29C199.75 30.256 199.264 30.364 198.796 30.562C198.328 30.76 197.932 31.03 197.59 31.372C197.248 31.714 196.978 32.11 196.78 32.578C196.582 33.046 196.492 33.532 196.492 34.036L191.992 34V25.756C191.992 25.036 192.118 24.334 192.406 23.686C192.676 23.038 193.054 22.48 193.54 21.994C194.008 21.526 194.584 21.148 195.232 20.86C195.88 20.59 196.564 20.446 197.302 20.446H221.926V34ZM213.736 27.25C214.24 27.25 214.726 27.16 215.194 26.962C215.662 26.764 216.058 26.494 216.4 26.152C216.742 25.81 217.012 25.414 217.21 24.946C217.408 24.496 217.516 24.01 217.516 23.47V23.452V23.434H198.652C198.328 23.434 198.04 23.506 197.77 23.614C197.482 23.74 197.248 23.902 197.05 24.1C196.834 24.316 196.672 24.55 196.564 24.82C196.456 25.09 196.402 25.378 196.402 25.684V28.492C196.582 28.348 196.78 28.222 196.996 28.114C197.212 28.006 197.428 27.898 197.644 27.79C198.472 27.43 199.354 27.25 200.29 27.25H213.736ZM248.499 30.796V30.778L248.517 30.796H248.499ZM243.945 28.834C244.251 29.482 244.701 30.022 245.313 30.418C245.925 30.814 246.609 31.012 247.365 31.012H256.257V34H245.961C245.061 34 244.233 33.856 243.459 33.532C242.667 33.226 241.983 32.794 241.371 32.218C241.335 32.182 241.299 32.146 241.263 32.11C241.227 32.074 241.209 32.038 241.173 32.002C240.741 31.57 240.363 31.102 240.057 30.562C239.733 30.022 239.517 29.446 239.373 28.834H234.441C233.937 28.87 233.451 28.978 233.019 29.176C232.569 29.374 232.173 29.644 231.831 29.986C231.507 30.31 231.237 30.67 231.057 31.066C230.877 31.462 230.751 31.894 230.715 32.326V32.344V34H230.697H226.305V20.5H252.099C252.675 20.5 253.215 20.626 253.719 20.842C254.223 21.058 254.655 21.364 255.033 21.742C255.411 22.12 255.717 22.552 255.933 23.056C256.149 23.56 256.275 24.1 256.275 24.676C256.275 25.252 256.149 25.792 255.933 26.296C255.717 26.8 255.411 27.25 255.033 27.628C254.655 28.006 254.223 28.294 253.719 28.51C253.215 28.726 252.675 28.834 252.099 28.834H243.945ZM250.695 25.846C251.019 25.846 251.289 25.738 251.523 25.504C251.613 25.396 251.685 25.288 251.757 25.144C251.829 25 251.865 24.856 251.865 24.676C251.865 24.352 251.739 24.082 251.523 23.848C251.289 23.614 251.019 23.488 250.695 23.488H230.715V27.016C230.895 26.89 231.075 26.782 231.273 26.674C231.453 26.584 231.651 26.494 231.867 26.386C232.533 26.116 233.199 25.936 233.865 25.864H234.189C234.261 25.864 234.351 25.864 234.423 25.864C234.495 25.864 234.531 25.846 234.567 25.846H250.695ZM290.583 23.488V20.5V23.488ZM265.167 23.488V26.944C265.563 26.656 265.995 26.422 266.481 26.206C267.363 25.846 268.281 25.648 269.235 25.648H279.621V28.636H269.235C268.407 28.636 267.651 28.87 266.985 29.302C266.319 29.734 265.833 30.31 265.527 31.012H290.583V34H260.775V20.5H290.583V23.488H265.167ZM290.583 23.488V20.5V23.488ZM317.282 30.796V30.778L317.3 30.796H317.282ZM312.728 28.834C313.034 29.482 313.484 30.022 314.096 30.418C314.708 30.814 315.392 31.012 316.148 31.012H325.04V34H314.744C313.844 34 313.016 33.856 312.242 33.532C311.45 33.226 310.766 32.794 310.154 32.218C310.118 32.182 310.082 32.146 310.046 32.11C310.01 32.074 309.992 32.038 309.956 32.002C309.524 31.57 309.146 31.102 308.84 30.562C308.516 30.022 308.3 29.446 308.156 28.834H303.224C302.72 28.87 302.234 28.978 301.802 29.176C301.352 29.374 300.956 29.644 300.614 29.986C300.29 30.31 300.02 30.67 299.84 31.066C299.66 31.462 299.534 31.894 299.498 32.326V32.344V34H299.48H295.088V20.5H320.882C321.458 20.5 321.998 20.626 322.502 20.842C323.006 21.058 323.438 21.364 323.816 21.742C324.194 22.12 324.5 22.552 324.716 23.056C324.932 23.56 325.058 24.1 325.058 24.676C325.058 25.252 324.932 25.792 324.716 26.296C324.5 26.8 324.194 27.25 323.816 27.628C323.438 28.006 323.006 28.294 322.502 28.51C321.998 28.726 321.458 28.834 320.882 28.834H312.728ZM319.478 25.846C319.802 25.846 320.072 25.738 320.306 25.504C320.396 25.396 320.468 25.288 320.54 25.144C320.612 25 320.648 24.856 320.648 24.676C320.648 24.352 320.522 24.082 320.306 23.848C320.072 23.614 319.802 23.488 319.478 23.488H299.498V27.016C299.678 26.89 299.858 26.782 300.056 26.674C300.236 26.584 300.434 26.494 300.65 26.386C301.316 26.116 301.982 25.936 302.648 25.864H302.972C303.044 25.864 303.134 25.864 303.206 25.864C303.278 25.864 303.314 25.846 303.35 25.846H319.478Z" fill="#0A022D"/>
<defs>
<filter id="filter0_d_171_2290" x="0" y="19" width="414" height="75" filterUnits="userSpaceOnUse" color-interpolation-filters="sRGB">
<feFlood flood-opacity="0" result="BackgroundImageFix"/>
<feColorMatrix in="SourceAlpha" type="matrix" values="0 0 0 0 0 0 0 0 0 0 0 0 0 0 0 0 0 0 127 0" result="hardAlpha"/>
<feOffset dy="4"/>
<feGaussianBlur stdDeviation="2"/>
<feComposite in2="hardAlpha" operator="out"/>
<feColorMatrix type="matrix" values="0 0 0 0 0 0 0 0 0 0 0 0 0 0 0 0 0 0 0.5 0"/>
<feBlend mode="normal" in2="BackgroundImageFix" result="effect1_dropShadow_171_2290"/>
<feBlend mode="normal" in="SourceGraphic" in2="effect1_dropShadow_171_2290" result="shape"/>
</filter>
<filter id="filter1_dii_171_2290" x="0" y="-4" width="414" height="79" filterUnits="userSpaceOnUse" color-interpolation-filters="sRGB">
<feFlood flood-opacity="0" result="BackgroundImageFix"/>
<feColorMatrix in="SourceAlpha" type="matrix" values="0 0 0 0 0 0 0 0 0 0 0 0 0 0 0 0 0 0 127 0" result="hardAlpha"/>
<feOffset dy="4"/>
<feGaussianBlur stdDeviation="2"/>
<feComposite in2="hardAlpha" operator="out"/>
<feColorMatrix type="matrix" values="0 0 0 0 0 0 0 0 0 0 0 0 0 0 0 0 0 0 0.6 0"/>
<feBlend mode="normal" in2="BackgroundImageFix" result="effect1_dropShadow_171_2290"/>
<feBlend mode="normal" in="SourceGraphic" in2="effect1_dropShadow_171_2290" result="shape"/>
<feColorMatrix in="SourceAlpha" type="matrix" values="0 0 0 0 0 0 0 0 0 0 0 0 0 0 0 0 0 0 127 0" result="hardAlpha"/>
<feOffset dx="4" dy="4"/>
<feGaussianBlur stdDeviation="9"/>
<feComposite in2="hardAlpha" operator="arithmetic" k2="-1" k3="1"/>
<feColorMatrix type="matrix" values="0 0 0 0 0 0 0 0 0 0 0 0 0 0 0 0 0 0 0.6 0"/>
<feBlend mode="normal" in2="shape" result="effect2_innerShadow_171_2290"/>
<feColorMatrix in="SourceAlpha" type="matrix" values="0 0 0 0 0 0 0 0 0 0 0 0 0 0 0 0 0 0 127 0" result="hardAlpha"/>
<feOffset dx="-4" dy="-4"/>
<feGaussianBlur stdDeviation="11"/>
<feComposite in2="hardAlpha" operator="arithmetic" k2="-1" k3="1"/>
<feColorMatrix type="matrix" values="0 0 0 0 0 0 0 0 0 0 0 0 0 0 0 0 0 0 0.6 0"/>
<feBlend mode="normal" in2="effect2_innerShadow_171_2290" result="effect3_innerShadow_171_2290"/>
</filter>
</defs>
</svg>
