<svg width="621" height="513" viewBox="0 0 621 513" fill="none" xmlns="http://www.w3.org/2000/svg">
<g filter="url(#filter0_d_171_1115)">
<path d="M177.613 26H243.296H385.61V33.9063H418.452V55.8008H470.147V74.6544H439.738V93.5079H475.621V121.484H512.72V143.987H538.871V163.449H595.432V193.858H557.117V216.968H516.369V252.851H557.117V269.88H535.83V292.991H574.146V311.236H512.72V333.131H532.79V362.323H502.989V385.434H475.621V410.369H461.024V433.48H431.832V451.117H402.031V465.106H419.668V487H212.887V465.106H194.034V438.346H163.016V410.369H130.783V390.299H94.2922V362.323H72.3977V333.131H94.2922V306.979H66.3159V288.733H36.5151V258.933H103.415V226.091H66.3159V189.6H100.374V163.449H25.5679V121.484H72.3977V93.5079H141.122V78.9116H119.836V52.7599H177.613V26Z" fill="#480405" stroke="#F00E12" stroke-width="12"/>
<g opacity="0.85" filter="url(#filter1_d_171_1115)">
<path d="M177.613 26H243.296H385.61V33.9063H418.452V55.8008H470.147V74.6544H439.738V93.5079H475.621V121.484H512.72V143.987H538.871V163.449H595.432V193.858H557.117V216.968H516.369V252.851H557.117V269.88H535.83V292.991H574.146V311.236H512.72V333.131H532.79V362.323H502.989V385.434H475.621V410.369H461.024V433.48H431.832V451.117H402.031V465.106H419.668V487H212.887V465.106H194.034V438.346H163.016V410.369H130.783V390.299H94.2921V362.323H72.3977V333.131H94.2921V306.979H66.3159V288.734H36.5151V258.933H103.415V226.091H66.3159V189.6H100.374V163.449H25.5679V121.484H72.3977V93.5079H141.122V78.9116H119.836V52.7599H177.613V26Z" fill="#F99FA0"/>
<path d="M177.613 26H243.296H385.61V33.9063H418.452V55.8008H470.147V74.6544H439.738V93.5079H475.621V121.484H512.72V143.987H538.871V163.449H595.432V193.858H557.117V216.968H516.369V252.851H557.117V269.88H535.83V292.991H574.146V311.236H512.72V333.131H532.79V362.323H502.989V385.434H475.621V410.369H461.024V433.48H431.832V451.117H402.031V465.106H419.668V487H212.887V465.106H194.034V438.346H163.016V410.369H130.783V390.299H94.2921V362.323H72.3977V333.131H94.2921V306.979H66.3159V288.734H36.5151V258.933H103.415V226.091H66.3159V189.6H100.374V163.449H25.5679V121.484H72.3977V93.5079H141.122V78.9116H119.836V52.7599H177.613V26Z" stroke="#F99FA0" stroke-width="12"/>
</g>
<path opacity="0.85" d="M371.974 214.572V178.194C371.974 152.578 351.141 131.83 325.464 131.83H283.782C258.104 131.83 237.272 152.578 237.272 178.194V195.985V198.985H240.272H273.741H276.741V195.985V178.194C276.741 174.334 279.884 171.187 283.782 171.187H325.464C329.362 171.187 332.504 174.334 332.504 178.194V214.572H229.955H229.881L229.807 214.576C223.454 214.888 217.525 216.929 212.064 220.631C206.735 224.165 202.168 228.966 198.342 234.957L198.342 234.957C194.526 240.932 191.527 247.826 189.315 255.606C187.094 263.422 185.941 271.658 185.845 280.303L185.845 280.319V280.336V314.92C185.845 323.851 186.948 332.307 189.172 340.277L189.178 340.301L189.185 340.324C191.493 348.104 194.589 354.997 198.501 360.968C202.42 366.952 207.031 371.746 212.357 375.275L212.368 375.282L212.379 375.289C217.862 378.855 223.738 380.684 229.955 380.684H379.291C385.504 380.684 391.339 378.856 396.737 375.282C402.159 371.755 406.821 366.959 410.744 360.968C414.661 354.989 417.712 348.089 419.927 340.301C422.248 332.324 423.4 323.859 423.4 314.92V280.336C423.4 272.425 422.489 264.852 420.655 257.627C418.923 250.434 416.456 243.984 413.228 238.306C410.012 232.507 406.177 227.61 401.703 223.659C397.286 219.678 392.398 216.94 387.049 215.525L387.035 215.522L387.022 215.518C385.772 215.2 384.481 214.965 383.151 214.808C381.902 214.65 380.615 214.572 379.291 214.572H371.974ZM270.444 313.732C270.444 306.978 272.597 299.316 276.004 291.481C279.397 283.679 283.945 275.902 288.534 268.971C293.118 262.047 297.708 256.02 301.154 251.723C302.514 250.026 303.694 248.602 304.622 247.501C305.551 248.602 306.731 250.026 308.091 251.723C311.537 256.02 316.126 262.047 320.71 268.971C325.3 275.902 329.848 283.679 333.241 291.481C336.648 299.316 338.801 306.978 338.801 313.732C338.801 324.683 335.415 333.303 329.63 339.174C323.849 345.041 315.378 348.464 304.622 348.464C293.867 348.464 285.396 345.041 279.615 339.174C273.829 333.303 270.444 324.683 270.444 313.732Z" fill="#480405" stroke="#F00E12" stroke-width="6"/>
</g>
<defs>
<filter id="filter0_d_171_1115" x="0.267872" y="0.700001" width="620.464" height="511.6" filterUnits="userSpaceOnUse" color-interpolation-filters="sRGB">
<feFlood flood-opacity="0" result="BackgroundImageFix"/>
<feColorMatrix in="SourceAlpha" type="matrix" values="0 0 0 0 0 0 0 0 0 0 0 0 0 0 0 0 0 0 127 0" result="hardAlpha"/>
<feOffset/>
<feGaussianBlur stdDeviation="9.65"/>
<feComposite in2="hardAlpha" operator="out"/>
<feColorMatrix type="matrix" values="0 0 0 0 0.941176 0 0 0 0 0.054902 0 0 0 0 0.0705882 0 0 0 1 0"/>
<feBlend mode="normal" in2="BackgroundImageFix" result="effect1_dropShadow_171_1115"/>
<feBlend mode="normal" in="SourceGraphic" in2="effect1_dropShadow_171_1115" result="shape"/>
</filter>
<filter id="filter1_d_171_1115" x="3.36787" y="3.8" width="614.264" height="505.4" filterUnits="userSpaceOnUse" color-interpolation-filters="sRGB">
<feFlood flood-opacity="0" result="BackgroundImageFix"/>
<feColorMatrix in="SourceAlpha" type="matrix" values="0 0 0 0 0 0 0 0 0 0 0 0 0 0 0 0 0 0 127 0" result="hardAlpha"/>
<feOffset/>
<feGaussianBlur stdDeviation="8.1"/>
<feComposite in2="hardAlpha" operator="out"/>
<feColorMatrix type="matrix" values="0 0 0 0 0.941176 0 0 0 0 0.054902 0 0 0 0 0.0705882 0 0 0 1 0"/>
<feBlend mode="normal" in2="BackgroundImageFix" result="effect1_dropShadow_171_1115"/>
<feBlend mode="normal" in="SourceGraphic" in2="effect1_dropShadow_171_1115" result="shape"/>
</filter>
</defs>
</svg>
