<svg width="152" height="150" viewBox="0 0 152 150" fill="none" xmlns="http://www.w3.org/2000/svg">
<path d="M8.5 47.0555V104.944L46.9629 142H104.053L143.502 104.933V47.0665L104.042 9H46.9744L8.5 47.0555Z" fill="url(#paint0_radial_125_59)" stroke="#4DADAC" stroke-width="3"/>
<g filter="url(#filter0_f_125_59)">
<path d="M30.5902 56.5374V96.1498L57.1566 121.5H96.6427L123.894 96.1387V56.5485L96.6313 30.5H57.1681L30.5902 56.5374Z" stroke="#4DADAC" stroke-width="3"/>
</g>
<g filter="url(#filter1_d_125_59)">
<path d="M29.0902 96.7918L56.5558 123H97.2327L125.394 96.7918V55.9071L97.2327 29H56.5558L29.0902 55.9071V96.7918Z" stroke="#4DADAC" stroke-width="3" shape-rendering="crispEdges"/>
</g>
<g filter="url(#filter2_f_125_59)">
<path d="M98.5803 76C98.5803 63.8429 88.7977 54 76.7455 54C64.6932 54 54.9106 63.8429 54.9106 76C54.9106 88.1571 64.6932 98 76.7455 98C88.7977 98 98.5803 88.1571 98.5803 76Z" stroke="#4DADAC" stroke-width="2"/>
</g>
<ellipse cx="22.8348" cy="23" rx="22.8348" ry="23" transform="matrix(1 0 0 -1 53.9106 99)" stroke="#4DADAC" stroke-width="2"/>
<g filter="url(#filter3_f_125_59)">
<path d="M8.74817 46.5555V104.444L47.2111 141.5H104.301L143.75 104.433V46.5665L104.29 8.5H47.2226L8.74817 46.5555Z" stroke="#4DADAC" stroke-width="3"/>
</g>
<line y1="-0.5" x2="14.0914" y2="-0.5" transform="matrix(0.704554 0.70965 0.704554 -0.70965 42.9896 42)" stroke="#4DADAC"/>
<ellipse cx="1.98564" cy="2" rx="1.98564" ry="2" transform="matrix(1 0 0 -1 49.9395 54)" fill="#4DADAC"/>
<line y1="-0.5" x2="14.0914" y2="-0.5" transform="matrix(-0.704554 0.70965 -0.704554 -0.70965 110.501 42)" stroke="#4DADAC"/>
<ellipse cx="101.566" cy="52" rx="1.98564" ry="2" transform="rotate(-180 101.566 52)" fill="#4DADAC"/>
<line y1="-0.5" x2="14.0914" y2="-0.5" transform="matrix(-0.704554 -0.70965 -0.704554 0.70965 110.501 110)" stroke="#4DADAC"/>
<ellipse cx="1.98564" cy="2" rx="1.98564" ry="2" transform="matrix(-1 0 0 1 103.552 98)" fill="#4DADAC"/>
<line y1="-0.5" x2="14.0914" y2="-0.5" transform="matrix(0.704554 -0.70965 0.704554 0.70965 42.9896 110)" stroke="#4DADAC"/>
<ellipse cx="51.9251" cy="100" rx="1.98564" ry="2" fill="#4DADAC"/>
<g filter="url(#filter4_d_125_59)">
<mask id="path-15-outside-1_125_59" maskUnits="userSpaceOnUse" x="10.2456" y="7" width="134" height="95" fill="black">
<rect fill="white" x="10.2456" y="7" width="134" height="95"/>
<path fill-rule="evenodd" clip-rule="evenodd" d="M11.2456 65.5718L11.2456 85.4281H28.0992L28.1171 85.4281C28.6632 85.4238 29.1049 84.9821 29.1092 84.436L29.1092 84.4182V81.4568H79V100.5C79 101.052 79.4477 101.5 80 101.5L143 101.5V50.5H83V18L85.99 18L86.0079 18C86.554 17.9957 86.9957 17.554 87 17.0079L87 16.99V8L67 8V16.99L67 17.0079C67.0043 17.554 67.446 17.9957 67.9921 18L68.01 18H71V69.543H29.1092V66.5818L29.1092 66.5639C29.1049 66.0178 28.6632 65.5761 28.1171 65.5718L28.0992 65.5718H11.2456Z"/>
</mask>
<path fill-rule="evenodd" clip-rule="evenodd" d="M11.2456 65.5718L11.2456 85.4281H28.0992L28.1171 85.4281C28.6632 85.4238 29.1049 84.9821 29.1092 84.436L29.1092 84.4182V81.4568H79V100.5C79 101.052 79.4477 101.5 80 101.5L143 101.5V50.5H83V18L85.99 18L86.0079 18C86.554 17.9957 86.9957 17.554 87 17.0079L87 16.99V8L67 8V16.99L67 17.0079C67.0043 17.554 67.446 17.9957 67.9921 18L68.01 18H71V69.543H29.1092V66.5818L29.1092 66.5639C29.1049 66.0178 28.6632 65.5761 28.1171 65.5718L28.0992 65.5718H11.2456Z" fill="#88DEB1"/>
<path d="M11.2456 85.4281V85.9281H10.7456V85.4281H11.2456ZM11.2456 65.5718H10.7456V65.0718H11.2456V65.5718ZM28.0992 85.4281L28.1001 85.9281H28.0992V85.4281ZM28.1171 85.4281L28.121 85.9281L28.118 85.9281L28.1171 85.4281ZM29.1092 84.436L29.6092 84.4369L29.6092 84.4399L29.1092 84.436ZM29.1092 84.4182H29.6092L29.6092 84.419L29.1092 84.4182ZM29.1092 81.4568H28.6092V80.9568H29.1092V81.4568ZM79 81.4568V80.9568H79.5V81.4568H79ZM143 101.5H143.5V102H143V101.5ZM143 50.5V50H143.5V50.5H143ZM83 50.5V51H82.5V50.5H83ZM83 18H82.5V17.5H83V18ZM85.99 18L85.9909 18.5H85.99V18ZM86.0079 18L86.0118 18.5L86.0087 18.5L86.0079 18ZM87 17.0079L87.5 17.0087L87.5 17.0118L87 17.0079ZM87 16.99L87.5 16.99L87.5 16.9909L87 16.99ZM87 8V7.5H87.5V8H87ZM67 8H66.5V7.5H67V8ZM67 16.99L66.5 16.9909V16.99H67ZM67 17.0079L66.5 17.0118L66.5 17.0087L67 17.0079ZM67.9921 18L67.9913 18.5L67.9882 18.5L67.9921 18ZM68.01 18V18.5L68.0091 18.5L68.01 18ZM71 18V17.5H71.5V18H71ZM71 69.543H71.5V70.043H71V69.543ZM29.1092 69.543V70.043H28.6092V69.543H29.1092ZM29.1092 66.5818L29.6092 66.5809V66.5818H29.1092ZM29.1092 66.5639L29.6092 66.56L29.6092 66.5631L29.1092 66.5639ZM28.1171 65.5718L28.118 65.0718L28.121 65.0718L28.1171 65.5718ZM28.0992 65.5718L28.0992 65.0718L28.1001 65.0718L28.0992 65.5718ZM10.7456 85.4281L10.7456 65.5718H11.7456L11.7456 85.4281H10.7456ZM28.0992 85.9281H11.2456V84.9281H28.0992V85.9281ZM28.118 85.9281L28.1001 85.9281L28.0984 84.9281L28.1162 84.9281L28.118 85.9281ZM29.6092 84.4399C29.6028 85.2591 28.9402 85.9217 28.121 85.9281L28.1132 84.9281C28.3862 84.926 28.6071 84.7051 28.6092 84.4321L29.6092 84.4399ZM29.6092 84.419L29.6092 84.4369L28.6092 84.4351L28.6092 84.4173L29.6092 84.419ZM29.6092 81.4568V84.4182H28.6092V81.4568H29.6092ZM79 81.9568H29.1092V80.9568H79V81.9568ZM78.5 100.5V81.4568H79.5V100.5H78.5ZM80 102C79.1716 102 78.5 101.328 78.5 100.5H79.5C79.5 100.776 79.7239 101 80 101V102ZM143 102L80 102V101L143 101V102ZM143.5 50.5V101.5H142.5V50.5H143.5ZM83 50H143V51H83V50ZM82.5 50.5V18H83.5V50.5H82.5ZM85.99 18.5L83 18.5V17.5L85.99 17.5V18.5ZM86.0087 18.5L85.9909 18.5L85.9891 17.5L86.007 17.5L86.0087 18.5ZM87.5 17.0118C87.4935 17.831 86.831 18.4935 86.0118 18.5L86.0039 17.5C86.277 17.4978 86.4978 17.277 86.5 17.0039L87.5 17.0118ZM87.5 16.9909L87.5 17.0087L86.5 17.007L86.5 16.9891L87.5 16.9909ZM87.5 8V16.99H86.5V8H87.5ZM67 7.5L87 7.5V8.5L67 8.5V7.5ZM66.5 16.99V8H67.5V16.99H66.5ZM66.5 17.0087L66.5 16.9909L67.5 16.9891L67.5 17.007L66.5 17.0087ZM67.9882 18.5C67.169 18.4935 66.5065 17.831 66.5 17.0118L67.5 17.0039C67.5022 17.277 67.723 17.4978 67.9961 17.5L67.9882 18.5ZM68.0091 18.5L67.9913 18.5L67.993 17.5L68.0109 17.5L68.0091 18.5ZM71 18.5H68.01V17.5H71V18.5ZM71.5 18V69.543H70.5V18H71.5ZM29.1092 69.043H71V70.043H29.1092V69.043ZM29.6092 66.5818V69.543H28.6092V66.5818H29.6092ZM29.6092 66.5631L29.6092 66.5809L28.6092 66.5826L28.6092 66.5648L29.6092 66.5631ZM28.121 65.0718C28.9402 65.0783 29.6028 65.7408 29.6092 66.56L28.6092 66.5678C28.6071 66.2948 28.3862 66.0739 28.1132 66.0718L28.121 65.0718ZM28.1001 65.0718L28.118 65.0718L28.1162 66.0718L28.0984 66.0718L28.1001 65.0718ZM11.2456 65.0718H28.0992V66.0718H11.2456V65.0718Z" fill="#4DADAC" mask="url(#path-15-outside-1_125_59)"/>
</g>
<path d="M111.667 64.8333L105.187 77.8066H109.667V86.1666L116.333 73.1933H111.667V64.8333ZM111 88.8333C107.333 88.8333 104.2 87.4999 101.6 84.8999C99 82.2999 97.6666 79.1666 97.6666 75.4999C97.6666 71.8333 99 68.6999 101.6 66.0999C104.2 63.4999 107.333 62.1666 111 62.1666C114.667 62.1666 117.8 63.4999 120.4 66.0999C123 68.6999 124.333 71.8333 124.333 75.4999C124.333 79.1666 123 82.2999 120.4 84.8999C117.8 87.4999 114.667 88.8333 111 88.8333Z" fill="black"/>
<defs>
<filter id="filter0_f_125_59" x="25.0902" y="25" width="104.303" height="102" filterUnits="userSpaceOnUse" color-interpolation-filters="sRGB">
<feFlood flood-opacity="0" result="BackgroundImageFix"/>
<feBlend mode="normal" in="SourceGraphic" in2="BackgroundImageFix" result="shape"/>
<feGaussianBlur stdDeviation="2" result="effect1_foregroundBlur_125_59"/>
</filter>
<filter id="filter1_d_125_59" x="23.5902" y="27.5" width="107.303" height="105" filterUnits="userSpaceOnUse" color-interpolation-filters="sRGB">
<feFlood flood-opacity="0" result="BackgroundImageFix"/>
<feColorMatrix in="SourceAlpha" type="matrix" values="0 0 0 0 0 0 0 0 0 0 0 0 0 0 0 0 0 0 127 0" result="hardAlpha"/>
<feOffset dy="4"/>
<feGaussianBlur stdDeviation="2"/>
<feComposite in2="hardAlpha" operator="out"/>
<feColorMatrix type="matrix" values="0 0 0 0 0 0 0 0 0 0 0 0 0 0 0 0 0 0 0.25 0"/>
<feBlend mode="normal" in2="BackgroundImageFix" result="effect1_dropShadow_125_59"/>
<feBlend mode="normal" in="SourceGraphic" in2="effect1_dropShadow_125_59" result="shape"/>
</filter>
<filter id="filter2_f_125_59" x="49.9106" y="49" width="53.6697" height="54" filterUnits="userSpaceOnUse" color-interpolation-filters="sRGB">
<feFlood flood-opacity="0" result="BackgroundImageFix"/>
<feBlend mode="normal" in="SourceGraphic" in2="BackgroundImageFix" result="shape"/>
<feGaussianBlur stdDeviation="2" result="effect1_foregroundBlur_125_59"/>
</filter>
<filter id="filter3_f_125_59" x="0.848169" y="0.6" width="150.802" height="148.8" filterUnits="userSpaceOnUse" color-interpolation-filters="sRGB">
<feFlood flood-opacity="0" result="BackgroundImageFix"/>
<feBlend mode="normal" in="SourceGraphic" in2="BackgroundImageFix" result="shape"/>
<feGaussianBlur stdDeviation="3.2" result="effect1_foregroundBlur_125_59"/>
</filter>
<filter id="filter4_d_125_59" x="6.74561" y="3.5" width="140.754" height="102.5" filterUnits="userSpaceOnUse" color-interpolation-filters="sRGB">
<feFlood flood-opacity="0" result="BackgroundImageFix"/>
<feColorMatrix in="SourceAlpha" type="matrix" values="0 0 0 0 0 0 0 0 0 0 0 0 0 0 0 0 0 0 127 0" result="hardAlpha"/>
<feOffset/>
<feGaussianBlur stdDeviation="2"/>
<feComposite in2="hardAlpha" operator="out"/>
<feColorMatrix type="matrix" values="0 0 0 0 0.301961 0 0 0 0 0.678431 0 0 0 0 0.67451 0 0 0 1 0"/>
<feBlend mode="normal" in2="BackgroundImageFix" result="effect1_dropShadow_125_59"/>
<feBlend mode="normal" in="SourceGraphic" in2="effect1_dropShadow_125_59" result="shape"/>
</filter>
<radialGradient id="paint0_radial_125_59" cx="0" cy="0" r="1" gradientUnits="userSpaceOnUse" gradientTransform="translate(75.7527 75) rotate(-90) scale(239 242.518)">
<stop stop-color="#0A022D"/>
<stop offset="1" stop-color="#210793"/>
</radialGradient>
</defs>
</svg>
