<svg width="417" height="67" viewBox="0 0 417 67" fill="none" xmlns="http://www.w3.org/2000/svg">
<path d="M116.176 21.4622V27.5771H108.173V21.4622H116.176Z" fill="#4DADAC"/>
<mask id="mask0_182_488" style="mask-type:luminance" maskUnits="userSpaceOnUse" x="108" y="21" width="9" height="7">
<path d="M116.176 21.4622V27.5771H108.173V21.4622H116.176Z" fill="white"/>
</mask>
<g mask="url(#mask0_182_488)">
<path d="M116.176 21.4622H108.173V27.5771H116.176V21.4622Z" fill="#4DADAC"/>
</g>
<path d="M108.173 29.449H116.176V35.4458H108.173V29.449Z" fill="#4DADAC"/>
<mask id="mask1_182_488" style="mask-type:luminance" maskUnits="userSpaceOnUse" x="108" y="29" width="9" height="7">
<path d="M108.173 29.449H116.176V35.4458H108.173V29.449Z" fill="white"/>
</mask>
<g mask="url(#mask1_182_488)">
<path d="M116.176 29.449H108.173V35.4458H116.176V29.449Z" fill="#4DADAC"/>
</g>
<path d="M108.173 37.3179H116.176V43.2609H108.173V37.3179Z" fill="#4DADAC"/>
<mask id="mask2_182_488" style="mask-type:luminance" maskUnits="userSpaceOnUse" x="108" y="37" width="9" height="7">
<path d="M108.173 37.3179H116.176V43.2609H108.173V37.3179Z" fill="white"/>
</mask>
<g mask="url(#mask2_182_488)">
<path d="M116.176 37.3179H108.173V43.2614H116.176V37.3179Z" fill="#4DADAC"/>
</g>
<path d="M108.173 45.1296H116.176V51.0793H108.173V45.1296Z" fill="#4DADAC"/>
<mask id="mask3_182_488" style="mask-type:luminance" maskUnits="userSpaceOnUse" x="108" y="45" width="9" height="7">
<path d="M108.173 45.1296H116.176V51.0793H108.173V45.1296Z" fill="white"/>
</mask>
<g mask="url(#mask3_182_488)">
<path d="M116.176 45.1296H108.173V51.0793H116.176V45.1296Z" fill="#4DADAC"/>
</g>
<path d="M108.173 52.9521H116.176V58.898H108.173V52.9521Z" fill="#4DADAC"/>
<mask id="mask4_182_488" style="mask-type:luminance" maskUnits="userSpaceOnUse" x="108" y="52" width="9" height="7">
<path d="M108.173 52.9521H116.176V58.898H108.173V52.9521Z" fill="white"/>
</mask>
<g mask="url(#mask4_182_488)">
<path d="M116.176 52.9521H108.173V58.898H116.176V52.9521Z" fill="#4DADAC"/>
</g>
<path d="M108.173 60.7703H116.176V66.407H108.173V60.7703Z" fill="#4DADAC"/>
<mask id="mask5_182_488" style="mask-type:luminance" maskUnits="userSpaceOnUse" x="108" y="60" width="9" height="7">
<path d="M108.173 60.7703H116.176V66.407H108.173V60.7703Z" fill="white"/>
</mask>
<g mask="url(#mask5_182_488)">
<path d="M116.176 60.7703H108.173V66.407H116.176V60.7703Z" fill="#4DADAC"/>
</g>
<path d="M236.362 21.4622V27.5771H228.359V21.4622H236.362Z" fill="#4DADAC"/>
<mask id="mask6_182_488" style="mask-type:luminance" maskUnits="userSpaceOnUse" x="228" y="21" width="9" height="7">
<path d="M236.362 21.4622V27.5771H228.359V21.4622H236.362Z" fill="white"/>
</mask>
<g mask="url(#mask6_182_488)">
<path d="M236.362 21.4622H228.359V27.5771H236.362V21.4622Z" fill="#4DADAC"/>
</g>
<path d="M228.359 29.449H236.362V35.4458H228.359V29.449Z" fill="#4DADAC"/>
<mask id="mask7_182_488" style="mask-type:luminance" maskUnits="userSpaceOnUse" x="228" y="29" width="9" height="7">
<path d="M228.359 29.449H236.362V35.4458H228.359V29.449Z" fill="white"/>
</mask>
<g mask="url(#mask7_182_488)">
<path d="M236.362 29.449H228.359V35.4458H236.362V29.449Z" fill="#4DADAC"/>
</g>
<path d="M228.359 37.3179H236.362V43.2609H228.359V37.3179Z" fill="#4DADAC"/>
<mask id="mask8_182_488" style="mask-type:luminance" maskUnits="userSpaceOnUse" x="228" y="37" width="9" height="7">
<path d="M228.359 37.3179H236.362V43.2609H228.359V37.3179Z" fill="white"/>
</mask>
<g mask="url(#mask8_182_488)">
<path d="M236.362 37.3179H228.359V43.2614H236.362V37.3179Z" fill="#4DADAC"/>
</g>
<path d="M228.359 45.1296H236.362V51.0793H228.359V45.1296Z" fill="#4DADAC"/>
<mask id="mask9_182_488" style="mask-type:luminance" maskUnits="userSpaceOnUse" x="228" y="45" width="9" height="7">
<path d="M228.359 45.1296H236.362V51.0793H228.359V45.1296Z" fill="white"/>
</mask>
<g mask="url(#mask9_182_488)">
<path d="M236.362 45.1296H228.359V51.0793H236.362V45.1296Z" fill="#4DADAC"/>
</g>
<path d="M228.359 52.9521H236.362V58.898H228.359V52.9521Z" fill="#4DADAC"/>
<mask id="mask10_182_488" style="mask-type:luminance" maskUnits="userSpaceOnUse" x="228" y="52" width="9" height="7">
<path d="M228.359 52.9521H236.362V58.898H228.359V52.9521Z" fill="white"/>
</mask>
<g mask="url(#mask10_182_488)">
<path d="M236.362 52.9521H228.359V58.898H236.362V52.9521Z" fill="#4DADAC"/>
</g>
<path d="M228.359 60.7703H236.362V66.407H228.359V60.7703Z" fill="#4DADAC"/>
<mask id="mask11_182_488" style="mask-type:luminance" maskUnits="userSpaceOnUse" x="228" y="60" width="9" height="7">
<path d="M228.359 60.7703H236.362V66.407H228.359V60.7703Z" fill="white"/>
</mask>
<g mask="url(#mask11_182_488)">
<path d="M236.362 60.7703H228.359V66.407H236.362V60.7703Z" fill="#4DADAC"/>
</g>
<path d="M104.15 52.9521V58.898H96.1482V52.9521H104.15Z" fill="#4DADAC"/>
<mask id="mask12_182_488" style="mask-type:luminance" maskUnits="userSpaceOnUse" x="96" y="52" width="9" height="7">
<path d="M104.15 52.9521V58.898H96.1482V52.9521H104.15Z" fill="white"/>
</mask>
<g mask="url(#mask12_182_488)">
<path d="M104.15 52.9521H96.1482V58.898H104.15V52.9521Z" fill="#4DADAC"/>
</g>
<path d="M96.1482 60.7703H104.15V66.407H96.1482V60.7703Z" fill="#4DADAC"/>
<mask id="mask13_182_488" style="mask-type:luminance" maskUnits="userSpaceOnUse" x="96" y="60" width="9" height="7">
<path d="M96.1482 60.7703H104.15V66.407H96.1482V60.7703Z" fill="white"/>
</mask>
<g mask="url(#mask13_182_488)">
<path d="M104.15 60.7703H96.1482V66.407H104.15V60.7703Z" fill="#4DADAC"/>
</g>
<path d="M212.328 56.1943V58.8977H204.326V56.1943H212.328Z" fill="#4DADAC"/>
<mask id="mask14_182_488" style="mask-type:luminance" maskUnits="userSpaceOnUse" x="204" y="56" width="9" height="3">
<path d="M212.328 56.1943V58.8977H204.326V56.1943H212.328Z" fill="white"/>
</mask>
<g mask="url(#mask14_182_488)">
<path d="M212.329 56.1943H204.326V58.8981H212.329V56.1943Z" fill="#4DADAC"/>
</g>
<path d="M204.326 60.7703H212.328V66.407H204.326V60.7703Z" fill="#4DADAC"/>
<mask id="mask15_182_488" style="mask-type:luminance" maskUnits="userSpaceOnUse" x="204" y="60" width="9" height="7">
<path d="M204.326 60.7703H212.328V66.407H204.326V60.7703Z" fill="white"/>
</mask>
<g mask="url(#mask15_182_488)">
<path d="M212.329 60.7703H204.326V66.407H212.329V60.7703Z" fill="#4DADAC"/>
</g>
<path d="M92.1337 37.3179V43.2609H84.1313V37.3179H92.1337Z" fill="#4DADAC"/>
<mask id="mask16_182_488" style="mask-type:luminance" maskUnits="userSpaceOnUse" x="84" y="37" width="9" height="7">
<path d="M92.1337 37.3179V43.2609H84.1313V37.3179H92.1337Z" fill="white"/>
</mask>
<g mask="url(#mask16_182_488)">
<path d="M92.1331 37.3179H84.1313V43.2614H92.1331V37.3179Z" fill="#4DADAC"/>
</g>
<path d="M84.1313 45.1296H92.1337V51.0793H84.1313V45.1296Z" fill="#4DADAC"/>
<mask id="mask17_182_488" style="mask-type:luminance" maskUnits="userSpaceOnUse" x="84" y="45" width="9" height="7">
<path d="M84.1313 45.1296H92.1337V51.0793H84.1313V45.1296Z" fill="white"/>
</mask>
<g mask="url(#mask17_182_488)">
<path d="M92.1331 45.1296H84.1313V51.0793H92.1331V45.1296Z" fill="#4DADAC"/>
</g>
<path d="M84.1313 52.9521H92.1337V58.898H84.1313V52.9521Z" fill="#4DADAC"/>
<mask id="mask18_182_488" style="mask-type:luminance" maskUnits="userSpaceOnUse" x="84" y="52" width="9" height="7">
<path d="M84.1313 52.9521H92.1337V58.898H84.1313V52.9521Z" fill="white"/>
</mask>
<g mask="url(#mask18_182_488)">
<path d="M92.1331 52.9521H84.1313V58.898H92.1331V52.9521Z" fill="#4DADAC"/>
</g>
<path d="M84.1313 60.7703H92.1337V66.407H84.1313V60.7703Z" fill="#4DADAC"/>
<mask id="mask19_182_488" style="mask-type:luminance" maskUnits="userSpaceOnUse" x="84" y="60" width="9" height="7">
<path d="M84.1313 60.7703H92.1337V66.407H84.1313V60.7703Z" fill="white"/>
</mask>
<g mask="url(#mask19_182_488)">
<path d="M92.1331 60.7703H84.1313V66.407H92.1331V60.7703Z" fill="#4DADAC"/>
</g>
<path d="M224.346 37.3179V43.2609H216.343V37.3179H224.346Z" fill="#4DADAC"/>
<mask id="mask20_182_488" style="mask-type:luminance" maskUnits="userSpaceOnUse" x="216" y="37" width="9" height="7">
<path d="M224.346 37.3179V43.2609H216.343V37.3179H224.346Z" fill="white"/>
</mask>
<g mask="url(#mask20_182_488)">
<path d="M224.345 37.3179H216.343V43.2614H224.345V37.3179Z" fill="#4DADAC"/>
</g>
<path d="M216.343 45.1296H224.346V51.0793H216.343V45.1296Z" fill="#4DADAC"/>
<mask id="mask21_182_488" style="mask-type:luminance" maskUnits="userSpaceOnUse" x="216" y="45" width="9" height="7">
<path d="M216.343 45.1296H224.346V51.0793H216.343V45.1296Z" fill="white"/>
</mask>
<g mask="url(#mask21_182_488)">
<path d="M224.345 45.1296H216.343V51.0793H224.345V45.1296Z" fill="#4DADAC"/>
</g>
<path d="M216.343 52.9521H224.346V58.898H216.343V52.9521Z" fill="#4DADAC"/>
<mask id="mask22_182_488" style="mask-type:luminance" maskUnits="userSpaceOnUse" x="216" y="52" width="9" height="7">
<path d="M216.343 52.9521H224.346V58.898H216.343V52.9521Z" fill="white"/>
</mask>
<g mask="url(#mask22_182_488)">
<path d="M224.345 52.9521H216.343V58.898H224.345V52.9521Z" fill="#4DADAC"/>
</g>
<path d="M216.343 60.7703H224.346V66.407H216.343V60.7703Z" fill="#4DADAC"/>
<mask id="mask23_182_488" style="mask-type:luminance" maskUnits="userSpaceOnUse" x="216" y="60" width="9" height="7">
<path d="M216.343 60.7703H224.346V66.407H216.343V60.7703Z" fill="white"/>
</mask>
<g mask="url(#mask23_182_488)">
<path d="M224.345 60.7703H216.343V66.407H224.345V60.7703Z" fill="#4DADAC"/>
</g>
<path d="M20.0226 37.3179V43.2609H12.021V37.3179H20.0226Z" fill="#4DADAC"/>
<mask id="mask24_182_488" style="mask-type:luminance" maskUnits="userSpaceOnUse" x="12" y="37" width="9" height="7">
<path d="M20.0226 37.3179V43.2609H12.021V37.3179H20.0226Z" fill="white"/>
</mask>
<g mask="url(#mask24_182_488)">
<path d="M20.0233 37.3179H12.021V43.2614H20.0233V37.3179Z" fill="#4DADAC"/>
</g>
<path d="M12.021 45.1296H20.0226V51.0793H12.021V45.1296Z" fill="#4DADAC"/>
<mask id="mask25_182_488" style="mask-type:luminance" maskUnits="userSpaceOnUse" x="12" y="45" width="9" height="7">
<path d="M12.021 45.1296H20.0226V51.0793H12.021V45.1296Z" fill="white"/>
</mask>
<g mask="url(#mask25_182_488)">
<path d="M20.0233 45.1296H12.021V51.0793H20.0233V45.1296Z" fill="#4DADAC"/>
</g>
<path d="M12.021 52.9521H20.0226V58.898H12.021V52.9521Z" fill="#4DADAC"/>
<mask id="mask26_182_488" style="mask-type:luminance" maskUnits="userSpaceOnUse" x="12" y="52" width="9" height="7">
<path d="M12.021 52.9521H20.0226V58.898H12.021V52.9521Z" fill="white"/>
</mask>
<g mask="url(#mask26_182_488)">
<path d="M20.0233 52.9521H12.021V58.898H20.0233V52.9521Z" fill="#4DADAC"/>
</g>
<path d="M12.021 60.7703H20.0226V66.407H12.021V60.7703Z" fill="#4DADAC"/>
<mask id="mask27_182_488" style="mask-type:luminance" maskUnits="userSpaceOnUse" x="12" y="60" width="9" height="7">
<path d="M12.021 60.7703H20.0226V66.407H12.021V60.7703Z" fill="white"/>
</mask>
<g mask="url(#mask27_182_488)">
<path d="M20.0233 60.7703H12.021V66.407H20.0233V60.7703Z" fill="#4DADAC"/>
</g>
<path d="M80.1158 61.2991H72.114V66.407H80.1158V61.2991Z" fill="#4DADAC"/>
<mask id="mask28_182_488" style="mask-type:luminance" maskUnits="userSpaceOnUse" x="72" y="61" width="9" height="6">
<path d="M80.1158 61.2991H72.114V66.407H80.1158V61.2991Z" fill="white"/>
</mask>
<g mask="url(#mask28_182_488)">
<path d="M80.1163 61.2991H72.114V66.4075H80.1163V61.2991Z" fill="#4DADAC"/>
</g>
<path d="M8.00175 61.2992H0V66.4071H8.00175V61.2992Z" fill="#4DADAC"/>
<mask id="mask29_182_488" style="mask-type:luminance" maskUnits="userSpaceOnUse" x="0" y="61" width="9" height="6">
<path d="M8.00175 61.2992H0V66.4071H8.00175V61.2992Z" fill="white"/>
</mask>
<g mask="url(#mask29_182_488)">
<path d="M8.00231 61.2992H0V66.4076H8.00231V61.2992Z" fill="#4DADAC"/>
</g>
<path d="M128.193 37.3179V43.2609H120.191V37.3179H128.193Z" fill="#4DADAC"/>
<mask id="mask30_182_488" style="mask-type:luminance" maskUnits="userSpaceOnUse" x="120" y="37" width="9" height="7">
<path d="M128.193 37.3179V43.2609H120.191V37.3179H128.193Z" fill="white"/>
</mask>
<g mask="url(#mask30_182_488)">
<path d="M128.193 37.3179H120.191V43.2614H128.193V37.3179Z" fill="#4DADAC"/>
</g>
<path d="M120.191 45.1296H128.193V51.0793H120.191V45.1296Z" fill="#4DADAC"/>
<mask id="mask31_182_488" style="mask-type:luminance" maskUnits="userSpaceOnUse" x="120" y="45" width="9" height="7">
<path d="M120.191 45.1296H128.193V51.0793H120.191V45.1296Z" fill="white"/>
</mask>
<g mask="url(#mask31_182_488)">
<path d="M128.193 45.1296H120.191V51.0793H128.193V45.1296Z" fill="#4DADAC"/>
</g>
<path d="M120.191 52.9521H128.193V58.898H120.191V52.9521Z" fill="#4DADAC"/>
<mask id="mask32_182_488" style="mask-type:luminance" maskUnits="userSpaceOnUse" x="120" y="52" width="9" height="7">
<path d="M120.191 52.9521H128.193V58.898H120.191V52.9521Z" fill="white"/>
</mask>
<g mask="url(#mask32_182_488)">
<path d="M128.193 52.9521H120.191V58.898H128.193V52.9521Z" fill="#4DADAC"/>
</g>
<path d="M120.191 60.7703H128.193V66.407H120.191V60.7703Z" fill="#4DADAC"/>
<mask id="mask33_182_488" style="mask-type:luminance" maskUnits="userSpaceOnUse" x="120" y="60" width="9" height="7">
<path d="M120.191 60.7703H128.193V66.407H120.191V60.7703Z" fill="white"/>
</mask>
<g mask="url(#mask33_182_488)">
<path d="M128.193 60.7703H120.191V66.407H128.193V60.7703Z" fill="#4DADAC"/>
</g>
<path d="M248.379 52.9521V58.898H240.377V52.9521H248.379Z" fill="#4DADAC"/>
<mask id="mask34_182_488" style="mask-type:luminance" maskUnits="userSpaceOnUse" x="240" y="52" width="9" height="7">
<path d="M248.379 52.9521V58.898H240.377V52.9521H248.379Z" fill="white"/>
</mask>
<g mask="url(#mask34_182_488)">
<path d="M248.379 52.9521H240.377V58.898H248.379V52.9521Z" fill="#4DADAC"/>
</g>
<path d="M240.377 60.7703H248.379V66.407H240.377V60.7703Z" fill="#4DADAC"/>
<mask id="mask35_182_488" style="mask-type:luminance" maskUnits="userSpaceOnUse" x="240" y="60" width="9" height="7">
<path d="M240.377 60.7703H248.379V66.407H240.377V60.7703Z" fill="white"/>
</mask>
<g mask="url(#mask35_182_488)">
<path d="M248.379 60.7703H240.377V66.407H248.379V60.7703Z" fill="#4DADAC"/>
</g>
<path d="M56.0739 52.9521V58.898H48.0723V52.9521H56.0739Z" fill="#4DADAC"/>
<mask id="mask36_182_488" style="mask-type:luminance" maskUnits="userSpaceOnUse" x="48" y="52" width="9" height="7">
<path d="M56.0739 52.9521V58.898H48.0723V52.9521H56.0739Z" fill="white"/>
</mask>
<g mask="url(#mask36_182_488)">
<path d="M56.0744 52.9521H48.0723V58.898H56.0744V52.9521Z" fill="#4DADAC"/>
</g>
<path d="M48.0723 60.7703H56.0739V66.407H48.0723V60.7703Z" fill="#4DADAC"/>
<mask id="mask37_182_488" style="mask-type:luminance" maskUnits="userSpaceOnUse" x="48" y="60" width="9" height="7">
<path d="M48.0723 60.7703H56.0739V66.407H48.0723V60.7703Z" fill="white"/>
</mask>
<g mask="url(#mask37_182_488)">
<path d="M56.0744 60.7703H48.0723V66.407H56.0744V60.7703Z" fill="#4DADAC"/>
</g>
<path d="M200.303 45.9719V51.0794H192.301V45.9719H200.303Z" fill="#4DADAC"/>
<mask id="mask38_182_488" style="mask-type:luminance" maskUnits="userSpaceOnUse" x="192" y="45" width="9" height="7">
<path d="M200.303 45.9719V51.0794H192.301V45.9719H200.303Z" fill="white"/>
</mask>
<g mask="url(#mask38_182_488)">
<path d="M200.303 45.9719H192.301V51.0799H200.303V45.9719Z" fill="#4DADAC"/>
</g>
<path d="M192.301 52.9521H200.303V58.898H192.301V52.9521Z" fill="#4DADAC"/>
<mask id="mask39_182_488" style="mask-type:luminance" maskUnits="userSpaceOnUse" x="192" y="52" width="9" height="7">
<path d="M192.301 52.9521H200.303V58.898H192.301V52.9521Z" fill="white"/>
</mask>
<g mask="url(#mask39_182_488)">
<path d="M200.303 52.9521H192.301V58.898H200.303V52.9521Z" fill="#4DADAC"/>
</g>
<path d="M192.301 60.7703H200.303V66.407H192.301V60.7703Z" fill="#4DADAC"/>
<mask id="mask40_182_488" style="mask-type:luminance" maskUnits="userSpaceOnUse" x="192" y="60" width="9" height="7">
<path d="M192.301 60.7703H200.303V66.407H192.301V60.7703Z" fill="white"/>
</mask>
<g mask="url(#mask40_182_488)">
<path d="M200.303 60.7703H192.301V66.407H200.303V60.7703Z" fill="#4DADAC"/>
</g>
<path d="M44.057 45.9719V51.0794H36.0554V45.9719H44.057Z" fill="#4DADAC"/>
<mask id="mask41_182_488" style="mask-type:luminance" maskUnits="userSpaceOnUse" x="36" y="45" width="9" height="7">
<path d="M44.057 45.9719V51.0794H36.0554V45.9719H44.057Z" fill="white"/>
</mask>
<g mask="url(#mask41_182_488)">
<path d="M44.057 45.9719H36.0554V51.0799H44.057V45.9719Z" fill="#4DADAC"/>
</g>
<path d="M36.0554 52.9521H44.057V58.898H36.0554V52.9521Z" fill="#4DADAC"/>
<mask id="mask42_182_488" style="mask-type:luminance" maskUnits="userSpaceOnUse" x="36" y="52" width="9" height="7">
<path d="M36.0554 52.9521H44.057V58.898H36.0554V52.9521Z" fill="white"/>
</mask>
<g mask="url(#mask42_182_488)">
<path d="M44.057 52.9521H36.0554V58.898H44.057V52.9521Z" fill="#4DADAC"/>
</g>
<path d="M36.0554 60.7703H44.057V66.407H36.0554V60.7703Z" fill="#4DADAC"/>
<mask id="mask43_182_488" style="mask-type:luminance" maskUnits="userSpaceOnUse" x="36" y="60" width="9" height="7">
<path d="M36.0554 60.7703H44.057V66.407H36.0554V60.7703Z" fill="white"/>
</mask>
<g mask="url(#mask43_182_488)">
<path d="M44.057 60.7703H36.0554V66.407H44.057V60.7703Z" fill="#4DADAC"/>
</g>
<path d="M140.21 30.6477V35.446H132.208V30.6477H140.21Z" fill="#4DADAC"/>
<mask id="mask44_182_488" style="mask-type:luminance" maskUnits="userSpaceOnUse" x="132" y="30" width="9" height="6">
<path d="M140.21 30.6477V35.446H132.208V30.6477H140.21Z" fill="white"/>
</mask>
<g mask="url(#mask44_182_488)">
<path d="M140.21 30.6477H132.208V35.446H140.21V30.6477Z" fill="#4DADAC"/>
</g>
<path d="M132.208 37.3179H140.21V43.2609H132.208V37.3179Z" fill="#4DADAC"/>
<mask id="mask45_182_488" style="mask-type:luminance" maskUnits="userSpaceOnUse" x="132" y="37" width="9" height="7">
<path d="M132.208 37.3179H140.21V43.2609H132.208V37.3179Z" fill="white"/>
</mask>
<g mask="url(#mask45_182_488)">
<path d="M140.21 37.3179H132.208V43.2614H140.21V37.3179Z" fill="#4DADAC"/>
</g>
<path d="M132.208 45.1296H140.21V51.0793H132.208V45.1296Z" fill="#4DADAC"/>
<mask id="mask46_182_488" style="mask-type:luminance" maskUnits="userSpaceOnUse" x="132" y="45" width="9" height="7">
<path d="M132.208 45.1296H140.21V51.0793H132.208V45.1296Z" fill="white"/>
</mask>
<g mask="url(#mask46_182_488)">
<path d="M140.21 45.1296H132.208V51.0793H140.21V45.1296Z" fill="#4DADAC"/>
</g>
<path d="M132.208 52.9521H140.21V58.898H132.208V52.9521Z" fill="#4DADAC"/>
<mask id="mask47_182_488" style="mask-type:luminance" maskUnits="userSpaceOnUse" x="132" y="52" width="9" height="7">
<path d="M132.208 52.9521H140.21V58.898H132.208V52.9521Z" fill="white"/>
</mask>
<g mask="url(#mask47_182_488)">
<path d="M140.21 52.9521H132.208V58.898H140.21V52.9521Z" fill="#4DADAC"/>
</g>
<path d="M132.208 60.7703H140.21V66.407H132.208V60.7703Z" fill="#4DADAC"/>
<mask id="mask48_182_488" style="mask-type:luminance" maskUnits="userSpaceOnUse" x="132" y="60" width="9" height="7">
<path d="M132.208 60.7703H140.21V66.407H132.208V60.7703Z" fill="white"/>
</mask>
<g mask="url(#mask48_182_488)">
<path d="M140.21 60.7703H132.208V66.407H140.21V60.7703Z" fill="#4DADAC"/>
</g>
<path d="M32.0404 30.6477V35.446H24.0381V30.6477H32.0404Z" fill="#4DADAC"/>
<mask id="mask49_182_488" style="mask-type:luminance" maskUnits="userSpaceOnUse" x="24" y="30" width="9" height="6">
<path d="M32.0404 30.6477V35.446H24.0381V30.6477H32.0404Z" fill="white"/>
</mask>
<g mask="url(#mask49_182_488)">
<path d="M32.0397 30.6477H24.0381V35.446H32.0397V30.6477Z" fill="#4DADAC"/>
</g>
<path d="M24.0381 37.3179H32.0404V43.2609H24.0381V37.3179Z" fill="#4DADAC"/>
<mask id="mask50_182_488" style="mask-type:luminance" maskUnits="userSpaceOnUse" x="24" y="37" width="9" height="7">
<path d="M24.0381 37.3179H32.0404V43.2609H24.0381V37.3179Z" fill="white"/>
</mask>
<g mask="url(#mask50_182_488)">
<path d="M32.0397 37.3179H24.0381V43.2614H32.0397V37.3179Z" fill="#4DADAC"/>
</g>
<path d="M24.0381 45.1296H32.0404V51.0793H24.0381V45.1296Z" fill="#4DADAC"/>
<mask id="mask51_182_488" style="mask-type:luminance" maskUnits="userSpaceOnUse" x="24" y="45" width="9" height="7">
<path d="M24.0381 45.1296H32.0404V51.0793H24.0381V45.1296Z" fill="white"/>
</mask>
<g mask="url(#mask51_182_488)">
<path d="M32.0397 45.1296H24.0381V51.0793H32.0397V45.1296Z" fill="#4DADAC"/>
</g>
<path d="M24.0381 52.9521H32.0404V58.898H24.0381V52.9521Z" fill="#4DADAC"/>
<mask id="mask52_182_488" style="mask-type:luminance" maskUnits="userSpaceOnUse" x="24" y="52" width="9" height="7">
<path d="M24.0381 52.9521H32.0404V58.898H24.0381V52.9521Z" fill="white"/>
</mask>
<g mask="url(#mask52_182_488)">
<path d="M32.0397 52.9521H24.0381V58.898H32.0397V52.9521Z" fill="#4DADAC"/>
</g>
<path d="M24.0381 60.7703H32.0404V66.407H24.0381V60.7703Z" fill="#4DADAC"/>
<mask id="mask53_182_488" style="mask-type:luminance" maskUnits="userSpaceOnUse" x="24" y="60" width="9" height="7">
<path d="M24.0381 60.7703H32.0404V66.407H24.0381V60.7703Z" fill="white"/>
</mask>
<g mask="url(#mask53_182_488)">
<path d="M32.0397 60.7703H24.0381V66.407H32.0397V60.7703Z" fill="#4DADAC"/>
</g>
<path d="M152.227 0V3.95946H144.225V0H152.227Z" fill="#4DADAC"/>
<mask id="mask54_182_488" style="mask-type:luminance" maskUnits="userSpaceOnUse" x="144" y="0" width="9" height="4">
<path d="M152.227 0V3.95946H144.225V0H152.227Z" fill="white"/>
</mask>
<g mask="url(#mask54_182_488)">
<path d="M152.227 0H144.225V3.95992H152.227V0Z" fill="#4DADAC"/>
</g>
<path d="M152.227 5.82812V11.7716H144.225V5.82812H152.227Z" fill="#4DADAC"/>
<mask id="mask55_182_488" style="mask-type:luminance" maskUnits="userSpaceOnUse" x="144" y="5" width="9" height="7">
<path d="M152.227 5.82812V11.7716H144.225V5.82812H152.227Z" fill="white"/>
</mask>
<g mask="url(#mask55_182_488)">
<path d="M152.227 5.82812H144.225V11.7711H152.227V5.82812Z" fill="#4DADAC"/>
</g>
<path d="M144.225 13.6438H152.227V19.5901H144.225V13.6438Z" fill="#4DADAC"/>
<mask id="mask56_182_488" style="mask-type:luminance" maskUnits="userSpaceOnUse" x="144" y="13" width="9" height="7">
<path d="M144.225 13.6438H152.227V19.5901H144.225V13.6438Z" fill="white"/>
</mask>
<g mask="url(#mask56_182_488)">
<path d="M152.227 13.6438H144.225V19.5901H152.227V13.6438Z" fill="#4DADAC"/>
</g>
<path d="M144.225 21.4622H152.227V27.5771H144.225V21.4622Z" fill="#4DADAC"/>
<mask id="mask57_182_488" style="mask-type:luminance" maskUnits="userSpaceOnUse" x="144" y="21" width="9" height="7">
<path d="M144.225 21.4622H152.227V27.5771H144.225V21.4622Z" fill="white"/>
</mask>
<g mask="url(#mask57_182_488)">
<path d="M152.227 21.4622H144.225V27.5771H152.227V21.4622Z" fill="#4DADAC"/>
</g>
<path d="M144.225 29.449H152.227V35.4458H144.225V29.449Z" fill="#4DADAC"/>
<mask id="mask58_182_488" style="mask-type:luminance" maskUnits="userSpaceOnUse" x="144" y="29" width="9" height="7">
<path d="M144.225 29.449H152.227V35.4458H144.225V29.449Z" fill="white"/>
</mask>
<g mask="url(#mask58_182_488)">
<path d="M152.227 29.449H144.225V35.4458H152.227V29.449Z" fill="#4DADAC"/>
</g>
<path d="M144.225 37.3179H152.227V43.2609H144.225V37.3179Z" fill="#4DADAC"/>
<mask id="mask59_182_488" style="mask-type:luminance" maskUnits="userSpaceOnUse" x="144" y="37" width="9" height="7">
<path d="M144.225 37.3179H152.227V43.2609H144.225V37.3179Z" fill="white"/>
</mask>
<g mask="url(#mask59_182_488)">
<path d="M152.227 37.3179H144.225V43.2614H152.227V37.3179Z" fill="#4DADAC"/>
</g>
<path d="M144.225 45.1296H152.227V51.0793H144.225V45.1296Z" fill="#4DADAC"/>
<mask id="mask60_182_488" style="mask-type:luminance" maskUnits="userSpaceOnUse" x="144" y="45" width="9" height="7">
<path d="M144.225 45.1296H152.227V51.0793H144.225V45.1296Z" fill="white"/>
</mask>
<g mask="url(#mask60_182_488)">
<path d="M152.227 45.1296H144.225V51.0793H152.227V45.1296Z" fill="#4DADAC"/>
</g>
<path d="M144.225 52.9521H152.227V58.898H144.225V52.9521Z" fill="#4DADAC"/>
<mask id="mask61_182_488" style="mask-type:luminance" maskUnits="userSpaceOnUse" x="144" y="52" width="9" height="7">
<path d="M144.225 52.9521H152.227V58.898H144.225V52.9521Z" fill="white"/>
</mask>
<g mask="url(#mask61_182_488)">
<path d="M152.227 52.9521H144.225V58.898H152.227V52.9521Z" fill="#4DADAC"/>
</g>
<path d="M144.225 60.7703H152.227V66.407H144.225V60.7703Z" fill="#4DADAC"/>
<mask id="mask62_182_488" style="mask-type:luminance" maskUnits="userSpaceOnUse" x="144" y="60" width="9" height="7">
<path d="M144.225 60.7703H152.227V66.407H144.225V60.7703Z" fill="white"/>
</mask>
<g mask="url(#mask62_182_488)">
<path d="M152.227 60.7703H144.225V66.407H152.227V60.7703Z" fill="#4DADAC"/>
</g>
<path d="M164.252 40.8674V43.2611H156.25V40.8674H164.252Z" fill="#4DADAC"/>
<mask id="mask63_182_488" style="mask-type:luminance" maskUnits="userSpaceOnUse" x="156" y="40" width="9" height="4">
<path d="M164.252 40.8674V43.2611H156.25V40.8674H164.252Z" fill="white"/>
</mask>
<g mask="url(#mask63_182_488)">
<path d="M164.252 40.8674H156.25V43.2611H164.252V40.8674Z" fill="#4DADAC"/>
</g>
<path d="M156.25 45.1296H164.252V51.0793H156.25V45.1296Z" fill="#4DADAC"/>
<mask id="mask64_182_488" style="mask-type:luminance" maskUnits="userSpaceOnUse" x="156" y="45" width="9" height="7">
<path d="M156.25 45.1296H164.252V51.0793H156.25V45.1296Z" fill="white"/>
</mask>
<g mask="url(#mask64_182_488)">
<path d="M164.252 45.1296H156.25V51.0793H164.252V45.1296Z" fill="#4DADAC"/>
</g>
<path d="M156.25 52.9521H164.252V58.898H156.25V52.9521Z" fill="#4DADAC"/>
<mask id="mask65_182_488" style="mask-type:luminance" maskUnits="userSpaceOnUse" x="156" y="52" width="9" height="7">
<path d="M156.25 52.9521H164.252V58.898H156.25V52.9521Z" fill="white"/>
</mask>
<g mask="url(#mask65_182_488)">
<path d="M164.252 52.9521H156.25V58.898H164.252V52.9521Z" fill="#4DADAC"/>
</g>
<path d="M156.25 60.7703H164.252V66.407H156.25V60.7703Z" fill="#4DADAC"/>
<mask id="mask66_182_488" style="mask-type:luminance" maskUnits="userSpaceOnUse" x="156" y="60" width="9" height="7">
<path d="M156.25 60.7703H164.252V66.407H156.25V60.7703Z" fill="white"/>
</mask>
<g mask="url(#mask66_182_488)">
<path d="M164.252 60.7703H156.25V66.407H164.252V60.7703Z" fill="#4DADAC"/>
</g>
<path d="M176.269 25.5398V27.5771H168.266V25.5398H176.269Z" fill="#4DADAC"/>
<mask id="mask67_182_488" style="mask-type:luminance" maskUnits="userSpaceOnUse" x="168" y="25" width="9" height="3">
<path d="M176.269 25.5398V27.5771H168.266V25.5398H176.269Z" fill="white"/>
</mask>
<g mask="url(#mask67_182_488)">
<path d="M176.269 25.5398H168.266V27.5767H176.269V25.5398Z" fill="#4DADAC"/>
</g>
<path d="M168.266 29.449H176.269V35.4458H168.266V29.449Z" fill="#4DADAC"/>
<mask id="mask68_182_488" style="mask-type:luminance" maskUnits="userSpaceOnUse" x="168" y="29" width="9" height="7">
<path d="M168.266 29.449H176.269V35.4458H168.266V29.449Z" fill="white"/>
</mask>
<g mask="url(#mask68_182_488)">
<path d="M176.269 29.449H168.266V35.4458H176.269V29.449Z" fill="#4DADAC"/>
</g>
<path d="M168.266 37.3179H176.269V43.2609H168.266V37.3179Z" fill="#4DADAC"/>
<mask id="mask69_182_488" style="mask-type:luminance" maskUnits="userSpaceOnUse" x="168" y="37" width="9" height="7">
<path d="M168.266 37.3179H176.269V43.2609H168.266V37.3179Z" fill="white"/>
</mask>
<g mask="url(#mask69_182_488)">
<path d="M176.269 37.3179H168.266V43.2614H176.269V37.3179Z" fill="#4DADAC"/>
</g>
<path d="M168.266 45.1296H176.269V51.0793H168.266V45.1296Z" fill="#4DADAC"/>
<mask id="mask70_182_488" style="mask-type:luminance" maskUnits="userSpaceOnUse" x="168" y="45" width="9" height="7">
<path d="M168.266 45.1296H176.269V51.0793H168.266V45.1296Z" fill="white"/>
</mask>
<g mask="url(#mask70_182_488)">
<path d="M176.269 45.1296H168.266V51.0793H176.269V45.1296Z" fill="#4DADAC"/>
</g>
<path d="M168.266 52.9521H176.269V58.898H168.266V52.9521Z" fill="#4DADAC"/>
<mask id="mask71_182_488" style="mask-type:luminance" maskUnits="userSpaceOnUse" x="168" y="52" width="9" height="7">
<path d="M168.266 52.9521H176.269V58.898H168.266V52.9521Z" fill="white"/>
</mask>
<g mask="url(#mask71_182_488)">
<path d="M176.269 52.9521H168.266V58.898H176.269V52.9521Z" fill="#4DADAC"/>
</g>
<path d="M168.266 60.7703H176.269V66.407H168.266V60.7703Z" fill="#4DADAC"/>
<mask id="mask72_182_488" style="mask-type:luminance" maskUnits="userSpaceOnUse" x="168" y="60" width="9" height="7">
<path d="M168.266 60.7703H176.269V66.407H168.266V60.7703Z" fill="white"/>
</mask>
<g mask="url(#mask72_182_488)">
<path d="M176.269 60.7703H168.266V66.407H176.269V60.7703Z" fill="#4DADAC"/>
</g>
<path d="M68.0991 25.5398V27.5771H60.0979V25.5398H68.0991Z" fill="#4DADAC"/>
<mask id="mask73_182_488" style="mask-type:luminance" maskUnits="userSpaceOnUse" x="60" y="25" width="9" height="3">
<path d="M68.0991 25.5398V27.5771H60.0979V25.5398H68.0991Z" fill="white"/>
</mask>
<g mask="url(#mask73_182_488)">
<path d="M68.0997 25.5398H60.0979V27.5767H68.0997V25.5398Z" fill="#4DADAC"/>
</g>
<path d="M60.0979 29.449H68.0991V35.4458H60.0979V29.449Z" fill="#4DADAC"/>
<mask id="mask74_182_488" style="mask-type:luminance" maskUnits="userSpaceOnUse" x="60" y="29" width="9" height="7">
<path d="M60.0979 29.449H68.0991V35.4458H60.0979V29.449Z" fill="white"/>
</mask>
<g mask="url(#mask74_182_488)">
<path d="M68.0997 29.449H60.0979V35.4458H68.0997V29.449Z" fill="#4DADAC"/>
</g>
<path d="M60.0979 37.3179H68.0991V43.2609H60.0979V37.3179Z" fill="#4DADAC"/>
<mask id="mask75_182_488" style="mask-type:luminance" maskUnits="userSpaceOnUse" x="60" y="37" width="9" height="7">
<path d="M60.0979 37.3179H68.0991V43.2609H60.0979V37.3179Z" fill="white"/>
</mask>
<g mask="url(#mask75_182_488)">
<path d="M68.0997 37.3179H60.0979V43.2614H68.0997V37.3179Z" fill="#4DADAC"/>
</g>
<path d="M60.0979 45.1296H68.0991V51.0793H60.0979V45.1296Z" fill="#4DADAC"/>
<mask id="mask76_182_488" style="mask-type:luminance" maskUnits="userSpaceOnUse" x="60" y="45" width="9" height="7">
<path d="M60.0979 45.1296H68.0991V51.0793H60.0979V45.1296Z" fill="white"/>
</mask>
<g mask="url(#mask76_182_488)">
<path d="M68.0997 45.1296H60.0979V51.0793H68.0997V45.1296Z" fill="#4DADAC"/>
</g>
<path d="M60.0979 52.9521H68.0991V58.898H60.0979V52.9521Z" fill="#4DADAC"/>
<mask id="mask77_182_488" style="mask-type:luminance" maskUnits="userSpaceOnUse" x="60" y="52" width="9" height="7">
<path d="M60.0979 52.9521H68.0991V58.898H60.0979V52.9521Z" fill="white"/>
</mask>
<g mask="url(#mask77_182_488)">
<path d="M68.0997 52.9521H60.0979V58.898H68.0997V52.9521Z" fill="#4DADAC"/>
</g>
<path d="M60.0979 60.7703H68.0991V66.407H60.0979V60.7703Z" fill="#4DADAC"/>
<mask id="mask78_182_488" style="mask-type:luminance" maskUnits="userSpaceOnUse" x="60" y="60" width="9" height="7">
<path d="M60.0979 60.7703H68.0991V66.407H60.0979V60.7703Z" fill="white"/>
</mask>
<g mask="url(#mask78_182_488)">
<path d="M68.0997 60.7703H60.0979V66.407H68.0997V60.7703Z" fill="#4DADAC"/>
</g>
<path d="M188.286 15.3271V19.5901H180.284V15.3271H188.286Z" fill="#4DADAC"/>
<mask id="mask79_182_488" style="mask-type:luminance" maskUnits="userSpaceOnUse" x="180" y="15" width="9" height="5">
<path d="M188.286 15.3271V19.5901H180.284V15.3271H188.286Z" fill="white"/>
</mask>
<g mask="url(#mask79_182_488)">
<path d="M188.286 15.3271H180.284V19.5901H188.286V15.3271Z" fill="#4DADAC"/>
</g>
<path d="M180.284 21.4622H188.286V27.5771H180.284V21.4622Z" fill="#4DADAC"/>
<mask id="mask80_182_488" style="mask-type:luminance" maskUnits="userSpaceOnUse" x="180" y="21" width="9" height="7">
<path d="M180.284 21.4622H188.286V27.5771H180.284V21.4622Z" fill="white"/>
</mask>
<g mask="url(#mask80_182_488)">
<path d="M188.286 21.4622H180.284V27.5771H188.286V21.4622Z" fill="#4DADAC"/>
</g>
<path d="M180.284 29.449H188.286V35.4458H180.284V29.449Z" fill="#4DADAC"/>
<mask id="mask81_182_488" style="mask-type:luminance" maskUnits="userSpaceOnUse" x="180" y="29" width="9" height="7">
<path d="M180.284 29.449H188.286V35.4458H180.284V29.449Z" fill="white"/>
</mask>
<g mask="url(#mask81_182_488)">
<path d="M188.286 29.449H180.284V35.4458H188.286V29.449Z" fill="#4DADAC"/>
</g>
<path d="M180.284 37.3179H188.286V43.2609H180.284V37.3179Z" fill="#4DADAC"/>
<mask id="mask82_182_488" style="mask-type:luminance" maskUnits="userSpaceOnUse" x="180" y="37" width="9" height="7">
<path d="M180.284 37.3179H188.286V43.2609H180.284V37.3179Z" fill="white"/>
</mask>
<g mask="url(#mask82_182_488)">
<path d="M188.286 37.3179H180.284V43.2614H188.286V37.3179Z" fill="#4DADAC"/>
</g>
<path d="M180.284 45.1296H188.286V51.0793H180.284V45.1296Z" fill="#4DADAC"/>
<mask id="mask83_182_488" style="mask-type:luminance" maskUnits="userSpaceOnUse" x="180" y="45" width="9" height="7">
<path d="M180.284 45.1296H188.286V51.0793H180.284V45.1296Z" fill="white"/>
</mask>
<g mask="url(#mask83_182_488)">
<path d="M188.286 45.1296H180.284V51.0793H188.286V45.1296Z" fill="#4DADAC"/>
</g>
<path d="M180.284 52.9521H188.286V58.898H180.284V52.9521Z" fill="#4DADAC"/>
<mask id="mask84_182_488" style="mask-type:luminance" maskUnits="userSpaceOnUse" x="180" y="52" width="9" height="7">
<path d="M180.284 52.9521H188.286V58.898H180.284V52.9521Z" fill="white"/>
</mask>
<g mask="url(#mask84_182_488)">
<path d="M188.286 52.9521H180.284V58.898H188.286V52.9521Z" fill="#4DADAC"/>
</g>
<path d="M180.284 60.7703H188.286V66.407H180.284V60.7703Z" fill="#4DADAC"/>
<mask id="mask85_182_488" style="mask-type:luminance" maskUnits="userSpaceOnUse" x="180" y="60" width="9" height="7">
<path d="M180.284 60.7703H188.286V66.407H180.284V60.7703Z" fill="white"/>
</mask>
<g mask="url(#mask85_182_488)">
<path d="M188.286 60.7703H180.284V66.407H188.286V60.7703Z" fill="#4DADAC"/>
</g>
<path d="M276.794 37.3181H284.796V43.2611H276.794V37.3181Z" fill="#4DADAC"/>
<mask id="mask86_182_488" style="mask-type:luminance" maskUnits="userSpaceOnUse" x="276" y="37" width="9" height="7">
<path d="M276.794 37.3181H284.796V43.2611H276.794V37.3181Z" fill="white"/>
</mask>
<g mask="url(#mask86_182_488)">
<path d="M284.796 37.3181H276.794V43.2616H284.796V37.3181Z" fill="#4DADAC"/>
</g>
<path d="M276.794 45.1299H284.796V51.0795H276.794V45.1299Z" fill="#4DADAC"/>
<mask id="mask87_182_488" style="mask-type:luminance" maskUnits="userSpaceOnUse" x="276" y="45" width="9" height="7">
<path d="M276.794 45.1299H284.796V51.0795H276.794V45.1299Z" fill="white"/>
</mask>
<g mask="url(#mask87_182_488)">
<path d="M284.796 45.1299H276.794V51.0795H284.796V45.1299Z" fill="#4DADAC"/>
</g>
<path d="M276.794 52.9521H284.796V58.898H276.794V52.9521Z" fill="#4DADAC"/>
<mask id="mask88_182_488" style="mask-type:luminance" maskUnits="userSpaceOnUse" x="276" y="52" width="9" height="7">
<path d="M276.794 52.9521H284.796V58.898H276.794V52.9521Z" fill="white"/>
</mask>
<g mask="url(#mask88_182_488)">
<path d="M284.796 52.9521H276.794V58.898H284.796V52.9521Z" fill="#4DADAC"/>
</g>
<path d="M276.794 60.7705H284.796V66.4072H276.794V60.7705Z" fill="#4DADAC"/>
<mask id="mask89_182_488" style="mask-type:luminance" maskUnits="userSpaceOnUse" x="276" y="60" width="9" height="7">
<path d="M276.794 60.7705H284.796V66.4072H276.794V60.7705Z" fill="white"/>
</mask>
<g mask="url(#mask89_182_488)">
<path d="M284.796 60.7705H276.794V66.4072H284.796V60.7705Z" fill="#4DADAC"/>
</g>
<path d="M396.98 45.1299H404.982V51.0795H396.98V45.1299Z" fill="#4DADAC"/>
<mask id="mask90_182_488" style="mask-type:luminance" maskUnits="userSpaceOnUse" x="396" y="45" width="9" height="7">
<path d="M396.98 45.1299H404.982V51.0795H396.98V45.1299Z" fill="white"/>
</mask>
<g mask="url(#mask90_182_488)">
<path d="M404.983 45.1299H396.98V51.0795H404.983V45.1299Z" fill="#4DADAC"/>
</g>
<path d="M396.98 52.9521H404.982V58.898H396.98V52.9521Z" fill="#4DADAC"/>
<mask id="mask91_182_488" style="mask-type:luminance" maskUnits="userSpaceOnUse" x="396" y="52" width="9" height="7">
<path d="M396.98 52.9521H404.982V58.898H396.98V52.9521Z" fill="white"/>
</mask>
<g mask="url(#mask91_182_488)">
<path d="M404.983 52.9521H396.98V58.898H404.983V52.9521Z" fill="#4DADAC"/>
</g>
<path d="M396.98 60.7705H404.982V66.4072H396.98V60.7705Z" fill="#4DADAC"/>
<mask id="mask92_182_488" style="mask-type:luminance" maskUnits="userSpaceOnUse" x="396" y="60" width="9" height="7">
<path d="M396.98 60.7705H404.982V66.4072H396.98V60.7705Z" fill="white"/>
</mask>
<g mask="url(#mask92_182_488)">
<path d="M404.983 60.7705H396.98V66.4072H404.983V60.7705Z" fill="#4DADAC"/>
</g>
<path d="M272.771 52.9521V58.898H264.769V52.9521H272.771Z" fill="#4DADAC"/>
<mask id="mask93_182_488" style="mask-type:luminance" maskUnits="userSpaceOnUse" x="264" y="52" width="9" height="7">
<path d="M272.771 52.9521V58.898H264.769V52.9521H272.771Z" fill="white"/>
</mask>
<g mask="url(#mask93_182_488)">
<path d="M272.771 52.9521H264.769V58.898H272.771V52.9521Z" fill="#4DADAC"/>
</g>
<path d="M264.769 60.7705H272.771V66.4072H264.769V60.7705Z" fill="#4DADAC"/>
<mask id="mask94_182_488" style="mask-type:luminance" maskUnits="userSpaceOnUse" x="264" y="60" width="9" height="7">
<path d="M264.769 60.7705H272.771V66.4072H264.769V60.7705Z" fill="white"/>
</mask>
<g mask="url(#mask94_182_488)">
<path d="M272.771 60.7705H264.769V66.4072H272.771V60.7705Z" fill="#4DADAC"/>
</g>
<path d="M380.948 56.1946V58.8979H372.947V56.1946H380.948Z" fill="#4DADAC"/>
<mask id="mask95_182_488" style="mask-type:luminance" maskUnits="userSpaceOnUse" x="372" y="56" width="9" height="3">
<path d="M380.948 56.1946V58.8979H372.947V56.1946H380.948Z" fill="white"/>
</mask>
<g mask="url(#mask95_182_488)">
<path d="M380.948 56.1946H372.947V58.8984H380.948V56.1946Z" fill="#4DADAC"/>
</g>
<path d="M372.947 60.7705H380.948V66.4072H372.947V60.7705Z" fill="#4DADAC"/>
<mask id="mask96_182_488" style="mask-type:luminance" maskUnits="userSpaceOnUse" x="372" y="60" width="9" height="7">
<path d="M372.947 60.7705H380.948V66.4072H372.947V60.7705Z" fill="white"/>
</mask>
<g mask="url(#mask96_182_488)">
<path d="M380.948 60.7705H372.947V66.4072H380.948V60.7705Z" fill="#4DADAC"/>
</g>
<path d="M260.754 37.3181V43.2611H252.752V37.3181H260.754Z" fill="#4DADAC"/>
<mask id="mask97_182_488" style="mask-type:luminance" maskUnits="userSpaceOnUse" x="252" y="37" width="9" height="7">
<path d="M260.754 37.3181V43.2611H252.752V37.3181H260.754Z" fill="white"/>
</mask>
<g mask="url(#mask97_182_488)">
<path d="M260.754 37.3181H252.752V43.2616H260.754V37.3181Z" fill="#4DADAC"/>
</g>
<path d="M252.752 45.1299H260.754V51.0795H252.752V45.1299Z" fill="#4DADAC"/>
<mask id="mask98_182_488" style="mask-type:luminance" maskUnits="userSpaceOnUse" x="252" y="45" width="9" height="7">
<path d="M252.752 45.1299H260.754V51.0795H252.752V45.1299Z" fill="white"/>
</mask>
<g mask="url(#mask98_182_488)">
<path d="M260.754 45.1299H252.752V51.0795H260.754V45.1299Z" fill="#4DADAC"/>
</g>
<path d="M252.752 52.952H260.754V58.8978H252.752V52.952Z" fill="#4DADAC"/>
<mask id="mask99_182_488" style="mask-type:luminance" maskUnits="userSpaceOnUse" x="252" y="52" width="9" height="7">
<path d="M252.752 52.952H260.754V58.8978H252.752V52.952Z" fill="white"/>
</mask>
<g mask="url(#mask99_182_488)">
<path d="M260.754 52.952H252.752V58.8978H260.754V52.952Z" fill="#4DADAC"/>
</g>
<path d="M252.752 60.7705H260.754V66.4072H252.752V60.7705Z" fill="#4DADAC"/>
<mask id="mask100_182_488" style="mask-type:luminance" maskUnits="userSpaceOnUse" x="252" y="60" width="9" height="7">
<path d="M252.752 60.7705H260.754V66.4072H252.752V60.7705Z" fill="white"/>
</mask>
<g mask="url(#mask100_182_488)">
<path d="M260.754 60.7705H252.752V66.4072H260.754V60.7705Z" fill="#4DADAC"/>
</g>
<path d="M392.966 37.3181V43.2611H384.964V37.3181H392.966Z" fill="#4DADAC"/>
<mask id="mask101_182_488" style="mask-type:luminance" maskUnits="userSpaceOnUse" x="384" y="37" width="9" height="7">
<path d="M392.966 37.3181V43.2611H384.964V37.3181H392.966Z" fill="white"/>
</mask>
<g mask="url(#mask101_182_488)">
<path d="M392.967 37.3181H384.964V43.2616H392.967V37.3181Z" fill="#4DADAC"/>
</g>
<path d="M384.964 45.1299H392.966V51.0795H384.964V45.1299Z" fill="#4DADAC"/>
<mask id="mask102_182_488" style="mask-type:luminance" maskUnits="userSpaceOnUse" x="384" y="45" width="9" height="7">
<path d="M384.964 45.1299H392.966V51.0795H384.964V45.1299Z" fill="white"/>
</mask>
<g mask="url(#mask102_182_488)">
<path d="M392.967 45.1299H384.964V51.0795H392.967V45.1299Z" fill="#4DADAC"/>
</g>
<path d="M384.964 52.9521H392.966V58.898H384.964V52.9521Z" fill="#4DADAC"/>
<mask id="mask103_182_488" style="mask-type:luminance" maskUnits="userSpaceOnUse" x="384" y="52" width="9" height="7">
<path d="M384.964 52.9521H392.966V58.898H384.964V52.9521Z" fill="white"/>
</mask>
<g mask="url(#mask103_182_488)">
<path d="M392.967 52.9521H384.964V58.898H392.967V52.9521Z" fill="#4DADAC"/>
</g>
<path d="M384.964 60.7705H392.966V66.4072H384.964V60.7705Z" fill="#4DADAC"/>
<mask id="mask104_182_488" style="mask-type:luminance" maskUnits="userSpaceOnUse" x="384" y="60" width="9" height="7">
<path d="M384.964 60.7705H392.966V66.4072H384.964V60.7705Z" fill="white"/>
</mask>
<g mask="url(#mask104_182_488)">
<path d="M392.967 60.7705H384.964V66.4072H392.967V60.7705Z" fill="#4DADAC"/>
</g>
<path d="M296.813 37.3181V43.2611H288.811V37.3181H296.813Z" fill="#4DADAC"/>
<mask id="mask105_182_488" style="mask-type:luminance" maskUnits="userSpaceOnUse" x="288" y="37" width="9" height="7">
<path d="M296.813 37.3181V43.2611H288.811V37.3181H296.813Z" fill="white"/>
</mask>
<g mask="url(#mask105_182_488)">
<path d="M296.813 37.3181H288.811V43.2616H296.813V37.3181Z" fill="#4DADAC"/>
</g>
<path d="M288.811 45.1299H296.813V51.0795H288.811V45.1299Z" fill="#4DADAC"/>
<mask id="mask106_182_488" style="mask-type:luminance" maskUnits="userSpaceOnUse" x="288" y="45" width="9" height="7">
<path d="M288.811 45.1299H296.813V51.0795H288.811V45.1299Z" fill="white"/>
</mask>
<g mask="url(#mask106_182_488)">
<path d="M296.813 45.1299H288.811V51.0795H296.813V45.1299Z" fill="#4DADAC"/>
</g>
<path d="M288.811 52.9521H296.813V58.898H288.811V52.9521Z" fill="#4DADAC"/>
<mask id="mask107_182_488" style="mask-type:luminance" maskUnits="userSpaceOnUse" x="288" y="52" width="9" height="7">
<path d="M288.811 52.9521H296.813V58.898H288.811V52.9521Z" fill="white"/>
</mask>
<g mask="url(#mask107_182_488)">
<path d="M296.813 52.9521H288.811V58.898H296.813V52.9521Z" fill="#4DADAC"/>
</g>
<path d="M288.811 60.7705H296.813V66.4072H288.811V60.7705Z" fill="#4DADAC"/>
<mask id="mask108_182_488" style="mask-type:luminance" maskUnits="userSpaceOnUse" x="288" y="60" width="9" height="7">
<path d="M288.811 60.7705H296.813V66.4072H288.811V60.7705Z" fill="white"/>
</mask>
<g mask="url(#mask108_182_488)">
<path d="M296.813 60.7705H288.811V66.4072H296.813V60.7705Z" fill="#4DADAC"/>
</g>
<path d="M417 52.9521V58.898H408.998V52.9521H417Z" fill="#4DADAC"/>
<mask id="mask109_182_488" style="mask-type:luminance" maskUnits="userSpaceOnUse" x="408" y="52" width="9" height="7">
<path d="M417 52.9521V58.898H408.998V52.9521H417Z" fill="white"/>
</mask>
<g mask="url(#mask109_182_488)">
<path d="M417 52.9521H408.998V58.898H417V52.9521Z" fill="#4DADAC"/>
</g>
<path d="M408.998 60.7705H417V66.4072H408.998V60.7705Z" fill="#4DADAC"/>
<mask id="mask110_182_488" style="mask-type:luminance" maskUnits="userSpaceOnUse" x="408" y="60" width="9" height="7">
<path d="M408.998 60.7705H417V66.4072H408.998V60.7705Z" fill="white"/>
</mask>
<g mask="url(#mask110_182_488)">
<path d="M417 60.7705H408.998V66.4072H417V60.7705Z" fill="#4DADAC"/>
</g>
<path d="M368.924 45.9719V51.0794H360.921V45.9719H368.924Z" fill="#4DADAC"/>
<mask id="mask111_182_488" style="mask-type:luminance" maskUnits="userSpaceOnUse" x="360" y="45" width="9" height="7">
<path d="M368.924 45.9719V51.0794H360.921V45.9719H368.924Z" fill="white"/>
</mask>
<g mask="url(#mask111_182_488)">
<path d="M368.924 45.9719H360.921V51.0799H368.924V45.9719Z" fill="#4DADAC"/>
</g>
<path d="M360.921 52.9521H368.924V58.898H360.921V52.9521Z" fill="#4DADAC"/>
<mask id="mask112_182_488" style="mask-type:luminance" maskUnits="userSpaceOnUse" x="360" y="52" width="9" height="7">
<path d="M360.921 52.9521H368.924V58.898H360.921V52.9521Z" fill="white"/>
</mask>
<g mask="url(#mask112_182_488)">
<path d="M368.924 52.9521H360.921V58.898H368.924V52.9521Z" fill="#4DADAC"/>
</g>
<path d="M360.921 60.7705H368.924V66.4072H360.921V60.7705Z" fill="#4DADAC"/>
<mask id="mask113_182_488" style="mask-type:luminance" maskUnits="userSpaceOnUse" x="360" y="60" width="9" height="7">
<path d="M360.921 60.7705H368.924V66.4072H360.921V60.7705Z" fill="white"/>
</mask>
<g mask="url(#mask113_182_488)">
<path d="M368.924 60.7705H360.921V66.4072H368.924V60.7705Z" fill="#4DADAC"/>
</g>
<path d="M308.83 30.6477V35.446H300.828V30.6477H308.83Z" fill="#4DADAC"/>
<mask id="mask114_182_488" style="mask-type:luminance" maskUnits="userSpaceOnUse" x="300" y="30" width="9" height="6">
<path d="M308.83 30.6477V35.446H300.828V30.6477H308.83Z" fill="white"/>
</mask>
<g mask="url(#mask114_182_488)">
<path d="M308.83 30.6477H300.828V35.446H308.83V30.6477Z" fill="#4DADAC"/>
</g>
<path d="M300.828 37.3181H308.83V43.2611H300.828V37.3181Z" fill="#4DADAC"/>
<mask id="mask115_182_488" style="mask-type:luminance" maskUnits="userSpaceOnUse" x="300" y="37" width="9" height="7">
<path d="M300.828 37.3181H308.83V43.2611H300.828V37.3181Z" fill="white"/>
</mask>
<g mask="url(#mask115_182_488)">
<path d="M308.83 37.3181H300.828V43.2616H308.83V37.3181Z" fill="#4DADAC"/>
</g>
<path d="M300.828 45.1299H308.83V51.0795H300.828V45.1299Z" fill="#4DADAC"/>
<mask id="mask116_182_488" style="mask-type:luminance" maskUnits="userSpaceOnUse" x="300" y="45" width="9" height="7">
<path d="M300.828 45.1299H308.83V51.0795H300.828V45.1299Z" fill="white"/>
</mask>
<g mask="url(#mask116_182_488)">
<path d="M308.83 45.1299H300.828V51.0795H308.83V45.1299Z" fill="#4DADAC"/>
</g>
<path d="M300.828 52.9521H308.83V58.898H300.828V52.9521Z" fill="#4DADAC"/>
<mask id="mask117_182_488" style="mask-type:luminance" maskUnits="userSpaceOnUse" x="300" y="52" width="9" height="7">
<path d="M300.828 52.9521H308.83V58.898H300.828V52.9521Z" fill="white"/>
</mask>
<g mask="url(#mask117_182_488)">
<path d="M308.83 52.9521H300.828V58.898H308.83V52.9521Z" fill="#4DADAC"/>
</g>
<path d="M300.828 60.7705H308.83V66.4072H300.828V60.7705Z" fill="#4DADAC"/>
<mask id="mask118_182_488" style="mask-type:luminance" maskUnits="userSpaceOnUse" x="300" y="60" width="9" height="7">
<path d="M300.828 60.7705H308.83V66.4072H300.828V60.7705Z" fill="white"/>
</mask>
<g mask="url(#mask118_182_488)">
<path d="M308.83 60.7705H300.828V66.4072H308.83V60.7705Z" fill="#4DADAC"/>
</g>
<path d="M312.845 13.6438H320.847V19.5901H312.845V13.6438Z" fill="#4DADAC"/>
<mask id="mask119_182_488" style="mask-type:luminance" maskUnits="userSpaceOnUse" x="312" y="13" width="9" height="7">
<path d="M312.845 13.6438H320.847V19.5901H312.845V13.6438Z" fill="white"/>
</mask>
<g mask="url(#mask119_182_488)">
<path d="M320.847 13.6438H312.845V19.5901H320.847V13.6438Z" fill="#4DADAC"/>
</g>
<path d="M312.845 21.4622H320.847V27.5771H312.845V21.4622Z" fill="#4DADAC"/>
<mask id="mask120_182_488" style="mask-type:luminance" maskUnits="userSpaceOnUse" x="312" y="21" width="9" height="7">
<path d="M312.845 21.4622H320.847V27.5771H312.845V21.4622Z" fill="white"/>
</mask>
<g mask="url(#mask120_182_488)">
<path d="M320.847 21.4622H312.845V27.5771H320.847V21.4622Z" fill="#4DADAC"/>
</g>
<path d="M312.845 29.4492H320.847V35.4461H312.845V29.4492Z" fill="#4DADAC"/>
<mask id="mask121_182_488" style="mask-type:luminance" maskUnits="userSpaceOnUse" x="312" y="29" width="9" height="7">
<path d="M312.845 29.4492H320.847V35.4461H312.845V29.4492Z" fill="white"/>
</mask>
<g mask="url(#mask121_182_488)">
<path d="M320.847 29.4492H312.845V35.4461H320.847V29.4492Z" fill="#4DADAC"/>
</g>
<path d="M312.845 37.3181H320.847V43.2611H312.845V37.3181Z" fill="#4DADAC"/>
<mask id="mask122_182_488" style="mask-type:luminance" maskUnits="userSpaceOnUse" x="312" y="37" width="9" height="7">
<path d="M312.845 37.3181H320.847V43.2611H312.845V37.3181Z" fill="white"/>
</mask>
<g mask="url(#mask122_182_488)">
<path d="M320.847 37.3181H312.845V43.2616H320.847V37.3181Z" fill="#4DADAC"/>
</g>
<path d="M312.845 45.1299H320.847V51.0795H312.845V45.1299Z" fill="#4DADAC"/>
<mask id="mask123_182_488" style="mask-type:luminance" maskUnits="userSpaceOnUse" x="312" y="45" width="9" height="7">
<path d="M312.845 45.1299H320.847V51.0795H312.845V45.1299Z" fill="white"/>
</mask>
<g mask="url(#mask123_182_488)">
<path d="M320.847 45.1299H312.845V51.0795H320.847V45.1299Z" fill="#4DADAC"/>
</g>
<path d="M312.845 52.9521H320.847V58.898H312.845V52.9521Z" fill="#4DADAC"/>
<mask id="mask124_182_488" style="mask-type:luminance" maskUnits="userSpaceOnUse" x="312" y="52" width="9" height="7">
<path d="M312.845 52.9521H320.847V58.898H312.845V52.9521Z" fill="white"/>
</mask>
<g mask="url(#mask124_182_488)">
<path d="M320.847 52.9521H312.845V58.898H320.847V52.9521Z" fill="#4DADAC"/>
</g>
<path d="M312.845 60.7705H320.847V66.4072H312.845V60.7705Z" fill="#4DADAC"/>
<mask id="mask125_182_488" style="mask-type:luminance" maskUnits="userSpaceOnUse" x="312" y="60" width="9" height="7">
<path d="M312.845 60.7705H320.847V66.4072H312.845V60.7705Z" fill="white"/>
</mask>
<g mask="url(#mask125_182_488)">
<path d="M320.847 60.7705H312.845V66.4072H320.847V60.7705Z" fill="#4DADAC"/>
</g>
<path d="M332.872 40.8674V43.2611H324.87V40.8674H332.872Z" fill="#4DADAC"/>
<mask id="mask126_182_488" style="mask-type:luminance" maskUnits="userSpaceOnUse" x="324" y="40" width="9" height="4">
<path d="M332.872 40.8674V43.2611H324.87V40.8674H332.872Z" fill="white"/>
</mask>
<g mask="url(#mask126_182_488)">
<path d="M332.872 40.8674H324.87V43.2611H332.872V40.8674Z" fill="#4DADAC"/>
</g>
<path d="M324.87 45.1299H332.872V51.0795H324.87V45.1299Z" fill="#4DADAC"/>
<mask id="mask127_182_488" style="mask-type:luminance" maskUnits="userSpaceOnUse" x="324" y="45" width="9" height="7">
<path d="M324.87 45.1299H332.872V51.0795H324.87V45.1299Z" fill="white"/>
</mask>
<g mask="url(#mask127_182_488)">
<path d="M332.872 45.1299H324.87V51.0795H332.872V45.1299Z" fill="#4DADAC"/>
</g>
<path d="M324.87 52.9521H332.872V58.898H324.87V52.9521Z" fill="#4DADAC"/>
<mask id="mask128_182_488" style="mask-type:luminance" maskUnits="userSpaceOnUse" x="324" y="52" width="9" height="7">
<path d="M324.87 52.9521H332.872V58.898H324.87V52.9521Z" fill="white"/>
</mask>
<g mask="url(#mask128_182_488)">
<path d="M332.872 52.9521H324.87V58.898H332.872V52.9521Z" fill="#4DADAC"/>
</g>
<path d="M324.87 60.7705H332.872V66.4072H324.87V60.7705Z" fill="#4DADAC"/>
<mask id="mask129_182_488" style="mask-type:luminance" maskUnits="userSpaceOnUse" x="324" y="60" width="9" height="7">
<path d="M324.87 60.7705H332.872V66.4072H324.87V60.7705Z" fill="white"/>
</mask>
<g mask="url(#mask129_182_488)">
<path d="M332.872 60.7705H324.87V66.4072H332.872V60.7705Z" fill="#4DADAC"/>
</g>
<path d="M344.889 25.5398V27.5771H336.887V25.5398H344.889Z" fill="#4DADAC"/>
<mask id="mask130_182_488" style="mask-type:luminance" maskUnits="userSpaceOnUse" x="336" y="25" width="9" height="3">
<path d="M344.889 25.5398V27.5771H336.887V25.5398H344.889Z" fill="white"/>
</mask>
<g mask="url(#mask130_182_488)">
<path d="M344.889 25.5398H336.887V27.5767H344.889V25.5398Z" fill="#4DADAC"/>
</g>
<path d="M336.887 29.4492H344.889V35.4461H336.887V29.4492Z" fill="#4DADAC"/>
<mask id="mask131_182_488" style="mask-type:luminance" maskUnits="userSpaceOnUse" x="336" y="29" width="9" height="7">
<path d="M336.887 29.4492H344.889V35.4461H336.887V29.4492Z" fill="white"/>
</mask>
<g mask="url(#mask131_182_488)">
<path d="M344.889 29.4492H336.887V35.4461H344.889V29.4492Z" fill="#4DADAC"/>
</g>
<path d="M336.887 37.3181H344.889V43.2611H336.887V37.3181Z" fill="#4DADAC"/>
<mask id="mask132_182_488" style="mask-type:luminance" maskUnits="userSpaceOnUse" x="336" y="37" width="9" height="7">
<path d="M336.887 37.3181H344.889V43.2611H336.887V37.3181Z" fill="white"/>
</mask>
<g mask="url(#mask132_182_488)">
<path d="M344.889 37.3181H336.887V43.2616H344.889V37.3181Z" fill="#4DADAC"/>
</g>
<path d="M336.887 45.1299H344.889V51.0795H336.887V45.1299Z" fill="#4DADAC"/>
<mask id="mask133_182_488" style="mask-type:luminance" maskUnits="userSpaceOnUse" x="336" y="45" width="9" height="7">
<path d="M336.887 45.1299H344.889V51.0795H336.887V45.1299Z" fill="white"/>
</mask>
<g mask="url(#mask133_182_488)">
<path d="M344.889 45.1299H336.887V51.0795H344.889V45.1299Z" fill="#4DADAC"/>
</g>
<path d="M336.887 52.9521H344.889V58.898H336.887V52.9521Z" fill="#4DADAC"/>
<mask id="mask134_182_488" style="mask-type:luminance" maskUnits="userSpaceOnUse" x="336" y="52" width="9" height="7">
<path d="M336.887 52.9521H344.889V58.898H336.887V52.9521Z" fill="white"/>
</mask>
<g mask="url(#mask134_182_488)">
<path d="M344.889 52.9521H336.887V58.898H344.889V52.9521Z" fill="#4DADAC"/>
</g>
<path d="M336.887 60.7705H344.889V66.4072H336.887V60.7705Z" fill="#4DADAC"/>
<mask id="mask135_182_488" style="mask-type:luminance" maskUnits="userSpaceOnUse" x="336" y="60" width="9" height="7">
<path d="M336.887 60.7705H344.889V66.4072H336.887V60.7705Z" fill="white"/>
</mask>
<g mask="url(#mask135_182_488)">
<path d="M344.889 60.7705H336.887V66.4072H344.889V60.7705Z" fill="#4DADAC"/>
</g>
<path d="M348.905 29.4492H356.907V35.4461H348.905V29.4492Z" fill="#4DADAC"/>
<mask id="mask136_182_488" style="mask-type:luminance" maskUnits="userSpaceOnUse" x="348" y="29" width="9" height="7">
<path d="M348.905 29.4492H356.907V35.4461H348.905V29.4492Z" fill="white"/>
</mask>
<g mask="url(#mask136_182_488)">
<path d="M356.907 29.4492H348.905V35.4461H356.907V29.4492Z" fill="#4DADAC"/>
</g>
<path d="M348.905 37.3181H356.907V43.2611H348.905V37.3181Z" fill="#4DADAC"/>
<mask id="mask137_182_488" style="mask-type:luminance" maskUnits="userSpaceOnUse" x="348" y="37" width="9" height="7">
<path d="M348.905 37.3181H356.907V43.2611H348.905V37.3181Z" fill="white"/>
</mask>
<g mask="url(#mask137_182_488)">
<path d="M356.907 37.3181H348.905V43.2616H356.907V37.3181Z" fill="#4DADAC"/>
</g>
<path d="M348.905 45.1299H356.907V51.0795H348.905V45.1299Z" fill="#4DADAC"/>
<mask id="mask138_182_488" style="mask-type:luminance" maskUnits="userSpaceOnUse" x="348" y="45" width="9" height="7">
<path d="M348.905 45.1299H356.907V51.0795H348.905V45.1299Z" fill="white"/>
</mask>
<g mask="url(#mask138_182_488)">
<path d="M356.907 45.1299H348.905V51.0795H356.907V45.1299Z" fill="#4DADAC"/>
</g>
<path d="M348.905 52.9521H356.907V58.898H348.905V52.9521Z" fill="#4DADAC"/>
<mask id="mask139_182_488" style="mask-type:luminance" maskUnits="userSpaceOnUse" x="348" y="52" width="9" height="7">
<path d="M348.905 52.9521H356.907V58.898H348.905V52.9521Z" fill="white"/>
</mask>
<g mask="url(#mask139_182_488)">
<path d="M356.907 52.9521H348.905V58.898H356.907V52.9521Z" fill="#4DADAC"/>
</g>
<path d="M348.905 60.7705H356.907V66.4072H348.905V60.7705Z" fill="#4DADAC"/>
<mask id="mask140_182_488" style="mask-type:luminance" maskUnits="userSpaceOnUse" x="348" y="60" width="9" height="7">
<path d="M348.905 60.7705H356.907V66.4072H348.905V60.7705Z" fill="white"/>
</mask>
<g mask="url(#mask140_182_488)">
<path d="M356.907 60.7705H348.905V66.4072H356.907V60.7705Z" fill="#4DADAC"/>
</g>
</svg>
